<svg id="Capa_1" enable-background="new 0 0 511.987 511.987" height="512" viewBox="0 0 511.987 511.987" width="512" xmlns="http://www.w3.org/2000/svg"><g><g><g><path d="m86.175 185.36v136.979c0 4.773 2.971 8.755 6.729 12.017 93.337 35.345 314.904 18.786 314.904-24.017v-124.979c-79.417 0-295.212 0-321.633 0z" fill="#596c76"/></g><path d="m403.808 185.36v124.979c0 42.244-217.226 59.497-310.913 24.014 28.829 25.049 118.921 31.144 163.097 31.144 93.787 0 169.817-19.322 169.817-43.158v-136.979c-2.184 0-10.048 0-22.001 0z" fill="#465a61"/><g><path d="m244.192 86.818-228.615 81.867c-.919.329-1.753.746-2.515 1.227l2.515 9.903 225.415 79.082 237.93-83.787v-12.686l-211.131-75.606c-7.629-2.731-15.97-2.731-23.599 0z" fill="#8d9ca8"/></g><path d="m496.407 168.685-17.485-6.261c-1.78 1.122 13.957-4.672-231.131 83.093-7.629 2.732-15.97 2.732-23.599 0l-211.131-75.606c-8.18 5.155-7.346 18.208 2.515 21.739l228.616 81.866c7.629 2.732 15.97 2.732 23.599 0l228.616-81.866c10.78-3.86 10.78-19.105 0-22.965z" fill="#7a8c98"/><path d="m372.502 363.558c-7.964 4.77-12.039 12.641-12.039 20.827v37.821c0 2.761 2.239 5 5 5h23.079v-42.821c0-8.905-4.845-16.673-12.039-20.827z" fill="#ffe177"/><path d="m372.502 363.558c7.194 4.154 12.039 11.922 12.039 20.827v42.821h19c2.761 0 5-2.239 5-5v-37.821c0-18.698-20.299-29.917-36.039-20.827z" fill="#ffd15b"/><path d="m394.464 345.588c0-8.039-8.921-14.077-15.962-14.077-8.092 1.883-13.962 7.473-13.962 14.077s5.87 12.193 13.962 14.077c7.089 0 15.962-6.053 15.962-14.077z" fill="#fff0ad"/><path d="m378.502 331.511c18.555 4.319 18.577 23.83 0 28.154 12.816 2.983 25.962-4.082 25.962-14.077 0-10.021-13.18-17.053-25.962-14.077z" fill="#ffe177"/></g><path d="m498.937 161.405-82.321-29.479c-3.896-1.395-8.193.632-9.589 4.533-1.396 3.899.633 8.193 4.533 9.589l82.321 29.479c4.171 1.494 4.167 7.351 0 8.843-19.85 7.108-79.931 28.623-109.225 39.113l-125.869-50.496c-3.844-1.542-8.211.324-9.753 4.168s.324 8.211 4.168 9.753l110.167 44.196c-10.61 3.799-81.627 29.23-98.103 35.13-5.992 2.145-12.599 2.128-18.543 0l-228.617-81.863c-4.17-1.493-4.167-7.351 0-8.843l228.615-81.866c5.967-2.137 12.58-2.136 18.543 0l113.344 40.588c3.898 1.396 8.193-.632 9.589-4.533 1.396-3.899-.633-8.193-4.533-9.589l-113.342-40.589c-9.216-3.301-19.435-3.302-28.657 0l-228.615 81.866c-17.412 6.237-17.387 30.863 0 37.087l65.627 23.501v100.564c0 11.327 9.629 18.643 16.872 23.16.035.022.07.043.106.065 11.2 6.73 27.767 12.48 49.24 17.091 4.054.869 8.038-1.709 8.907-5.759s-1.709-8.038-5.759-8.907c-19.539-4.195-34.961-9.467-44.607-15.249-6.476-4.047-9.759-7.546-9.759-10.401v-95.193l147.988 52.994c9.095 3.256 19.215 3.382 28.656 0l106.682-38.202v82.207c-11.64 2.584-19.962 11.078-19.962 21.442v.001c0 1.059.114 2.428.374 3.728-28.999 5.618-64.56 8.68-101.423 8.68-26.019 0-50.939-1.47-74.069-4.369-4.114-.515-7.859 2.4-8.375 6.509-.515 4.11 2.399 7.859 6.509 8.375 23.746 2.976 49.294 4.485 75.934 4.485 37.875 0 74.497-3.184 104.48-9.008-4.678 5.503-7.51 12.623-7.51 20.395v37.822c0 6.893 5.607 12.5 12.5 12.5h38.079c6.893 0 12.5-5.607 12.5-12.5v-37.822c0-9.543-4.267-18.104-10.986-23.892 3.691-3.353 6.12-7.645 6.745-12.438 14.261-7.365 21.508-15.999 21.508-25.715v-100.562l65.627-23.501c17.412-6.236 17.395-30.86.003-37.088zm-97.894 223.198v35.322h-33.079v-35.322c0-9.12 7.419-16.539 16.54-16.539 9.119-.001 16.539 7.419 16.539 16.539zm-29.001-38.797c0-3.427 5.331-7.258 12.462-7.258 6.591 0 11.711 3.288 12.367 6.555.797 3.961-5.27 7.96-12.367 7.96-7.251 0-12.462-3.934-12.462-7.257zm45.985-118.339.283-.102v95.192c0 2.517-2.95 6.512-10.767 10.984-3.558-4.439-9.028-7.732-15.539-9.178v-87.578l26-9.311c.007-.002.015-.005.023-.007z"/></g></svg>