<svg id="Capa_1" enable-background="new 0 0 512 512" height="512" viewBox="0 0 512 512" width="512" xmlns="http://www.w3.org/2000/svg"><g><g><path d="m134.366 354.926v143.074h61.797l8.411 6.5h30.903l8.411-6.5h61.797v-143.074z" fill="#465a61"/><path d="m212.149 7.5h-27.299c-45.685 0-83.265 35.482-90.191 81.451-2.615 13.688-9.365 37.522-25.352 44.68-2.041.914-1.942 3.848.155 4.626 5.469 2.029 14.358 4.111 25.468 2.429l2.29 55.265h148.118v-154.553z" fill="#ffe177"/><path d="m276.891 158.537h53.607c20.61 0 37.318 16.708 37.318 37.318 0 21.299-17.077 37.547-37.318 37.547h-53.607z" fill="#f89580"/><path d="m220.071 395.873c-25.22 0-45.698-20.441-45.698-45.698v-99.126h91.397v99.126c-.001 25.238-20.46 45.698-45.699 45.698z" fill="#ffa78f"/><path d="m174.373 333.65c28.74 12.974 62.658 12.938 91.397-.142v-82.459h-91.397z" fill="#f89580"/><g><path d="m110.843 354.926c-22.466 0-40.677 18.212-40.677 40.677v108.896h134.408c0-11.261 0-88.03 0-99.385l-70.208-50.188z" fill="#0ed2b3"/></g><path d="m163.251 233.402h-53.607c-20.61 0-37.318-16.708-37.318-37.318 0-21.299 17.077-37.547 37.318-37.547h53.607z" fill="#ffb09e"/><path d="m204.574 363.912-23.887-30.512c-9.017-11.518-26.889-10.586-34.551 2.075l-11.771 19.451 70.208 50.189v-41.203z" fill="#f2fbff"/><g><path d="m214.634 324.721c55.232-5.808 98.278-52.521 98.278-109.292 0-41.406.423-45.433-1.472-56.892-13.193 0-20.034 0-31.431 0-35.524 0-66.116-21.587-79.913-52.631h-6c-2.149 14.714-2.002 32.583 5.924 48.292.965 1.913-.338 4.15-2.42 4.322-27.877-.355-52.202-15.753-65.576-38.627h-6c-18.781 31.214-15.668 56.051-15.668 95.536 0 63.149 52.799 109.292 104.278 109.292z" fill="#ffcebf"/></g><path d="m295.186 233.417c-6.23 0-10.85 0-17.181 0-4.267 0-7.726 3.459-7.726 7.726s3.459 7.726 7.726 7.726h17.181c4.267 0 7.726-3.459 7.726-7.726s-3.459-7.726-7.726-7.726z" fill="#fe8f83"/><path d="m208.408 67.012c57.217 6.017 98.503 54.102 98.503 109.267v38.958c0 56.771-43.046 103.484-98.278 109.292 66.821 7.028 122.278-44.913 122.278-109.292v-38.958c.001-64.204-55.349-116.467-122.503-109.267z" fill="#ffb09e"/><path d="m144.617 233.417h17.181c4.267 0 7.726 3.459 7.726 7.726s-3.459 7.726-7.726 7.726c-6.23 0-10.85 0-17.181 0-4.267 0-7.726-3.459-7.726-7.726s3.459-7.726 7.726-7.726z" fill="#fe8f83"/><path d="m125.307 119.894c13.531 23.142 38.269 38.644 66.557 38.644h4.763c2.23 0 3.68-2.348 2.675-4.339-7.925-15.709-8.073-33.578-5.924-48.292 13.797 31.043 44.389 52.631 79.913 52.631h48.363c2.12 0 3.627-2.086 2.926-4.087-1.576-4.497-2.892-9.482-3.884-14.972 1.136.295 2.246.536 3.343.752-30.833-88.19-150.887-99.856-198.732-20.337z" fill="#ffb09e"/><path d="m372.197 133.644c-18.295-8.161-24.509-38.158-26.267-49.866-3.87-42.765-39.799-76.278-83.572-76.278h-28c43.773 0 79.701 33.513 83.571 76.277 1.758 11.708 7.972 41.706 26.267 49.866 2.023.902 1.899 3.839-.178 4.61-6.396 2.374-17.477 4.82-31.321 1.224.993 5.49 2.308 10.476 3.884 14.972.701 2-.806 4.087-2.926 4.087h28c2.12 0 3.627-2.086 2.926-4.087-1.576-4.497-2.892-9.482-3.884-14.972 13.844 3.596 24.925 1.15 31.321-1.224 2.078-.77 2.202-3.707.179-4.609z" fill="#ffd15b"/><path d="m261.93 330.662c-2.131 1.976.02-.567-26.453 33.25v21.187l2.936 4.684 39.272-24.558c0-12.75 0-4.603 0-34.563z" fill="#f2fbff"/><path d="m293.914 335.475c-6.99-11.551-22.475-13.334-31.984-4.813 3.046 2.733 2.895 3.012 15.755 24.264l-42.208 30.172v20.016l70.208-50.188z" fill="#dff6fd"/><path d="m332.824 360.245c-3.079-1.665-6.449-2.724-9.927-3.119l-17.509-1.987.297-.213-70.208 50.188v99.386h62.988l4.216-6.5h44.482v-113.699c0-10.043-5.505-19.278-14.339-24.056z" fill="#0ed2b3"/><path d="m341.885 395.604v102.396h28c0-25.728 0-90.769 0-102.396 0-22.465-18.212-40.677-40.677-40.677h-23.523l-.297.213c20.502 2.091 36.497 19.409 36.497 40.464z" fill="#0ab69f"/><path d="m324.267 504.5h-25.802v-106.718c0-4.418 3.582-8 8-8h17.802z" fill="#7a8c98"/><path d="m420.161 389.782c-8.626 0-85.451 0-95.894 0v114.718h103.894v-106.718c0-4.418-3.582-8-8-8z" fill="#b6c4cf"/><path d="m436.161 389.782h-22c4.418 0 8 3.582 8 8v106.718h22v-106.718c0-4.418-3.582-8-8-8z" fill="#9facba"/><path d="m409.807 445.578h-51.187c-2.761 0-5-2.239-5-5v-17c0-2.761 2.239-5 5-5h51.187c2.761 0 5 2.239 5 5v17c0 2.762-2.238 5-5 5z" fill="#f2fbff"/><g><path d="m316.582 154.45c-1.576-4.497-2.892-9.482-3.884-14.972 13.844 3.596 24.925 1.15 31.321-1.224 2.077-.771 2.201-3.708.178-4.61-18.295-8.161-24.509-38.158-26.267-49.866-3.87-42.765-39.799-76.278-83.572-76.278h-49.508c-18.704 0-36.045 5.954-50.485 16.134v55.667c0 43.761 34.698 79.236 77.499 79.236h4.763c2.23 0 3.68-2.348 2.675-4.339-7.925-15.709-8.073-33.578-5.924-48.292 13.797 31.043 44.389 52.631 79.913 52.631h20.363c2.122 0 3.629-2.086 2.928-4.087z" fill="#ffe177"/></g></g><g><path d="m219.902 279.512c17.051 0 30.923-13.872 30.923-30.923 0-4.142-3.358-7.5-7.5-7.5s-7.5 3.358-7.5 7.5c0 8.78-7.143 15.923-15.923 15.923s-15.923-7.143-15.923-15.923c0-4.142-3.358-7.5-7.5-7.5s-7.5 3.358-7.5 7.5c-.001 17.051 13.871 30.923 30.923 30.923z"/><path d="m166.066 186.303c-4.142 0-7.5 3.358-7.5 7.5v20.31c0 4.142 3.358 7.5 7.5 7.5s7.5-3.358 7.5-7.5v-20.31c0-4.142-3.358-7.5-7.5-7.5z"/><path d="m273.737 221.613c4.142 0 7.5-3.358 7.5-7.5v-20.31c0-4.142-3.358-7.5-7.5-7.5s-7.5 3.358-7.5 7.5v20.31c0 4.142 3.358 7.5 7.5 7.5z"/><path d="m444.16 459.206c4.142 0 7.5-3.358 7.5-7.5v-53.924c0-8.547-6.953-15.5-15.5-15.5h-60.655c-5.851-20.266-24.714-34.856-46.297-34.856h-19.295l-9.583-15.834c-4.853-8.021-13.331-13.144-22.676-13.706-.031-.002-.062-.001-.093-.003 28.82-16.174 50.158-44.151 57.42-77.338 26.245-2.945 40.335-24.285 40.335-44.461v-.229c0-15.188-7.991-31.031-23.133-39.199.347-3.059-.562-4.551-1.601-7.996 8.531.575 16.834-.698 24.048-3.375 8.435-3.133 8.704-14.89.622-18.491-12.027-5.365-19.176-26.163-21.874-43.92-4.341-46.67-43.589-82.874-91.02-82.874h-77.508c-26.356 0-50.292 10.894-67.996 28.626-2.927 2.931-2.923 7.68.008 10.606 2.93 2.926 7.679 2.924 10.606-.008 14.956-14.976 35.115-24.224 57.382-24.224h77.508c39.802 0 72.519 29.858 76.102 69.453.014.146.031.292.053.438 2.06 13.719 7.333 35.959 20.533 48.69-5.493.548-11.047.045-16.462-1.362-5.31-1.376-10.236 3.227-9.266 8.593.638 3.532 1.42 6.952 2.336 10.225-45.818 0-44.2.082-48.209-.219-50.328-3.785-67.246-48.231-67.953-49.231-2.983-4.22-9.162-4.218-12.169-.104-1.127 1.542-1.641 2.903-2.314 11.943-.952 12.626.162 25.591 4.707 37.579-26.342-.807-49.575-16.417-60.85-40.374-4.507-9.579-3.586-14.061-9.762-15.079-4.528-.755-6.747 1.935-11.526 7.952-.048.061-.098.121-.145.181-11.831 14.954-19.308 32.323-22.621 47.629-.641.064-1.281.142-1.925.235l-.463-11.174c-.185-4.454-4.199-7.772-8.618-7.105-3.888.59-7.929.657-11.378.313 10.735-10.358 17.568-29.718 19.647-43.515 1.273-8.455 3.689-16.66 7.18-24.387 1.705-3.775.028-8.217-3.747-9.923-3.776-1.707-8.218-.028-9.923 3.747-4.037 8.935-6.835 18.415-8.32 28.178-3.967 20.646-11.626 34.895-21.025 39.103-8.094 3.625-7.834 15.365.612 18.502 6.337 2.351 13.56 3.621 20.907 3.506l.326 7.869c-3.957 2.13-7.567 4.835-10.714 8.081-8.091 8.345-12.546 19.394-12.546 31.111v.229c0 11.72 4.454 22.769 12.542 31.111 7.184 7.41 16.772 12.016 27.454 13.315 7.356 33.9 29.202 61.653 57.377 77.394-9.267.622-17.66 5.724-22.479 13.688l-9.582 15.834h-19.295c-26.565 0-48.177 21.612-48.177 48.177v108.897c0 4.142 3.358 7.5 7.5 7.5h373.995c4.142 0 7.5-3.358 7.5-7.5v-17.794c0-4.142-3.358-7.5-7.5-7.5s-7.5 3.358-7.5 7.5v10.294h-104.893v-99.718h104.394c.276 0 .5.224.5.5v53.924c-.001 4.142 3.357 7.5 7.499 7.5zm-232.086-71.678v-23.615c0-1.676-.562-3.304-1.594-4.623-10.802-13.798-21.999-28.311-24.621-31.394 10.912 3.23 22.638 4.938 34.433 4.938 11.807 0 23.209-1.759 33.966-5.016-2.729 3.188-13.941 17.748-24.686 31.472-1.033 1.319-1.594 2.947-1.594 4.623v23.634c-5.175 1.09-10.641 1.102-15.904-.019zm75.423-48.17 8.174 13.507-19.676 14.065v-1.706c0-4.142-3.358-7.5-7.5-7.5s-7.5 3.358-7.5 7.5v12.429l-18.019 12.88v-24.035l21.325-27.241c1.605-1.952 5.066-6.84 12.452-6.398 4.493.271 8.408 2.639 10.744 6.499zm72.819-143.274c0 12.288-8 25.232-23.005 28.837.212-2.549.384-6.391.384-9.492v-38.958c0-3.837-.298-8.381-.388-9.491 15.141 3.511 23.009 16.259 23.009 28.874zm-257.794 28.816c-14.803-3.634-22.696-16.552-22.696-28.816v-.229c0-12.264 7.888-25.18 22.684-28.815-.357 4.947-.445 6.682-.395 29.56.011 5.258.025 11.449.025 18.829-.001 3.167.164 6.854.382 9.471zm15.883 6.553c-1.639-10.435-1.266-13.521-1.266-53.936.262-21.38 5.359-40.84 18.536-59.766 14.079 28.874 42.937 48.286 76.189 48.286h4.763c7.753 0 12.89-8.23 9.372-15.217-2.924-5.795-4.84-12.358-5.727-19.595 18.01 21.9 44.745 34.812 73.02 34.812h28.844c.394 3.836.559 7.185.559 10.435 0 41.742.378 44.851-1.329 55.415-8.065 49.709-52.275 88.331-106.393 85.812-48.994-2.483-89.066-39.062-96.568-86.246zm34.148 107.905c2.336-3.86 6.252-6.229 10.744-6.499 7.046-.425 10.247 3.71 12.62 6.613l21.156 27.025v24.035l-17.929-12.817v-12.493c0-4.142-3.358-7.5-7.5-7.5s-7.5 3.358-7.5 7.5v1.77c-11.82-8.45-12.557-8.977-19.765-14.129zm-74.888 56.246c0-18.294 14.883-33.177 33.177-33.177h21.117l32.184 23.007v68.873c0 4.142 3.358 7.5 7.5 7.5s7.5-3.358 7.5-7.5v-58.15l17.929 12.817v88.026h-119.407zm134.409 7.167c5.28.799 10.67.797 15.903.013v94.216h-15.903c0-10.796 0-85.881 0-94.229zm104.693 94.229h-10.802v-99.218c0-.276.224-.5.5-.5h10.302zm-10.302-114.718c-8.547 0-15.5 6.953-15.5 15.5v99.218h-47.988v-88.027l18.019-12.88v58.214c0 4.142 3.358 7.5 7.5 7.5s7.5-3.358 7.5-7.5v-68.937l32.095-22.943h21.117c13.349 0 25.187 8.101 30.378 19.856-10.192-.001-42.91-.001-53.121-.001z"/><path d="m358.62 411.079c-6.893 0-12.5 5.607-12.5 12.5v17c0 6.893 5.607 12.5 12.5 12.5h51.188c6.893 0 12.5-5.607 12.5-12.5v-17c0-6.893-5.607-12.5-12.5-12.5zm48.687 27h-46.187v-12h46.188v12z"/></g></g></svg>