<svg id="Capa_1" enable-background="new 0 0 511.938 511.938" height="512" viewBox="0 0 511.938 511.938" width="512" xmlns="http://www.w3.org/2000/svg"><g><g><path d="m324.16 340.213c11.205-2.548 19.572-12.564 19.572-24.541v-11.779c0-13.904-11.271-25.175-25.175-25.175-6.504 0-12.831 0-19.971 0v25.118h.002s0 0-.001 0c0 .019-.001.038-.001.057v11.779c0 13.827 11.224 25.175 25.175 25.175h4.796c.196 0 .39-.01.585-.015-1.717-.051-3.145-.201-4.982-.619z" fill="#ae6c6c"/><path d="m342.987 253.543v-11.779c0-11.976-8.364-21.991-19.567-24.54 1.84-.418 3.269-.569 4.985-.62-.198-.005-.394-.015-.592-.015-5.032 0-7.044-.139-10.468.65-5.181 8.737-11.505 16.714-18.759 23.737v37.741h19.227c13.903.001 25.174-11.27 25.174-25.174z" fill="#ae6c6c"/><path d="m303.202 495.929h49.445v-90.698c0-21.888-17.744-39.632-39.632-39.632h-14.841c1.542 3.017 1.372 6.84-1.001 9.772l-33.036 40.819c-2.876 3.554-7.961 4.386-11.82 1.934l-7.793-4.951v91.181h52.74z" fill="#62dbfb"/><path d="m303.202 495.929h49.445v-90.698c0-21.888-17.744-39.632-39.632-39.632h-14.841c1.542 3.017 1.372 6.84-1.001 9.772l-18.584 22.962v106.02h18.675z" fill="#01d0fb"/><path d="m328.557 278.718c-5.6 0-10.761 0-16 0 13.904 0 25.175 11.271 25.175 25.175v11.779c0 11.977-8.366 21.993-19.572 24.541 3.393.772 5.386.634 10.397.634 13.904 0 25.175-11.271 25.175-25.175v-11.779c0-13.904-11.271-25.175-25.175-25.175z" fill="#9b5e5e"/><path d="m327.813 216.589c-5.003 0-6.993-.138-10.393.635 11.203 2.55 19.567 12.565 19.567 24.54v11.779c0 13.904-11.271 25.175-25.175 25.175h16c13.904 0 25.175-11.271 25.175-25.175v-11.779c0-13.904-11.271-25.175-25.174-25.175z" fill="#9b5e5e"/><path d="m151.143 385.574 24.779 30.616c2.876 3.554 7.961 4.386 11.82 1.934l8.107-5.15v91.38h48.676v-91.181l7.793 4.951c3.859 2.452 8.944 1.62 11.82-1.934l24.779-30.616z" fill="#c8effe"/><g><path d="m187.742 418.125c-3.859 2.452-8.944 1.62-11.82-1.934l-33.036-40.819c-2.373-2.932-2.544-6.755-1.001-9.772h-14.527c-21.888 0-39.631 17.744-39.631 39.632v99.124h108.122v-91.38z" fill="#62dbfb"/></g><path d="m267.032 345.05h-94.003v11.902l47.001 40.66 47.002-40.359z" fill="#ffa78f"/><path d="m267.032 258.363h-94.003v86.687c28.892 13.042 63.746 13.655 94.003.007z" fill="#f89580"/><path d="m173.029 351.62-26.251 9.645c-5.789 2.127-7.771 9.314-3.891 14.107l33.036 40.819c2.876 3.554 7.961 4.386 11.82 1.934l32.288-20.513z" fill="#f2fbff"/><path d="m267.032 351.62-47.001 45.992 32.288 20.513c3.859 2.452 8.944 1.62 11.82-1.934l33.036-40.819c3.88-4.794 1.897-11.981-3.891-14.107z" fill="#f2fbff"/><path d="m293.282 361.264-26.251-9.644-5.459 5.341 11.713 4.303c5.789 2.127 7.771 9.314 3.891 14.108l-31.293 38.665 6.434 4.088c3.859 2.452 8.944 1.62 11.82-1.934l33.036-40.819c3.88-4.794 1.898-11.981-3.891-14.108z" fill="#dff6fd"/><path d="m76.804 137.695 11.508 63.808h127.938v-193.992h-30.641c-68.915 0-121.037 62.362-108.805 130.184z" fill="#ae6c6c"/><path d="m161.547 240.146h-55.341c-21.277 0-38.525-17.248-38.525-38.525v-.237c0-21.277 17.248-38.525 38.525-38.525h55.341z" fill="#ffb09e"/><path d="m278.863 162.86h55.341c21.277 0 38.525 17.248 38.525 38.525v.237c0 21.277-17.248 38.525-38.525 38.525h-55.341z" fill="#f89580"/><path d="m314.69 220.388c0-44.294.122-43.421-.397-49.695-15.028 0-65.408 0-81.107 0-43.472 0-79.168-33.237-83.098-75.683h-3.999c-26.824 23.346-39.886 54.491-39.886 86.364v40.217c0 53.658 37.882 102.474 96.092 112.136 60.869.001 112.395-50.165 112.395-113.339z" fill="#ffcebf"/><g fill="#fe8f83"><path d="m295.477 251.68c-6.229 0-10.848 0-17.178 0-4.266 0-7.725 3.459-7.725 7.725s3.459 7.725 7.725 7.725h17.178c4.266 0 7.725-3.459 7.725-7.725s-3.459-7.725-7.725-7.725z"/><path d="m144.933 251.68h17.178c4.266 0 7.725 3.459 7.725 7.725s-3.459 7.725-7.725 7.725c-6.229 0-10.848 0-17.178 0-4.266 0-7.725-3.459-7.725-7.725s3.459-7.725 7.725-7.725z"/></g><path d="m214.599 68.034c54.417 8.359 96.092 55.38 96.092 112.137v40.217c0 60.964-48.085 110.691-108.397 113.34 70.039 10.762 131.597-42.92 131.597-112.136v-40.217c-.001-63.509-52.5-116.275-119.292-113.341z" fill="#ffb09e"/><path d="m356.66 170.693v-66.186c-6.581-53.685-52.339-96.996-109.77-96.996-7.592 0-54.75 0-61.281 0-6.813 0-13.46.611-19.899 1.776v77.935c0 46.1 37.372 83.472 83.472 83.472h107.478z" fill="#bc7c63"/><path d="m229.186 170.693h104.201c-8.642-92.526-118.416-134.419-187.299-75.683 3.93 42.446 39.625 75.683 83.098 75.683z" fill="#ffb09e"/><g><path d="m222.214 7.511c-44.063-.258-47.017.06-56.504 1.776v77.935c0 45.331 36.142 82.196 81.18 83.414v.058h81.774v-66.186c-6.538-53.338-51.755-96.452-108.687-96.992z" fill="#ae6c6c"/></g><path d="m246.89 7.511c-3.512 0-15.489 0-27.995 0 57.43 0 103.189 43.311 109.769 96.996v66.186h27.995v-66.186c-6.58-53.685-52.338-96.996-109.769-96.996z" fill="#9b5e5e"/><path d="m328.557 340.866c-4.983 0-7.001-.139-10.397.633 11.207 2.547 19.574 12.564 19.574 24.542v11.779c0 11.978-8.367 21.994-19.574 24.542 3.397.772 5.393.633 10.397.633 13.904 0 25.175-11.271 25.175-25.175v-11.779c0-13.904-11.271-25.175-25.175-25.175z" fill="#aa6a51"/><path d="m339.734 377.819v-11.779c0-14.419-12.163-24.542-21.574-24.542-11.691 2.719-19.574 12.989-19.574 24.542v11.779c0 11.754 8.108 21.902 19.574 24.542 9.153 0 21.574-9.851 21.574-24.542z" fill="#ae6c6c"/><path d="m328.557 340.866c-4.983 0-7.001-.139-10.397.633 11.207 2.547 19.574 12.564 19.574 24.542v11.779c0 11.978-8.367 21.994-19.574 24.542 3.397.772 5.393.633 10.397.633 13.904 0 25.175-11.271 25.175-25.175v-11.779c0-13.904-11.271-25.175-25.175-25.175z" fill="#9b5e5e"/><path d="m323.062 504.355h-25.797v-106.7c0-4.418 3.581-7.999 7.999-7.999h17.799v114.699z" fill="#f07281"/><path d="m424.938 397.728c0-4.418-3.581-7.999-7.999-7.999h19.022c-.336-.043-.677-.073-1.025-.073h-111.874v114.699h101.876z" fill="#f8a5af"/><path d="m434.937 389.729h-21.996c4.418 0 7.999 3.581 7.999 7.999v106.7h21.996v-106.7c-.001-4.418-3.582-7.999-7.999-7.999z" fill="#f58a97"/><path d="m408.588 445.443h-51.179c-2.761 0-4.999-2.238-4.999-4.999v-16.997c0-2.761 2.238-4.999 4.999-4.999h51.179c2.761 0 4.999 2.238 4.999 4.999v16.997c0 2.761-2.238 4.999-4.999 4.999z" fill="#f2fbff"/></g><g><path d="m220.03 290.127c17.469 0 31.681-14.212 31.681-31.681 0-4.142-3.358-7.5-7.5-7.5s-7.5 3.358-7.5 7.5c0 9.198-7.483 16.681-16.681 16.681s-16.681-7.483-16.681-16.681c0-4.142-3.358-7.5-7.5-7.5s-7.5 3.358-7.5 7.5c0 17.469 14.212 31.681 31.681 31.681z"/><path d="m275.607 220.173c4.143 0 7.5-3.358 7.5-7.5v-13.467h1.087c4.143 0 7.5-3.358 7.5-7.5s-3.357-7.5-7.5-7.5h-8.587c-4.143 0-7.5 3.358-7.5 7.5v20.967c0 4.142 3.357 7.5 7.5 7.5z"/><path d="m155.866 199.206h1.087v13.467c0 4.142 3.358 7.5 7.5 7.5s7.5-3.358 7.5-7.5v-20.967c0-4.142-3.358-7.5-7.5-7.5h-8.587c-4.142 0-7.5 3.358-7.5 7.5s3.358 7.5 7.5 7.5z"/><path d="m444.257 459.221c4.143 0 7.5-3.358 7.5-7.5v-53.983c0-8.546-6.953-15.499-15.499-15.499h-75.326c.193-1.436.299-2.884.299-4.337v-11.779c0-10.124-4.628-19.186-11.88-25.184 7.251-5.998 11.88-15.061 11.88-25.184v-11.779c0-10.119-4.624-19.177-11.869-25.175 7.245-5.998 11.869-15.056 11.869-25.175v-14.621c12.464-8.912 18.996-23.378 18.996-37.301v-.237c0-13.557-5.826-26.137-16.068-34.906 0-66.26.031-62.178-.056-62.885-1.739-14.183-6.021-27.814-12.729-40.515-.005-.01-.01-.02-.016-.03-20.546-38.884-60.573-63.037-104.468-63.037-56.776 0-71.07-.746-82.849 1.964-20.486 3.766-39.676 12.981-55.512 26.663-3.134 2.708-3.48 7.444-.772 10.579 2.708 3.134 7.444 3.48 10.579.772 15.78-13.633 30.614-19.267 49.026-23.378 12.483-2.235 16.535-1.599 79.528-1.599 38.329 0 73.283 21.103 91.221 55.073 0 .001.001.002.001.003 5.78 10.948 9.496 22.683 11.047 34.886v58.22c-4.467 0-7.366 0-11.759 0-3.582-4.737-9.283-7.67-15.509-7.67h-74.281c-5.463 0-10.553 2.305-14.07 5.995-1.155-.239-2.277-.505-3.386-.786-29.624-7.68-52.183-33.015-56.284-63.587-.78-5.83-.66-10.039-.66-15.597 0-2.643-1.391-5.091-3.662-6.444-2.27-1.352-5.086-1.409-7.41-.151-30.528 16.537-53.025 45.716-60.661 80.646-4.336.439-8.893 1.549-13.213 3.384-4.288-23.778-5.747-29.597-5.747-41.14 0-18.646 5.133-36.98 14.844-53.02 2.146-3.543 1.012-8.155-2.531-10.3-3.543-2.146-8.155-1.012-10.3 2.531-11.13 18.382-17.013 39.402-17.013 60.788 0 13.247 1.579 19.371 7.12 50.097-8.891 8.397-14.456 20.28-14.456 33.446v.237c0 23.775 18.122 43.397 41.278 45.78 7.916 36.519 32.285 66.512 64.069 82.372v16.611l-21.338 7.839c-2.288.841-4.313 2.188-5.99 3.875h-10.843c-25.988 0-47.131 21.143-47.131 47.132v99.124c0 4.142 3.358 7.5 7.5 7.5h356.53c4.143 0 7.5-3.358 7.5-7.5v-17.717c0-4.142-3.357-7.5-7.5-7.5s-7.5 3.358-7.5 7.5v10.217h-104.873v-99.699h104.375c.275 0 .499.224.499.499v53.983c0 4.141 3.357 7.499 7.5 7.499zm-294.893-90.833 21.805-8.011 36.853 36.062c-20.262 12.873-14.222 9.035-24.302 15.439-.564.358-1.464.302-1.968-.322l-33.036-40.82c-.635-.784-.32-1.993.648-2.348zm106.976 43.49-24.302-15.439 36.853-36.062c.318.117 21.912 8.014 22.185 8.215-.005.69-.017 1.845-.023 2.459-2.456 3.201-10.813 13.405-32.743 40.505-.481.592-1.329.729-1.97.322zm37.291-58.393-19.1-7.017v-16.63c5.887-2.956 11.499-6.379 16.791-10.22 1.012 8.548 5.329 16.098 11.644 21.321-4.044 3.345-7.27 7.643-9.335 12.546zm44.997-106.019c2.416-.226 4.955-.63 7.604-1.331v7.492c0 8.973-6.722 16.405-15.393 17.528 3.469-7.726 6.075-15.791 7.789-23.689zm7.604 56.51v11.779c0 9.746-7.929 17.675-17.675 17.675h-4.796c-9.746 0-17.675-7.929-17.675-17.675v-8.677c6.267-6.286 11.825-13.241 16.578-20.743.861-.054 1.247-.035 5.893-.035 9.746.001 17.675 7.93 17.675 17.676zm8.676-125.581c6.588 5.891 10.319 14.172 10.319 23.073v.237c0 12.872-8.434 26.435-24.244 30.078.604-8.022.422-17.296.422-53.507 0 0 .477.119 13.503.119zm-33.016-7.789c2.178 0 4.155 1.621 4.443 3.95.074 1.89.055 7.297.055 33.701 0 13.404-10.905 24.309-24.309 24.309h-34.659c-13.404 0-24.309-10.905-24.309-24.309v-33.153c0-2.407 2.006-4.498 4.498-4.498zm-109.946 23.48c0-20.789.215-20.761-.714-24.139 5.276 2.422 10.441 4.265 16.291 5.672.197.048.393.096.59.143v18.325h-16.167zm-53.418-99.161c1.885 22.546 12.319 44.631 30.589 60.681-77.101 0-70.758-.032-72.224.066 6.304-25.023 21.554-46.484 41.635-60.747zm-44.826 86.533c0-2.347.101-5.149.315-7.977.654-1.678 2.276-2.875 4.183-2.875h74.25c2.48 0 4.498 2.018 4.498 4.498v33.153c0 13.404-10.905 24.309-24.309 24.309h-34.626c-13.404 0-24.309-10.905-24.309-24.309v-26.799zm-14.567 50.458c-13.711-3.208-23.954-15.537-23.954-30.211v-.237c0-14.545 10.102-26.941 23.903-30.193-.488 2.44-.382 3.485-.382 10.183v26.799c0 13.958-.105 17.153.429 23.582.002.026.002.052.004.077zm16.229 8.441c6.407 4.534 14.218 7.21 22.647 7.21h34.626c21.397 0 38.844-17.187 39.288-38.48h16.209c.444 21.293 17.891 38.48 39.288 38.48h34.659c8.425 0 16.233-2.673 22.639-7.204-8.977 50.442-54.231 89.87-110.111 87.111-49.818-2.672-90.663-39.416-99.245-87.117zm105.068 102.276c13.677 0 26.829-2.285 39.1-6.488v12.404l-31.422 30.747-8.08 7.906-39.501-38.653v-12.407c12.889 4.367 26.64 6.491 39.903 6.491zm-125.205 62.682c0-17.718 14.414-32.132 32.131-32.132h6.381c.264 1.257.674 2.484 1.224 3.652.002.005.005.01.007.015 1.449 3.069 1.499 2.598 35.122 44.142 4.347 5.372 11.68 7.498 18.257 5.203v70.743h-93.122zm108.122 11.864 16.681-10.598 1.126.715 15.869 10.082v79.56h-33.676zm48.676 9.122c6.486 2.122 13.671-.03 17.943-5.309 7.428-9.178 12.609-15.568 19.356-23.888.733-.904 1.431-1.765 2.097-2.585-.255 1.202-.335 2.341-.335 3.218v99.2h-39.062v-70.636zm64.858 70.637h-10.797v-99.2c0-.27.256-.499.498-.499h10.299zm-10.265-114.698c-.329-1.442-.48-3.065-.544-5.093 0 0 .012-4.786.012-11.022 0-9.746 7.929-17.675 17.675-17.675h4.796c9.746 0 17.675 7.929 17.675 17.675v11.779c0 1.485-.179 2.935-.532 4.337-15.69-.001-26.801-.001-39.082-.001z"/><path d="m358.731 411.031c-6.892 0-12.499 5.607-12.499 12.499v16.997c0 6.892 5.607 12.5 12.499 12.5h51.179c6.892 0 12.499-5.607 12.499-12.5v-16.997c0-6.892-5.607-12.499-12.499-12.499zm48.677 26.996h-46.177v-11.996h46.177z"/></g></g></svg>