<svg id="Capa_1" enable-background="new 0 0 512 512" height="512" viewBox="0 0 512 512" width="512" xmlns="http://www.w3.org/2000/svg"><g><g><path d="m134.094 71.507c-3.628 11.183-5.385 23.269-4.865 35.831l3.627 87.557h148.471v-123.388z" fill="#bc7c63"/><path d="m402.819 445.749h-315.705l4.055.428-1.177 14.996-3.924-.419c-1.19 17.08-1.908 27.392-3.048 43.746h321.885l1.865-2.021z" fill="#596c76"/><path d="m199.044 232.436h-53.735c-20.659 0-37.407-16.747-37.407-37.407v-.23c0-20.659 16.747-37.407 37.407-37.407h53.735z" fill="#ffb09e"/><path d="m312.956 157.393h53.735c20.659 0 37.407 16.747 37.407 37.407v.23c0 20.659-16.747 37.407-37.407 37.407h-53.735z" fill="#f89580"/><path d="m399.956 404.661c-2.014-28.914-26.057-51.34-55.041-51.34h-199.897c-28.984 0-53.027 22.426-55.041 51.339l-2.863 41.088 4.055.428-.588 7.494 154.743 16.54c7.328.783 14.718.783 22.046 0l136.138-14.552z" fill="#7a8c98"/><path d="m422.023 404.661c-2.014-28.914-26.057-51.34-55.041-51.34h-24.073c28.984 0 53.027 22.426 55.041 51.34l6.956 99.839h24.073z" fill="#596c76"/><path d="m325.004 383.819 7.519-30.499h-152.349l7.519 30.499c8.163 33.11 36.376 56.207 68.656 56.207 32.28.001 60.492-23.097 68.655-56.207z" fill="#b6c4cf"/><path d="m210.193 335.725h.145l45.492 35.304 45.831-35.304h.146v-2.791h-91.614z" fill="#ffa78f"/><path d="m210.193 332.934c28.808 13.005 62.807 12.97 91.614-.142v-88.682h-91.614z" fill="#f89580"/><path d="m256 371.029h-.169-23.114v16.324l7.956 25.68h19.693c1.382-4.461 11.636-37.56 13.013-42.003h-17.379z" fill="#f07281"/><path d="m241.373 417.905-1.847 1.338-3.269 17.706c8.122 2.542 16.626 3.533 25.153 2.884v-21.927h-20.037z" fill="#f07281"/><path d="m271.372 371.029c-1.377 4.443-11.631 37.542-13.013 42.003h12.799l7.956-25.68v-16.324h-7.742z" fill="#eb5569"/><path d="m275.7 437.167-3.31-17.924-1.147-6.21h-30.571l-.741 4.012-.406 2.198h15.577c1.451 0 2.696 1.036 2.959 2.463l3.347 18.127c4.9-.373 9.682-1.281 14.292-2.666z" fill="#eb5569"/><path d="m210.193 335.612-28.397 15.263c-3.057 1.643-3.559 5.82-.979 8.141l37.501 33.729c1.74 1.565 4.331 1.718 6.243.368l31.27-22.083z" fill="#f2fbff"/><path d="m330.035 350.874-28.397-15.262-9.85 7.644 14.175 7.618c3.057 1.643 3.559 5.821.979 8.141l-29.888 26.882 10.217 7.215c1.912 1.35 4.503 1.197 6.243-.367l37.501-33.73c2.579-2.32 2.076-6.497-.98-8.141z" fill="#dff6fd"/><path d="m277.053 385.898 29.888-26.882c2.58-2.32 2.078-6.498-.979-8.141l-14.175-7.618-35.787 27.772z" fill="#f2fbff"/><path d="m342.401 134.246v23.146h-33.066c-35.609 0-66.273-21.639-80.103-52.756-2.217 15.184-1.996 33.719 6.66 49.793.722 1.34-.231 2.964-1.753 2.964h-6.426c-28.351 0-53.146-15.534-66.71-38.726-10.533 17.897-15.698 36.677-15.698 56.703v39.05c0 63.269 53.151 109.74 104.522 109.74 56.32-4.891 100.51-52.151 100.51-109.74v-39.05c.001-14.853-2.833-28.163-7.936-41.124z" fill="#ffcebf"/><path d="m332.274 242.109c-6.248 0-10.881 0-17.23 0-4.279 0-7.748 3.469-7.748 7.748s3.469 7.748 7.748 7.748h17.23c4.279 0 7.748-3.469 7.748-7.748s-3.469-7.748-7.748-7.748z" fill="#fe8f83"/><path d="m180.392 242.109h17.23c4.279 0 7.748 3.469 7.748 7.748s-3.469 7.748-7.748 7.748c-6.248 0-10.881 0-17.23 0-4.279 0-7.748-3.469-7.748-7.748s3.468-7.748 7.748-7.748z" fill="#fe8f83"/><path d="m309.335 157.393h33.066v-23.146c-11.758-29.196-35.66-52.191-65.452-62.739h-58.254c-24.262 8.59-44.62 25.432-57.691 47.16 13.564 23.192 38.359 38.726 66.71 38.726h6.426c1.522 0 2.475-1.623 1.753-2.964-8.656-16.074-8.878-34.609-6.66-49.793 13.829 31.117 44.493 52.756 80.102 52.756z" fill="#ffb09e"/><path d="m293.016 71.507h-20.079c42.757 15.138 73.389 55.918 73.389 103.863v39.05c0 57.589-44.19 104.849-100.51 109.74 66.647 5.795 120.571-46.334 120.571-109.74v-39.05c-.001-47.938-30.623-88.718-73.371-103.863z" fill="#ffb09e"/><path d="m360.367 71.507h-190.276v6.461c0 43.866 34.78 79.425 77.683 79.425h6.426c1.522 0 2.475-1.623 1.753-2.964-8.656-16.074-8.878-34.609-6.66-49.793 13.83 31.117 44.494 52.756 80.103 52.756h33.066c-.001-74.639.555-74.168-2.095-85.885z" fill="#bc7c63"/><path d="m421.309 461.322-1.497-14.971 5.078-.529-2.868-41.161c-2.014-28.914-26.057-51.34-55.041-51.34h-24.073c28.984 0 53.027 22.426 55.041 51.34l6.956 99.839h24.073l-3.043-43.672z" fill="#465a61"/><path d="m419.813 446.351 5.078-.529c-3.103-44.538-2.647-47.086-6.211-56.636 0-.001-.001-.002-.001-.003-7.764-20.8-27.883-35.862-51.696-35.862h-24.073c28.984 0 53.027 22.426 55.041 51.34l3.568 51.212 19.043-2.035z" fill="#596c76"/><path d="m433.643 191.771v-26.346c0-8.193-6.642-14.835-14.835-14.835s-14.835 6.642-14.835 14.835v26.346z" fill="#ffe177"/><g><path d="m380.428 71.507h-24.073c2.648 11.714 2.094 11.235 2.094 85.886h12.073c6.627 0 12-5.373 12-12v-55.263c0-6.403-.739-12.63-2.094-18.623z" fill="#aa6a51"/></g><path d="m357.523 48.41c-10.877 0-216.976 0-228.385 0v52.035h235.406c0-16.397 0-27.9 0-45.014.001-3.878-3.143-7.021-7.021-7.021z" fill="#596c76"/><path d="m129.139 12.301v40.121h222.366c3.878 0 7.021 3.143 7.021 7.021v41.002h23.996v-88.144z" fill="#465a61"/><path d="m408.056 35.146c7.634 0 13.823-6.189 13.823-13.823s-6.188-13.823-13.823-13.823h22.068-.001-348.246c-7.634 0-13.823 6.189-13.823 13.823 0 7.634 6.189 13.823 13.823 13.823h348.246.002z" fill="#7a8c98"/><path d="m430.123 7.5h-24.073c7.634 0 13.823 6.189 13.823 13.823 0 7.634-6.189 13.823-13.823 13.823h24.073c7.634 0 13.823-6.189 13.823-13.823 0-7.634-6.189-13.823-13.823-13.823z" fill="#596c76"/><path d="m366.691 157.393c5.66 0 11.023 1.264 15.831 3.514v-32.157h-24.048v28.643z" fill="#aa6a51"/></g><g><path d="m279.31 247.5c-4.143 0-7.5 3.358-7.5 7.5 0 8.811-7.168 15.979-15.979 15.979s-15.979-7.168-15.979-15.979c0-4.142-3.357-7.5-7.5-7.5s-7.5 3.358-7.5 7.5c0 17.082 13.896 30.979 30.979 30.979s30.979-13.897 30.979-30.979c0-4.142-3.358-7.5-7.5-7.5z"/><path d="m209.366 188.601c0-4.142-3.357-7.5-7.5-7.5s-7.5 3.358-7.5 7.5v20.358c0 4.142 3.357 7.5 7.5 7.5s7.5-3.358 7.5-7.5z"/><path d="m309.794 181.101c-4.143 0-7.5 3.358-7.5 7.5v20.358c0 4.142 3.357 7.5 7.5 7.5s7.5-3.358 7.5-7.5v-20.358c0-4.142-3.357-7.5-7.5-7.5z"/><path d="m430.123 42.646c11.758 0 21.323-9.565 21.323-21.323s-9.565-21.323-21.323-21.323h-348.246c-11.758 0-21.323 9.565-21.323 21.323s9.565 21.323 21.323 21.323h39.762v4.5c0 4.142 3.357 7.5 7.5 7.5s7.5-3.358 7.5-7.5v-4.5h238.384v50.299c-6.771 0-221.194 0-238.384 0v-10.799c0-4.142-3.357-7.5-7.5-7.5s-7.5 3.358-7.5 7.5c0 27.912-.236 17.952 1.67 63.68l.405 9.702c-3.967 2.136-7.585 4.848-10.74 8.102-7.796 8.042-12.57 18.913-12.57 31.399 0 23.147 17.604 42.255 40.127 44.65 7.834 35.905 31.742 64.647 62.162 79.939v11.51c-26.853 14.433-25.187 13.404-26.68 14.692h-30.994c-32.755 0-60.243 25.59-62.522 58.318l-6.956 99.839c-.302 4.339 3.14 8.021 7.481 8.021h261.813c4.143 0 7.5-3.358 7.5-7.5s-3.357-7.5-7.5-7.5h-253.772l2.471-35.471c166.755 17.824 155.634 16.827 160.738 16.827 8.987 0 25.452-1.781 85.84-8.313 20.514-2.219 46.161-4.993 78.36-8.439l2.466 35.398h-41.103c-4.143 0-7.5 3.358-7.5 7.5s3.357 7.5 7.5 7.5h49.144c4.349 0 7.783-3.69 7.481-8.021-7.641-109.667-6.943-100.893-7.491-104.614-4.484-30.417-30.847-53.544-61.987-53.544h-31.163c-.683-.589-1.424-1.118-2.234-1.553l-24.277-13.049v-11.737c30.092-15.243 54.022-43.877 61.849-79.77 21.277-2.111 38.228-19.135 40.234-40.442h22.252c4.143 0 7.5-3.358 7.5-7.5v-26.346c0-9.685-6.198-17.947-14.835-21.036v-101.742zm-348.246-15c-3.486 0-6.323-2.836-6.323-6.323s2.837-6.323 6.323-6.323h348.246c3.486 0 6.323 2.836 6.323 6.323s-2.837 6.323-6.323 6.323c-17.474 0-330.786 0-348.246 0zm255.291 199.44h-34.764c-13.457 0-24.405-10.948-24.405-24.405v-33.254c0-2.5 2.034-4.534 4.534-4.534h74.506c2.475 0 4.534 2.03 4.534 4.534v31.115c-.085 3.214-.252 5.51-.559 7.318-2.423 11.173-12.369 19.226-23.846 19.226zm-90.43-38.596v-19.063c0-1.342-.175-3.043-.535-4.549 1.051.019 11.484.08 12.468-.054 3.781-.512 6.575-3.788 6.49-7.599-.029-1.313-.403-2.618-1.117-3.774-4.191-6.786-6.829-14.656-7.902-23.537 6.676 8.136 14.572 14.995 22.917 20.288-9.068 1.639-16.06 9.678-16.06 19.225v19.063zm-98.543 14.191c0-35.513-.075-33.394.118-34.249.333-1.48 1.416-2.775 3.028-3.299 2.522-.331 2.596-.24 75.863-.24 2.5 0 4.534 2.034 4.534 4.534v33.254c0 13.457-10.948 24.405-24.405 24.405h-34.732c-13.594 0-24.406-11.102-24.406-24.405zm51.711-52.815c-5.493-.011-38.795.027-43.842.027.4-1.645.835-3.273 1.312-4.878 3.147-10.198 7.867-19.836 14.035-28.603.019.039.04.078.059.117 6.537 13.4 16.347 24.905 28.436 33.337zm175.115.957c-6.496-1.227-7.204-.93-45.626-.93-28.679 0-55.689-15.842-70.079-41.947h115.705zm-129.39-.965c-26.606-.846-50.534-17.372-61.573-41.755-.024-.053-.049-.105-.072-.158h57.318c-1.573 14.146-.702 28.727 4.327 41.913zm-86.677-41.913c-7.544 10.634-12.995 22.077-16.472 34.541-.734 2.53-1.39 5.087-1.954 7.672-.648.067-1.318.148-2.016.252l-.217-5.208c-.906-21.731-1.334-31.991-1.523-37.256h22.182zm-20.746 116.139c-13.074-3.195-22.805-15.01-22.805-29.055 0-11.85 6.754-22.741 17.883-27.508-.13 1.344-.091-1.012-.091 35.16 0 6.681 1.753 13.296 4.836 18.916.013.22.148 2.127.177 2.487zm164.258 120.488 20.901 11.234-33.393 30.035c-17.886-12.632-20.457-14.448-21.375-15.096 18.117-14.06 10.378-8.079 33.867-26.173zm15.562 36.211c-5.607 22.705-19.463 38.323-36.582 46.208l-2.525-13.674 4.304-13.893c4.802 3.205 11.048 2.722 15.302-1.102zm-72.775 50.694c-.116-.022-.231-.048-.347-.071l2.008-10.874h18.087l2.035 11.02c-7.188 1.316-14.653 1.276-21.783-.075zm-50.278-49.453-.059-.24 18.383 16.534c.019.017.04.032.06.049 4.234 3.767 10.449 4.259 15.246 1.057l4.358 14.065-2.431 13.167c-17.167-8.177-30.547-24.307-35.557-44.632zm46.517 8.313 14.423-10.186 14.423 10.186-4.708 15.196h-19.43zm-32.045-45.81 33.784 26.218-21.374 15.095-33.394-30.035zm204.876 58.339c.196 1.649.172 1.647 3.106 43.763-32.472 3.476-58.292 6.268-78.93 8.5-81.414 8.807-81.414 8.806-91.49 7.719l-152.432-16.293 2.882-41.373c1.746-25.058 22.835-44.361 47.56-44.361h27.929c.457.93 1.233 2.09 2 2.925.03.033.064.062.095.094l5.368 21.775c9.023 36.598 40.379 61.914 75.914 61.914 35.688 0 66.971-25.443 75.962-61.914l5.756-23.348c.029-.044.052-.091.081-.135.002-.003.004-.005.005-.008.259-.397.659-1.109.755-1.303h28.099c24.238 0 44.559 18.431 47.34 42.045zm-120.015-71.06c-24.7 19.168-15.93 12.387-38.461 29.742l-38.155-29.611v-6.047c12.604 4.264 25.4 6.195 37.778 6.195 12.983 0 25.678-1.796 38.837-6.285v6.006zm-38.837-14.721c-48.43 0-89.178-33.372-99.898-78.831 10.163 4.855 15.323 3.832 51.761 3.832 21.457 0 38.951-17.242 39.385-38.597h16.302c.434 21.355 17.927 38.597 39.385 38.597h34.764c6.445 0 13.117-1.613 19.17-4.983-10.21 44.836-50.397 79.982-100.869 79.982zm118.009-92.927c.186-2.284.3-4.583.355-6.892 2.236-5.178 2.738-10.935 2.738-16.506.11-4.267.083-9.548.048-16.408-.079-14.959.034-15.703-.247-17.664 28.624 9.606 26.142 50.705-2.894 57.47zm52.663-39.887h-14.67v-18.846c0-4.044 3.29-7.335 7.335-7.335s7.335 3.291 7.335 7.335zm-14.835-39.882c-7.424 2.655-13.04 9.134-14.472 17.053-2.062-1.857-4.337-3.539-6.814-5.013 0-13.832.001-99.448.001-113.782h21.285z"/></g></g></svg>