<svg id="Capa_1" enable-background="new 0 0 512 512" height="512" viewBox="0 0 512 512" width="512" xmlns="http://www.w3.org/2000/svg"><g><g><path d="m402.819 445.749h-315.705l4.055.428-1.177 14.996-3.924-.419c-1.19 17.08-1.908 27.392-3.048 43.746h321.885l1.827-2.568z" fill="#596c76"/><path d="m381.208 100.446c-11.019 0-239.76 0-250.757 0 0 0-95.564 276.253 14.822 316.833h221.112c110.387-40.581 14.823-316.833 14.823-316.833z" fill="#ae6c6c"/><path d="m381.208 100.446h-26.078s95.564 276.253-14.822 316.833h26.079c110.385-40.581 14.821-316.833 14.821-316.833z" fill="#9b5e5e"/><path d="m399.956 404.661c-2.014-28.914-26.057-51.34-55.041-51.34h-199.897c-28.984 0-53.027 22.426-55.041 51.339l-2.863 41.088 4.055.428-.588 7.494 154.743 16.54c7.328.783 14.718.783 22.046 0l136.138-14.552z" fill="#7a8c98"/><path d="m422.023 404.661c-2.014-28.914-26.057-51.34-55.041-51.34h-24.073c28.984 0 53.027 22.426 55.041 51.34l6.956 99.839h24.073z" fill="#596c76"/><path d="m325.004 383.819 7.519-30.499h-152.35l7.519 30.499c8.163 33.11 36.376 56.207 68.656 56.207 32.466.001 60.54-23.287 68.656-56.207z" fill="#b6c4cf"/><path d="m210.193 335.725h.145l45.492 35.304 45.831-35.304h.146v-2.791h-91.614z" fill="#ffa78f"/><path d="m210.193 332.934c28.808 13.005 62.807 12.97 91.614-.142v-88.682h-91.614z" fill="#f89580"/><path d="m256 371.029h-.169-23.114v16.324l7.956 25.68h19.693c1.382-4.461 11.636-37.56 13.013-42.003h-17.379z" fill="#f07281"/><path d="m241.373 417.905-1.847 1.338-3.269 17.706c8.122 2.542 16.626 3.533 25.153 2.884v-21.927h-20.037z" fill="#f07281"/><path d="m271.372 371.029c-1.377 4.443-11.631 37.542-13.013 42.003h12.799l7.956-25.68v-16.324h-7.742z" fill="#eb5569"/><path d="m275.7 437.167-3.31-17.924-1.147-6.21h-30.571l-.741 4.012-.406 2.198h15.577c1.451 0 2.696 1.036 2.959 2.463l3.347 18.127c4.9-.373 9.682-1.281 14.292-2.666z" fill="#eb5569"/><path d="m210.193 335.612-28.397 15.263c-3.057 1.643-3.559 5.82-.979 8.141l37.501 33.729c1.74 1.565 4.331 1.718 6.243.368l31.27-22.083z" fill="#f2fbff"/><path d="m330.035 350.874-28.397-15.262-9.85 7.644 14.175 7.618c3.057 1.643 3.559 5.821.979 8.141l-29.888 26.882 10.217 7.215c1.912 1.35 4.503 1.197 6.243-.367l37.501-33.73c2.579-2.32 2.076-6.497-.98-8.141z" fill="#dff6fd"/><path d="m277.053 385.898 29.888-26.882c2.58-2.32 2.078-6.498-.979-8.141l-14.175-7.618-35.787 27.772z" fill="#f2fbff"/><path d="m199.044 232.436h-53.735c-20.659 0-37.407-16.747-37.407-37.407v-.23c0-20.659 16.747-37.407 37.407-37.407h53.735z" fill="#ffb09e"/><path d="m312.955 157.393h53.735c20.659 0 37.407 16.747 37.407 37.407 0 21.35-17.118 37.636-37.407 37.636h-53.735z" fill="#f89580"/><path d="m248.598 324.05c55.733-5.467 99.281-52.461 99.281-109.631v-39.05c0-6.123-.511-12.126-1.473-17.977-7.756 0-62.673 0-70.512 0-41.654 0-77.006-26.95-89.59-64.363h-4.012c-22.688 20.179-36.986 49.588-36.986 82.34v39.05c-.001 64.394 54.585 109.631 103.292 109.631z" fill="#ffcebf"/><path d="m244.586 65.739h.002c-23.803 2.336-45.382 12.246-62.297 27.29 12.583 37.413 47.936 64.363 89.59 64.363h70.512c.963 5.851 1.473 11.854 1.473 17.977v39.05c0 57.17-43.548 104.164-99.281 109.631 66.676 6.547 121.8-45.362 121.8-109.631v-39.05c.001-66.158-57.912-116.728-121.799-109.63z" fill="#ffb09e"/><path d="m217.499 63.323c.237 51.993 42.455 94.07 94.504 94.07h69.206v-94.07z" fill="#aa6a51"/><g fill="#fe8f83"><path d="m331.861 235.605c-6.249 0-10.883 0-17.233 0-4.28 0-7.75 3.47-7.75 7.75s3.47 7.75 7.75 7.75h17.233c4.28 0 7.75-3.47 7.75-7.75s-3.47-7.75-7.75-7.75z"/><path d="m180.836 235.605h17.233c4.28 0 7.75 3.47 7.75 7.75s-3.47 7.75-7.75 7.75c-6.249 0-10.883 0-17.233 0-4.28 0-7.75-3.47-7.75-7.75s3.47-7.75 7.75-7.75z"/></g><path d="m130.452 52.422h221.053c3.878 0 7.021 3.143 7.021 7.021v41.002h22.682v-79.122h-250.756z" fill="#465a61"/><path d="m197.438 63.323c.237 51.993 42.454 94.07 94.504 94.07h69.206v-94.07z" fill="#ae6c6c"/><path d="m355.517 48.41c-10.364 0-212.549 0-225.065 0v52.035h232.086c0-16.397 0-27.9 0-45.014 0-3.878-3.143-7.021-7.021-7.021z" fill="#596c76"/><path d="m130.452 21.323v31.099h217.678c3.866 0 7 3.134 7 7v41.023h26.079v-79.122z" fill="#465a61"/><path d="m422.262 461.22-.93-15.398h3.558l-2.868-41.161c-2.014-28.914-26.057-51.34-55.041-51.34h-24.073c28.984 0 53.027 22.426 55.041 51.34l6.956 99.839h24.073l-3.043-43.672z" fill="#465a61"/><path d="m421.332 445.822h3.558l-2.868-41.162c-2.01-28.863-25.993-51.339-55.041-51.339h-24.073c28.984 0 53.027 22.426 55.041 51.34l3.568 51.212 20.29-2.169z" fill="#596c76"/><path d="m410.062 35.146c7.634 0 13.823-6.189 13.823-13.823s-6.188-13.823-13.823-13.823h20.062-.001-348.246c-7.634 0-13.823 6.189-13.823 13.823 0 7.634 6.189 13.823 13.823 13.823h348.248z" fill="#7a8c98"/><path d="m430.123 7.5h-24.073c7.634 0 13.823 6.189 13.823 13.823 0 7.634-6.189 13.823-13.823 13.823h24.073c7.634 0 13.823-6.189 13.823-13.823 0-7.634-6.189-13.823-13.823-13.823z" fill="#596c76"/><path d="m433.645 191.771v-26.346c0-8.193-6.642-14.835-14.835-14.835s-14.835 6.642-14.835 14.835v26.346z" fill="#ffe177"/><path d="m381.208 157.393v-56.947h-26.078s7.995 23.112 16.689 56.947z" fill="#9b5e5e"/></g><g><path d="m255.83 278.638c17.082 0 30.979-13.897 30.979-30.979 0-4.142-3.357-7.5-7.5-7.5s-7.5 3.358-7.5 7.5c0 8.811-7.168 15.979-15.979 15.979s-15.979-7.168-15.979-15.979c0-4.142-3.357-7.5-7.5-7.5s-7.5 3.358-7.5 7.5c0 17.082 13.897 30.979 30.979 30.979z"/><path d="m310.312 220.601c4.143 0 7.5-3.358 7.5-7.5v-12.858h.393c4.143 0 7.5-3.358 7.5-7.5s-3.357-7.5-7.5-7.5h-7.893c-4.143 0-7.5 3.358-7.5 7.5v20.358c0 4.142 3.357 7.5 7.5 7.5z"/><path d="m430.123 42.646c11.758 0 21.323-9.565 21.323-21.323s-9.565-21.323-21.323-21.323h-348.246c-11.758 0-21.323 9.565-21.323 21.323s9.565 21.323 21.323 21.323h41.075v4.5c0 4.142 3.357 7.5 7.5 7.5s7.5-3.358 7.5-7.5v-4.5h235.757v50.299c-12.911 0-223.8 0-235.757 0v-10.799c0-4.142-3.357-7.5-7.5-7.5s-7.5 3.358-7.5 7.5v17.063c-24.047 71.556-54.168 200.12-28.538 272.42-6.759 9.233-11.073 20.382-11.918 32.509-.769 11.035-6.209 89.113-6.956 99.84-.302 4.339 3.14 8.021 7.481 8.021h261.813c4.143 0 7.5-3.358 7.5-7.5s-3.357-7.5-7.5-7.5h-253.771l2.471-35.471 150.995 16.14c7.632.815 15.577.861 23.64 0l150.304-16.065 2.465 35.397h-41.103c-4.143 0-7.5 3.358-7.5 7.5s3.357 7.5 7.5 7.5h49.144c4.349 0 7.783-3.69 7.481-8.021-3.502-50.257-3.47-49.813-6.956-99.84-.812-11.653-4.947-23.128-12.156-32.844 16.826-48.04 8.764-118.059-2.126-172.025h18.423c4.143 0 7.5-3.358 7.5-7.5v-26.346c0-9.685-6.198-17.947-14.835-21.036v-101.742zm-348.246-15c-3.486 0-6.323-2.836-6.323-6.323s2.837-6.323 6.323-6.323h348.246c3.486 0 6.323 2.836 6.323 6.323s-2.837 6.323-6.323 6.323c-13.354 0-330.183 0-348.246 0zm293.922 80.299c2.664 8.18 8.166 25.731 14.076 48.41-8.273-5.008-16.01-6.463-24.955-6.463h-52.917c-30.727 0-58.813-16.142-74.435-41.947zm-8.818 237.876h-31.163c-.683-.589-1.424-1.118-2.234-1.553l-24.278-13.049v-11.757c11.324-5.705 21.723-13.265 30.816-22.528 15.738-16.03 26.36-35.784 31.042-57.223 13.6-1.359 25.434-8.839 32.725-19.656 8.098 45.979 12.743 99.636 1.612 139.014-11.086-8.65-24.731-13.248-38.52-13.248zm-48.953 34.962-.307 1.242c-5.08 20.608-18.765 36.901-36.275 44.967l-2.525-13.674 4.304-13.893c4.826 3.22 11.068 2.707 15.302-1.102zm-61.906 51.739c-3.628-.014-7.466-.4-10.869-1.045-.116-.022-.231-.048-.347-.071l2.008-10.874h18.087l2.035 11.02c-3.536.647-7.176.982-10.914.97zm-61.147-50.498-.059-.24 18.388 16.538c.034.03.07.055.104.085 4.244 3.737 10.419 4.205 15.197 1.016l4.358 14.065-2.431 13.167c-17.167-8.176-30.546-24.306-35.557-44.631zm-6.512-26.218 20.984-11.279 33.781 26.216c-13.368 9.444-7.727 5.462-21.371 15.097-13.036-11.724-20.603-18.529-33.394-30.034zm67.008-23.721c13.52 0 26.808-2.245 38.836-6.324v6.046c-24.625 19.111-15.854 12.328-38.459 29.741l-38.155-29.61v-6.07c.048.016.097.029.145.046 11.821 4.001 24.478 6.171 37.633 6.171zm10.159 73.448h-19.43l-4.708-15.195 14.423-10.186c5.562 3.928 8.912 6.294 14.423 10.186zm24.344-19.693c-6.583-4.649-6.192-4.372-21.372-15.098 18.189-14.116 10.464-8.146 33.864-26.171l20.901 11.234c-26.352 23.702-16.876 15.179-33.393 30.035zm83.513-220.169c13.227 3.086 23.109 14.975 23.109 29.128 0 14.263-9.885 26.245-23.113 29.353.002-.021.002-.042.004-.063.582-7.166.398-10.207.398-48.719.001-2.612-.081-5.585-.398-9.699zm-153.019-57.726c17.114 34.757 52.515 56.947 91.535 56.947h46.329c.38 3.748.554 7.105.554 10.477 0 37.43.551 43.547-1.273 55.136-7.631 47.935-48.792 84.984-98.931 86.526-59.705 1.595-105.877-46.284-105.877-102.611v-39.05c0-23.703 8.254-47.933 25.251-67.424h42.412zm-61.431 0c-8.931 12.746-15.202 27.073-18.51 42.205-6.815.725-13.178 2.981-18.74 6.417 5.927-22.825 11.422-40.424 14.081-48.621h23.169zm-21.231 67.425v39.05c0 2.836.121 6.114.397 9.663-13.071-3.198-22.8-15.011-22.8-29.054v-.23c0-14.041 9.727-25.853 22.795-29.052-.265 3.295-.392 6.866-.392 9.623zm-29.938 44.415c7.219 10.882 19.044 18.451 32.676 19.896 7.681 34.972 30.959 64.163 62.148 79.883v11.565l-24.447 13.14c-.809.435-1.55.964-2.233 1.552-33.479 0-35.578-.316-43.199 1.209-9.712 1.926-18.824 6.117-26.6 12.259-11.08-38.87-6.803-91.814 1.655-139.504zm158.706 242.968c-6.786.726-13.668.725-20.452 0l-151.545-16.198c.223-3.195 2.421-34.752 2.882-41.373 1.406-20.182 15.422-36.814 33.979-42.373.037-.011.074-.024.112-.035 8.324-2.469 11.478-1.954 41.398-1.954.434.883 1.126 1.935 1.879 2.781.042.047.078.098.121.144.03.033.064.062.095.094l5.368 21.775c9.03 36.626 40.419 61.914 75.914 61.914 35.43 0 66.91-25.194 75.962-61.914l5.756-23.348c.028-.042.05-.088.078-.13.181-.277.348-.561.506-.849.063-.115.13-.226.188-.342.021-.042.048-.082.068-.124h28.099c24.018 0 44.793 18.258 47.395 42.616.176 1.654-.124-2.392 3.052 43.192zm159.572-278.482h-14.671c0-7.604 0-11.336 0-18.846 0-4.044 3.291-7.335 7.336-7.335s7.335 3.291 7.335 7.335zm-14.835-39.883c-2.936 1.05-5.587 2.698-7.811 4.797-6.947-26.247-13.172-45.164-14.791-49.976v-56.563h22.602z"/><path d="m194.492 200.242h.393v12.858c0 4.142 3.357 7.5 7.5 7.5s7.5-3.358 7.5-7.5v-20.358c0-4.142-3.357-7.5-7.5-7.5h-7.893c-4.143 0-7.5 3.358-7.5 7.5s3.358 7.5 7.5 7.5z"/></g></g></svg>