<svg id="Capa_1" enable-background="new 0 0 512.002 512.002" height="512" viewBox="0 0 512.002 512.002" width="512" xmlns="http://www.w3.org/2000/svg"><g><g><path d="m304.68 14.542c-46.927-9.182-82.242-7.984-123.05 0-33.249 6.505-58.12 34.671-63.139 68.925h6.518v15h-7.418c.042 1.667-.104-.86.729 14.848h10.69v15h-9.893c.735 13.833 1.83 34.418 3.463 65.197h241.152l4.91-92.545c2.218-41.806-25.189-78.839-63.962-86.425z" fill="#9facba"/><path d="m383.009 128.315v-15h6.982c.832-15.691.687-13.178.729-14.848h-10.877v-15h9.977c-5.019-34.255-29.89-62.42-63.139-68.925-28.253-5.528-56.926-7.771-85.525-6.784 19.934.688 39.832 2.931 59.525 6.784 38.773 7.586 66.18 44.619 63.962 86.426l-4.91 92.545h26c1.633-30.781 2.728-51.366 3.463-65.197h-6.187z" fill="#8d9ca8"/><path d="m335.849 348.607h-183.676c-22.628 0-40.972 18.344-40.972 40.972v114.927h265.615v-114.927c0-22.626-18.341-40.969-40.967-40.972z" fill="#fdb97e"/><path d="m197.275 223.949h-55.413c-21.304 0-38.574-17.27-38.574-38.574v-.237c0-21.304 17.27-38.574 38.574-38.574h55.413z" fill="#ffb09e"/><path d="m314.742 146.563h55.413c21.304 0 38.574 17.27 38.574 38.574v.237c0 21.304-17.27 38.574-38.574 38.574h-55.413z" fill="#f89580"/><path d="m184.639 348.608 33.66 82.208c13.785 33.668 61.473 33.632 75.244 0l33.66-82.208z" fill="#c8effe"/><path d="m271.728 410.184h-31.526l-7.168 38.821c13.844 9.432 32.026 9.413 45.852-.054z" fill="#f07281"/><path d="m359.845 348.607h-28c22.628 0 40.972 18.344 40.972 40.972v114.927h28v-114.927c-.001-22.628-18.344-40.972-40.972-40.972z" fill="#fea95c"/><path d="m279.301 383.319v-16.449h-23.292-.174-23.836v16.833l8.204 26.481h31.438l8.204-26.481z" fill="#f07281"/><g fill="#eb5569"><path d="m256.332 427.458 5.209 28.211c6.299-.879 12.222-3.21 17.345-6.718l-7.158-38.767h-31.526l-2.585 14h14.782c1.929 0 3.583 1.377 3.933 3.274z"/><g><path d=""/><path d=""/><path d="m279.301 383.319v-16.449h-10.241l-8.929 28.822-4.49 14.493h16l8.204-26.481z"/></g><path d="m277.722 390.554 2.123-6.851-.544-.384v-16.449h-23.292-.174-13.825l32.246 22.773c1.037.732 2.269 1.024 3.466.911z"/></g><path d="m208.772 330.346-29.284 15.739c-3.152 1.694-3.67 6.002-1.009 8.395l38.672 34.782c1.794 1.614 4.466 1.771 6.438.379l32.246-22.773z" fill="#f2fbff"/><path d="m332.355 346.085-29.284-15.739-9.002 6.986 16.286 8.753c3.152 1.694 3.67 6.002 1.009 8.395l-32.063 28.838 8.953 6.323c1.971 1.392 4.643 1.235 6.438-.379l38.672-34.782c2.661-2.393 2.143-6.701-1.009-8.395z" fill="#dff6fd"/><path d="m208.772 330.346 47.062 36.523 47.412-36.523v-5.379h-94.474z" fill="#ffa78f"/><path d="m208.772 324.967c29.709 13.411 64.768 13.374 94.474-.147v-88.832h-94.474z" fill="#f89580"/><path d="m347.841 205.371v-40.27c0-67.419-57.677-112.904-104.991-112.904-57.452 6.437-100.991 54.97-100.991 112.904v40.27c0 57.573 43.071 106.314 100.991 112.904 47.22 0 104.991-45.384 104.991-112.904z" fill="#ffcebf"/><path d="m242.85 52.197c56.805 6.276 100.991 54.426 100.991 112.904v40.27c0 58.478-44.186 106.628-100.991 112.904 69.124 7.639 126.991-45.985 126.991-112.904v-40.27c0-66.884-57.827-120.547-126.991-112.904z" fill="#ffb09e"/><path d="m334.596 215.74c-6.23 0-10.85 0-17.181 0-4.267 0-7.726 3.459-7.726 7.726s3.459 7.726 7.726 7.726h17.181c4.267 0 7.726-3.459 7.726-7.726s-3.459-7.726-7.726-7.726z" fill="#fe8f83"/><path d="m141.858 62.302c0 32.323 24.671 58.526 55.105 58.526h109.668c30.433 0 55.105-26.203 55.105-58.526v-30.63c-14.81-12.745-32.458-17.129-35.056-17.129-80.78-15.805-141.922 0-145.05 0-15.451 3.023-29.086 10.733-39.772 21.546z" fill="#9facba"/><path d="m279.301 383.319 32.063-28.838c2.661-2.393 2.143-6.701-1.009-8.395l-16.286-8.753-38.06 29.537z" fill="#f2fbff"/><path d="m361.108 71.153c.412-2.887.628-5.842.628-8.851v-30.63c-6.121-5.269-13.736-9.919-22.045-13.318-21.099-8.286-70.04-11.579-98.535-10.596 19.934.688 39.832 2.931 59.525 6.784 29.166 5.707 51.897 28.08 60.427 56.611z" fill="#8d9ca8"/><path d="m177.071 215.74h17.181c4.267 0 7.726 3.459 7.726 7.726s-3.459 7.726-7.726 7.726c-6.23 0-10.85 0-17.181 0-4.267 0-7.726-3.459-7.726-7.726s3.459-7.726 7.726-7.726z" fill="#fe8f83"/><path d="m231.307 256.003h-27.2v-5.76c0-12.57 10.19-22.761 22.761-22.761h27.2v5.759c-.001 12.572-10.191 22.762-22.761 22.762z" fill="#9facba"/><path d="m276.908 256.003h27.2v-5.76c0-12.57-10.19-22.761-22.761-22.761h-27.2v5.759c0 12.572 10.19 22.762 22.761 22.762z" fill="#9facba"/></g><g><path d="m207.686 204.005v-20.994c0-4.142-3.358-7.5-7.5-7.5s-7.5 3.358-7.5 7.5v20.994c0 4.142 3.358 7.5 7.5 7.5s7.5-3.358 7.5-7.5z"/><path d="m311.482 211.505c4.142 0 7.5-3.358 7.5-7.5v-20.994c0-4.142-3.358-7.5-7.5-7.5s-7.5 3.358-7.5 7.5v20.994c0 4.142 3.358 7.5 7.5 7.5z"/><path d="m374.58 231.099c44.994-4.901 55.843-61.579 21.141-84.319l2.41-45.42c1.515-28.549-9.82-56.531-31.207-75.102-.184-.177-.378-.343-.579-.5-15.135-12.91-33.239-18.329-39.191-18.706-4.434-.653-31.984-7.052-72.678-7.052-19.477 0-39.083 1.479-58.271 4.396-4.095.623-6.91 4.447-6.288 8.542.623 4.096 4.449 6.914 8.542 6.288 18.445-2.805 37.292-4.226 56.017-4.226 40.526 0 66.939 6.534 71.184 6.981 10.618 2.147 20.3 6.766 28.576 13.226v27.089c0 28.388-21.585 51.026-47.604 51.026h-109.669c-11.301 0-22.573-4.314-31.574-12.884-.2-.19-.401-.378-.598-.572-9.479-9.333-15.432-22.719-15.432-37.57v-23.064c5.165-4.808 11.026-8.86 17.47-11.948 3.735-1.791 5.313-6.27 3.522-10.005-1.79-3.735-6.268-5.313-10.004-3.522-8.918 4.274-16.906 10.067-23.76 16.997-.025.025-.049.051-.074.076-17.458 17.694-27.783 43.169-26.332 70.531l2.553 48.114c-30.749 24.801-17.943 76.602 24.357 81.589 7.973 37.009 32.66 66.913 64.183 82.631v12.163c-27.815 14.95-26.134 13.905-27.667 15.246h-21.432c-26.728 0-48.472 21.745-48.472 48.472v114.927c0 4.142 3.358 7.5 7.5 7.5h215.8c4.142 0 7.5-3.358 7.5-7.5s-3.358-7.5-7.5-7.5h-208.3v-107.428c0-18.457 15.015-33.472 33.472-33.472h18.338c.633 1.324 1.723 2.843 2.952 3.949l12.283 11.047 25.613 62.553c7.209 17.605 23.857 29.174 42.745 29.874 20.204.755 38.658-11.013 46.381-29.874l25.612-62.553 12.282-11.046c1.212-1.089 2.313-2.611 2.954-3.951h18.512c18.457 0 33.472 15.016 33.472 33.472v107.427h-31.315c-4.142 0-7.5 3.358-7.5 7.5s3.358 7.5 7.5 7.5h38.815c4.142 0 7.5-3.358 7.5-7.5v-114.926c0-26.728-21.744-48.472-48.472-48.472h-21.607c-1.533-1.341.091-.327-27.491-15.151v-12.463c32.082-16.242 56.001-46.348 63.831-82.39zm-47.844-224.061c.086 0 .192.001.317.009-.2-.01-.489-.009-.317-.009zm44.925 121.277h10.018l-.639 12.037c-2.235-.531-4.386-.852-6.467-1.042-.803-3.712-1.762-7.383-2.912-10.995zm10.815-15h-16.751c-2.352-4.957-5.101-9.817-7.55-13.603.27-.413.534-.83.795-1.25h24.266c-.04 1.458-.022.939-.76 14.853zm-5.56 102.189c.28-3.319.425-7.248.425-10.138v-40.27c0-3.63-.226-7.758-.425-10.135 32.386 7.169 32.433 53.1 0 60.543zm5.33-132.041h-16.329c2.14-6.65 3.319-13.763 3.319-21.166v-11.218c6.565 9.403 11.102 20.452 13.01 32.384zm-245.091 55.743c-.011.052-.026.102-.037.154-3.479.352-6.714 1.018-9.794 2.022l-.693-13.066h13.441c-1.012 3.194-2.092 7.109-2.917 10.89zm7.469-40.743c1.596 2.56 3.357 4.994 5.265 7.29-1.405 2.492-2.775 5.182-3.902 7.563h-20.153l-.677-12.749c-.037-.698-.064-1.401-.083-2.104zm-18.551-15c1.408-8.746 4.239-17.077 8.285-24.651 0 5.057-.267 13.51 3.319 24.651zm8.708 132.021c-31.98-7.495-31.97-52.968.001-60.465-.227 2.707-.424 6.709-.424 10.078v40.27c0 2.889.128 6.555.423 10.117zm14.577-10.118c0-41.557-.128-42.843.346-48.735.007-.092.013-.184.021-.276 1.196-14.399 5.23-27.902 11.426-39.904 10.587 7.814 23.072 11.872 35.812 11.872h109.668c13.763 0 27.769-4.82 39.227-14.556.132-.112 1.662-1.458 2.16-1.922 9.35 16.129 14.322 34.432 14.322 53.251v40.27c0 59.379-49.349 108.87-111.627 105.964-56.474-2.867-101.355-49.406-101.355-105.964zm92.006 239.827 5.081-27.514h19.042l5.073 27.474c-9.272 4.577-20.179 4.46-29.196.04zm-55.404-94.076 22.067-11.86 35.205 27.321c-1.002.708-8.175 5.777-22.45 15.859zm80.152 51.562h-20.382l-4.956-15.997 15.147-10.697 15.147 10.697zm-54.708-8.502c5.672 5.101 11.971 4.775 16.486 1.603l4.602 14.854-4.247 23c-2.431-3.706-1.644-2.341-16.841-39.457zm89.035 0c-15.061 36.783-14.384 35.679-16.773 39.351l-4.26-23.072 4.547-14.676c4.592 3.214 10.85 3.464 16.486-1.603zm-9.378-11.739c-9.289-6.56-21.247-15.01-22.449-15.86 18.897-14.666 10.839-8.438 35.292-27.275l21.98 11.814zm4.685-62.582v6.676c-25.689 19.936-16.593 12.902-39.895 30.852l-39.58-30.716v-6.7c12.267 4.161 25.971 6.503 39.965 6.503 13.728 0 26.928-2.301 39.241-6.529.089-.031.18-.056.269-.086z"/><path d="m254.107 253.105c5.552 6.365 13.711 10.398 22.801 10.398h27.199c4.142 0 7.5-3.358 7.5-7.5v-5.759c0-16.686-13.575-30.261-30.261-30.261-4.781 0-44.682 0-54.479 0-16.686 0-30.261 13.575-30.261 30.261v5.759c0 4.142 3.358 7.5 7.5 7.5h27.2c9.09 0 17.25-4.034 22.801-10.398zm27.239-18.123c7.826 0 14.295 5.922 15.162 13.521h-19.601c-7.826 0-14.295-5.922-15.162-13.521zm-54.478 0h19.601c-.867 7.598-7.336 13.521-15.162 13.521h-19.601c.866-7.598 7.335-13.521 15.162-13.521z"/></g></g></svg>