<svg id="Capa_1" enable-background="new 0 0 512 512" height="512" viewBox="0 0 512 512" width="512" xmlns="http://www.w3.org/2000/svg"><g><g><path d="m22.5 259.666h121.941v228.563h-121.941z" fill="#fff6ce"/><path d="m464.5 260.229c-10.175 0-86.197 0-96.941 0v228h105.941c0-10.52 0-208.266 0-219 0-4.97-4.029-9-9-9z" fill="#fff6ce"/><path d="m367.559 222.229v44h90.941c4.971 0 9 4.029 9 9v213h22v-266z" fill="#fff0ad"/><path d="m484.501 472.479h-475.001c-1.105 0-2 .896-2 2v27.5c0 1.105.895 2 2 2h118l4.425-4.313h248.149l4.425 4.313h100c1.105 0 2-.895 2-2v-27.5c.001-1.104-.894-1.999-1.998-2z" fill="#8d9ca8"/><path d="m502.5 472.479h-22c1.105 0 2 .896 2 2v27.5c0 1.105-.895 2-2 2h22c1.105 0 2-.895 2-2v-27.5c0-1.104-.895-2-2-2z" fill="#596c76"/><path d="m22.5 222.229h121.941v44h-121.941z" fill="#fff0ad"/><g fill="#b3ceec"><path d="m95.314 333.82h-23.687c-3.078 0-5.573-2.495-5.573-5.573v-43.193c0-3.078 2.495-5.573 5.573-5.573h23.687c3.078 0 5.573 2.495 5.573 5.573v43.193c0 3.077-2.495 5.573-5.573 5.573z"/><path d="m95.314 437.82h-23.687c-3.078 0-5.573-2.495-5.573-5.573v-43.193c0-3.078 2.495-5.573 5.573-5.573h23.687c3.078 0 5.573 2.495 5.573 5.573v43.193c0 3.077-2.495 5.573-5.573 5.573z"/><path d="m440.373 333.82h-23.687c-3.078 0-5.573-2.495-5.573-5.573v-43.193c0-3.078 2.495-5.573 5.573-5.573h23.687c3.078 0 5.573 2.495 5.573 5.573v43.193c0 3.077-2.495 5.573-5.573 5.573z"/><path d="m440.373 437.82h-23.687c-3.078 0-5.573-2.495-5.573-5.573v-43.193c0-3.078 2.495-5.573 5.573-5.573h23.687c3.078 0 5.573 2.495 5.573 5.573v43.193c0 3.077-2.495 5.573-5.573 5.573z"/></g><path d="m482.5 248.479c2.209 0 4-1.791 4-4v-34c0-2.209-1.79-4-3.999-4h-471.001c-2.209 0-4 1.791-4 4v34c0 2.209 1.791 4 4 4z" fill="#c68d7a"/><path d="m500.5 206.479h-22c2.209 0 4 1.791 4 4v34c0 2.209-1.791 4-4 4h22c2.209 0 4-1.791 4-4v-34c0-2.209-1.791-4-4-4z" fill="#bc7c63"/><path d="m345.917 138.343c-9.487 0-191.709 0-201.475 0v334.137h207.475c0-2.348 0-323.771 0-328.137 0-3.314-2.687-6-6-6z" fill="#f2fbff"/><path d="m153.031 350.146h205.938v138.083h-205.938z" fill="#dff6fd"/><path d="m144.441 110.343v34h195.475c3.314 0 6 2.686 6 6v322.137h21.642v-362.137z" fill="#dff6fd"/><path d="m244 16.18-113.38 86.932h230.76l-113.38-86.932z" fill="#c68d7a"/><path d="m260.259 10.245c-2.513-1.927-6.006-1.927-8.519 0l-7.74 5.935 113.38 86.932h24z" fill="#bc7c63"/><path d="m256 488.23h-33.352v-81.376c0-2.416 1.958-4.374 4.374-4.374h28.978z" fill="#bc7c63"/><path d="m289.352 488.23h-33.352v-85.75h28.978c2.416 0 4.374 1.958 4.374 4.374z" fill="#bc7c63"/><g fill="#b3ceec"><path d="m202.843 227.65h-23.687c-3.078 0-5.573-2.495-5.573-5.573v-43.193c0-3.078 2.495-5.573 5.573-5.573h23.687c3.078 0 5.573 2.495 5.573 5.573v43.193c.001 3.077-2.495 5.573-5.573 5.573z"/><path d="m332.843 227.65h-23.687c-3.078 0-5.573-2.495-5.573-5.573v-43.193c0-3.078 2.495-5.573 5.573-5.573h23.687c3.078 0 5.573 2.495 5.573 5.573v43.193c.001 3.077-2.495 5.573-5.573 5.573z"/></g><path d="m367.652 123.426v-26.167c0-2.209-1.79-4-3.999-4h-235.305c-2.209 0-4 1.791-4 4v26.167c0 2.209 1.791 4 4 4h235.305c2.209 0 3.999-1.791 3.999-4z" fill="#b6c4cf"/><path d="m383.652 93.259h-24c2.209 0 4 1.791 4 4v26.167c0 2.209-1.791 4-4 4h24c2.209 0 4-1.791 4-4v-26.167c0-2.209-1.79-4-4-4z" fill="#9facba"/><circle cx="256" cy="113.531" fill="#e5eef9" r="37.674"/><path d="m153.031 350.146h205.938v35h-205.938z" fill="#c8effe"/><path d="m376.075 332.946h-20c2.209 0 4 1.791 4 4v24.2c0 2.209-1.791 4-4 4h20c2.209 0 4-1.791 4-4v-24.2c0-2.209-1.791-4-4-4z" fill="#9facba"/><path d="m93.066 409.854h129.75v27h-129.75z" fill="#8d9ca8" transform="matrix(0 1 -1 0 581.296 265.413)"/><path d="m289.184 409.854h129.75v27h-129.75z" fill="#8d9ca8" transform="matrix(0 1 -1 0 777.413 69.296)"/><path d="m155.441 358.479h16v129.75h-16z" fill="#7a8c98"/><path d="m351.559 358.479h16v129.75h-16z" fill="#7a8c98"/><path d="m366.5 503.979c2.209 0 4-1.791 4-4v-23.5c0-2.209-1.79-4-3.999-4h-239.001c-2.209 0-4 1.791-4 4v23.5c0 2.209 1.791 4 4 4z" fill="#b6c4cf"/><path d="m246 236.924-108.163 102.155h224.326l-108.163-102.155z" fill="#c68d7a"/><path d="m260.806 232.019c-2.698-2.548-6.915-2.548-9.613 0l-5.193 4.905 108.163 102.155h20z" fill="#bc7c63"/><path d="m376.075 365.146h-240.15c-2.209 0-4-1.791-4-4v-24.2c0-2.209 1.791-4 4-4h240.149c2.209 0 4 1.791 4 4v24.2c.001 2.209-1.79 4-3.999 4z" fill="#b6c4cf"/><path d="m384.5 472.479h-22c2.209 0 4 1.791 4 4v23.5c0 2.209-1.791 4-4 4h22c2.209 0 4-1.791 4-4v-23.5c0-2.209-1.791-4-4-4z" fill="#9facba"/></g><g><path d="m265 284.702v10.445c0 4.962-4.038 9-9 9s-9-4.038-9-9v-10.445c3.17-.876 5.5-3.774 5.5-7.222 0-4.142-3.358-7.5-7.5-7.5h-11c-4.142 0-7.5 3.358-7.5 7.5 0 3.448 2.33 6.346 5.5 7.222v10.445c0 13.234 10.767 24 24 24s24-10.766 24-24v-10.445c3.17-.876 5.5-3.774 5.5-7.222 0-4.142-3.358-7.5-7.5-7.5h-11c-4.142 0-7.5 3.358-7.5 7.5 0 3.448 2.33 6.345 5.5 7.222z"/><path d="m71.627 341.32h23.687c7.208 0 13.073-5.865 13.073-13.073v-43.193c0-7.208-5.865-13.073-13.073-13.073h-23.687c-7.208 0-13.073 5.865-13.073 13.073v43.193c0 7.208 5.865 13.073 13.073 13.073zm1.927-54.34h19.833v39.34h-19.833z"/><path d="m95.314 375.98h-23.687c-7.208 0-13.073 5.865-13.073 13.073v43.193c0 7.208 5.865 13.073 13.073 13.073h23.687c7.208 0 13.073-5.865 13.073-13.073v-43.193c0-7.209-5.865-13.073-13.073-13.073zm-1.927 54.34h-19.833v-39.34h19.833z"/><path d="m440.373 271.98h-23.687c-7.208 0-13.073 5.865-13.073 13.073v43.193c0 7.208 5.865 13.073 13.073 13.073h23.687c7.208 0 13.073-5.865 13.073-13.073v-43.193c0-7.209-5.865-13.073-13.073-13.073zm-1.927 54.34h-19.833v-39.34h19.833z"/><path d="m416.686 375.98c-7.208 0-13.073 5.865-13.073 13.073v43.193c0 7.208 5.865 13.073 13.073 13.073h23.687c7.208 0 13.073-5.865 13.073-13.073v-43.193c0-7.208-5.865-13.073-13.073-13.073zm21.76 54.34h-19.833v-39.34h19.833z"/><path d="m179.157 235.15h23.687c7.208 0 13.073-5.865 13.073-13.073v-43.193c0-7.209-5.865-13.074-13.073-13.074h-23.687c-7.208 0-13.073 5.865-13.073 13.074v43.193c-.001 7.208 5.864 13.073 13.073 13.073zm1.926-54.341h19.833v39.34h-19.833z"/><path d="m309.157 235.15h23.687c7.208 0 13.073-5.865 13.073-13.073v-43.193c0-7.209-5.865-13.074-13.073-13.074h-23.687c-7.208 0-13.073 5.865-13.073 13.074v43.193c-.001 7.208 5.864 13.073 13.073 13.073zm1.926-54.341h19.833v39.34h-19.833z"/><path d="m256 90.98c-4.142 0-7.5 3.358-7.5 7.5v15.051c0 4.142 3.358 7.5 7.5 7.5s7.5-3.358 7.5-7.5v-15.051c0-4.142-3.358-7.5-7.5-7.5z"/><path d="m489.5 399.525c4.142 0 7.5-3.358 7.5-7.5v-136.045h3.5c6.341 0 11.5-5.159 11.5-11.5v-34c0-6.341-5.159-11.5-11.5-11.5h-125.441v-64.054h8.594c6.341 0 11.5-5.159 11.5-11.5v-26.167c0-6.341-5.159-11.5-11.5-11.5h-12.58l-108.076-82.866c-1.997-1.53-4.481-2.373-6.997-2.373-2.514 0-4.998.842-6.997 2.374l-40.062 30.717c-3.287 2.52-3.909 7.228-1.388 10.515 2.52 3.288 7.228 3.909 10.515 1.388l37.932-29.084 90.42 69.329h-54.798c-8.232-10.581-21.206-17.403-35.622-17.403-14.271 0-27.296 6.7-35.623 17.403h-54.797l24.713-18.949c3.287-2.52 3.909-7.228 1.388-10.515-2.52-3.288-7.229-3.91-10.515-1.388l-40.238 30.852h-12.58c-6.341 0-11.5 5.159-11.5 11.5v26.167c0 6.341 5.159 11.5 11.5 11.5h8.594v64.054h-125.442c-6.341 0-11.5 5.159-11.5 11.5v34c0 6.341 5.159 11.5 11.5 11.5h3.5v209h-3.5c-6.341 0-11.5 5.159-11.5 11.5v23.5c0 6.341 5.159 11.5 11.5 11.5h116 257 116c6.341 0 11.5-5.159 11.5-11.5v-23.5c0-6.341-5.159-11.5-11.5-11.5h-3.5v-37.955c0-4.142-3.358-7.5-7.5-7.5s-7.5 3.358-7.5 7.5v37.955h-97.5-9.441v-92.333h1.016c4.933 0 9.138-3.128 10.768-7.5h95.157v26.878c0 4.142 3.358 7.5 7.5 7.5zm7.5-185.545v27h-7.5-114.441v-27zm-357.575 143.666v-17.2h233.149v17.2c-8.039 0-226.24 0-233.149 0zm157.428 107.334v-58.126c0-6.547-5.327-11.874-11.875-11.874h-28.978-28.978c-6.548 0-11.875 5.327-11.875 11.874v58.126h-36.206v-92.333h154.117v92.333zm-66.706 0v-55h18.353v55zm33.353-55h18.353v55h-18.353zm-111.559-37.334h12v92.333h-12zm11.254-47.2 92.805-87.65 92.805 87.65zm216.957-224.687v19.167c-9.142 0-70.117 0-79.43 0 .877-6.151.495-12.782-1.389-19.167zm-124.152 42.946c-16.668 0-30.174-13.591-30.174-30.174 0-16.687 13.59-30.174 30.174-30.174 16.694 0 30.174 13.607 30.174 30.174 0 16.664-13.577 30.174-30.174 30.174zm-124.152-42.946h80.818c-1.875 6.356-2.265 13.023-1.389 19.167-9.313 0-70.287 0-79.43 0v-19.167zm84.361 34.167c8.15 15.234 23.779 23.779 39.791 23.779 16.007 0 31.639-8.54 39.791-23.779h64.268v180.516l-98.909-93.415c-2.891-2.729-7.409-2.729-10.3 0l-98.909 93.415c0-6.409 0-174.514 0-180.516zm-201.209 79.054h121.941v27c-5.969 0-118.513 0-121.941 0zm121.941 42v69.466h-1.016c-6.341 0-11.5 5.159-11.5 11.5v13.2h-94.425v-94.166zm-106.941 109.166h95.157c1.63 4.372 5.835 7.5 10.768 7.5h1.016v92.333h-9.441-97.5zm-15 114.834h101v16.5h-101zm474.5 0h7.5v16.5h-101v-16.5zm-108.5 0v16.5h-250v-16.5zm-20.941-15h-12v-92.333h12zm27.516-114.834v-13.2c0-6.341-5.159-11.5-11.5-11.5h-1.016v-69.466h106.941v94.167h-94.425z"/></g></g></svg>