<svg id="Capa_1" enable-background="new 0 0 512 512" height="512" viewBox="0 0 512 512" width="512" xmlns="http://www.w3.org/2000/svg"><g><g><path d="m64.013 481.827v15.658c0 3.874 3.141 7.015 7.015 7.015h360.926c0-2.583 0-20.031 0-22.672-4.773-.001-364.982-.001-367.941-.001z" fill="#596c76"/><path d="m64.013 445.752v42.088h363.933v16.66h13.027c3.874 0 7.015-3.141 7.015-7.015v-51.733z" fill="#465a61"/><path d="m69.109 7.5c-6.088 0-11.023 4.936-11.023 11.023v446.582h197.914c0-66.931 0-390.361 0-457.605z" fill="#8d9ca8"/><path d="m256 7.5v457.605h164.845c6.088 0 11.023-4.936 11.023-11.023 0-2.225 0-414.636 0-446.582-7.864 0-166.178 0-175.868 0z" fill="#8d9ca8"/><path d="m442.891 7.5h-15.031v442.574c0 6.087-4.935 11.023-11.023 11.023-36.586 0-324.879 0-358.751 0v3.006c0 6.087 4.935 11.023 11.023 11.023h373.782c6.088 0 11.023-4.936 11.023-11.023 0-6.371 0-439.209 0-445.58 0-6.087-4.935-11.023-11.023-11.023z" fill="#7a8c98"/><path d="m205.895 49.588h-121.755v395.475c0 2.214 1.795 4.008 4.008 4.008h121.755v-395.475c.001-2.213-1.794-4.008-4.008-4.008z" fill="#b6c4cf"/><path d="m403.809 49.588h-121.754v395.475c0 2.214 1.795 4.008 4.008 4.008h121.755v-395.475c0-2.213-1.795-4.008-4.009-4.008z" fill="#b6c4cf"/><g fill="#9facba"><path d="m225.937 33.555h-137.788c-2.214 0-4.008 1.795-4.008 4.008v12.025h121.755c2.214 0 4.008 1.795 4.008 4.008v395.475h16.034c2.214 0 4.008-1.795 4.008-4.008v-407.5c-.001-2.214-1.795-4.008-4.009-4.008z"/><path d="m423.851 33.555h-137.788c-2.214 0-4.008 1.795-4.008 4.008v12.025h121.755c2.214 0 4.008 1.795 4.008 4.008v395.475h16.034c2.214 0 4.008-1.795 4.008-4.008v-407.5c0-2.214-1.795-4.008-4.009-4.008z"/></g></g><g><path d="m225.937 456.571c6.346 0 11.508-5.163 11.508-11.508v-407.5c0-6.346-5.163-11.508-11.508-11.508h-137.788c-6.346 0-11.509 5.163-11.509 11.508v407.5c0 6.346 5.163 11.508 11.509 11.508zm-134.297-415.516h130.805v400.517h-130.805z"/><path d="m453.914 378.201c4.143 0 7.5-3.358 7.5-7.5v-352.178c0-10.213-8.31-18.523-18.523-18.523-10.545 0-363.238 0-373.782 0-10.213 0-18.523 8.31-18.523 18.523v60.062c0 4.142 3.358 7.5 7.5 7.5s7.5-3.358 7.5-7.5v-60.062c0-1.942 1.581-3.523 3.523-3.523h179.391v452.626c-8.416 0 .141 0-168.307 0-6.979-.062-10.721-.153-12.467-.284-1.257-.539-2.14-1.787-2.14-3.239v-350.411c0-4.142-3.358-7.5-7.5-7.5s-7.5 3.358-7.5 7.5v350.411c0 5.347 2.291 10.157 5.927 13.542v19.841c0 8.003 6.511 14.515 14.515 14.515h369.945c8.004 0 14.515-6.511 14.515-14.515v-19.841c3.636-3.384 5.927-8.195 5.927-13.542v-58.294c0-4.142-3.357-7.5-7.5-7.5s-7.5 3.358-7.5 7.5v58.294c0 1.389-.815 2.581-1.985 3.154-.184.09-.373.159-.566.215-.064.018-.124.044-.189.059-.256.059-.517.095-.783.095h-179.392c0-18.872 0-433.041 0-452.626h179.391c1.942 0 3.523 1.581 3.523 3.523v352.178c0 4.142 3.357 7.5 7.5 7.5zm-13.427 118.799h-368.974v-14.374h8.993c.814.006 1.651.013 2.539.019 31.456.228 119.214-.018 357.442-.019z"/><path d="m286.062 26.055c-6.346 0-11.508 5.163-11.508 11.508v407.5c0 6.346 5.162 11.508 11.508 11.508h137.789c6.346 0 11.508-5.163 11.508-11.508v-407.5c0-6.346-5.162-11.508-11.508-11.508zm134.297 415.516h-130.804v-400.516h130.805v400.516z"/><path d="m321.053 74.782h69.145c4.143 0 7.5-3.358 7.5-7.5s-3.357-7.5-7.5-7.5h-69.145c-4.143 0-7.5 3.358-7.5 7.5s3.357 7.5 7.5 7.5z"/><path d="m321.053 102.841h69.145c4.143 0 7.5-3.358 7.5-7.5s-3.357-7.5-7.5-7.5h-69.145c-4.143 0-7.5 3.358-7.5 7.5s3.357 7.5 7.5 7.5z"/><path d="m321.053 394.785h69.145c4.143 0 7.5-3.358 7.5-7.5s-3.357-7.5-7.5-7.5h-69.145c-4.143 0-7.5 3.358-7.5 7.5s3.357 7.5 7.5 7.5z"/><path d="m321.053 422.844h69.145c4.143 0 7.5-3.358 7.5-7.5s-3.357-7.5-7.5-7.5h-69.145c-4.143 0-7.5 3.358-7.5 7.5s3.357 7.5 7.5 7.5z"/><path d="m191.615 59.782h-69.145c-4.142 0-7.5 3.358-7.5 7.5s3.358 7.5 7.5 7.5h69.145c4.142 0 7.5-3.358 7.5-7.5s-3.358-7.5-7.5-7.5z"/><path d="m191.615 87.841h-69.145c-4.142 0-7.5 3.358-7.5 7.5s3.358 7.5 7.5 7.5h69.145c4.142 0 7.5-3.358 7.5-7.5s-3.358-7.5-7.5-7.5z"/><path d="m191.615 379.785h-69.145c-4.142 0-7.5 3.358-7.5 7.5s3.358 7.5 7.5 7.5h69.145c4.142 0 7.5-3.358 7.5-7.5s-3.358-7.5-7.5-7.5z"/><path d="m191.615 407.844h-69.145c-4.142 0-7.5 3.358-7.5 7.5s3.358 7.5 7.5 7.5h69.145c4.142 0 7.5-3.358 7.5-7.5s-3.358-7.5-7.5-7.5z"/><path d="m122.93 273.396c4.142 0 7.5-3.358 7.5-7.5v-59.458c0-4.142-3.358-7.5-7.5-7.5s-7.5 3.358-7.5 7.5v59.458c0 4.142 3.358 7.5 7.5 7.5z"/><path d="m321.053 273.396c4.143 0 7.5-3.358 7.5-7.5v-59.458c0-4.142-3.357-7.5-7.5-7.5s-7.5 3.358-7.5 7.5v59.458c0 4.142 3.357 7.5 7.5 7.5z"/></g></g></svg>