<svg id="Capa_1" enable-background="new 0 0 512 512" height="512" viewBox="0 0 512 512" width="512" xmlns="http://www.w3.org/2000/svg"><g><g><path d="m19.609 170.333-5.815 10.92v286.143c0 7.811 2.211 13.966 5.815 19.931 2.969.765 6.081 1.173 9.289 1.173h414.205c20.492 0 37.104-16.612 37.104-37.104v-281.063z" fill="#f2fbff"/><path d="m496.667 170.333c-5.812 0-17.631 0-22.46 0v281.063c0 20.492-16.612 37.104-37.104 37.104h-408.205c-3.208 0-6.32-.407-9.289-1.173 6.589 10.322 18.135 17.173 31.289 17.173h410.205c20.492 0 37.104-16.612 37.104-37.104v-286.143l-1.54-1.086z" fill="#dff6fd"/><circle cx="140.632" cy="342.616" fill="#9facba" r="94"/><circle cx="140.632" cy="342.616" fill="#fff0ad" r="66"/><g fill="#99e6fc"><path d="m300.705 281.306h-29.427c-3.645 0-6.6-2.955-6.6-6.6v-29.427c0-3.645 2.955-6.6 6.6-6.6h29.427c3.645 0 6.6 2.955 6.6 6.6v29.427c0 3.645-2.955 6.6-6.6 6.6z"/><path d="m380.705 281.306h-29.427c-3.645 0-6.6-2.955-6.6-6.6v-29.427c0-3.645 2.955-6.6 6.6-6.6h29.427c3.645 0 6.6 2.955 6.6 6.6v29.427c0 3.645-2.955 6.6-6.6 6.6z"/><path d="m460.705 281.306h-29.427c-3.645 0-6.6-2.955-6.6-6.6v-29.427c0-3.645 2.955-6.6 6.6-6.6h29.427c3.645 0 6.6 2.955 6.6 6.6v29.427c0 3.645-2.955 6.6-6.6 6.6z"/><path d="m300.705 362.274h-29.427c-3.645 0-6.6-2.955-6.6-6.6v-29.427c0-3.645 2.955-6.6 6.6-6.6h29.427c3.645 0 6.6 2.955 6.6 6.6v29.427c0 3.646-2.955 6.6-6.6 6.6z"/><path d="m380.705 362.274h-29.427c-3.645 0-6.6-2.955-6.6-6.6v-29.427c0-3.645 2.955-6.6 6.6-6.6h29.427c3.645 0 6.6 2.955 6.6 6.6v29.427c0 3.646-2.955 6.6-6.6 6.6z"/><path d="m460.705 362.274h-29.427c-3.645 0-6.6-2.955-6.6-6.6v-29.427c0-3.645 2.955-6.6 6.6-6.6h29.427c3.645 0 6.6 2.955 6.6 6.6v29.427c0 3.646-2.955 6.6-6.6 6.6z"/><path d="m300.705 441.306h-29.427c-3.645 0-6.6-2.955-6.6-6.6v-29.427c0-3.645 2.955-6.6 6.6-6.6h29.427c3.645 0 6.6 2.955 6.6 6.6v29.427c0 3.645-2.955 6.6-6.6 6.6z"/></g><path d="m380.705 441.306h-29.427c-3.645 0-6.6-2.955-6.6-6.6v-29.427c0-3.645 2.955-6.6 6.6-6.6h29.427c3.645 0 6.6 2.955 6.6 6.6v29.427c0 3.645-2.955 6.6-6.6 6.6z" fill="#f07281"/><path d="m460.705 441.306h-29.427c-3.645 0-6.6-2.955-6.6-6.6v-29.427c0-3.645 2.955-6.6 6.6-6.6h29.427c3.645 0 6.6 2.955 6.6 6.6v29.427c0 3.645-2.955 6.6-6.6 6.6z" fill="#f07281"/><path d="m441.102 64.012c-4.696 0-384.523 0-390.205 0-20.492 0-37.104 16.612-37.104 37.104v80.137h464.413v-80.137c0-20.491-16.612-37.104-37.104-37.104z" fill="#62dbfb"/><path d="m461.102 64.012h-24c20.492 0 37.104 16.612 37.104 37.104v80.137h24v-80.137c0-20.491-16.612-37.104-37.104-37.104z" fill="#01d0fb"/><path d="m411.079 10.326c-7.041 3.884-11.812 11.376-11.812 19.986v74.302c0 8.61 4.771 16.103 11.812 19.986h4c7.041-3.884 11.812-11.377 11.812-19.986v-74.302c0-8.609-4.771-16.103-11.812-19.986z" fill="#8d9ca8"/><path d="m422.079 7.5c-3.989 0-7.738 1.027-11 2.826 7.041 3.884 11.812 11.377 11.812 19.986v74.302c0 8.609-4.771 16.103-11.812 19.986 14.891 8.213 33.812-2.391 33.812-19.986v-74.302c0-12.599-10.214-22.812-22.812-22.812z" fill="#7a8c98"/><path d="m300.36 10.326c-7.041 3.884-11.812 11.376-11.812 19.986v74.302c0 8.61 4.771 16.103 11.812 19.986h4c7.041-3.884 11.812-11.377 11.812-19.986v-74.302c0-8.609-4.771-16.103-11.812-19.986z" fill="#8d9ca8"/><path d="m311.36 7.5c-3.989 0-7.738 1.027-11 2.826 7.041 3.884 11.812 11.377 11.812 19.986v74.302c0 8.609-4.771 16.103-11.812 19.986 14.891 8.213 33.812-2.391 33.812-19.986v-74.302c0-12.599-10.214-22.812-22.812-22.812z" fill="#7a8c98"/><path d="m189.64 10.326c-7.041 3.884-11.812 11.376-11.812 19.986v74.302c0 8.61 4.771 16.103 11.812 19.986h4c7.041-3.884 11.812-11.377 11.812-19.986v-74.302c0-8.609-4.771-16.103-11.812-19.986z" fill="#8d9ca8"/><path d="m200.64 7.5c-3.989 0-7.738 1.027-11 2.826 7.041 3.884 11.812 11.377 11.812 19.986v74.302c0 8.609-4.771 16.103-11.812 19.986 14.891 8.213 33.812-2.391 33.812-19.986v-74.302c0-12.599-10.213-22.812-22.812-22.812z" fill="#7a8c98"/><path d="m78.921 10.326c-7.041 3.884-11.812 11.376-11.812 19.986v74.302c0 8.61 4.771 16.103 11.812 19.986h4c7.041-3.884 11.812-11.377 11.812-19.986v-74.302c0-8.609-4.771-16.103-11.812-19.986z" fill="#8d9ca8"/><path d="m89.921 7.5c-3.989 0-7.738 1.027-11 2.826 7.041 3.884 11.812 11.377 11.812 19.986v74.302c0 8.609-4.771 16.103-11.812 19.986 14.891 8.213 33.812-2.391 33.812-19.986v-74.302c0-12.599-10.213-22.812-22.812-22.812z" fill="#7a8c98"/></g><g><path d="m242.132 342.616c0-55.967-45.532-101.5-101.5-101.5s-101.5 45.533-101.5 101.5 45.532 101.5 101.5 101.5 101.5-45.533 101.5-101.5zm-188 0c0-47.696 38.804-86.5 86.5-86.5s86.5 38.804 86.5 86.5-38.804 86.5-86.5 86.5-86.5-38.803-86.5-86.5z"/><path d="m214.132 342.616c0-40.528-32.972-73.5-73.5-73.5s-73.5 32.972-73.5 73.5 32.972 73.5 73.5 73.5 73.5-32.972 73.5-73.5zm-132 0c0-32.257 26.243-58.5 58.5-58.5s58.5 26.243 58.5 58.5-26.243 58.5-58.5 58.5-58.5-26.243-58.5-58.5z"/><path d="m271.278 288.806h29.427c7.775 0 14.101-6.325 14.101-14.1v-29.427c0-7.775-6.325-14.1-14.101-14.1h-29.427c-7.774 0-14.1 6.325-14.1 14.1v29.427c.001 7.774 6.326 14.1 14.1 14.1zm.901-42.627h27.627v27.627h-27.627z"/><path d="m351.278 288.806h29.427c7.775 0 14.101-6.325 14.101-14.1v-29.427c0-7.775-6.325-14.1-14.101-14.1h-29.427c-7.774 0-14.1 6.325-14.1 14.1v29.427c.001 7.774 6.326 14.1 14.1 14.1zm.901-42.627h27.627v27.627h-27.627z"/><path d="m431.278 288.806h29.427c7.775 0 14.101-6.325 14.101-14.1v-29.427c0-7.775-6.325-14.1-14.101-14.1h-29.427c-7.774 0-14.1 6.325-14.1 14.1v29.427c.001 7.774 6.326 14.1 14.1 14.1zm.901-42.627h27.627v27.627h-27.627z"/><path d="m148.132 342.616v-40.116c0-4.142-3.357-7.5-7.5-7.5s-7.5 3.358-7.5 7.5v40.116c0 4.142 3.357 7.5 7.5 7.5s7.5-3.358 7.5-7.5z"/><path d="m257.179 355.674c0 7.775 6.325 14.1 14.1 14.1h29.427c7.775 0 14.101-6.325 14.101-14.1v-29.427c0-7.775-6.325-14.1-14.101-14.1h-29.427c-7.774 0-14.1 6.325-14.1 14.1zm15-28.527h27.627v27.627h-27.627z"/><path d="m337.179 355.674c0 7.775 6.325 14.1 14.1 14.1h29.427c7.775 0 14.101-6.325 14.101-14.1v-29.427c0-7.775-6.325-14.1-14.101-14.1h-29.427c-7.774 0-14.1 6.325-14.1 14.1zm15-28.527h27.627v27.627h-27.627z"/><path d="m417.179 355.674c0 7.775 6.325 14.1 14.1 14.1h29.427c7.775 0 14.101-6.325 14.101-14.1v-29.427c0-7.775-6.325-14.1-14.101-14.1h-29.427c-7.774 0-14.1 6.325-14.1 14.1zm15-28.527h27.627v27.627h-27.627z"/><path d="m257.179 434.706c0 7.775 6.325 14.1 14.1 14.1h29.427c7.775 0 14.101-6.325 14.101-14.1v-29.427c0-7.775-6.325-14.1-14.101-14.1h-29.427c-7.774 0-14.1 6.325-14.1 14.1zm15-28.527h27.627v27.627h-27.627z"/><path d="m337.179 434.706c0 7.775 6.325 14.1 14.1 14.1h29.427c7.775 0 14.101-6.325 14.101-14.1v-29.427c0-7.775-6.325-14.1-14.101-14.1h-29.427c-7.774 0-14.1 6.325-14.1 14.1zm15-28.527h27.627v27.627h-27.627z"/><path d="m417.179 434.706c0 7.775 6.325 14.1 14.1 14.1h29.427c7.775 0 14.101-6.325 14.101-14.1v-29.427c0-7.775-6.325-14.1-14.101-14.1h-29.427c-7.774 0-14.1 6.325-14.1 14.1zm15-28.527h27.627v27.627h-27.627z"/><path d="m498.206 120.911c4.143 0 7.5-3.358 7.5-7.5v-12.295c0-24.595-20.009-44.604-44.604-44.604h-8.712v-26.2c.001-16.714-13.597-30.312-30.311-30.312-16.715 0-30.313 13.598-30.313 30.312v26.2h-50.095v-26.2c.001-16.714-13.597-30.312-30.312-30.312-16.714 0-30.312 13.598-30.312 30.312v26.2h-50.096v-26.2c.001-16.714-13.597-30.312-30.31-30.312-16.715 0-30.313 13.598-30.313 30.312v26.2h-50.095v-26.2c0-16.714-13.597-30.312-30.312-30.312-16.714 0-30.312 13.598-30.312 30.312v26.2h-8.712c-24.595 0-44.604 20.009-44.604 44.604v366.28c.001 24.595 20.01 44.604 44.604 44.604h38.511c4.143 0 7.5-3.358 7.5-7.5s-3.357-7.5-7.5-7.5h-38.511c-16.323 0-29.604-13.28-29.604-29.604v-278.643h469.412v278.643c0 16.324-13.28 29.604-29.604 29.604h-336.693c-4.143 0-7.5 3.358-7.5 7.5s3.357 7.5 7.5 7.5h336.694c24.595 0 44.604-20.009 44.604-44.604 0-13.718 0-305.602 0-318.985 0-4.142-3.357-7.5-7.5-7.5s-7.5 3.358-7.5 7.5v25.342c-3.232 0-461.23 0-469.412 0v-72.637c0-16.324 13.28-29.604 29.604-29.604h8.712v33.102c0 16.714 13.598 30.312 30.312 30.312 16.713 0 30.313-13.596 30.313-30.312v-33.102h50.095v33.102c0 16.714 13.598 30.312 30.313 30.312 16.641 0 30.312-13.536 30.312-30.312 0-13.032 0-3.767 0-33.102h50.096v33.102c0 16.714 13.598 30.312 30.312 30.312 16.715 0 30.313-13.598 30.313-30.312v-33.102h50.095v33.102c0 16.712 13.596 30.312 30.313 30.312 16.714 0 30.312-13.598 30.312-30.312v-33.102h8.712c16.323 0 29.604 13.28 29.604 29.604v12.295c-.006 4.142 3.351 7.5 7.494 7.5zm-423.597-16.297c0-7.417 0-66.751 0-74.302 0-8.443 6.87-15.312 15.312-15.312 8.443 0 15.313 6.869 15.313 15.312v74.302c0 8.443-6.869 15.312-15.313 15.312-8.442 0-15.312-6.869-15.312-15.312zm141.343 0c0 8.478-6.913 15.312-15.312 15.312-8.443 0-15.313-6.869-15.313-15.312 0-7.417 0-66.751 0-74.302 0-8.443 6.869-15.312 15.313-15.312 8.442 0 15.312 6.869 15.312 15.312zm110.72 0c0 8.443-6.869 15.312-15.313 15.312-8.442 0-15.312-6.869-15.312-15.312 0-7.417 0-66.751 0-74.302 0-8.443 6.869-15.312 15.312-15.312s15.313 6.869 15.313 15.312zm110.719 0c0 8.443-6.869 15.312-15.312 15.312s-15.313-6.869-15.313-15.312c0-7.417 0-66.751 0-74.302 0-8.443 6.869-15.312 15.313-15.312 8.442 0 15.312 6.869 15.312 15.312z"/></g></g></svg>