<svg id="Capa_1" enable-background="new 0 0 512.007 512.007" height="512" viewBox="0 0 512.007 512.007" width="512" xmlns="http://www.w3.org/2000/svg"><g><g><path d="m472.939 217.916c-10.898-26.566-29.022-50.685-52.583-71.047l-40.743-22.017c-39.123-16.511-81.317-24.265-123.609-24.265-44.592 0-86.523 8.69-123.058 23.967l-48.049 25.965c-34.003 23.25-59.848 53.318-73.828 87.397-4.753 11.586-4.753 24.589 0 36.175 11.451 27.915 30.867 53.137 56.202 74.128 43.986 27.024 99.884 43.201 160.734 43.201 114.98 0 212.288-57.745 244.935-137.329 4.752-11.586 4.752-24.589-.001-36.175z" fill="#bc7c63"/><path d="m500.939 237.916c-13.98-34.079-39.823-64.149-73.828-87.399v2.435c20.279 19.024 35.996 40.997 45.828 64.964 4.753 11.586 4.753 24.588 0 36.174-32.648 79.584-129.956 137.33-244.936 137.33-60.85 0-116.747-16.177-160.734-43.201 15.926 13.196 15.649 12.186 65.669 39.224 75.038 31.386 168.25 32.571 246.123.01l48.049-25.965c34.004-23.251 59.848-53.318 73.828-87.397 4.754-11.586 4.754-24.589.001-36.175z" fill="#aa6a51"/><path d="m323.068 300.163h-134.129c-24.389 0-44.16-19.771-44.16-44.16 0-24.389 19.771-44.16 44.16-44.16h134.128c24.389 0 44.16 19.771 44.16 44.16.001 24.389-19.771 44.16-44.159 44.16z" fill="#fff0ad"/><path d="m132.945 124.554c-17.33 7.246-33.441 15.977-48.049 25.966-13.742 32.177-21.393 67.885-21.393 105.484 0 35.945 7.008 70.154 19.63 101.209l27.12 16.541 14.943 1.295c-20.782-35.684-31.693-76.441-31.693-119.045 0-47.627 13.624-92.948 39.442-131.45z" fill="#fff6ce"/><path d="m125.196 375.049c-14.803-4.95-28.876-10.935-42.063-17.836.578 1.423 1.154 2.848 1.756 4.258 14.786 10.113 30.953 18.824 48.05 25.973-2.72-4.057-5.296-8.193-7.743-12.395z" fill="#fff0ad"/><path d="m427.111 150.519c-14.608-9.989-30.719-18.719-48.049-25.966 25.818 38.502 39.442 83.824 39.442 131.45 0 28.444-4.863 56.065-14.278 81.904 0 0 0-.001.001-.001l30.027-10.902 10.636-26.773c2.362-14.37 3.614-29.143 3.614-44.227-.001-37.6-7.652-73.308-21.393-105.485z" fill="#fff6ce"/><g><path d="m444.89 300.23c-11.478 13.826-25.155 26.483-40.664 37.675-6.349 17.425-14.766 34.04-25.165 49.548 16.657-6.964 32.886-15.597 48.049-25.965 8.229-19.268 14.254-39.81 17.78-61.258z" fill="#fff0ad"/></g></g><g><path d="m507.878 235.069c-26.845-65.44-91.311-109.491-158.918-129.045-3.98-1.15-8.138 1.142-9.289 5.121s1.142 8.138 5.121 9.289c10.097 2.92 19.874 6.353 29.305 10.222 24.147 36.829 36.906 80.114 36.906 125.348 0 45.242-12.764 88.535-36.92 125.368-36.019 14.7-76.517 22.548-118.08 22.548-41.89 0-82.318-7.953-118.074-22.539-24.16-36.835-36.926-80.132-36.926-125.377 0-45.379 12.841-88.796 37.139-125.702 35.316-14.284 75.534-22.214 117.861-22.214 18.731 0 37.405 1.582 55.503 4.704 4.086.708 7.962-2.034 8.666-6.116s-2.034-7.962-6.116-8.666c-18.938-3.267-38.47-4.922-58.053-4.922-112.595 0-216.409 55.53-251.875 141.982-5.498 13.406-5.512 28.431 0 41.868 3.368 8.209 7.461 16.334 12.167 24.151 2.142 3.557 6.755 4.689 10.293 2.557 3.549-2.136 4.694-6.745 2.557-10.293-4.313-7.165-8.062-14.603-11.141-22.108-4.003-9.758-4.011-20.7 0-30.481 10.73-26.157 28.318-49.483 51.005-69.005-8.629 27.016-13.008 55.248-13.008 84.246 0 28.816 4.321 56.877 12.843 83.74-7.071-6.094-13.683-12.561-19.756-19.398-2.75-3.097-7.491-3.377-10.588-.626s-3.377 7.492-.626 10.588c53.483 60.207 138.557 88.613 218.126 88.613 114.934 0 217.136-57.307 251.875-141.983 5.502-13.411 5.514-28.432.003-41.87zm-421.875 20.934c0 40.458 9.595 79.48 27.929 114.212-7.999-4.216-15.681-8.791-22.991-13.692-13.231-31.72-19.938-65.527-19.938-100.52 0-34.994 6.707-68.801 19.938-100.52 7.31-4.902 14.993-9.477 22.991-13.692-18.333 34.732-27.929 73.754-27.929 114.212zm340 0c0-40.417-9.577-79.399-27.874-114.104 8.02 4.245 15.701 8.835 23.001 13.746 13.186 31.672 19.873 65.423 19.873 100.358 0 34.994-6.707 68.801-19.938 100.52-7.074 4.743-14.9 9.426-22.986 13.684 18.331-34.73 27.924-73.749 27.924-114.204zm67.997 15.241c-10.38 25.304-27.749 48.624-50.84 68.5 8.523-26.863 12.844-54.923 12.844-83.741 0-28.742-4.297-56.732-12.775-83.53 22.841 19.697 40.371 42.937 50.771 68.289 4.003 9.762 4.012 20.7 0 30.482z"/><path d="m137.279 256.003c0 28.485 23.174 51.66 51.66 51.66h134.129c28.485 0 51.66-23.175 51.66-51.66s-23.174-51.66-51.66-51.66h-134.129c-28.485 0-51.66 23.175-51.66 51.66zm222.448 0c0 20.214-16.445 36.66-36.66 36.66h-134.128c-20.214 0-36.66-16.446-36.66-36.66s16.445-36.66 36.66-36.66h134.129c20.214 0 36.659 16.446 36.659 36.66z"/><path d="m186.003 248.503c-4.142 0-7.5 3.358-7.5 7.5s3.358 7.5 7.5 7.5h5.064v7.5c0 4.142 3.358 7.5 7.5 7.5s7.5-3.358 7.5-7.5v-7.5h23.291v7.5c0 4.142 3.358 7.5 7.5 7.5s7.5-3.358 7.5-7.5v-7.5h23.291v7.5c0 4.142 3.358 7.5 7.5 7.5s7.5-3.358 7.5-7.5v-7.5h23.291v7.5c0 4.142 3.358 7.5 7.5 7.5s7.5-3.358 7.5-7.5v-7.5h5.064c4.142 0 7.5-3.358 7.5-7.5s-3.358-7.5-7.5-7.5h-5.064v-7.5c0-4.142-3.358-7.5-7.5-7.5s-7.5 3.358-7.5 7.5v7.5h-23.291v-7.5c0-4.142-3.358-7.5-7.5-7.5s-7.5 3.358-7.5 7.5v7.5h-23.291v-7.5c0-4.142-3.358-7.5-7.5-7.5s-7.5 3.358-7.5 7.5v7.5h-23.291v-7.5c0-4.142-3.358-7.5-7.5-7.5s-7.5 3.358-7.5 7.5v7.5z"/></g></g></svg>