<svg id="Capa_1" enable-background="new 0 0 512 512" height="512" viewBox="0 0 512 512" width="512" xmlns="http://www.w3.org/2000/svg"><g><g><path d="m460.5 91c-3.216 0-421.187 0-427 0-14.359 0-26 11.641-26 26v278c0 14.359 11.641 26 26 26h427c14.359 0 26-11.641 26-26v-278c0-14.359-11.641-26-26-26z" fill="#9facba"/><path d="m40.5 321.667v-189.667c0-4.418 3.582-8 8-8h174.148v197.667z" fill="#fff6ce"/><path d="m178.027 293.917h-92.907v-26.476c0-8.837 7.163-16 16-16h60.907c8.837 0 16 7.163 16 16z" fill="#f07281"/><path d="m222.648 388v-264h240.852c4.418 0 8 3.582 8 8v248c0 4.418-3.582 8-8 8z" fill="#fff0ad"/><path d="m131.574 264.841c-8.754 0-15.85-7.096-15.85-15.85v-35.338h31.699v35.338c.001 8.753-7.096 15.85-15.849 15.85z" fill="#ffb09e"/><path d="m169.874 183.648h-.619c-2.971-18.092-18.672-31.898-37.605-31.898h-.259c-18.933 0-34.634 13.806-37.605 31.898h-.512c-7.148 0-12.943 5.795-12.943 12.943v.08c0 7.148 5.795 12.943 12.943 12.943h.514c2.976 18.085 18.674 31.885 37.602 31.885h.259c18.928 0 34.626-13.799 37.602-31.885h.621c7.148 0 12.943-5.795 12.943-12.943v-.08c.002-7.148-5.793-12.943-12.941-12.943z" fill="#ffcebf"/><path d="m40.5 321.667v58.333c0 4.418 3.582 8 8 8h174.148v-66.333z" fill="#f2fbff"/><path d="m478.5 91h-22c14.359 0 26 11.641 26 26v278c0 14.359-11.641 26-26 26h22c14.359 0 26-11.641 26-26v-278c0-14.359-11.641-26-26-26z" fill="#8d9ca8"/></g><g><path d="m478.5 83.5h-44.714c-4.142 0-7.5 3.358-7.5 7.5s3.358 7.5 7.5 7.5h44.714c10.201 0 18.5 8.299 18.5 18.5v278c0 10.201-8.299 18.5-18.5 18.5h-360c-4.142 0-7.5 3.358-7.5 7.5s3.358 7.5 7.5 7.5h360c18.472 0 33.5-15.028 33.5-33.5v-278c0-18.472-15.028-33.5-33.5-33.5z"/><path d="m83.5 413.5h-50c-10.201 0-18.5-8.299-18.5-18.5v-278c0-10.201 8.299-18.5 18.5-18.5h365.286c4.142 0 7.5-3.358 7.5-7.5s-3.358-7.5-7.5-7.5h-365.286c-18.472 0-33.5 15.028-33.5 33.5v278c0 18.472 15.028 33.5 33.5 33.5h50c4.142 0 7.5-3.358 7.5-7.5s-3.358-7.5-7.5-7.5z"/><path d="m48.5 116.5c-8.547 0-15.5 6.953-15.5 15.5v248c0 8.547 6.953 15.5 15.5 15.5h415c8.547 0 15.5-6.953 15.5-15.5v-248c0-8.547-6.953-15.5-15.5-15.5-11.822 0-389.443 0-415 0zm-.5 15.5c0-.276.224-.5.5-.5h166.648v182.667h-167.148zm0 248v-50.833h167.148v51.333h-166.648c-.276 0-.5-.224-.5-.5zm416-248v248c0 .276-.224.5-.5.5h-233.352c0-5.643 0-245.882 0-249h233.352c.276 0 .5.224.5.5z"/><path d="m175.395 216.355c8.6-2.416 14.922-10.338 14.922-19.765 0-9.358-6.322-17.268-14.918-19.685-5.631-19.223-23.218-32.656-43.748-32.656h-.26c-20.541 0-38.136 13.45-43.758 32.69-8.538 2.457-14.802 10.349-14.802 19.731 0 9.317 6.267 17.199 14.806 19.652 3.318 11.34 10.799 20.664 20.587 26.409v1.208h-7.104c-12.958 0-23.5 10.542-23.5 23.5v26.477c0 4.142 3.358 7.5 7.5 7.5h92.907c4.142 0 7.5-3.358 7.5-7.5v-26.476c0-12.958-10.542-23.5-23.5-23.5h-7.104v-1.273c9.726-5.745 17.161-15.029 20.472-26.312zm-43.821 40.986c-4.483 0-8.35-3.273-8.35-9.072 2.628.473 5.413.729 8.426.729 2.833 0 5.808-.293 8.273-.749 0 5.82-3.853 9.092-8.349 9.092zm-38.3-55.228c-3.001 0-5.443-2.441-5.443-5.522 0-2.735 2.003-5.443 5.955-5.443 3.673 0 6.806-2.66 7.401-6.285 2.437-14.841 15.139-25.613 30.204-25.613h.26c15.064 0 27.767 10.772 30.204 25.613.553 3.368 3.257 6.285 8.02 6.285 3.001 0 5.443 2.442 5.443 5.523 0 3.001-2.442 5.442-5.443 5.442-4.606 0-7.442 2.765-8.021 6.282-2.453 14.904-15.231 25.603-30.202 25.603h-.26c-14.717 0-27.711-10.467-30.202-25.603-.569-3.448-3.379-6.282-7.916-6.282zm77.253 65.327v18.977h-77.906v-18.977c0-4.687 3.813-8.5 8.5-8.5h9.324c3.806 8.176 12.032 13.4 21.129 13.4 8.678 0 17.158-4.871 21.13-13.4h9.324c4.686 0 8.499 3.813 8.499 8.5z"/><path d="m291.971 186.736v19.951c0 29.535 24.719 53.563 55.103 53.563s55.103-24.028 55.103-53.563v-19.93c4.98-3.703 8-9.553 8-16.007 0-11.028-8.972-20-20-20h-16c-11.028 0-20 8.972-20 20 0 6.454 3.02 12.304 8 16.007v19.93c0 7.479-6.775 13.563-15.103 13.563s-15.103-6.084-15.103-13.563v-19.949c5.033-3.769 8-9.652 8-15.988 0-11.028-8.972-20-20-20h-16c-11.028 0-20 8.972-20 20 0 6.304 3.016 12.238 8 15.986zm12-20.986h16c2.757 0 5 2.243 5 5 0 1.69-.852 3.253-2.277 4.181-.292.19-.604.35-.926.474-2.891 1.117-4.797 3.897-4.797 6.996v24.286c0 15.75 13.504 28.563 30.103 28.563s30.103-12.813 30.103-28.563v-24.286c0-3.099-1.906-5.878-4.796-6.996-1.946-.752-3.204-2.58-3.204-4.656 0-2.757 2.243-5 5-5h16c2.757 0 5 2.243 5 5 0 2.076-1.257 3.903-3.204 4.656-2.891 1.117-4.796 3.897-4.796 6.996v24.286c0 21.264-17.99 38.563-40.103 38.563s-40.103-17.299-40.103-38.563v-24.286c0-3.1-1.907-5.881-4.799-6.997-.242-.093-.48-.208-.708-.341-1.561-.908-2.492-2.521-2.492-4.313-.001-2.757 2.242-5 4.999-5z"/><path d="m308.282 284.75c0 4.142 3.358 7.5 7.5 7.5h117.958c4.142 0 7.5-3.358 7.5-7.5s-3.358-7.5-7.5-7.5h-117.958c-4.142 0-7.5 3.358-7.5 7.5z"/><path d="m433.741 311.75h-117.959c-4.142 0-7.5 3.358-7.5 7.5s3.358 7.5 7.5 7.5h117.958c4.142 0 7.5-3.358 7.5-7.5s-3.357-7.5-7.499-7.5z"/><path d="m433.741 346.25h-117.959c-4.142 0-7.5 3.358-7.5 7.5s3.358 7.5 7.5 7.5h117.958c4.142 0 7.5-3.358 7.5-7.5s-3.357-7.5-7.499-7.5z"/><path d="m260.407 292.25h25.926c4.142 0 7.5-3.358 7.5-7.5s-3.358-7.5-7.5-7.5h-25.926c-4.142 0-7.5 3.358-7.5 7.5s3.358 7.5 7.5 7.5z"/><path d="m260.407 326.75h25.926c4.142 0 7.5-3.358 7.5-7.5s-3.358-7.5-7.5-7.5h-25.926c-4.142 0-7.5 3.358-7.5 7.5s3.358 7.5 7.5 7.5z"/><path d="m260.407 361.25h25.926c4.142 0 7.5-3.358 7.5-7.5s-3.358-7.5-7.5-7.5h-25.926c-4.142 0-7.5 3.358-7.5 7.5s3.358 7.5 7.5 7.5z"/><path d="m189.625 346.625h-117.5c-4.142 0-7.5 3.358-7.5 7.5s3.358 7.5 7.5 7.5h117.5c4.142 0 7.5-3.358 7.5-7.5s-3.358-7.5-7.5-7.5z"/></g></g></svg>