<svg id="Capa_1" enable-background="new 0 0 512 512" height="512" viewBox="0 0 512 512" width="512" xmlns="http://www.w3.org/2000/svg"><g><g><path d="m298.901 421.903c-.416-5.197-4.755-9.202-9.968-9.202 2.454 0-96.613 0-99.581 0l-5.413 67.607h119.638z" fill="#596c76"/><path d="m429.529 92.135c-2.949 0-362.279 0-367.057 0-13.361 0-24.192 10.831-24.192 24.192v229.329l15.72 26.111h4 374 4l17.72-26.112v-229.328c0-13.361-10.831-24.192-24.191-24.192z" fill="#99e6fc"/><path d="m449.529 92.135h-24c13.361 0 24.192 10.831 24.192 24.192v229.329l-17.721 26.111h24l17.72-26.112v-229.328c0-13.361-10.831-24.192-24.191-24.192z" fill="#62dbfb"/><path d="m284.933 412.701c5.213 0 9.552 4.005 9.968 9.202l4.676 58.405h28.484l-9.896-123.607c-7.256 0-117.286 0-124.329 0l-4.484 56c1.2 0 96.326 0 95.581 0z" fill="#465a61"/><path d="m348.209 480.308c0-13.361-10.831-24.192-24.192-24.192h-156.034c-13.361 0-24.192 10.831-24.192 24.192s10.831 24.192 24.192 24.192h156.035c13.36 0 24.191-10.831 24.191-24.192z" fill="#8d9ca8"/><path d="m344.017 456.116h-24c13.361 0 24.192 10.831 24.192 24.192s-10.831 24.192-24.192 24.192h24c13.361 0 24.192-10.831 24.192-24.192s-10.831-24.192-24.192-24.192z" fill="#7a8c98"/><path d="m376.102 23.5c0-8.836-7.163-16-16-16h-226.204c-8.837 0-16 7.164-16 16v322.156h258.205v-322.156z" fill="#f2fbff"/><circle cx="176" cy="122.753" fill="#7a8c98" r="16.099"/><g fill="#b6c4cf"><circle cx="256" cy="122.753" r="16.099"/><circle cx="336" cy="122.753" r="16.099"/><circle cx="176" cy="264.617" r="16.099"/><circle cx="336" cy="264.617" r="16.099"/></g><path d="m378.102 7.5h-22c8.837 0 16 7.164 16 16v322.156h22v-322.156c0-8.836-7.163-16-16-16z" fill="#dff6fd"/><path d="m38.28 345.656c0 27.478-.51 30.954 1.425 36.224h389.824c13.361 0 24.192-10.831 24.192-24.192v-12.032c-2.743 0-407.275 0-415.441 0z" fill="#8d9ca8"/><path d="m449.72 345.656v12.032c0 13.361-10.831 24.192-24.192 24.192h-385.823c3.357 9.328 12.282 16 22.767 16h387.057c13.361 0 24.192-10.831 24.192-24.192v-28.032z" fill="#7a8c98"/><circle cx="256" cy="264.617" fill="#7a8c98" r="16.099"/><path d="m270.691 318.4 24.135-13.934c2.121-1.225 2.274-4.229.289-5.663l-27.601-19.938c-2.363-1.707-5.634.181-5.338 3.082l3.466 33.872c.249 2.436 2.928 3.806 5.049 2.581z" fill="#f07281"/></g><g><path d="m354 71.117h-196c-4.142 0-7.5 3.358-7.5 7.5s3.358 7.5 7.5 7.5h196c4.143 0 7.5-3.358 7.5-7.5s-3.357-7.5-7.5-7.5z"/><path d="m176 146.352c13.013 0 23.599-10.586 23.599-23.599s-10.586-23.6-23.599-23.6-23.599 10.587-23.599 23.6 10.586 23.599 23.599 23.599zm0-32.199c4.742 0 8.599 3.858 8.599 8.6s-3.857 8.599-8.599 8.599-8.599-3.857-8.599-8.599 3.857-8.6 8.599-8.6z"/><path d="m279.6 122.753c0-13.013-10.587-23.6-23.6-23.6s-23.599 10.587-23.599 23.6 10.586 23.599 23.599 23.599 23.6-10.586 23.6-23.599zm-32.199 0c0-4.742 3.857-8.6 8.599-8.6s8.6 3.858 8.6 8.6-3.857 8.599-8.6 8.599c-4.742 0-8.599-3.857-8.599-8.599z"/><path d="m359.6 122.753c0-13.013-10.587-23.6-23.6-23.6s-23.6 10.587-23.6 23.6 10.587 23.599 23.6 23.599 23.6-10.586 23.6-23.599zm-32.2 0c0-4.742 3.857-8.6 8.6-8.6s8.6 3.858 8.6 8.6-3.857 8.599-8.6 8.599-8.6-3.857-8.6-8.599z"/><path d="m354 183.117h-196c-4.142 0-7.5 3.358-7.5 7.5s3.358 7.5 7.5 7.5h196c4.143 0 7.5-3.358 7.5-7.5s-3.357-7.5-7.5-7.5z"/><path d="m176 241.018c-13.013 0-23.599 10.587-23.599 23.6s10.586 23.599 23.599 23.599 23.599-10.586 23.599-23.599-10.586-23.6-23.599-23.6zm0 32.198c-4.742 0-8.599-3.857-8.599-8.599s3.857-8.6 8.599-8.6 8.599 3.858 8.599 8.6-3.857 8.599-8.599 8.599z"/><path d="m336 241.018c-13.013 0-23.6 10.587-23.6 23.6s10.587 23.599 23.6 23.599 23.6-10.586 23.6-23.599-10.587-23.6-23.6-23.6zm0 32.198c-4.742 0-8.6-3.857-8.6-8.599s3.857-8.6 8.6-8.6 8.6 3.858 8.6 8.6-3.858 8.599-8.6 8.599z"/><path d="m158 228.117h98c4.143 0 7.5-3.358 7.5-7.5s-3.357-7.5-7.5-7.5h-98c-4.142 0-7.5 3.358-7.5 7.5s3.358 7.5 7.5 7.5z"/><path d="m449.528 84.635h-47.926v-61.135c0-12.958-10.542-23.5-23.5-23.5h-244.204c-12.958 0-23.5 10.542-23.5 23.5v61.135h-47.927c-17.475 0-31.692 14.217-31.692 31.692v156.558c0 4.142 3.358 7.5 7.5 7.5s7.5-3.358 7.5-7.5v-156.558c0-9.204 7.488-16.692 16.692-16.692h47.926v238.521h-64.618v-30.271c0-4.142-3.358-7.5-7.5-7.5s-7.5 3.358-7.5 7.5v65.802c0 17.475 14.217 31.692 31.692 31.692h119.943l-3.462 43.237h-10.97c-17.475 0-31.692 14.217-31.692 31.692s14.218 31.692 31.693 31.692h123.1c4.143 0 7.5-3.358 7.5-7.5s-3.357-7.5-7.5-7.5h-123.1c-9.204 0-16.692-7.488-16.692-16.692s7.488-16.692 16.692-16.692h176.035c9.204 0 16.691 7.488 16.691 16.692s-7.487 16.692-16.691 16.692h-17.935c-4.143 0-7.5 3.358-7.5 7.5s3.357 7.5 7.5 7.5h17.935c17.475 0 31.691-14.217 31.691-31.692s-14.217-31.692-31.691-31.692h-10.97l-3.463-43.237h119.943c17.476 0 31.692-14.217 31.692-31.692 0-11.078 0-246.605 0-257.36.001-17.475-14.216-31.692-31.692-31.692zm0 15c9.204 0 16.692 7.488 16.692 16.692v221.829h-64.618v-238.521zm-324.13-76.135c0-4.687 3.813-8.5 8.5-8.5h244.205c4.687 0 8.5 3.813 8.5 8.5v314.655h-261.205zm192.601 425.116h-123.999l3.461-43.237h117.075zm148.222-74.929c0 9.204-7.488 16.692-16.692 16.692-14.364 0-370.372 0-387.057 0-9.204 0-16.692-7.488-16.692-16.692v-20.532h420.441z"/><path d="m299.506 292.724-22.932-16.566c1.923-3.415 3.026-7.35 3.026-11.54 0-13.013-10.587-23.6-23.6-23.6s-23.599 10.587-23.599 23.6c0 12.77 10.197 23.196 22.875 23.581l2.904 28.387c.806 7.862 9.451 12.241 16.26 8.311l24.135-13.935c6.833-3.946 7.318-13.625.931-18.238zm-52.105-28.107c0-4.742 3.857-8.6 8.599-8.6s8.6 3.858 8.6 8.6-3.857 8.599-8.6 8.599c-4.742 0-8.599-3.857-8.599-8.599zm25.053 44.105-1.882-18.395 14.988 10.827z"/></g></g></svg>