<svg id="Capa_1" enable-background="new 0 0 512 512" height="512" viewBox="0 0 512 512" width="512" xmlns="http://www.w3.org/2000/svg"><g><g><path d="m449.21 125.153c4.714 0 8.536-3.822 8.536-8.536v-34.928c0-4.714-3.821-8.535-8.535-8.536h-59.588c-4.714 0-8.536 3.822-8.536 8.536v34.928c0 4.714 3.822 8.536 8.536 8.536h73.588z" fill="#f07281"/><path d="m449.21 209.153c4.714 0 8.536-3.822 8.536-8.536v-34.928c0-4.714-3.821-8.535-8.535-8.536h-59.588c-4.714 0-8.536 3.822-8.536 8.536v34.928c0 4.714 3.822 8.536 8.536 8.536h73.588z" fill="#fdb97e"/><path d="m390.333 400.408v92.614l2.453 3.478h12.049c9.826 0 17.792-7.966 17.792-17.792 0-15.896 0-62.956 0-78.3-14.715 0-17.294 0-32.294 0z" fill="#0ab69f"/><path d="m73.401 7.5c-18.306 0-33.146 14.84-33.146 33.146v430.057h.016c.348-18.005 15.042-32.496 33.13-32.496h33.146c0-20.712 0-409.554 0-430.707h-33.146z" fill="#596c76"/><path d="m106.547 438.207h296.468v58.293h-296.468z" fill="#f2fbff"/><path d="m422.537 7.5c-4.724 0-310.281 0-311.99 0h-4v6 414.707h298.288c9.826 0 17.792-7.966 17.792-17.792 0-424.232.07-401.319-.09-402.915z" fill="#5de1c4"/><g><path d="m73.401 7.5c-18.306 0-33.146 14.84-33.146 33.146v430.057c0-.466 0-6.202 0-16h.016c.326-16.861 13.281-32.496 34.98-32.496h.146 31.15c0-77.361 0-395.625 0-414.707h-33.146z" fill="#596c76"/></g><path d="m45.058 488.5h61.489v-50.293c-45.287 0-25.63 0-33.146 0-18.306 0-33.146 14.84-33.146 33.146-.001 5.98 1.603 11.976 4.803 17.147z" fill="#8d9ca8"/><path d="m371.087 138.852h-195c-5.523 0-10-4.477-10-10v-59.852c0-5.523 4.477-10 10-10h195c5.523 0 10 4.477 10 10v59.852c0 5.523-4.477 10-10 10z" fill="#f2fbff"/><path d="m463.21 73.153h-18c4.714 0 8.536 3.822 8.536 8.536v34.928c0 4.714-3.822 8.536-8.536 8.536h18c4.714 0 8.536-3.822 8.536-8.536v-34.928c0-4.715-3.822-8.536-8.536-8.536z" fill="#eb5569"/><path d="m463.21 157.153h-18c4.714 0 8.536 3.822 8.536 8.536v34.928c0 4.714-3.822 8.536-8.536 8.536h18c4.714 0 8.536-3.822 8.536-8.536v-34.928c0-4.715-3.822-8.536-8.536-8.536z" fill="#fea95c"/><path d="m368.155 374.325h-189.135c-7.142 0-12.932-5.79-12.932-12.932v-1.135c0-7.142 5.79-12.932 12.932-12.932h189.135c7.142 0 12.932 5.79 12.932 12.932v1.135c0 7.142-5.79 12.932-12.932 12.932z" fill="#f2fbff"/><path d="m418.627 400.408v70.3c0 9.09-6.822 16.574-15.623 17.647l.01.008-1.015.95v14.188l1.015 1h19.82c9.826 0 17.792-7.966 17.792-17.792 0-9.518 0-77.367 0-86.3h-21.999z" fill="#01998d"/><path d="m106.547 488.362h296.468v16.138h-296.468z" fill="#dff6fd"/><path d="m73.401 504.5h33.146c0-.222 0-15.915 0-16.138h-61.564c5.364 9.278 16.096 16.138 28.418 16.138z" fill="#7a8c98"/><path d="m422.835 7.5h-4.298c.141 1.405.091-19.6.091 396.915 0 9.826-7.966 17.792-17.792 17.792h-294.289l-1.609 1.605v12.5l1.609 1.895h316.288c9.826 0 17.792-7.966 17.792-17.792v-395.123c0-9.826-7.966-17.792-17.792-17.792z" fill="#0ed2b3"/><path d="m73.401 422.207c-18.088 0-32.782 14.491-33.13 32.496h-.016v16h.016c.326-16.861 13.281-32.496 34.98-32.496h31.297c0-2.028 0-7.601 0-16-25.281 0-30.321 0-31.15 0-.729 0-1.261 0-1.997 0z" fill="#465a61"/></g><g><path d="m388.587 69c0-9.649-7.851-17.5-17.5-17.5h-195c-9.649 0-17.5 7.851-17.5 17.5v59.852c0 9.649 7.851 17.5 17.5 17.5h195c9.649 0 17.5-7.851 17.5-17.5zm-15 59.852c0 1.378-1.121 2.5-2.5 2.5h-195c-1.379 0-2.5-1.122-2.5-2.5v-59.852c0-1.378 1.121-2.5 2.5-2.5h195c1.379 0 2.5 1.122 2.5 2.5z"/><path d="m463.21 132.652c8.843 0 16.036-7.193 16.036-16.036v-34.928c0-8.842-7.193-16.036-16.036-16.036h-15.083v-40.36c0-13.946-11.346-25.292-25.292-25.292-2.409 0-341.888 0-349.435 0-22.412 0-40.646 18.234-40.646 40.646v48.239c0 4.142 3.357 7.5 7.5 7.5s7.5-3.358 7.5-7.5v-48.239c0-14.141 11.505-25.646 25.646-25.646h25.646v415.707h-25.646c-9.082 0-18.206 3.073-25.646 9.141v-315.851c0-4.142-3.357-7.5-7.5-7.5s-7.5 3.358-7.5 7.5v347.356c0 20.869 16.062 40.647 42.496 40.647h347.585c13.946 0 25.292-11.346 25.292-25.292v-66.293c0-.005-.001-.01-.001-.015 0-.01.001-.02.001-.031v-40c0-4.142-3.357-7.5-7.5-7.5s-7.5 3.358-7.5 7.5v40 .023s0 .015 0 .023c0 5.675-4.617 10.292-10.292 10.292-9.372 0-294.644 0-308.788 0 0-12.896 0-408.444 0-415.707h308.788c5.675 0 10.292 4.617 10.292 10.292v320.077c0 4.142 3.357 7.5 7.5 7.5s7.5-3.358 7.5-7.5v-128.717h15.083c8.843 0 16.036-7.193 16.036-16.036v-34.928c0-8.842-7.193-16.036-16.036-16.036h-15.083v-17zm-389.81 364.348c-14.348 0-25.955-11.854-25.631-26.152.243-12.6 9.894-25.141 27.48-25.141h23.797v51.293c-8.99 0-16.634 0-25.646 0zm359.727-53.482v43.19c0 5.675-4.617 10.292-10.292 10.292h-12.32v-51.293h12.32c3.607 0 7.172-.795 10.292-2.189zm-37.612 2.189v51.293h-281.468v-51.293zm67.695-365.055c.571 0 1.036.465 1.036 1.036v34.928c0 .571-.465 1.036-1.036 1.036h-15.083v-37zm0 84c.571 0 1.036.465 1.036 1.036v34.928c0 .571-.465 1.036-1.036 1.036h-15.083v-37z"/><path d="m368.154 339.825h-189.134c-10.431 0-20.433 7.948-20.433 21.568 0 11.266 9.166 20.432 20.433 20.432h189.135c10.431 0 20.433-7.948 20.433-21.567-.001-11.267-9.167-20.433-20.434-20.433zm0 27h-189.134c-7.273 0-7.272-12 0-12h189.135c7.272 0 7.271 12-.001 12z"/></g></g></svg>