<svg id="Capa_1" enable-background="new 0 0 512 512" height="512" viewBox="0 0 512 512" width="512" xmlns="http://www.w3.org/2000/svg"><g><g><path d="m281.155 435.875c-.345-4.702-4.261-8.341-8.976-8.341-2.256 0-98.163 0-99.924 0l-4.388 59.761h117.063z" fill="#596c76"/><path d="m440.266 102.259h-6c-11.097 0-387.933 0-397.546 0-13.749 0-24.894 11.146-24.894 24.894v231.034l11.041 14.704h419.041c0-9.751 0-250.722 0-261.738 0-3.135-.585-6.131-1.642-8.894z" fill="#99e6fc"/><path d="m268.179 427.533c4.715 0 8.631 3.639 8.976 8.341l3.775 51.42h22.937l-7.324-99.761h-121.351l-2.937 40z" fill="#465a61"/><path d="m435.014 102.259h-.748c1.058 2.763 1.643 5.76 1.643 8.894v261.738h7.602l16.398-14.704v-231.034c-.001-13.749-11.146-24.894-24.895-24.894z" fill="#62dbfb"/><path d="m342.564 396.618v-18.198c0-19.984-16.199-36.184-36.182-36.186h-162.222c-19.985 0-36.186 16.201-36.186 36.186v18.198z" fill="#fdb97e"/><path d="m339.031 378.42v18.198h24.729v-18.198c0-19.985-16.201-36.186-36.186-36.186h-24.729c19.985 0 36.186 16.201 36.186 36.186z" fill="#fea95c"/><path d="m276.484 396.618c4.435-10.834 11.362-27.764 22.261-54.384h-125.911c10.899 26.618 17.827 43.549 22.262 54.384z" fill="#b3ceec"/><path d="m278.853 47.189c-41.446-8.109-72.636-7.052-108.677 0-29.365 5.746-51.332 30.621-55.764 60.875h5.756v13.248h-6.552c.037 1.472-.092-.759.643 13.114h9.441v13.248h-8.737c.649 12.217 1.616 30.398 3.059 57.582h212.985l4.337-81.735c1.959-36.925-22.247-69.632-56.491-76.332z" fill="#9facba"/><path d="m348.033 147.673v-13.248h6.167c.734-13.859.607-11.639.643-13.114h-9.607v-13.248h8.812c-4.432-30.254-26.399-55.129-55.764-60.875-24.953-4.882-50.277-6.864-75.535-5.992 17.605.607 35.179 2.589 52.572 5.992 34.244 6.7 58.45 39.407 56.491 76.331l-4.337 81.735h22.963c1.442-27.186 2.409-45.366 3.059-57.582h-5.464z" fill="#8d9ca8"/><path d="m183.994 232.136h-48.94c-18.816 0-34.069-15.253-34.069-34.069 0-19.445 15.59-34.278 34.069-34.278h48.94z" fill="#ffb09e"/><path d="m287.74 163.79h48.94c18.816 0 34.069 15.253 34.069 34.069 0 19.445-15.59 34.278-34.069 34.278h-48.94z" fill="#f89580"/><path d="m194.148 326.106-25.863 13.901c-2.784 1.496-3.242 5.301-.892 7.415l34.155 30.72c1.585 1.425 3.945 1.564 5.686.335l28.479-20.113z" fill="#f2fbff"/><path d="m303.296 340.006-25.863-13.901-7.95 6.17 14.383 7.731c2.784 1.496 3.242 5.301.892 7.415l-28.318 25.47 7.908 5.585c1.741 1.229 4.101 1.09 5.686-.335l34.155-30.72c2.348-2.113 1.891-5.918-.893-7.415z" fill="#dff6fd"/><path d="m194.148 326.106 41.565 32.257 41.874-32.257v-4.751h-83.439z" fill="#ffa78f"/><path d="m194.148 321.355c26.239 11.844 57.203 11.812 83.439-.13v-78.456h-83.439z" fill="#f89580"/><path d="m316.973 215.728v-35.566c0-59.544-50.94-99.716-92.728-99.716-50.742 5.685-89.195 48.549-89.195 99.716v35.566c0 50.848 38.04 93.896 89.195 99.716 41.705 0 92.728-40.082 92.728-99.716z" fill="#ffcebf"/><path d="m224.245 80.446c50.17 5.543 89.195 48.069 89.195 99.716v35.566c0 51.647-39.025 94.174-89.195 99.716 61.05 6.747 112.158-40.613 112.158-99.716v-35.566c.001-59.071-51.072-106.467-112.158-99.716z" fill="#ffb09e"/><path d="m305.275 224.886c-5.502 0-9.583 0-15.174 0-3.769 0-6.824 3.055-6.824 6.824s3.055 6.824 6.824 6.824h15.174c3.769 0 6.824-3.055 6.824-6.824 0-3.768-3.055-6.824-6.824-6.824z" fill="#fe8f83"/><path d="m135.05 89.37c0 28.547 21.789 51.69 48.668 51.69h96.858c26.879 0 48.668-23.142 48.668-51.69v-27.052c-13.08-11.256-28.667-15.128-30.961-15.128-71.345-13.959-125.345 0-128.107 0-13.646 2.67-25.689 9.479-35.126 19.03z" fill="#9facba"/><path d="m256.439 372.891 28.318-25.47c2.35-2.114 1.893-5.918-.892-7.415l-14.383-7.731-33.615 26.087z" fill="#f2fbff"/><path d="m328.691 97.188c.721-5.048.554-5.377.554-34.87-5.406-4.654-12.131-8.76-19.47-11.762-18.635-7.318-61.859-10.227-87.026-9.358 17.605.607 35.179 2.589 52.572 5.992 25.76 5.04 45.836 24.799 53.37 49.998z" fill="#8d9ca8"/><path d="m166.15 224.886h15.174c3.769 0 6.824 3.055 6.824 6.824s-3.055 6.824-6.824 6.824c-5.502 0-9.583 0-15.174 0-3.769 0-6.824-3.055-6.824-6.824 0-3.768 3.055-6.824 6.824-6.824z" fill="#fe8f83"/><path d="m11.826 358.188c0 37.498-.483 36.953 1.643 42.692h403.546c13.749 0 24.894-11.146 24.894-24.894 0-9.303 0-13.316 0-17.798-3.334 0-424.702 0-430.083 0z" fill="#8d9ca8"/><path d="m435.908 358.188v17.798c0 13.749-11.146 24.894-24.894 24.894h-397.545c3.581 9.355 12.638 16 23.252 16h398.294c13.749 0 24.894-11.146 24.894-24.894 0-17.216 0-16.31 0-33.798z" fill="#7a8c98"/><path d="m390.18 162.198 31.777-20.845h6.08c33.212 0 60.136-26.924 60.136-60.136v-13.58c0-33.212-26.924-60.136-60.136-60.136-12.831 0-25.652 0-38.462 0-33.212 0-60.136 26.924-60.136 60.136v13.58c0 32.473 25.743 58.919 57.933 60.081l-1.192 20.901h4z" fill="#f2fbff"/><path d="m440.037 7.5h-16c33.212 0 60.136 26.924 60.136 60.136v13.58c0 33.212-26.924 60.136-60.136 60.136h-6.08l-31.777 20.845-.162 2.847c-.19 3.333 3.496 5.461 6.288 3.63l41.652-27.323h6.08c33.212 0 60.136-26.924 60.136-60.136v-13.58c-.001-33.211-26.925-60.135-60.137-60.135z" fill="#dff6fd"/><path d="m333.334 485.509c0-10.488-8.502-18.991-18.99-18.992h-174.952c-10.489 0-18.991 8.503-18.991 18.992 0 10.489 8.503 18.991 18.991 18.991h174.951c10.488 0 18.991-8.503 18.991-18.991z" fill="#8d9ca8"/><path d="m332.343 466.517h-20c10.489 0 18.991 8.503 18.991 18.992 0 10.489-8.503 18.991-18.991 18.991h20c10.489 0 18.991-8.503 18.991-18.991 0-10.489-8.503-18.992-18.991-18.992z" fill="#7a8c98"/><g fill="#9facba"><path d="m216.701 268.667h-28.553v-7.833c0-10.585 8.581-19.167 19.167-19.167h28.553v7.833c-.001 10.585-8.582 19.167-19.167 19.167z"/><path d="m255.034 268.667h28.553v-7.833c0-10.585-8.581-19.167-19.167-19.167h-28.553v7.833c0 10.585 8.581 19.167 19.167 19.167z"/></g></g><g><path d="m474.422 9.382c-3.563-2.107-8.165-.928-10.272 2.638-2.109 3.565-.928 8.165 2.638 10.273 15.968 9.443 25.887 26.818 25.887 45.344v13.58c0 25.333-18.013 46.61-41.991 51.554-.036.007-.072.015-.107.022-6.217 1.269-11.443 1.061-16.618 1.061-1.462 0-2.892.427-4.113 1.229l-35.95 23.582.966-16.94c.238-4.199-3.022-7.77-7.218-7.922-10.167-.367-20.218-3.684-28.822-9.89 0 0-.001-.001-.002-.001-12.039-8.685-19.831-22.131-21.505-36.471-.476-3.956-.374-6.28-.374-19.099.162-31.512 24.991-53.342 52.634-53.342h50.462c4.143 0 7.5-3.358 7.5-7.5s-3.357-7.5-7.5-7.5h-50.462c-31.023 0-57.216 21.002-65.155 49.529-11.979-7.386-22.287-9.88-43.966-12.915-4.103-.574-7.893 2.286-8.467 6.388s2.286 7.893 6.389 8.467c22.48 3.146 32.189 5.725 43.588 14.58 0 .001-.219 23.316-.219 23.316 0 24.552-18.646 44.189-41.169 44.189h-96.857c-.005 0-.009 0-.013 0-22.523-.008-41.156-19.672-41.156-44.189v-19.993c8.064-7.408 17.99-12.659 29.067-14.826 23.163-4.532 47.675-6.68 72.704-5.93 4.134.116 7.597-3.132 7.722-7.272.123-4.141-3.133-7.597-7.272-7.721-24.831-.744-50.488 1.203-76.035 6.202-15.112 2.957-28.488 10.487-38.968 21.068-.018.018-.035.036-.053.054-9.161 9.267-16.106 20.865-20.022 33.812h-72.972c-17.862 0-32.395 14.532-32.395 32.395v235.986 28.846c0 17.862 14.531 32.394 32.394 32.394h30.295c4.143 0 7.5-3.358 7.5-7.5s-3.357-7.5-7.5-7.5h-30.295c-9.591 0-17.394-7.803-17.394-17.394v-21.346h341.053 92.029v21.346c0 9.591-7.803 17.394-17.394 17.394h-136.317-125.66-71.022c-4.143 0-7.5 3.358-7.5 7.5s3.357 7.5 7.5 7.5h62.952l-2.543 34.638h-23.032c-14.607 0-26.491 11.884-26.491 26.491s11.883 26.491 26.491 26.491h192.951c14.607 0 26.491-11.884 26.491-26.492s-11.884-26.491-26.491-26.491h-23.032l-2.543-34.638h128.247c17.862 0 32.394-14.532 32.394-32.394v-28.845-220.094c23.693-10.531 40.266-34.274 40.266-61.829v-13.58c-.001-23.804-12.742-46.125-33.253-58.255zm-130.588 476.126c0 6.336-5.155 11.492-11.491 11.492h-192.951c-6.336 0-11.491-5.155-11.491-11.492s5.155-11.491 11.491-11.491h192.951c6.336 0 11.491 5.155 11.491 11.491zm-49.563-26.491h-116.807l2.543-34.637h111.721zm68.978-260.954c0 11.616-7.401 22.191-19.629 25.477.155-2.095.284-5.291.284-7.817v-35.566c0-2.422-.092-5.184-.284-7.811 1.86.491 3.576 1.158 5.177 1.945.078.043.146.096.226.137 5.484 2.786 9.671 7.337 12.04 12.797 1.42 3.277 2.188 7.083 2.188 10.627v.211zm-18.29 157.577h-38.698c2.473-2.224 4.21-3.503 5.501-5.91h15.813c6.021 0 12.213 1.974 17.384 5.91zm-200.799-5.91h15.657c1.275 2.375 3.05 3.704 5.502 5.91h-38.544c5.225-3.979 11.375-5.91 17.385-5.91zm43.59 5.91c-6.493-5.84-4.603-4.14-12.238-11.007l17.891-9.615 8.657 6.719 17.916 13.904h-32.226zm47.98-6.762-34.083-26.45v-4.274c10.605 3.46 22.378 5.405 34.421 5.405 11.679 0 22.914-1.84 34.019-5.5v4.249c-22.239 17.259-14.404 11.2-34.357 26.57zm109.745-191.657c-1.426-.298-2.814-.506-4.168-.648-.603-2.704-1.308-5.38-2.117-8.024h6.747c-.265 4.978-.262 4.91-.462 8.672zm1.121-23.672h-13.273c-1.952-4.06-4.229-8.065-6.173-11.132 1.456-2.271 2.763-4.655 3.914-7.134 4.054 6.984 9.319 13.171 15.532 18.266zm-66.019 15.007c12.86 0 25.87-4.668 36.336-14.043 7.85 13.915 11.99 29.578 11.99 45.646 0 39.276.027 36.397-.071 39.025-1.875 50.421-44.217 91.457-97.086 89.274-49.627-2.252-89.197-43.054-89.197-92.732v-35.566c0-13.922 3.163-28.337 9.854-41.654 9.216 6.544 20.091 10.051 31.315 10.051 12.099-.001 84.742-.001 96.859-.001zm-172.017 47.388c.007-.096.018-.191.026-.287.853-9.98 7.483-19.952 19.243-23.242-.184 2.57-.279 5.152-.279 7.743v35.566c0 2.37.113 5.455.277 7.777-12.755-3.61-20.175-15.342-19.267-27.557zm21.583-39.321c-2.495.285-4.853.754-7.114 1.418l-.504-9.492h9.757c-.83 2.716-1.648 5.86-2.139 8.074zm10.95-28.775c-.873 1.565-1.882 3.465-2.954 5.702h-16.411l-.553-10.431c0-.005 0-.009 0-.014-.016-.309-.012-.612-.024-.921h15.851c1.254 1.977 2.626 3.863 4.091 5.664zm-18.931-20.664c1.007-5.689 2.59-11.232 5.402-17.248.054 6.003.954 11.795 2.592 17.248zm-102.836 19.969c0-9.591 7.803-17.395 17.395-17.395h69.906c-.003.023-.004.047-.007.071-.509 4.56-.677 9.245-.424 14.084l2.23 42.033c-8.899 7.352-14.314 18.213-14.884 29.854-1.104 21.071 13.613 40.405 36.568 43.425 7.212 32.547 28.966 58.799 56.537 72.721v9.672c-23.52 12.641-22.617 12.054-23.893 13.112h-18.594c-14.936 0-29.168 7.807-37.186 20.775-.028.046-.06.089-.089.135h-87.56v-228.487zm258.926 207.904 17.816 9.576c-5.021 4.516-7.747 6.968-12.238 11.007h-32.226c12.122-9.408 6.223-4.849 26.648-20.583zm174.156-187.337v207.92h-87.56c-8.076-13.185-22.462-20.91-37.274-20.91h-18.75c-1.355-1.125-1.042-.83-23.737-13.029v-9.904c29.07-14.833 49.354-41.614 56.232-72.537 22.108-2.688 36.93-20.732 36.93-41.197v-.209c0-13.721-6.8-26.732-18.087-34.332.727-13.704 0 .017 1.106-20.823 5.677 2.596 11.781 4.445 18.203 5.395-.456 8.013-.257 4.51-.941 16.511-.555 9.376 9.865 15.599 17.888 10.341l39.768-26.085c5.441.029 10.352-.06 16.222-1.141z"/><path d="m469.16 38.103c0-4.142-3.357-7.5-7.5-7.5h-61.324c-4.174 0-7.919 2.794-9.106 6.793l-12.219 41.108-.607-3.342c-.909-4.995-5.254-8.62-10.331-8.62h-9.273c-4.143 0-7.5 3.358-7.5 7.5s3.357 7.5 7.5 7.5h5.519l4.056 22.311c.791 4.343 4.422 7.544 8.83 7.785.177.01.353.015.527.015 4.193 0 7.889-2.732 9.096-6.794l17.613-59.255h57.221c4.141-.001 7.498-3.359 7.498-7.501z"/><path d="m452.813 64.417c-2.93-2.929-7.678-2.929-10.607 0l-10.461 10.461-10.461-10.461c-2.93-2.929-7.678-2.929-10.607 0s-2.929 7.678 0 10.606l10.461 10.461-10.461 10.461c-2.929 2.929-2.929 7.678 0 10.606 2.93 2.929 7.678 2.929 10.607 0l10.461-10.461 10.461 10.461c2.93 2.929 7.678 2.929 10.607 0s2.929-7.678 0-10.606l-10.461-10.461 10.461-10.461c2.929-2.929 2.929-7.678 0-10.606z"/><path d="m179.064 195.98v18.542c0 4.142 3.357 7.5 7.5 7.5s7.5-3.358 7.5-7.5v-18.542c0-4.142-3.357-7.5-7.5-7.5s-7.5 3.358-7.5 7.5z"/><path d="m284.861 222.022c4.143 0 7.5-3.358 7.5-7.5v-18.542c0-4.142-3.357-7.5-7.5-7.5s-7.5 3.358-7.5 7.5v18.542c0 4.143 3.358 7.5 7.5 7.5z"/><path d="m180.647 260.833v7.833c0 4.142 3.357 7.5 7.5 7.5h28.553c7.518 0 14.315-3.132 19.167-8.154 4.852 5.022 11.649 8.154 19.167 8.154h28.553c4.143 0 7.5-3.358 7.5-7.5v-7.833c0-14.704-11.963-26.667-26.667-26.667h-28.553-28.553c-14.704.001-26.667 11.963-26.667 26.667zm95.44.334h-21.053c-6.04 0-11.667-4.719-11.667-12h21.053c6.056 0 11.667 4.736 11.667 12zm-68.773-12h21.053c0 7.235-5.585 12-11.667 12h-21.053c0-7.236 5.586-12 11.667-12z"/></g></g></svg>