<svg id="Capa_1" enable-background="new 0 0 512 512" height="512" viewBox="0 0 512 512" width="512" xmlns="http://www.w3.org/2000/svg"><g><g><path d="m485 400.995v-305c0-8.284-6.716-15-15-15h-447.5c-8.284 0-15 6.716-15 15v305c0 8.284 6.716 15 15 15h447.5c8.284 0 15-6.716 15-15z" fill="#c8effe"/><path d="m489.5 80.995h-21.5c8.284 0 15 6.716 15 15v305c0 8.284-6.716 15-15 15h21.5c8.284 0 15-6.716 15-15v-305c0-8.284-6.716-15-15-15z" fill="#99e6fc"/><path d="m475.5 353.635v-210.28c-18.424 0-33.36-14.936-33.36-33.36h-372.28c0 18.424-14.936 33.36-33.36 33.36v210.281c18.424 0 33.36 14.936 33.36 33.36h372.28c0-18.425 14.936-33.361 33.36-33.361z" fill="#f2fbff"/><g><path d="m442.14 394.495h-372.28c-4.142 0-7.5-3.358-7.5-7.5 0-14.259-11.601-25.86-25.86-25.86-4.142 0-7.5-3.358-7.5-7.5v-210.28c0-4.142 3.358-7.5 7.5-7.5 14.259 0 25.86-11.601 25.86-25.859 0-4.142 3.358-7.5 7.5-7.5h372.28c4.142 0 7.5 3.358 7.5 7.5 0 14.259 11.601 25.859 25.86 25.859 4.142 0 7.5 3.358 7.5 7.5v210.281c0 4.142-3.358 7.5-7.5 7.5-14.259 0-25.86 11.601-25.86 25.86 0 4.141-3.358 7.499-7.5 7.499zm-365.47-15h358.66c3.079-16.527 16.143-29.591 32.67-32.67v-196.66c-16.527-3.079-29.591-16.143-32.67-32.669h-358.66c-3.079 16.527-16.143 29.59-32.67 32.669v196.661c16.527 3.078 29.591 16.142 32.67 32.669z" fill="#62dbfb"/></g><path d="m175.784 34.828v66.324c0 4.618 5.933 7.914 10.084 9.872 50.954 10.359 134.347 2.054 134.347-15.872v-60.324c-6.976 0-137.515 0-144.431 0z" fill="#596c76"/><path d="m316.216 34.828v60.324c0 17.027-78.07 26.5-130.347 15.872 40.077 18.263 150.347 10.985 150.347-9.872v-66.324z" fill="#465a61"/><path d="m370.296 47.495h-228.592c-8.921 0-16.153-7.232-16.153-16.153 0-8.921 7.232-16.153 16.153-16.153h228.593c8.921 0 16.153 7.232 16.153 16.153 0 8.921-7.232 16.153-16.154 16.153z" fill="#8d9ca8"/><path d="m370.296 15.188h-20c8.918 0 16.153 7.229 16.153 16.153 0 8.921-7.232 16.153-16.153 16.153h20c8.921 0 16.153-7.232 16.153-16.153.001-8.921-7.231-16.153-16.153-16.153z" fill="#7a8c98"/><path d="m401.833 386.743h-34.667v107.056c0 2.363 2.605 3.798 4.602 2.536l22.129-13.981c2.07-1.308 3.486.178 7.936 2.989h5.833v-98.348z" fill="#7bacdf"/><path d="m401.833 386.743v98.6l17.398 10.992c1.998 1.262 4.602-.173 4.602-2.536v-107.056z" fill="#5f99d7"/><path d="m388.5 441.969c27.881-5.169 49-29.598 49-58.976s-21.119-53.807-49-58.976c-22.582 0-53 23.35-53 58.976 0 35.548 30.361 58.976 53 58.976z" fill="#f58a97"/><path d="m384.5 324.017c27.881 5.169 49 29.598 49 58.976s-21.119 53.807-49 58.976c37.166 6.89 71-21.658 71-58.976 0-37.336-33.854-65.862-71-58.976z" fill="#f07281"/><circle cx="395.5" cy="382.993" fill="#ffe177" r="31"/></g><g><path d="m395.5 344.493c-21.229 0-38.5 17.271-38.5 38.5s17.271 38.5 38.5 38.5 38.5-17.271 38.5-38.5-17.271-38.5-38.5-38.5zm0 62c-12.958 0-23.5-10.542-23.5-23.5s10.542-23.5 23.5-23.5 23.5 10.542 23.5 23.5-10.542 23.5-23.5 23.5z"/><path d="m192.621 168.662h150.092c4.142 0 7.5-3.358 7.5-7.5s-3.358-7.5-7.5-7.5h-150.092c-4.142 0-7.5 3.358-7.5 7.5s3.358 7.5 7.5 7.5z"/><path d="m144.875 222.516h245.583c4.142 0 7.5-3.358 7.5-7.5s-3.358-7.5-7.5-7.5h-245.583c-4.142 0-7.5 3.358-7.5 7.5s3.358 7.5 7.5 7.5z"/><path d="m192.621 247.407c-4.142 0-7.5 3.358-7.5 7.5s3.358 7.5 7.5 7.5h150.092c4.142 0 7.5-3.358 7.5-7.5s-3.358-7.5-7.5-7.5z"/><path d="m366.377 294.799c0-4.142-3.358-7.5-7.5-7.5h-182.421c-4.142 0-7.5 3.358-7.5 7.5s3.358 7.5 7.5 7.5h182.421c4.143 0 7.5-3.358 7.5-7.5z"/><path d="m168.208 328.328h-46.667c-4.142 0-7.5 3.358-7.5 7.5s3.358 7.5 7.5 7.5h46.667c4.142 0 7.5-3.358 7.5-7.5s-3.357-7.5-7.5-7.5z"/><path d="m290.937 327.856h-46.541c-4.142 0-7.5 3.358-7.5 7.5s3.358 7.5 7.5 7.5h46.541c4.142 0 7.5-3.358 7.5-7.5s-3.358-7.5-7.5-7.5z"/><path d="m489.5 73.495h-118.333v-18.522c12.64-.46 22.783-10.881 22.783-23.631 0-13.042-10.611-23.653-23.653-23.653h-228.593c-13.042 0-23.653 10.611-23.653 23.653s10.611 23.653 23.653 23.653h26.581v18.5h-61.545c-4.142 0-7.5 3.358-7.5 7.5s3.358 7.5 7.5 7.5h61.545c0 13.773-.029 13 .07 14h-98.495c-4.142 0-7.5 3.358-7.5 7.5 0 14.259-11.601 25.859-25.86 25.859-4.142 0-7.5 3.358-7.5 7.5v210.281c0 4.142 3.358 7.5 7.5 7.5 14.259 0 25.86 11.601 25.86 25.86 0 4.142 3.358 7.5 7.5 7.5h259.139c.855 4.97 2.252 9.748 3.989 14h-310.488c-4.136 0-7.5-3.364-7.5-7.5v-305c0-4.136 3.364-7.5 7.5-7.5h49.239c4.142 0 7.5-3.358 7.5-7.5s-3.358-7.5-7.5-7.5h-49.239c-12.407 0-22.5 10.093-22.5 22.5v305c0 12.407 10.093 22.5 22.5 22.5h319.038c4.966 6.599 11.118 12.251 18.128 16.661v53.643c0 5.792 4.713 10.505 10.507 10.505 3.975 0 4.007-.621 25.327-14.091l19.726 12.463c6.998 4.419 16.107-.647 16.107-8.877v-25.027c0-4.142-3.358-7.5-7.5-7.5s-7.5 3.358-7.5 7.5v16.861l-15.218-9.615c-3.36-2.128-7.857-2.131-11.224-.004l-15.225 9.619v-38.434c6.426 2.081 13.666 3.293 20.832 3.294h.002s0 0 0 0h.005c21.578-.002 41.413-10.328 53.956-26.998h40.039c12.407 0 22.5-10.093 22.5-22.5v-305c0-12.407-10.093-22.5-22.5-22.5zm-145.854 29c.1-1 .07-.229.07-14h12.451v14zm.07-29v-18.5h12.451v18.5zm-210.666-42.153c0-4.771 3.882-8.653 8.653-8.653h228.593c4.771 0 8.653 3.882 8.653 8.653s-3.882 8.653-8.653 8.653c-2.289 0-223.041 0-228.593 0-4.771 0-8.653-3.882-8.653-8.653zm195.666 23.653v45.606c-.072.091-.16.192-.267.3-14.03 14.268-107.805 19.19-141.343 2.396-1.115-.587-3.045-1.707-3.821-2.696 0-4.46 0-40.446 0-45.606zm-284.716 291.83v-196.66c16.527-3.079 29.591-16.143 32.67-32.669h105.227c31.583 15.235 116.681 15.207 148.206 0h105.227c3.079 16.527 16.143 29.59 32.67 32.669v196.655c-4.511.834-8.825 2.421-12.788 4.695-11.406-21.628-34.167-36.022-59.712-36.022-35.741 0-65.568 28.042-67.411 64.002h-251.419c-3.079-16.527-16.143-29.591-32.67-32.67zm351.5 88.668c-30.142 0-54.395-25.549-52.37-56.009 1.836-27.642 24.891-48.991 52.37-48.991 29.082 0 52.5 23.73 52.5 52.5 0 28.933-23.562 52.498-52.5 52.5zm101.5-34.498c0 4.136-3.364 7.5-7.5 7.5h-31.488c3.124-7.65 4.988-16.503 4.988-25.502 0-5.523-.741-11.572-2.239-17.237 4.301-2.998 9.401-4.62 14.739-4.62 4.142 0 7.5-3.358 7.5-7.5v-210.281c0-4.142-3.358-7.5-7.5-7.5-14.259 0-25.86-11.601-25.86-25.859 0-4.142-3.358-7.5-7.5-7.5h-70.974v-14h118.334c4.136 0 7.5 3.364 7.5 7.5z"/></g></g></svg>