<svg id="Capa_1" enable-background="new 0 0 512 512" height="512" viewBox="0 0 512 512" width="512" xmlns="http://www.w3.org/2000/svg"><g><g><path d="m476.5 434.317v-62.987h-15.203v6.17h-34.185v-6.17h-304.484v6.17h-44.998v-6.17h-58.13c-6.627 0-12 5.373-12 12v62.987h457c6.627 0 12-5.373 12-12z" fill="#ae6c6c"/><path d="m492.5 371.33h-16v62.987c0 6.627-5.373 12-12 12h-457v6c0 6.627 5.373 12 12 12h58.13v-4.317h44.998v4.317h304.485v-4.317h34.185v4.317h31.202c6.627 0 12-5.373 12-12v-68.987c0-6.628-5.373-12-12-12z" fill="#9b5e5e"/><path d="m131.148 222.107c.068.348.145.694.236 1.033-.091-.339-.169-.684-.236-1.033z" fill="#7bacdf"/><path d="m460.239 145.497c.009.01.017.02.026.03.244.089.491.17.733.263-.253-.097-.504-.2-.759-.293z" fill="#7bacdf"/><g fill="#f2fbff"><path d="m392.327 86.684c-270.666 0-252.356-.038-254.056.058-1.182 2.591-1.857 5.459-1.857 8.487 0 11.329 9.216 20.545 20.545 20.545h241.369v-23.09c-.001-3.314-2.687-6-6.001-6z"/><path d="m432.297 284.998h-331.964v57.332h340.964v-48.332c0-4.97-4.029-9-9-9z"/><path d="m77.63 371.33h44.998v92.987h-44.998z"/></g><path d="m77.63 446.317h44.998v18h-44.998z" fill="#dff6fd"/><path d="m427.112 371.33h34.185v92.987h-34.185z" fill="#fff0ad" transform="matrix(-1 0 0 -1 888.41 835.647)"/><path d="m427.112 446.317h34.185v18h-34.185z" fill="#ffe177"/><path d="m156.958 74.684c-8.3 0-15.449 4.957-18.688 12.058.397-.022.791-.058 1.192-.058h246.864c3.314 0 6 2.686 6 6v23.09h18v-41.09z" fill="#dff6fd"/><path d="m423.827 47.684h-266.869c-26.258 0-47.545 21.286-47.545 47.545 0 11.691 4.227 22.39 11.227 30.67 1.269.464 2.563.874 3.879 1.23s26.179 5.87 26.186 5.872h266.596v-17.227c-17.291 0-250.7 0-259.839 0-11.126 0-20.614-8.635-21.034-19.753-.442-11.688 8.938-21.337 20.53-21.337h266.869c7.456 0 13.5-6.044 13.5-13.5s-6.044-13.5-13.5-13.5z" fill="#fdb97e"/><g><path d="m423.827 115.773h-6.525c-.265 7.222-6.188 13-13.475 13-290.582 0-272.106 1.174-283.187-2.875 8.721 10.317 21.751 16.875 36.318 16.875h266.869c7.456 0 13.5-6.044 13.5-13.5 0-7.455-6.044-13.5-13.5-13.5z" fill="#fea95c"/></g><path d="m426.685 180.033h-266.551v24.706h282.298c.605-2.183.734-4.349.475-6.413 1.194-9.628-6.382-18.293-16.222-18.293z" fill="#f2fbff"/><path d="m444.685 172.033h-284.551v12h266.551c10.657 0 18.666 10.162 15.747 20.706h2.253c9.017 0 16.353-7.336 16.353-16.353 0-9.018-7.336-16.353-16.353-16.353z" fill="#dff6fd"/><path d="m475.797 233.998h-384.405c-37.738 0-69.194 30.019-69.683 67.754-.226 17.431 6.059 33.38 16.557 45.607 7.549 4.001 7.885 3.648 39.365 12.641h392.59v-17.67c-17.258 0-359.589 0-379.108 0-21.661 0-39.887-17.056-40.398-38.71-.527-22.307 17.465-40.621 39.654-40.621h385.429c8.008 0 14.5-6.492 14.5-14.5s-6.492-14.501-14.501-14.501z" fill="#f07281"/><g><path d="m475.797 342.33h-5.578c-.751 7.303-6.921 13-14.422 13h-385.429c-11.601 0-22.521-2.891-32.103-7.97 12.593 14.667 31.256 23.97 52.103 23.97h385.429c8.008 0 14.5-6.492 14.5-14.5s-6.491-14.5-14.5-14.5z" fill="#eb5569"/></g><path d="m469.333 152.834-9.095-7.336.003.022c-4.857-1.764-10.09-2.746-15.556-2.746h-299.18c-8.08 0-14.63 6.55-14.63 14.63 0 8.08 6.55 14.63 14.63 14.63h298.747c8.873 0 16.457 6.886 16.776 15.753.334 9.289-7.126 16.953-16.342 16.953-13.673 0-296.284 0-299.181 0-9.143 0-16.057 8.314-14.375 17.259h-.006c.024.131.036.159.007.003l11.575 5.499h281.9c31.747 0 55.136-28.819 50.104-50.982z" fill="#7bacdf"/><g><path d="m460.239 145.497c7.484 8.125 12.059 18.971 12.059 30.888 0 25.191-20.421 45.612-45.612 45.612h-295.562c1.24 6.823 7.2 12 14.381 12h299.181c25.191 0 45.612-20.421 45.612-45.612-.001-19.728-12.527-36.528-30.059-42.888z" fill="#5f99d7"/></g><path d="m106.333 262.998-3.333 2.836v15.166l3.666 3.666-.311.332h325.942c4.971 0 9 4.029 9 9v48.332h20v-79.332z" fill="#dff6fd"/><path d="m104 282.334h-45l-5.947 6.886c-1.494 4.289-2.35 8.512-2.35 13.445 0 21.872 17.794 39.666 39.666 39.666h15.965v-57.332z" fill="#8d9ca8"/><path d="m65.033 272.171c-5.56 4.628-9.67 10.658-11.98 17.049 5.466-2.698 11.608-4.221 18.06-4.221h35.22v-22h-15.965c-9.526-.001-18.433 3.428-25.335 9.172z" fill="#7a8c98"/><g><path d="m142.706 299.817v86.707l12.138 9.79c1.471 1.187 3.862.283 3.862-1.462 0-19.261 0-80.211 0-95.034h-16z" fill="#ffd15b"/></g><path d="m142.706 386.524c0-24.557 0-73.615 0-86.707h-36.372v95.03c0 1.746 2.391 2.654 3.862 1.467l20.761-16.745c.882-.711 2.245-.711 3.126 0z" fill="#ffe177"/></g><path d="m496.507 364.248c.833-2.319 1.29-4.816 1.29-7.418 0-12.131-9.869-22-22-22h-7v-64.332h7c12.131 0 22-9.869 22-22 0-10.349-7.184-19.046-16.826-21.38 10.345-9.697 16.826-23.469 16.826-38.733 0-29.286-23.826-53.112-53.112-53.112h-.742c.569-1.903.885-3.915.885-6 0-11.58-9.42-21-21-21h-6v-26.09h6c11.58 0 21-9.42 21-21s-9.42-21-21-21h-214.705c-4.142 0-7.5 3.358-7.5 7.5s3.358 7.5 7.5 7.5h214.705c3.309 0 6 2.692 6 6s-2.691 6-6 6c-9.863 0-244.838 0-266.869 0-2.416 0-4.762.307-7.001.884-12.088 3.117-21.044 14.112-21.044 27.16 0 15.362 12.506 28.045 28.045 28.045h.504 266.364c3.309 0 6 2.691 6 6s-2.691 6-6 6h-266.869c-22.081 0-40.044-17.964-40.044-40.045s17.964-40.045 40.045-40.045h17.164c4.142 0 7.5-3.358 7.5-7.5s-3.358-7.5-7.5-7.5h-17.164c-30.352 0-55.045 24.693-55.045 55.045 0 20.166 10.907 37.823 27.124 47.41-3.518 3.92-5.663 9.095-5.663 14.764 0 12.202 9.927 22.129 22.129 22.129h7.13v17.707h-7.13c-12.202 0-22.129 9.927-22.129 22.13 0 2.494.421 4.891 1.185 7.129h-33.168c-42.021 0-76.645 33.715-77.183 75.157-.267 20.543 7.529 39.903 21.952 54.513 2.764 2.8 5.708 5.354 8.801 7.661h-25.462c-10.752 0-19.5 8.748-19.5 19.5v68.987c0 10.752 8.748 19.5 19.5 19.5h58.13 44.998 208.653c4.142 0 7.5-3.358 7.5-7.5s-3.358-7.5-7.5-7.5h-201.153v-66.944l2.392-1.929 17.614 14.208c6.488 5.23 16.072.528 16.072-7.299v-16.02h253.407v77.987h-53.331c-4.142 0-7.5 3.358-7.5 7.5s3.358 7.5 7.5 7.5h126.219c10.752 0 19.5-8.748 19.5-19.5v-68.987c-.001-9.379-6.658-17.229-15.494-19.082zm-339.044-255.975c-7.384 0-13.549-5.904-13.549-13.045 0-7.192 5.851-13.045 13.045-13.045h245.869v26.09zm296.334 226.557h-287.591v-35.013c0-4.142-3.358-7.5-7.5-7.5h-44.872v-21.818h339.964v64.331zm-315.005 38.901c-3.663-2.954-8.941-2.909-12.544 0l-12.414 10.013c0-15.811 0-58.595 0-76.427h37.372v76.427zm-80.449-74.01c1.486-16.44 15.371-29.223 32.025-29.223h8.465v64.332h-7.721c-18.695 0-34.531-15.79-32.769-35.109zm109.291-120.189h276.617c4.576 0 8.474 3.272 9.169 7.481.847 5.412-3.362 10.226-8.735 10.226h-277.051zm-29.259 39.836c0-3.931 3.198-7.129 7.129-7.129h299.181c13.907 0 25.072-11.973 23.742-26.114-1.112-11.772-10.902-21.592-24.169-21.592-20.208 0-293.323 0-298.755 0-3.931 0-7.129-3.198-7.129-7.129s3.198-7.129 7.129-7.129h299.181c21.015 0 38.112 17.097 38.112 38.112s-17.097 38.112-38.112 38.112h-299.18c-3.931-.001-7.129-3.199-7.129-7.131zm-109.167 82.482c.432-33.278 28.328-60.352 62.184-60.352h384.405c3.86 0 7 3.14 7 7s-3.14 7-7 7c-2.454 0-377.838 0-385.429 0-25.341 0-46.111 20.094-47.117 45.263-1.013 25.787 19.119 49.068 47.861 49.068h7.721v14c-10.895 0-32.555 1.498-51.998-18.199-11.581-11.732-17.841-27.28-17.627-43.78zm-14.208 150.467v-68.987c0-2.481 2.019-4.5 4.5-4.5h50.63v77.987h-50.63c-2.481 0-4.5-2.019-4.5-4.5zm100.128 4.5h-29.998v-77.987h13.704v16.017c0 7.71 9.366 12.712 16.294 7.124zm51.078-106.987h309.592c3.86 0 7 3.14 7 7s-3.14 7-7 7c-13.008 0-288.906 0-309.592 0zm268.406 29h19.185v77.987h-19.185zm62.388 73.487c0 2.481-2.019 4.5-4.5 4.5h-23.703v-77.987h7 16.703c2.481 0 4.5 2.019 4.5 4.5z"/></g></svg>