<svg id="Capa_1" enable-background="new 0 0 512 512" height="512" viewBox="0 0 512 512" width="512" xmlns="http://www.w3.org/2000/svg"><g><g><path d="m424.167 488.5v-465c0-8.837-7.164-16-16-16h-321.167c-8.837 0-16 7.163-16 16v465c0 8.837 7.163 16 16 16h321.167c8.836 0 16-7.163 16-16z" fill="#f2fbff"/><path d="m425 7.5h-22.833c8.836 0 16 7.163 16 16v465c0 8.837-7.164 16-16 16h22.833c8.837 0 16-7.163 16-16v-465c0-8.837-7.163-16-16-16z" fill="#dff6fd"/><circle cx="177.249" cy="238.828" fill="#7a8c98" r="17.5"/><g fill="#b6c4cf"><circle cx="255.249" cy="238.828" r="17.5"/><circle cx="333.249" cy="238.828" r="17.5"/><circle cx="173.249" cy="388.828" r="17.5"/><circle cx="255.249" cy="388.828" r="17.5"/></g><circle cx="335.249" cy="388.828" fill="#7a8c98" r="17.5"/></g><g><path d="m425 0h-338c-12.958 0-23.5 10.542-23.5 23.5v157.143c0 4.142 3.358 7.5 7.5 7.5s7.5-3.358 7.5-7.5v-157.143c0-4.687 3.813-8.5 8.5-8.5h338c4.687 0 8.5 3.813 8.5 8.5v390.572c0 4.142 3.357 7.5 7.5 7.5s7.5-3.358 7.5-7.5v-390.572c0-12.958-10.542-23.5-23.5-23.5z"/><path d="m441 441.572c-4.143 0-7.5 3.358-7.5 7.5v39.428c0 4.687-3.813 8.5-8.5 8.5h-338c-4.687 0-8.5-3.813-8.5-8.5v-272.857c0-4.142-3.358-7.5-7.5-7.5s-7.5 3.358-7.5 7.5v272.857c0 12.958 10.542 23.5 23.5 23.5h338c12.958 0 23.5-10.542 23.5-23.5v-39.428c0-4.142-3.357-7.5-7.5-7.5z"/><path d="m355.593 83.077c-1.348-3.273-4.504-5.387-8.043-5.387-.003 0-.007 0-.009 0-3.543.004-6.7 2.125-8.042 5.403-.023.057-.047.115-.068.172l-19.857 52.139c-1.475 3.871.469 8.204 4.34 9.678 3.866 1.475 8.203-.468 9.678-4.339l3.106-8.155h21.552l3.069 8.133c1.463 3.879 5.793 5.83 9.665 4.369 3.875-1.462 5.831-5.79 4.368-9.665l-19.677-52.142c-.027-.068-.054-.137-.082-.206zm-13.183 34.512 5.113-13.424 5.066 13.424z"/><path d="m130.25 69.5h60.5c4.142 0 7.5-3.358 7.5-7.5s-3.358-7.5-7.5-7.5h-60.5c-4.142 0-7.5 3.358-7.5 7.5s3.357 7.5 7.5 7.5z"/><path d="m130.25 107.5h60.5c4.142 0 7.5-3.358 7.5-7.5s-3.358-7.5-7.5-7.5h-60.5c-4.142 0-7.5 3.358-7.5 7.5s3.357 7.5 7.5 7.5z"/><path d="m130.25 167.5h169.75c.127 0 .252-.013.378-.019 12.511 11.195 29.011 18.019 47.081 18.019 38.978 0 70.688-31.71 70.688-70.687 0-7.58-1.195-15.044-3.553-22.184-1.299-3.933-5.543-6.07-9.474-4.77-3.934 1.298-6.069 5.54-4.771 9.473 1.856 5.62 2.797 11.501 2.797 17.48 0 30.706-24.981 55.687-55.688 55.687s-55.688-24.981-55.688-55.687 24.981-55.688 55.688-55.688c13.078 0 25.786 4.623 35.782 13.016 3.175 2.664 7.904 2.251 10.567-.921s2.251-7.903-.921-10.566c-12.694-10.659-28.828-16.529-45.429-16.529-38.978 0-70.688 31.71-70.688 70.688 0 13.849 4.019 26.77 10.929 37.687h-157.448c-4.142 0-7.5 3.358-7.5 7.5s3.357 7.501 7.5 7.501z"/><path d="m152.25 238.828c0 13.785 11.215 25 25 25s25-11.215 25-25-11.215-25-25-25-25 11.215-25 25zm35 0c0 5.514-4.486 10-10 10s-10-4.486-10-10 4.486-10 10-10 10 4.486 10 10z"/><path d="m230.25 238.828c0 13.785 11.215 25 25 25s25-11.215 25-25-11.215-25-25-25c-13.786 0-25 11.215-25 25zm34.999 0c0 5.514-4.485 10-10 10s-10-4.486-10-10 4.486-10 10-10 10 4.486 10 10z"/><path d="m308.249 238.828c0 13.785 11.215 25 25 25s25-11.215 25-25-11.215-25-25-25-25 11.215-25 25zm35 0c0 5.514-4.486 10-10 10s-10-4.486-10-10 4.486-10 10-10 10 4.486 10 10z"/><path d="m130.25 197.5h94.455c4.142 0 7.5-3.358 7.5-7.5s-3.358-7.5-7.5-7.5h-94.455c-4.142 0-7.5 3.358-7.5 7.5s3.357 7.5 7.5 7.5z"/><path d="m130.25 317.5h250c4.143 0 7.5-3.358 7.5-7.5s-3.357-7.5-7.5-7.5h-250c-4.142 0-7.5 3.358-7.5 7.5s3.357 7.5 7.5 7.5z"/><path d="m130.25 347.5h94.455c4.142 0 7.5-3.358 7.5-7.5s-3.358-7.5-7.5-7.5h-94.455c-4.142 0-7.5 3.358-7.5 7.5s3.357 7.5 7.5 7.5z"/><path d="m130.25 457.5h250c4.143 0 7.5-3.358 7.5-7.5s-3.357-7.5-7.5-7.5h-250c-4.142 0-7.5 3.358-7.5 7.5s3.357 7.5 7.5 7.5z"/><path d="m148.25 388.828c0 13.785 11.215 25 25 25s25-11.215 25-25-11.215-25-25-25-25 11.215-25 25zm35 0c0 5.514-4.486 10-10 10s-10-4.486-10-10 4.486-10 10-10 10 4.486 10 10z"/><path d="m230.25 388.828c0 13.785 11.215 25 25 25s25-11.215 25-25-11.215-25-25-25c-13.786 0-25 11.215-25 25zm34.999 0c0 5.514-4.485 10-10 10s-10-4.486-10-10 4.486-10 10-10 10 4.486 10 10z"/><path d="m310.249 388.828c0 13.785 11.215 25 25 25s25-11.215 25-25-11.215-25-25-25-25 11.215-25 25zm35 0c0 5.514-4.486 10-10 10s-10-4.486-10-10 4.486-10 10-10 10 4.486 10 10z"/></g></g></svg>