<svg id="Capa_1" enable-background="new 0 0 512 512" height="512" viewBox="0 0 512 512" width="512" xmlns="http://www.w3.org/2000/svg"><g><g><path d="m324.267 488.685-80.562-201.548c-3.847-9.624-5.823-19.893-5.823-30.257v-55.643c0-4.418-3.582-8-8-8-6.98 0-59.336 0-66.051 0v63.643c0 10.364-1.976 20.634-5.823 30.257l-80.562 201.548c-3.028 7.576 2.551 15.815 10.71 15.815h225.401c8.159 0 13.738-8.239 10.71-15.815z" fill="#f2fbff"/><path d="m342.267 488.685-80.562-201.548c-3.847-9.624-5.823-19.893-5.823-30.257v-63.643-40h-92.051v40h60.051c4.418 0 8 3.582 8 8v55.643c0 10.364 1.976 20.634 5.823 30.257l80.562 201.548c3.028 7.576-2.551 15.815-10.71 15.815h24c8.159 0 13.738-8.239 10.71-15.815z" fill="#dff6fd"/><path d="m160.754 356.544-44.529 111.401c-1.579 3.95 1.33 8.245 5.583 8.245h176.097c4.253 0 7.162-4.295 5.583-8.245l-44.528-111.401z" fill="#ffe177"/><path d="m256 153.399v-.325c0-12.071-9.786-21.856-21.856-21.856h-68.574c-12.071 0-21.856 9.785-21.856 21.856v.325c0 12.071 9.786 21.856 21.856 21.856h68.574c12.07 0 21.856-9.785 21.856-21.856z" fill="#f2fbff"/><path d="m254.144 131.217h-24c12.071 0 21.856 9.785 21.856 21.856v.325c0 12.071-9.786 21.856-21.856 21.856h24c12.071 0 21.856-9.785 21.856-21.856v-.325c0-12.07-9.786-21.856-21.856-21.856z" fill="#dff6fd"/><path d="m303.488 467.945-44.528-111.401h-24l44.529 111.401c1.579 3.95-1.33 8.245-5.583 8.245h24c4.252 0 7.161-4.296 5.582-8.245z" fill="#ffd15b"/><g fill="#fff6ce"><path d="m323.603 283.701h45.008l22.504 38.978-22.504 38.978h-45.008l-22.504-38.978z"/><path d="m256.048 244.723h45.008l22.504 38.978-22.504 38.978h-45.008l-22.504-38.978z"/><path d="m256.048 322.679h45.008l22.504 38.978-22.504 38.979h-45.008l-22.504-38.979z"/></g><path d="m216.544 100.372c6.5-2.735 11.064-9.162 11.064-16.656s-4.564-13.921-11.064-16.656h-4c-6.5 2.735-11.064 9.162-11.064 16.656s4.564 13.921 11.064 16.656z" fill="#ffe177"/><path d="m219.544 65.651c-2.482 0-4.847.502-7 1.408 6.5 2.735 11.064 9.162 11.064 16.656s-4.564 13.921-11.064 16.656c2.153.906 4.518 1.408 7 1.408 9.977 0 18.064-8.088 18.064-18.064s-8.087-18.064-18.064-18.064z" fill="#ffd15b"/><g><path d="m176.457 42.221c6.5-2.735 11.064-9.162 11.064-16.656s-4.564-13.921-11.064-16.656h-4c-6.5 2.735-11.064 9.162-11.064 16.656s4.564 13.921 11.064 16.656" fill="#ffe177"/></g><path d="m179.457 7.5c-2.482 0-4.847.502-7 1.408 6.5 2.735 11.064 9.162 11.064 16.656s-4.564 13.921-11.064 16.656c2.153.906 4.518 1.408 7 1.408 9.977 0 18.064-8.088 18.064-18.064s-8.087-18.064-18.064-18.064z" fill="#ffd15b"/></g><g><path d="m179.156 51.129c14.097 0 25.564-11.468 25.564-25.564s-11.467-25.565-25.564-25.565c-14.096 0-25.563 11.468-25.563 25.564s11.467 25.565 25.563 25.565zm0-36.129c5.825 0 10.564 4.739 10.564 10.564s-4.739 10.564-10.564 10.564-10.563-4.739-10.563-10.564 4.738-10.564 10.563-10.564z"/><path d="m193.678 83.715c0 14.096 11.468 25.564 25.564 25.564s25.564-11.468 25.564-25.564-11.468-25.564-25.564-25.564-25.564 11.468-25.564 25.564zm25.565-10.564c5.825 0 10.564 4.739 10.564 10.564s-4.739 10.564-10.564 10.564-10.564-4.739-10.564-10.564 4.739-10.564 10.564-10.564z"/><path d="m435.699 315.179h-40.554l-20.339-35.229c-1.34-2.32-3.815-3.75-6.495-3.75h-40.722l-18.174-31.478 20.339-35.229c2.071-3.587.842-8.174-2.745-10.245-3.59-2.072-8.175-.842-10.245 2.745l-20.339 35.229h-33.344v-55.965c11.673-3.881 20.117-14.899 20.117-27.859v-.325c0-16.187-13.169-29.356-29.355-29.356h-88.574c-16.188 0-29.356 13.169-29.356 29.356v.325c0 12.96 8.445 23.978 20.118 27.859v75.622c0 16.506-4.873 26.437-10.165 39.678-1.538 3.846.334 8.21 4.181 9.748 3.842 1.537 8.21-.334 9.747-4.181 5.626-14.074 11.237-25.799 11.237-45.245v-74.124h77.051v33.69l-8.344-14.451c-2.072-3.587-6.659-4.816-10.245-2.745-3.587 2.071-4.816 6.658-2.745 10.245l20.34 35.228-20.34 35.228c-1.34 2.32-1.34 5.18 0 7.5l20.34 35.229-15.222 26.365h-71.412c-3.067 0-5.826 1.868-6.964 4.716l-44.528 111.4c-3.547 8.871 2.998 18.529 12.547 18.529h176.097c9.532 0 16.099-9.642 12.548-18.529l-22.795-57.025h13.398c.308 0 .613-.019.914-.056l10.32 25.817c1.537 3.848 5.904 5.718 9.747 4.181 3.847-1.538 5.719-5.902 4.181-9.748l-13.292-33.254 14.964-25.919h36.267l20.339 35.229c2.072 3.59 6.662 4.815 10.245 2.745 3.587-2.071 4.816-6.658 2.745-10.245l-20.276-35.12 18.236-31.586h40.554c4.143 0 7.5-3.358 7.5-7.5s-3.36-7.5-7.502-7.5zm-53.607 7.392-18.236 31.586h-36.224l-18.174-31.478 18.174-31.479h36.349zm-67.493-38.87-18.174 31.479h-36.348l-18.175-31.479 18.175-31.478h36.348zm-149.33-115.946c-7.916 0-14.356-6.44-14.356-14.356v-.325c0-7.916 6.44-14.356 14.356-14.356h88.574c7.916 0 14.355 6.44 14.355 14.356v.325c0 7.916-6.439 14.356-14.354 14.356-.001 0-.001 0-.002 0zm130.14 300.935h-171.705l41.828-104.646h60.601c.035.106.082.208.123.313.031.081.061.162.095.243.117.275.246.545.397.808l22.505 38.979c1.34 2.32 3.815 3.75 6.495 3.75h15.456zm1.016-75.554c-13.465 0-22.369 0-36.348 0l-18.175-31.479 18.175-31.478h36.348l18.174 31.478c-3.26 5.647-17.308 29.979-18.174 31.479z"/><path d="m338.909 460.83c-1.536-3.846-5.901-5.717-9.748-4.181-3.846 1.538-5.718 5.902-4.18 9.748 10.933 27.351 10.32 25.512 10.32 26.579 0 1.935-1.547 4.024-4.045 4.024h-243.401c-2.881 0-4.799-2.893-3.746-5.531l62.693-156.845c1.538-3.846-.334-8.21-4.18-9.748-3.844-1.536-8.211.334-9.748 4.181l-62.693 156.844c-5.014 12.536 4.264 26.099 17.674 26.099h243.401c10.501 0 19.045-8.534 19.045-19.024 0-2.419-.461-4.799-1.371-7.075z"/></g></g></svg>