<svg id="Capa_1" enable-background="new 0 0 512.01 512.01" height="512" viewBox="0 0 512.01 512.01" width="512" xmlns="http://www.w3.org/2000/svg"><g><g><g><path d="m278.796 364.817c99.48-8.624 163.569-109.348 129.491-202.975-20.836-57.247-72.562-94.312-129.504-99.246-15.025 0-31.116 3.611-44.858 8.613-78.699 28.644-119.277 115.663-90.633 194.363 22.752 62.51 82.843 99.245 135.504 99.245z" fill="#98bce5"/></g><path d="m264.394 440.11v41.074h37.321l5.295-4.174v-36.131c-16.802 0-24.756 1.076-42.616-.769z" fill="#596c76"/><path d="m277.635 421.056c.001 0 .001 0 0 0-4.433-.176-8.849-.492-13.242-.946v20c10.927 1.129 22.001 1.387 33.126.769 2.282-.127 4.195 1.706 4.195 3.992v36.314h16c0-21.519 0-40.835 0-62.378-12.387 1.895-26.477 2.789-40.079 2.249z" fill="#465a61"/><path d="m384.739 387.578c-2.698-7.412-10.894-11.234-18.306-8.536l-18.071 6.577c-94.793 34.502-199.981-14.549-234.483-109.342-34.454-94.661 14.417-199.932 109.341-234.482l18.071-6.577c7.412-2.698 11.234-10.894 8.536-18.306-2.698-7.412-10.894-11.234-18.306-8.536l-16.353 5.952c-109.264 39.768-167.883 162.335-128.168 271.619 39.851 109.659 161.504 166.415 271.131 126.514l18.071-6.577c7.413-2.698 11.234-10.894 8.537-18.306z" fill="#9facba"/><path d="m284.098 363.39c-3.76.613-7.52 1.099-11.275 1.425 3.403.295 6.82.482 10.84.54z" fill="#5de1c4"/><path d="m345.69 487.847c0-9.203-7.46-16.663-16.663-16.663h-93.947c-9.203 0-16.663 7.46-16.663 16.663 0 9.203 7.46 16.663 16.663 16.663h93.947c9.199 0 16.663-7.456 16.663-16.663z" fill="#9facba"/><path d="m347.028 471.184h-22c9.196 0 16.663 7.454 16.663 16.663 0 9.203-7.46 16.663-16.663 16.663h22c9.198 0 16.663-7.456 16.663-16.663-.001-9.202-7.461-16.663-16.663-16.663z" fill="#8d9ca8"/><g><path d="m373.378 406.912c.417-2.382.247-4.899-.639-7.334-2.698-7.412-10.894-11.234-18.306-8.536l-18.071 6.577c-94.793 34.502-199.981-14.549-234.483-109.342-26.118-71.758-4.346-149.465 48.894-197.964 33.315-36.576 67.853-46.846 90.518-55.096 7.412-2.698 11.234-10.894 8.536-18.306s-10.894-11.234-18.306-8.536l-16.353 5.952c-109.264 39.769-167.883 162.336-128.168 271.62 39.851 109.659 161.504 166.415 271.131 126.514 5.898-2.147 9.199-3.348 15.247-5.549z" fill="#9facba"/></g><g fill="#86e8d0"><path d="m189.594 96.442 17.199 29.838c3.573 6.199 10.184 10.019 17.339 10.019h13.646c7.566 0 13.7 6.134 13.7 13.7v8.451c0 7.848 3.938 15.173 10.484 19.501 20.378 13.473 23.743 17.013 32.761 17.013h83.421c3.433 0 6.556-1.989 8.007-5.1l7.812-16.739c2.644-5.667 8.323-5.1 10.416-5.1-18.996-59.971-71.799-100.248-131.596-105.429-32.127 3.162-60 14.823-83.189 33.846z"/><path d="m430.379 168.025c-3.713-9.285-2.873-9.578 0 0z"/></g><g><path d="m325.172 256.287-6.58-20.725c-1.824-5.745-7.157-9.647-13.184-9.647-31.651 0-22.033 2.995-54.387-19.225-6.287-4.318-14.514-4.572-21.056-.651l-38.473 23.061c-8.785 5.266-14.161 14.756-14.161 24.999 0 10.643 5.801 20.44 15.134 25.557l17.1 9.375c4.569 2.505 7.83 6.867 8.94 11.958l11.729 53.809c13.556 5.344 27.899 8.747 42.589 10.017 3.755-.326 7.516-.811 11.275-1.425l12.857-58.051c2.307-10.417 6.504-13.661 25.535-35.864 3.116-3.636 4.13-8.624 2.682-13.188z" fill="#86e8d0"/></g><path d="m430.375 168.025-2.865-2.848h-20.667l-2.464 2.848c-.019-.061-.042-.12-.061-.181 27.816 87.358-28.098 180.516-120.22 195.546l-.435 1.964c105.291 1.022 177.434-100.531 146.712-197.329z" fill="#7bacdf"/><path d="m404.379 168.025h26c-19.609-64.953-85.016-111.721-157.596-105.429 59.798 5.181 112.601 45.458 131.596 105.429z" fill="#5de1c4"/><g><path d="m384.739 387.578c-2.698-7.412-10.894-11.234-18.306-8.536l-18.071 6.577c-94.793 34.502-199.981-14.549-234.483-109.342-24.058-66.1-7.481-137.246 36.894-185.964-53.24 48.499-75.012 126.205-48.894 197.964 34.502 94.793 139.69 143.843 234.483 109.342 0 0 18.07-6.577 18.071-6.577 7.412-2.698 15.608 1.124 18.306 8.536.886 2.435 1.057 4.952.639 7.334l2.824-1.028c7.413-2.698 11.235-10.894 8.537-18.306z" fill="#8d9ca8"/></g></g><path d="m435.368 159.322c-.006-.015-.01-.031-.016-.046-29.394-80.78-116.604-122.529-196.911-97.64l-5.591-15.359 11.023-4.012c8.574-3.121 14.336-11.347 14.336-20.47 0-15.043-15.024-25.641-29.236-20.468-23.06 8.393-70.053 22.928-111.46 73.577-2.622 3.207-2.147 7.932 1.06 10.554 3.206 2.622 7.932 2.147 10.554-1.06 36.726-44.923 76.724-58.692 104.978-68.976 3.606-1.312 7.444.626 8.692 4.054 1.312 3.599-.62 7.444-4.054 8.693l-18.071 6.577c-97.859 35.619-149.955 144.829-113.824 244.096 34.575 94.997 140.67 150.454 244.104 113.821l18.063-6.575c4.461-1.623 9.106 1.727 9.106 6.372 0 2.841-1.795 5.403-4.467 6.375-7.133 2.596 1.26-.459-18.072 6.578-106.513 38.768-223.45-17.281-261.517-122.028-20.929-57.59-13.761-119.924 15.875-171.217 2.072-3.586.845-8.174-2.742-10.246-3.585-2.071-8.174-.845-10.246 2.742-32.15 55.646-39.235 122.622-16.984 183.845 29.009 79.824 99.559 131.966 176.942 142.29v32.885h-21.813c-13.323 0-24.163 10.839-24.163 24.163 0 13.323 10.84 24.163 24.163 24.163h58.262c4.143 0 7.5-3.358 7.5-7.5s-3.357-7.5-7.5-7.5h-58.262c-5.053 0-9.163-4.11-9.163-9.163 0-5.052 4.11-9.163 9.163-9.163h111.946c5.053 0 9.163 4.11 9.163 9.163 0 5.052-4.11 9.163-9.163 9.163h-18.683c-4.143 0-7.5 3.358-7.5 7.5s3.357 7.5 7.5 7.5h18.685c13.323 0 24.163-10.839 24.163-24.163 0-13.323-10.84-24.163-24.163-24.163h-21.813v-34.531c21.143-3.881 33.734-9.008 53.552-16.222 8.576-3.121 14.338-11.347 14.338-20.471 0-15.033-15.02-25.644-29.237-20.467l-11.023 4.012-5.638-15.49c77.986-32.574 117.186-121.231 88.144-201.193zm-125.136 304.362h-38.321v-31.415c12.524.801 25.143.581 38.321-.896zm109.544-303.159h-17.788c-6.32 0-12.131 3.701-14.805 9.428-8.334 17.863-7.833 17.509-9.021 17.509h-83.421c-4.879 0-6.775-1.084-19.405-9.6-15.592-10.513-16.341-9.276-16.341-27.865 0-11.689-9.51-21.2-21.199-21.2h-13.646c-4.46 0-8.614-2.4-10.841-6.264l-13.956-24.211c75.274-56.615 185.208-26.571 220.423 62.203zm-298.832 113.187c-32.288-88.699 11.811-186.556 97.867-222.147l5.532 15.199c-76.994 32.292-117.643 120.155-88.082 201.373 28.971 79.596 115.706 122.835 196.868 97.512l5.582 15.337c-90.227 28.602-186.067-20.179-217.767-107.274zm104.906 25.679c-1.572-7.214-6.187-13.388-12.662-16.938l-17.1-9.374c-14.731-8.077-14.935-29.027-.723-37.546l38.473-23.061c4.014-2.406 9.097-2.249 12.954.4 34.013 23.36 25.513 20.543 58.633 20.543 2.771 0 5.197 1.775 6.036 4.417l6.579 20.726c.668 2.104.209 4.36-1.228 6.037-19.107 22.294-24.391 26.604-27.163 39.124l-11.933 53.877c-14.103-.813-27.919-3.692-41.022-8.456zm67.213 58.283 11.232-50.714c1.824-8.234 4.824-10.342 23.907-32.604 4.841-5.647 6.387-13.25 4.136-20.338l-6.579-20.725s0 0 0-.001c-2.826-8.898-10.997-14.877-20.333-14.877-29.264 0-18.77 3.639-50.141-17.907-8.678-5.961-20.124-6.316-29.157-.902l-38.474 23.062c-24.105 14.449-23.68 49.91 1.224 63.565l17.1 9.374c2.668 1.463 4.569 4.007 5.217 6.979l8.527 39.119c-31.091-16.037-56.485-43.312-69.364-78.698-20.763-57.043-3.121-117.397 37.291-154.951l12.664 21.97c4.897 8.496 14.031 13.773 23.837 13.773h13.646c3.418 0 6.199 2.781 6.199 6.2 0 8.078-1.746 23.897 13.849 34.208 20.598 13.615 25.287 18.256 36.897 18.256h83.421c6.32 0 12.131-3.701 14.805-9.428 8.334-17.863 7.833-17.509 9.021-17.509h22.812c24.701 89.667-41.108 177.635-131.737 182.148z"/></g></svg>