<svg id="Capa_1" enable-background="new 0 0 511.998 511.998" height="512" viewBox="0 0 511.998 511.998" width="512" xmlns="http://www.w3.org/2000/svg"><g><g><path d="m474.429 392.528 8.679-30.339-91.478-259.094-12.944-4.865-61.522 22.392 96.252 264.452 19.575 22.536c3.852-1.401 37.461-13.634 41.438-15.082z" fill="#f2fbff"/><path d="m399.135 95.375-10.083 8.689-7.312-6.945-3.054 1.112 92.779 254.907c-.407 23.89-.332 14.631-.332 40.59 10.67-3.883 20.284-7.383 23.987-8.73l.509-29.846c-86.187-236.797-66.803-185.059-96.494-259.777z" fill="#dff6fd"/><path d="m173.874 112.994-48.566-17.677h-12.653c-1.687 1.649-3.037 3.667-3.88 5.982l-92.405 253.853.509 29.846c9.686 3.525 34.427 12.53 43.769 15.931l21.737-7.2 95.986-265.798z" fill="#f2fbff"/><path d="m74.418 385.074-13.77 15.854 18.36 6.682 19.575-22.536 96.252-264.452-20.96-7.629c-4.568 10.877 7.273-21.157-99.457 272.081z" fill="#dff6fd"/><g fill="#7bacdf"><path d="m374.982 90.919v-.216c-5.107-.007-13.26-.003-40.902-.003l-78.19 51.998-78.19-51.998c-25.798 0-29.05 0-53.787 0-4.314 0-8.33 1.724-11.279 4.617v298.281l7.516 26.226h271.48l7.516-26.226v-298.223h-24.164z"/><path d="m495.12 384.998-62.129 22.613 9.014 24.765c1.141 3.135 4.608 4.752 7.743 3.611l50.776-18.481c3.135-1.141 4.752-4.608 3.611-7.743z"/><path d="m478.409 393.728-3.98-1.2-41.438 15.083 7.605 20.897 4.755 1.475 40.442-14.935z"/></g><path d="m504.133 409.762-9.014-24.765-20.69 7.531 5.54 15.22c1.141 3.135-.475 6.602-3.611 7.743l-35.762 13.016 1.408 3.868c1.141 3.135 4.608 4.752 7.743 3.611l50.776-18.481c3.135-1.141 4.751-4.608 3.61-7.743z" fill="#5f99d7"/><path d="m391.63 419.824h-271.48v30.542c0 3.892 3.155 7.048 7.048 7.048h257.385c3.892 0 7.048-3.155 7.048-7.048v-30.542z" fill="#f2fbff"/><path d="m362.056 358.057h-69.076c-3.336 0-6.041-2.705-6.041-6.041v-14.922c0-3.336 2.705-6.041 6.041-6.041h69.076c3.336 0 6.041 2.705 6.041 6.041v14.922c0 3.336-2.705 6.041-6.041 6.041z" fill="#b3ceec"/><path d="m218.8 331.053h-69.076c-3.336 0-6.041 2.705-6.041 6.041v14.922c0 3.336 2.705 6.041 6.041 6.041h69.076c3.336 0 6.041-2.705 6.041-6.041v-14.922c0-3.337-2.705-6.041-6.041-6.041z" fill="#b3ceec"/><path d="m367.027 419.824v30.543c0 3.892-3.155 7.048-7.048 7.048h24.603c3.892 0 7.048-3.155 7.048-7.048v-30.543z" fill="#dff6fd"/><path d="m193.346 57.269-23.648 24.729c-4.443 4.646-3.87 12.12 1.229 16.034l84.963 65.219v-47.761c0-9.007-3.873-17.58-10.631-23.534l-39.955-35.198c-3.479-3.065-8.755-2.839-11.958.511z" fill="#e5eef9"/><path d="m374.982 90.7v300.884l-7.955 28.24h24.603l7.516-26.226v-298.233c-5.863-5.755-11.689-4.622-24.164-4.665z" fill="#5f99d7"/><g fill="#7bacdf"><path d="m9.415 405.504c-.297.816-.611 1.679-.948 2.606.337-.927.651-1.791.948-2.606z"/><path d="m60.672 400.937-43.793-15.94c-3.367 9.252-4.582 12.59-7.247 19.911l1.034 3.201 44.5 16.231 8.833-20.25z"/></g><path d="m60.672 400.937-5.181 14.235c-1.141 3.135-4.608 4.752-7.743 3.611-16.512-6.01-29.389-10.697-38.117-13.873-.525 1.443-1.101 3.024-1.766 4.853-1.141 3.135.475 6.602 3.611 7.743 3.296 1.199 21.216 7.722 50.776 18.481 3.135 1.141 6.602-.475 7.743-3.611l9.014-24.765z" fill="#5f99d7"/><path d="m193.346 57.269-23.648 24.729c-4.443 4.646-3.87 12.12 1.229 16.034l84.963 65.219v-47.761c0-9.007-3.873-17.58-10.631-23.534l-39.955-35.198c-3.479-3.065-8.755-2.839-11.958.511z" fill="#f2fbff"/><path d="m255.999 151.457h7.442l75.225-58.45-30.748-31.1h-7.287l-34.109 30.049c-6.759 5.954-10.631 14.527-10.631 23.534-.001 22.361-.026 14.156.108 35.967z" fill="#f2fbff"/><path d="m322.252 84.516c-7.058-7.381-13.65-14.274-21.621-22.609l5.846-5.15c3.478-3.064 8.754-2.838 11.957.512l23.648 24.729c4.443 4.646 3.87 12.12-1.229 16.034l-84.963 65.219-7.551-5.797c9.544-7.472 52.188-40.856 72.771-56.969 5.028-3.937 5.556-11.354 1.142-15.969z" fill="#dff6fd"/></g><g><path d="m511.181 407.198-8.539-23.46.485-28.458c.016-.918-.137-1.831-.451-2.693-14.214-39.052-25.287-69.518-34.084-93.723-.374-1.028-59.352-164.168-64.198-168.913-7.161-7.015-14.632-6.903-22.544-6.785-3.11.046.03.034-30.386.034-.858-2.355-2.194-4.537-3.961-6.385l-23.648-24.729c-6.005-6.278-15.816-6.698-22.335-.956l-39.955 35.199c-2.13 1.877-4.026 3.966-5.674 6.219-1.648-2.253-3.544-4.342-5.674-6.219l-39.955-35.199c-6.52-5.744-16.331-5.324-22.335.956l-23.648 24.729c-1.767 1.848-3.103 4.03-3.961 6.385h-36.403c-10.434 0-18.975 6.712-22.185 15.533l-37.953 104.239c-1.417 3.893.59 8.196 4.483 9.613 3.889 1.416 8.196-.59 9.613-4.483l27.261-74.882v211.926l-13.124 36.058-15.282 17.595-52.438-19.085-.397-23.302 42.01-115.421c1.417-3.892-.59-8.196-4.483-9.613-3.889-1.416-8.196.59-9.613 4.483l-42.485 116.726c-.314.862-.467 1.775-.451 2.693l.485 28.458-8.539 23.461c-2.553 7.016 1.078 14.801 8.094 17.355l50.775 18.481c7.027 2.556 14.805-1.086 17.356-8.094l8.538-23.459c20.324-23.4 18.995-21.763 19.553-22.769 0 5.247-.08 5.66.29 6.951l7.226 25.214v29.488c0 8.021 6.526 14.548 14.548 14.548h203.483c4.142 0 7.5-3.358 7.5-7.5s-3.358-7.5-7.5-7.5h-67.29v-22.59h120.74v22.59h-18.45c-4.142 0-7.5 3.358-7.5 7.5s3.358 7.5 7.5 7.5h18.902c8.021 0 14.548-6.526 14.548-14.548v-29.488l7.226-25.214c.192-.672.29-1.368.29-2.066v-5.298c.615 1.29-.56-.227 19.771 23.18l8.539 23.461c2.554 7.016 10.339 10.647 17.356 8.094l50.775-18.481c7.017-2.555 10.647-10.34 8.094-17.356zm-447.736 21.241-48.034-17.483 5.949-16.346 48.034 17.482zm208.034-330.856 39.955-35.198c.46-.406 1.154-.378 1.58.067l23.648 24.729c1.36 1.422 1.177 3.708-.376 4.901l-72.896 55.956v-32.548c0-6.851 2.948-13.378 8.089-17.907zm-96.361-10.401 23.648-24.729c.423-.443 1.118-.474 1.579-.068l39.955 35.199c5.141 4.528 8.089 11.055 8.089 17.906v32.549l-72.896-55.956c-1.544-1.186-1.742-3.471-.375-4.901zm-13.703 11.018c1.204 2.226 2.875 4.192 4.945 5.781l82.03 62.968v245.376h-122.588l-5.668-19.78c0-21.578 0-283.99 0-293.469 1.165-.573 2.451-.875 3.78-.875h37.501zm86.975 351.714h-120.74v-22.59h120.74zm15-37.59v-245.375l82.029-62.967c2.071-1.59 3.742-3.556 4.945-5.782 31.511 0 28.509.013 31.709-.036 4.958-.074 7.555-.05 9.572.889v246.815 46.676l-5.668 19.78zm143.256-67.779v-209.45c13.936 35.589 15.429 39.697 47.848 128.893 8.7 23.937 19.625 53.995 33.612 92.424l-.397 23.302-52.437 19.085-15.283-17.594zm41.907 83.894-5.949-16.346 48.034-17.483 5.949 16.346z"/><path d="m362.056 323.553h-69.076c-7.466 0-13.541 6.075-13.541 13.541v14.922c0 7.466 6.075 13.541 13.541 13.541h69.076c7.466 0 13.541-6.075 13.541-13.541v-14.922c0-7.467-6.074-13.541-13.541-13.541zm-1.459 27.003h-66.158v-12.004h66.158z"/><path d="m149.724 365.556h69.076c7.466 0 13.541-6.075 13.541-13.541v-14.922c0-7.466-6.075-13.541-13.541-13.541h-69.076c-7.466 0-13.541 6.075-13.541 13.541v14.922c0 7.467 6.074 13.541 13.541 13.541zm1.459-27.003h66.158v12.004h-66.158z"/><path d="m290.781 180.362h1.684v22.001c0 19.329 15.725 35.053 35.053 35.053s35.053-15.725 35.053-35.053v-22.001h1.684c4.142 0 7.5-3.358 7.5-7.5s-3.358-7.5-7.5-7.5h-18.368c-4.142 0-7.5 3.358-7.5 7.5s3.358 7.5 7.5 7.5h1.684v22.001c0 11.058-8.996 20.053-20.053 20.053-11.058 0-20.053-8.996-20.053-20.053v-22.001h1.685c4.142 0 7.5-3.358 7.5-7.5s-3.358-7.5-7.5-7.5h-18.369c-4.142 0-7.5 3.358-7.5 7.5s3.358 7.5 7.5 7.5z"/></g></g></svg>