<svg id="Capa_1" enable-background="new 0 0 512 512" height="512" viewBox="0 0 512 512" width="512" xmlns="http://www.w3.org/2000/svg"><g><g><path d="m393.682 102.269-.459-11.67c-3.935-1.553-.347-1.132-65.666-1.132-.013.016-7.487 9.373-7.502 9.387h-128.113l-7.5-9.387-59.801.001c-3.827 0-7.607 1.497-10.284 3.742-7.619 6.393-101.066 84.804-104.624 87.79-2.644 2.219-2.989 6.161-.77 8.806l60.992 72.687c2.219 2.644 6.161 2.989 8.806.77l34.35-28.823-7.107 180.515c-.163 4.137 3.147 7.579 7.287 7.579 277.821 0 260.283.314 262.407-.643s13.656-8.224 13.657-8.224l-8.355-166.667 17.885-12.564 23.885 20.042h13.07l58.16-70.478z" fill="#f58a97"/><path d="m256 162.91c35.377 0 64.056-28.679 64.056-64.056v-9.387c-39.66 0-88.45 0-128.112 0v9.387c0 35.377 28.679 64.056 64.056 64.056z" fill="#596c76"/><path d="m367.178 89.47.004-.004h-.004z" fill="#5f99d7"/><g fill="#f07281"><path d="m398.886 234.436h-22.88c-1.703 0-3.065 1.416-2.998 3.118l6.985 177.401c.163 4.137-3.147 7.579-7.287 7.579h26c4.14 0 7.449-3.442 7.287-7.579-.29-7.378-6.814-173.063-7.107-180.519z"/><path d="m397.639 93.213c-2.881-2.417-6.522-3.743-10.283-3.743l-20.171-.001 109.082 91.531c2.644 2.219 2.989 6.161.77 8.806l-54.267 64.673 10.469 8.785c2.644 2.219 6.587 1.874 8.806-.77l60.992-72.687c2.219-2.644 1.874-6.587-.77-8.806-3.765-3.16-97.244-81.592-104.628-87.788z"/></g></g><g><path d="m332.881 270.3c15.417 0 27.958-12.542 27.958-27.958v-14.44c3.823-.344 6.82-3.553 6.82-7.466 0-4.142-3.358-7.5-7.5-7.5h-13.639c-4.142 0-7.5 3.358-7.5 7.5 0 3.912 2.997 7.121 6.819 7.466v14.44c0 7.146-5.813 12.958-12.958 12.958s-12.958-5.813-12.958-12.958v-14.44c3.823-.344 6.819-3.553 6.819-7.466 0-4.142-3.358-7.5-7.5-7.5h-13.639c-4.142 0-7.5 3.358-7.5 7.5 0 3.912 2.997 7.122 6.82 7.466v14.44c-.001 15.416 12.541 27.958 27.958 27.958z"/><path d="m507.088 175.254-48.21-40.45c-3.173-2.663-7.905-2.249-10.566.925-2.662 3.173-2.248 7.904.925 10.566l47.253 39.646c-7.57 9.022-52.066 62.05-59.385 70.772l-30.86-25.894-2.693-75.703c-.147-4.14-3.626-7.375-7.762-7.229-4.14.147-7.376 3.622-7.229 7.762 3.656 102.776 1.056 34.034 9.93 259.384h-208.292c-4.142 0-7.5 3.358-7.5 7.5s3.358 7.5 7.5 7.5h208.507c8.157 0 14.792-6.633 14.792-14.787 0-.197-.004-.394-.012-.587l-6.441-163.586 21.373 17.935c5.801 4.867 14.478 4.136 19.372-1.695 6.922-8.249 56.217-66.996 60.992-72.687 2.074-2.473 3.217-5.61 3.217-8.835.001-4.077-1.789-7.918-4.911-10.537z"/><path d="m155.199 415.034h-41.694c2.731-69.37 9.68-245.329 10.232-259.356.163-4.139-3.06-7.626-7.199-7.789-4.13-.165-7.626 3.059-7.789 7.199l-2.982 75.722-30.872 25.904-59.385-70.772 103.667-86.987c1.528-1.282 3.468-1.988 5.554-1.988l59.71-.001c0 41.258 29.94 69.479 64.056 73.049v26.114c0 4.142 3.358 7.5 7.5 7.5s7.5-3.358 7.5-7.5v-26.114c33.835-3.541 64.056-31.471 64.056-73.048 19.984.001 39.93.002 59.801.003 1.994 0 3.934.706 5.462 1.988l29.542 24.787c3.173 2.662 7.904 2.248 10.566-.925s2.249-7.904-.925-10.566l-29.539-24.786c-4.225-3.545-9.589-5.498-15.104-5.498-82.737-.006-187.92-.004-262.715-.003-5.515 0-10.879 1.952-15.104 5.497l-104.624 87.79c-5.828 4.888-6.57 13.567-1.695 19.373l60.992 72.688c4.893 5.829 13.569 6.564 19.372 1.694l21.368-17.93-6.44 163.578c-.008.198-.012.395-.012.591 0 8.153 6.636 14.786 14.792 14.786h41.911c4.142 0 7.5-3.358 7.5-7.5s-3.359-7.5-7.502-7.5zm100.803-259.624c-.002 0-.004 0-.006 0-29.417-.001-56.553-22.927-56.553-58.443h113.112c-.001 35.634-27.271 58.441-56.553 58.443z"/></g></g></svg>