<svg id="Capa_1" enable-background="new 0 0 512.005 512.005" height="512" viewBox="0 0 512.005 512.005" width="512" xmlns="http://www.w3.org/2000/svg"><g><g><path d="m348.173 227.566c1-11.78-8.292-21.895-20.115-21.895h-174.962l-4.886 8.685 14.204 258.035h171.49z" fill="#aa6a51"/><path d="m145.898 172.356 2.312 42h184.501c4.017 0 7.21 3.374 6.989 7.385l-13.797 250.65h23.688l16.516-300.035z" fill="#935b44"/><path d="m311.605 291.909c0-6.904-5.596-12.5-12.5-12.5h-16c-6.904 0-12.5 5.596-12.5 12.5 0 5.315 3.323 9.844 8 11.652v24.285c0 11.614-10.14 21.063-22.603 21.063s-22.603-9.449-22.603-21.063v-24.286c.816-.316 1.591-.714 2.314-1.185 3.421-2.228 5.686-6.079 5.686-10.467 0-6.904-5.596-12.5-12.5-12.5h-16c-6.904 0-12.5 5.596-12.5 12.5 0 4.612 2.502 8.631 6.219 10.795.567.33 1.162.617 1.781.856v24.285c0 25.399 21.354 46.063 47.603 46.063s47.603-20.664 47.603-46.063v-24.284c4.677-1.808 8-6.336 8-11.651z" fill="#ffe177"/><path d="m348.933 46.759-11.047-28.069c-2.187-5.557-7.244-9.468-13.172-10.189l-.096-.012-.577.177c-9.964 3.627-15.101 14.644-11.475 24.608l9.097 24.993c2.091 5.745 6.645 9.871 12.031 11.652.8-.264-.778.412 6.776-2.841 4.723-2.034 8.163-6.237 9.222-11.269.638-3.025.374-6.172-.759-9.05z" fill="#596c76"/><path d="m179.753 8.49h-4.365c-6.066 2.147-10.106 6.361-12.031 11.652l-9.097 24.993c-3.686 10.127 1.682 21.343 11.969 24.78.028.002.055.003.083.005l2.592-.519c4.704-.942 8.548-4.32 10.088-8.863l12.291-36.258c1.573-4.639-.42-9.737-4.721-12.081z" fill="#596c76"/><path d="m357.746 45.136-9.097-24.993c-3.557-9.773-14.222-14.881-24.031-11.652 5.387 1.781 9.94 5.907 12.031 11.652l9.097 24.993c3.627 9.964-1.511 20.981-11.475 24.608-.191.07-.385.114-.577.177 3.955 1.308 8.358 1.358 12.577-.177 9.964-3.627 15.102-14.644 11.475-24.608z" fill="#465a61"/><path d="m187.964 8.668c-4.219-1.535-8.621-1.485-12.577-.177.192.063.385.108.577.177 9.964 3.627 15.101 14.644 11.475 24.608l-9.097 24.993c-2.091 5.745-6.644 9.871-12.031 11.652 9.809 3.229 20.474-1.88 24.031-11.652l9.097-24.993c3.626-9.964-1.511-20.982-11.475-24.608z" fill="#465a61"/><path d="m370.422 186.607v-38.282c0-4.971-4.029-9-9-9h20.001-.001-250.839c-4.971 0-9 4.029-9 9v38.282c0 4.97 4.029 9 9 9h230.838c4.971 0 9.001-4.03 9.001-9z" fill="#bc7c63"/><path d="m381.422 139.325h-24c4.971 0 9 4.029 9 9v38.282c0 4.97-4.029 9-9 9h24c4.971 0 9-4.03 9-9v-38.282c0-4.971-4.03-9-9-9z" fill="#aa6a51"/><path d="m342.107 457.71h-187.209c-4.971 0-9 4.029-9 9v25.794l5.771 5.833h183.5c6.167 0 11.167-4.999 11.167-11.167v-24.833z" fill="#bc7c63"/><path d="m357.107 457.71h-15v25.794c0 4.97-4.029 9-9 9h-187.209v3c0 4.97 4.029 9 9 9h202.209c4.971 0 9-4.03 9-9v-28.794c0-4.97-4.029-9-9-9z" fill="#aa6a51"/></g><g><path d="m381.421 131.824h-16.107v-30.368c0-.875-.153-1.743-.452-2.565l-9.343-25.669c9.154-6.708 13.5-19.043 9.275-30.652l-9.097-24.993c-5.046-13.867-20.352-21.003-34.221-15.957-13.866 5.048-21.005 20.354-15.957 34.221l9.097 24.993c4.126 11.339 15.16 18.271 26.803 17.506l8.896 24.439v29.046h-188.624v-29.046l8.895-24.439c11.618.764 22.666-6.141 26.803-17.506l9.097-24.993c5.047-13.866-2.089-29.173-15.958-34.221-13.834-5.034-29.186 2.124-34.221 15.957l-9.097 24.994c-4.225 11.608.121 23.944 9.275 30.652l-9.343 25.669c-.299.822-.452 1.69-.452 2.565v30.368h-16.108c-9.098 0-16.5 7.402-16.5 16.5v38.282c0 9.098 7.402 16.5 16.5 16.5h9.496l3.485 63.306c.228 4.136 3.773 7.301 7.901 7.077 4.136-.228 7.304-3.765 7.077-7.901l-3.439-62.481h201.801l-13.603 247.102c-5.018 0-169.561 0-174.596 0l-8.239-149.675c-.228-4.136-3.762-7.298-7.901-7.077-4.136.228-7.304 3.765-7.077 7.901l8.197 148.912c-8.532.625-15.287 7.75-15.287 16.439v28.794c0 9.098 7.402 16.5 16.5 16.5h157c4.143 0 7.5-3.358 7.5-7.5s-3.357-7.5-7.5-7.5h-157c-.827 0-1.5-.673-1.5-1.5v-28.794c0-.827.673-1.5 1.5-1.5h202.209c.827 0 1.5.673 1.5 1.5v28.794c0 .827-.673 1.5-1.5 1.5h-10.209c-4.143 0-7.5 3.358-7.5 7.5s3.357 7.5 7.5 7.5h10.209c9.098 0 16.5-7.402 16.5-16.5v-28.794c0-8.689-6.756-15.814-15.288-16.439.591-10.74 13.007-236.288 13.605-247.165h9.497c9.098 0 16.5-7.402 16.5-16.5v-38.282c.001-9.098-7.401-16.5-16.499-16.5zm-52.709-76.12-9.097-24.994c-2.789-7.659 2.915-15.707 11-15.707 4.66 0 9.221 2.851 10.986 7.704l9.097 24.994c2.212 6.075-.915 12.783-6.992 14.995-.001.001-.003.001-.004.002-6.073 2.207-12.78-.917-14.99-6.994zm-167.405-8.003 9.097-24.994c2.204-6.056 8.926-9.2 14.995-6.992 6.062 2.206 9.198 8.933 6.992 14.995l-9.097 24.993c-2.207 6.061-8.933 9.198-14.992 6.993-.001 0-.002-.001-.003-.001-6.077-2.211-9.204-8.918-6.992-14.994zm221.614 138.906c0 .827-.673 1.5-1.5 1.5h-250.838c-.827 0-1.5-.673-1.5-1.5v-38.282c0-.827.673-1.5 1.5-1.5h250.838c.827 0 1.5.673 1.5 1.5z"/><path d="m248.9 291.908c0-11.028-8.972-20-20-20h-16c-11.028 0-20 8.972-20 20 0 6.304 3.016 12.238 8 15.986v19.951c0 29.535 24.719 53.563 55.103 53.563s55.103-24.028 55.103-53.563v-19.93c4.98-3.703 8-9.554 8-16.007 0-11.028-8.972-20-20-20h-16c-11.028 0-20 8.972-20 20 0 6.453 3.02 12.304 8 16.007v19.93c0 7.479-6.775 13.563-15.103 13.563s-15.103-6.084-15.103-13.563v-19.949c5.033-3.769 8-9.652 8-15.988zm7.103 64.5c16.599 0 30.103-12.813 30.103-28.563v-24.285c0-3.099-1.905-5.878-4.796-6.996-1.946-.752-3.204-2.58-3.204-4.656 0-2.757 2.243-5 5-5h16c2.757 0 5 2.243 5 5 0 2.076-1.258 3.904-3.204 4.656-2.891 1.118-4.796 3.897-4.796 6.996v24.285c0 21.264-17.99 38.563-40.103 38.563s-40.103-17.299-40.103-38.563v-24.285c0-5.342-4.508-6.756-5.508-7.338-1.561-.908-2.492-2.521-2.492-4.313 0-2.757 2.243-5 5-5h16c5.522 0 6.928 7.678 1.797 9.656-2.891 1.117-4.797 3.897-4.797 6.996v24.285c0 15.749 13.504 28.562 30.103 28.562z"/></g></g></svg>