<svg id="Capa_1" enable-background="new 0 0 512.002 512.002" height="512" viewBox="0 0 512.002 512.002" width="512" xmlns="http://www.w3.org/2000/svg"><g><g><path d="m248.557 480.735c4.042-2.156 6.795-6.412 6.795-11.313v-194.218h-4-9.591-4v194.217c0 4.901 2.753 9.156 6.795 11.313h4.001z" fill="#8d9ca8"/><path d="m251.353 275.204v194.217c0 4.901-2.753 9.157-6.795 11.313 1.796.958 3.845 1.505 6.023 1.505h.001c7.079 0 12.818-5.739 12.818-12.818v-194.217z" fill="#7a8c98"/><path d="m246.164 322.018c1.979-5.15 9.265-5.15 11.244 0l61.504 160.021c1.036 2.696 2.884 4.891 5.157 6.385 4.876-3.254 7.04-9.543 4.849-15.244l-70.148-182.511v-10.54h-28.022v10.54l-71.588 186.257c-1.356 3.528-.706 7.391 2.95 10.766 4.673-2.287 8.73-6.261 10.462-10.767l59.539-154.906c1.979-5.15 9.265-5.15 11.244 0l1.405 3.655z" fill="#b6c4cf"/><path d="m243.355 322.018c-1.979-5.15-9.265-5.15-11.244 0l-59.539 154.906c-1.732 4.506-5.789 8.479-10.462 10.767 1.586 1.266 3.595 2.052 5.856 2.052 7.553 0 15.95-5.768 18.659-12.818l58.134-151.251z" fill="#9facba"/><path d="m342.972 473.18-70.147-182.511v-10.54h-14.055v10.54l70.147 182.511c2.191 5.701.026 11.99-4.849 15.244 3.159 2.077 7.142 2.79 10.953 1.528 6.996-2.317 10.564-9.972 7.951-16.772z" fill="#9facba"/><path d="m40.499 192.771c.068-.01.136-.013.205-.025l41.66-7.346-7.81-44.292-35.931 6.335c-3.276.578-5.463 3.702-4.886 6.977z" fill="#596c76"/><path d="m161.503 178.791c-.083-.47-8.027-45.62-8.156-46.079-.824-2.918-3.759-4.835-6.841-4.291l-71.952 12.687 6.938 39.349c.481 2.73-1.341 5.333-4.071 5.814l-36.717 6.474c-.069.012-.136.016-.205.025l1.258 7.135c.578 3.276 3.701 5.463 6.977 4.886l107.883-19.023c3.276-.577 5.463-3.701 4.886-6.977z" fill="#465a61"/><path d="m117.471 125.858-7.329-4.265-18.291 3.225c-3.276.578-5.463 3.702-4.886 6.977l11.636 65.99 6.247 4.045 25.171-4.045z" fill="#9facba"/><path d="m282.18 170.753-12.549-71.167c-.578-3.276-3.702-5.463-6.977-4.886l-152.512 26.892 11.81 66.978c.481 2.73-1.341 5.333-4.071 5.814l-19.28 3.4.913 5.178c.578 3.276 3.701 5.463 6.977 4.886l170.803-30.117c3.276-.578 5.463-3.702 4.886-6.978z" fill="#8d9ca8"/><path d="m432.173 50.752-10.99-5.3-288.181 58.088c-3.205.646-5.309 3.731-4.741 6.95l14.992 85.026 12.364 7.805 296.132-43.634z" fill="#b6c4cf"/><path d="m488.854 156.627-20.181-114.453c-.588-3.333-3.805-5.527-7.122-4.858l-40.368 8.137 17.479 99.128c.587 3.332-1.685 6.495-5.031 7.001l-290.379 43.935 2.352 13.341c.568 3.22 3.6 5.398 6.833 4.909l331.386-50.14c3.346-.506 5.618-3.668 5.031-7z" fill="#9facba"/><path d="m273.742 258.745h-18.069c3.881 0 7.027 3.146 7.027 7.027v17.394c0 3.881-3.146 7.027-7.027 7.027h18.069c3.881 0 7.027-3.146 7.027-7.027v-17.394c0-3.881-3.146-7.027-7.027-7.027z" fill="#596c76"/><path d="m266.715 283.165v-17.394c0-3.88-3.146-7.026-7.026-7.027h-32.124c-3.881 0-7.027 3.146-7.027 7.027v17.394c0 3.881 3.146 7.027 7.027 7.027h32.123c3.881 0 7.027-3.146 7.027-7.027z" fill="#7a8c98"/><path d="m275.651 175.091c5.691-.781 10.938 3.199 11.719 8.889l3.398 24.749c.696 5.071-2.392 9.78-7.098 11.301l18.285-2.511c5.691-.781 9.671-6.028 8.889-11.719l-3.398-24.749c-.781-5.691-6.028-9.671-11.719-8.889z" fill="#596c76"/><path d="m193.512 186.196c-5.691.781-9.671 6.028-8.889 11.719l3.398 24.749c.781 5.691 6.028 9.671 11.719 8.889l83.93-11.524c4.706-1.521 7.794-6.23 7.098-11.301l-3.398-24.749c-.781-5.691-6.028-9.671-11.719-8.889z" fill="#7a8c98"/><path d="m245.634 262.59c10.992-3.757 18.9-14.168 18.9-26.433s-7.908-22.676-18.9-26.433h-4.015c-12.554 4.706-18.9 15.444-18.9 26.433 0 11.024 6.372 21.734 18.9 26.433z" fill="#b6c4cf"/><path d="m250.654 208.223c-3.163 0-6.2.533-9.035 1.502 10.992 3.757 18.9 14.168 18.9 26.433s-7.908 22.676-18.9 26.433c2.835.969 5.871 1.502 9.035 1.502 15.428 0 27.935-12.507 27.935-27.935s-12.507-27.935-27.935-27.935z" fill="#9facba"/><path d="m40.499 130.557-5.411-4.699-22.609 3.987c-3.276.578-5.463 3.701-4.886 6.977l14.744 83.617 6.375 2.973 27.023-5.521z" fill="#9facba"/><path d="m486.338 162.236-24.568-139.336-10.071 1.776c-3.276.578-5.463 3.701-4.886 6.977.182 1.031 24.341 138.041 24.569 139.336l10.071-1.776c3.276-.577 5.463-3.701 4.885-6.977z" fill="#7a8c98"/><path d="m504.408 168.259-25.098-142.336c-.578-3.276-3.702-5.463-6.977-4.886l-10.563 1.863 24.569 139.336c.578 3.276-1.61 6.4-4.886 6.977l-10.071 1.776.529 3c.578 3.276 3.702 5.463 6.977 4.886l20.633-3.638c3.277-.578 5.464-3.702 4.887-6.978z" fill="#596c76"/><path d="m67.9 217.505-15.616-88.564c-.578-3.276-3.702-5.463-6.977-4.886l-10.219 1.802 14.744 83.617c.578 3.276-1.61 6.4-4.886 6.977l-22.609 3.987.872 4.947c.578 3.276 3.702 5.463 6.977 4.886l32.829-5.789c3.276-.577 5.463-3.701 4.885-6.977z" fill="#8d9ca8"/></g><path d="m511.793 167.434-25.097-142.335c-1.295-7.349-8.29-12.269-15.667-10.971l-20.632 3.639c-6.525 1.151-12.481 7.095-10.771 16.794l-308.105 62.104c-7.256 1.462-11.933 8.317-10.646 15.604l.05.282-30.376 5.356c-3.558.627-6.658 2.602-8.73 5.561-1.979 2.826-2.778 6.226-2.3 9.624l-18.398 3.244-1.449-8.22c-1.301-7.381-8.314-12.271-15.667-10.971l-32.827 5.789c-6.478 1.142-11.178 6.74-11.178 13.311 0 .787.069 1.58.207 2.356l7.767 44.049c.72 4.08 4.613 6.805 8.688 6.084 4.079-.719 6.803-4.609 6.083-8.688l-7.51-42.595 29.919-5.275 15.104 85.655-29.919 5.275-1.516-8.591c-.719-4.079-4.609-6.802-8.688-6.084-4.079.719-6.803 4.609-6.083 8.688l1.771 10.045c1.141 6.477 6.739 11.177 13.311 11.177 1.679 0-.455.29 35.184-5.995 7.392-1.303 12.271-8.328 10.97-15.666l-1.45-8.222 18.398-3.244c1.525 7.167 8.406 11.755 15.56 10.497l30.376-5.356.05.282c1.285 7.293 8.028 12.13 15.34 11.023l26.144-3.956.936 6.816c1.333 9.703 10.266 16.294 19.762 14.99l14.839-2.037c.14 5.994 1.772 11.622 4.544 16.53-4.048 2.581-6.746 7.1-6.746 12.247v17.393c0 5.459 3.03 10.22 7.494 12.701l-68.375 177.89c-4.293 11.155 4.011 23.009 15.806 23.009 10.59 0 21.861-7.743 25.661-17.627l37.841-98.455v88.737c0 11.203 9.115 20.318 20.318 20.318s20.318-9.115 20.318-20.318v-88.737l39.807 103.569c3.464 9.008 12.797 14.6 22.283 13.112.01-.001.02-.003.03-.004 12.738-2.017 20.382-15.31 15.748-27.349l-21.525-56.006c-1.486-3.866-5.821-5.798-9.691-4.31-3.866 1.486-5.796 5.825-4.311 9.691l21.527 56.01c1.022 2.658-.093 6.148-4.092 7.147-2.42.387-5.028-1.229-5.968-3.674-1.748-4.549-58.389-151.916-61.504-160.021-4.418-11.49-20.786-11.6-25.246 0l-59.538 154.906c-1.582 4.117-7.248 8.009-11.659 8.009-1.399 0-2.282-1.388-1.805-2.626l69.74-181.447h31.771l34.217 89.027c1.486 3.865 5.821 5.798 9.691 4.31 3.866-1.486 5.796-5.825 4.311-9.691l-33.311-86.669c3.452-2.658 5.689-6.819 5.689-11.503v-17.393c0-5.147-2.698-9.666-6.746-12.247 2.901-5.136 4.566-11.059 4.566-17.367 0-3.015-.381-5.943-1.093-8.74l18.34-2.518c9.58-1.316 16.304-10.18 14.989-19.761l-1.195-8.705 147.197-22.271.199 1.127c1.298 7.363 8.305 12.267 15.667 10.971l20.632-3.639c7.361-1.298 12.269-8.304 10.969-15.665zm-440.561 26.251-5.306-30.093-2.201-12.484 18.374-3.24 7.508 42.576zm35.412 6.997-12.036-68.258 28.921-5.1 12.036 68.258zm150.46 269.216c0 2.932-2.386 5.318-5.318 5.318s-5.318-2.386-5.318-5.318v-127.764l5.318-13.838 5.318 13.837zm-9.092-253.508c12.335-1.634 23.075 8.064 23.075 20.244 0 11.32-9.254 20.435-20.435 20.435-11.232 0-20.435-9.148-20.435-20.435.002-10.269 7.714-18.934 17.795-20.244zm-19.974 66.778v-16.447h3.899c5.388 3.367 12.003 5.347 18.716 5.347 6.679 0 13.285-1.951 18.717-5.347h3.898v16.447h-.444c-16.497 0 .367 0-44.786 0zm73.256-72.652-23.582 3.238c-16.62-19.729-48.389-15.544-59.276 8.139l-20.075 2.756c-1.411.185-2.671-.794-2.859-2.169-.056-.411-3.072-22.37-3.072-22.37-.191-1.394.786-2.669 2.17-2.859 109.815-15.078 103.23-14.344 104.157-13.995 1.637.616 1.631 1.997 1.826 3.418l2.881 20.982c.189 1.386-.783 2.67-2.17 2.86zm13.754-28.461c-1.873-9.015-10.42-15.051-19.557-13.798l-102.933 14.133c-9.602 1.318-16.309 10.158-14.989 19.761l.031.225.064.466-24.922 3.771-16.844-95.528 306.334-61.748 19.488 110.526zm163.993-10.346-24.585-139.427 17.724-3.125 24.585 139.427z"/></g></svg>