<svg id="Capa_1" enable-background="new 0 0 512 512" height="512" viewBox="0 0 512 512" width="512" xmlns="http://www.w3.org/2000/svg"><g><g><path d="m474.936 7.5c-5.93 0-258.524 0-270.459 0-7.391 0-13.383 5.992-13.383 13.383v416.653c0 7.391 5.992 13.383 13.383 13.383h270.459c7.391 0 13.383-5.992 13.383-13.383v-416.653c0-7.391-5.991-13.383-13.383-13.383z" fill="#f2fbff"/><path d="m490.936 7.5h-24c7.391 0 13.383 5.992 13.383 13.383v416.653c0 7.391-5.992 13.383-13.383 13.383h24c7.391 0 13.383-5.992 13.383-13.383v-416.653c0-7.391-5.991-13.383-13.383-13.383z" fill="#dff6fd"/><path d="m217.43 202.189h-192.529c-9.51 0-17.22 7.71-17.22 17.22v267.87c0 1.82.287 3.573.811 5.22.001.002.001.004.002.006-.001-.002-.001-.004-.002-.006l11.938 5.25h183.01c4.181 0 8.282-1.14 11.863-3.297 6.905-4.16 11.127-11.632 11.127-19.693v-264.342z" fill="#596c76"/><g fill="#b6c4cf"><path d="m66.551 356.727h-26.343c-2.113 0-3.827-1.713-3.827-3.827v-26.343c0-2.113 1.713-3.827 3.827-3.827h26.343c2.113 0 3.827 1.713 3.827 3.827v26.343c-.001 2.114-1.714 3.827-3.827 3.827z"/><path d="m136.132 356.727h-26.343c-2.113 0-3.827-1.713-3.827-3.827v-26.343c0-2.113 1.713-3.827 3.827-3.827h26.343c2.113 0 3.827 1.713 3.827 3.827v26.343c0 2.114-1.714 3.827-3.827 3.827z"/><path d="m206.004 356.727h-26.343c-2.113 0-3.827-1.713-3.827-3.827v-26.343c0-2.113 1.713-3.827 3.827-3.827h26.343c2.113 0 3.827 1.713 3.827 3.827v26.343c-.001 2.114-1.714 3.827-3.827 3.827z"/><path d="m66.551 416.041h-26.343c-2.113 0-3.827-1.713-3.827-3.827v-26.343c0-2.113 1.713-3.827 3.827-3.827h26.343c2.113 0 3.827 1.713 3.827 3.827v26.343c-.001 2.114-1.714 3.827-3.827 3.827z"/><path d="m136.132 416.041h-26.343c-2.113 0-3.827-1.713-3.827-3.827v-26.343c0-2.113 1.713-3.827 3.827-3.827h26.343c2.113 0 3.827 1.713 3.827 3.827v26.343c0 2.114-1.714 3.827-3.827 3.827z"/><path d="m206.004 416.041h-26.343c-2.113 0-3.827-1.713-3.827-3.827v-26.343c0-2.113 1.713-3.827 3.827-3.827h26.343c2.113 0 3.827 1.713 3.827 3.827v26.343c-.001 2.114-1.714 3.827-3.827 3.827z"/><path d="m66.551 475.355h-26.343c-2.113 0-3.827-1.713-3.827-3.827v-26.343c0-2.113 1.713-3.827 3.827-3.827h26.343c2.113 0 3.827 1.713 3.827 3.827v26.343c-.001 2.114-1.714 3.827-3.827 3.827z"/><path d="m136.132 475.355h-26.343c-2.113 0-3.827-1.713-3.827-3.827v-26.343c0-2.113 1.713-3.827 3.827-3.827h26.343c2.113 0 3.827 1.713 3.827 3.827v26.343c0 2.114-1.714 3.827-3.827 3.827z"/><path d="m206.004 475.355h-26.343c-2.113 0-3.827-1.713-3.827-3.827v-26.343c0-2.113 1.713-3.827 3.827-3.827h26.343c2.113 0 3.827 1.713 3.827 3.827v26.343c-.001 2.114-1.714 3.827-3.827 3.827z"/></g><path d="m221.02 202.189h-3.59c.524 1.647.811 3.4.811 5.22v267.87c0 9.51-7.71 17.22-17.22 17.22h-192.53c2.212 6.957 8.72 12 16.41 12h196.119c9.51 0 17.22-7.71 17.22-17.22v-267.87c.001-9.51-7.709-17.22-17.22-17.22z" fill="#465a61"/><path d="m200.93 230.89h-155.939c-4.549 0-8.265 3.531-8.579 8h152.518c4.755 0 8.61 3.855 8.61 8.61v44.964c0 .206-.017.408-.031.61h3.421c4.755 0 8.61-3.855 8.61-8.61v-44.964c0-4.755-3.855-8.61-8.61-8.61z" fill="#c8effe"/><path d="m197.509 293.074c.048-.684.031 2.941.031-45.574 0-4.755-3.855-8.61-8.61-8.61h-152.518c-.014.202-.031.404-.031.61v44.964c0 4.755 3.855 8.61 8.61 8.61z" fill="#dff6fd"/></g><g><path d="m200.93 223.39h-155.939c-8.883 0-16.11 7.227-16.11 16.11v44.964c0 8.883 7.228 16.11 16.11 16.11h155.939c8.883 0 16.11-7.227 16.11-16.11v-44.964c0-8.883-7.227-16.11-16.11-16.11zm1.11 61.074c0 .612-.498 1.11-1.11 1.11h-155.939c-.612 0-1.11-.498-1.11-1.11v-44.964c0-.612.498-1.11 1.11-1.11h155.939c.612 0 1.11.498 1.11 1.11z"/><path d="m28.881 352.9c0 6.246 5.081 11.327 11.327 11.327h26.343c6.245 0 11.326-5.081 11.326-11.327v-26.343c0-6.246-5.081-11.327-11.326-11.327h-26.343c-6.246 0-11.327 5.081-11.327 11.327zm15-22.669h18.996v18.996h-18.996z"/><path d="m147.459 326.558c0-6.246-5.081-11.327-11.327-11.327h-26.343c-6.245 0-11.326 5.081-11.326 11.327v26.342c0 6.246 5.081 11.327 11.326 11.327h26.343c6.246 0 11.327-5.081 11.327-11.327zm-15 22.669h-18.996v-18.996h18.996z"/><path d="m217.33 326.558c0-6.246-5.081-11.327-11.326-11.327h-26.343c-6.246 0-11.327 5.081-11.327 11.327v26.342c0 6.246 5.081 11.327 11.327 11.327h26.343c6.245 0 11.326-5.081 11.326-11.327zm-15 22.669h-18.996v-18.996h18.996z"/><path d="m28.881 412.214c0 6.246 5.081 11.327 11.327 11.327h26.343c6.245 0 11.326-5.081 11.326-11.327v-26.343c0-6.246-5.081-11.327-11.326-11.327h-26.343c-6.246 0-11.327 5.081-11.327 11.327zm15-22.669h18.996v18.996h-18.996z"/><path d="m147.459 385.872c0-6.246-5.081-11.327-11.327-11.327h-26.343c-6.245 0-11.326 5.081-11.326 11.327v26.343c0 6.246 5.081 11.327 11.326 11.327h26.343c6.246 0 11.327-5.081 11.327-11.327zm-15 22.669h-18.996v-18.996h18.996z"/><path d="m217.33 385.872c0-6.246-5.081-11.327-11.326-11.327h-26.343c-6.246 0-11.327 5.081-11.327 11.327v26.343c0 6.246 5.081 11.327 11.327 11.327h26.343c6.245 0 11.326-5.081 11.326-11.327zm-15 22.669h-18.996v-18.996h18.996z"/><path d="m28.881 471.528c0 6.246 5.081 11.327 11.327 11.327h26.343c6.245 0 11.326-5.081 11.326-11.327v-26.342c0-6.246-5.081-11.327-11.326-11.327h-26.343c-6.246 0-11.327 5.081-11.327 11.327zm15-22.669h18.996v18.996h-18.996z"/><path d="m136.132 433.859h-26.343c-6.245 0-11.326 5.081-11.326 11.327v26.342c0 6.246 5.081 11.327 11.326 11.327h26.343c6.246 0 11.327-5.081 11.327-11.327v-26.342c0-6.246-5.081-11.327-11.327-11.327zm-3.673 33.996h-18.996v-18.996h18.996z"/><path d="m206.004 433.859h-26.343c-6.246 0-11.327 5.081-11.327 11.327v26.342c0 6.246 5.081 11.327 11.327 11.327h26.343c6.245 0 11.326-5.081 11.326-11.327v-26.342c0-6.246-5.081-11.327-11.326-11.327zm-3.674 33.996h-18.996v-18.996h18.996z"/><path d="m446.313 92.435h-106.724c-4.824 0-9.152 3.229-10.525 7.852l-27.89 93.833-5.218-28.694c-1.1-6.053-6.363-10.446-12.516-10.446h-16.14c-4.143 0-7.5 3.358-7.5 7.5s3.357 7.5 7.5 7.5h14.238l7.889 43.385c.913 5.021 5.109 8.722 10.204 9 .205.011.409.017.611.017 4.847 0 9.117-3.157 10.514-7.853l31.832-107.095h103.726c4.143 0 7.5-3.358 7.5-7.5s-3.358-7.499-7.501-7.499z"/><path d="m361.513 215.133c2.93 2.929 7.678 2.929 10.607 0l22.132-22.132 22.132 22.132c2.93 2.929 7.678 2.929 10.607 0s2.929-7.678 0-10.606l-22.132-22.132 22.132-22.132c2.929-2.929 2.929-7.678 0-10.606-2.93-2.929-7.678-2.929-10.607 0l-22.132 22.132-22.132-22.132c-2.93-2.929-7.678-2.929-10.607 0s-2.929 7.678 0 10.606l22.132 22.132-22.132 22.132c-2.929 2.929-2.929 7.678 0 10.606z"/><path d="m453.813 252.616c0-4.142-3.357-7.5-7.5-7.5h-179.013c-4.143 0-7.5 3.358-7.5 7.5s3.357 7.5 7.5 7.5h179.014c4.142 0 7.499-3.358 7.499-7.5z"/><path d="m394.049 305.597c0-15.016-12.217-27.232-27.232-27.232-12.983 0-24.221 9.236-26.721 21.961-.799 4.064 1.85 8.007 5.914 8.805 4.059.799 8.007-1.849 8.805-5.914 1.121-5.709 6.169-9.853 12.002-9.853 6.745 0 12.232 5.487 12.232 12.232s-5.487 12.232-12.232 12.232c-4.143 0-7.5 3.358-7.5 7.5s3.357 7.5 7.5 7.5c6.745 0 12.232 5.487 12.232 12.232s-5.487 12.232-12.232 12.232c-6.61 0-12.231-5.371-12.231-12.232 0-4.142-3.357-7.5-7.5-7.5s-7.5 3.358-7.5 7.5c0 15.201 12.469 27.232 27.231 27.232 15.016 0 27.232-12.216 27.232-27.232 0-7.76-3.268-14.767-8.494-19.732 5.226-4.964 8.494-11.971 8.494-19.731z"/><path d="m504.319 76.051c4.143 0 7.5-3.358 7.5-7.5v-47.668c0-11.515-9.368-20.883-20.882-20.883h-286.459c-11.515 0-20.883 9.368-20.883 20.883v173.807h-158.694c-13.631 0-24.721 11.089-24.721 24.72v267.87c0 13.631 11.09 24.72 24.721 24.72h16.119c4.143 0 7.5-3.358 7.5-7.5s-3.357-7.5-7.5-7.5h-16.119c-5.36 0-9.721-4.36-9.721-9.72v-267.87c0-5.36 4.36-9.72 9.721-9.72h196.119c5.251 0 9.72 4.273 9.72 9.72v267.87c0 5.36-4.36 9.72-9.72 9.72h-145c-4.143 0-7.5 3.358-7.5 7.5s3.357 7.5 7.5 7.5h145c13.631 0 24.72-11.089 24.72-24.72v-28.861h245.196c11.515 0 20.883-9.368 20.883-20.883v-333.985c0-4.142-3.357-7.5-7.5-7.5s-7.5 3.358-7.5 7.5v333.985c0 3.244-2.639 5.883-5.883 5.883h-245.196c0-10.466 0-217.393 0-224.009 0-13.651-11.127-24.72-24.72-24.72h-22.426v-173.807c0-3.244 2.639-5.883 5.883-5.883h286.459c3.244 0 5.883 2.639 5.883 5.883v47.668c0 4.142 3.358 7.5 7.5 7.5z"/></g></g></svg>