<svg id="Capa_1" enable-background="new 0 0 512 512" height="512" viewBox="0 0 512 512" width="512" xmlns="http://www.w3.org/2000/svg"><g><g><path d="m460.957 380.627v-294.656c0-4.488-3.638-8.127-8.126-8.128h-398.516v310.913h398.513c4.489 0 8.129-3.64 8.129-8.129z" fill="#98bce5"/><path d="m472.828 77.842h-24c4.489 0 8.128 3.639 8.128 8.128v294.656c0 4.489-3.639 8.128-8.128 8.128h24c4.489 0 8.128-3.639 8.128-8.128v-294.655c.001-4.489-3.639-8.129-8.128-8.129z" fill="#7bacdf"/><path d="m285.609 36.879v6 40.963h171.804c0-54.446 0 7.48 0-46.963z" fill="#f07281"/><path d="m457.413 36.879v42.803h20.081c4.974 0 9.006-4.032 9.006-9.006 0-12.785 0-21.394 0-33.797z" fill="#f8a5af"/><path d="m252.42 61.281 33.189 18.401c0-32.257 0-10.146 0-42.803l-33.189 18.402z" fill="#ffcebf"/><path d="m495.494 36.879h-8.994v27.797c0 4.974-4.032 9.006-9.006 9.006h-20.081v14h38.081c4.974 0 9.006-4.032 9.006-9.006v-32.79c0-4.974-4.032-9.007-9.006-9.007z" fill="#f58a97"/><path d="m244.973 59.41c-2.299 1.274-2.299 4.467 0 5.742l40.636 22.531v-14l-33.189-18.402z" fill="#ffb09e"/><path d="m285.609 73.682v14h171.804v-14c-6.99 0-163.342 0-171.804 0z" fill="#eb5569"/><path d="m153 260.164h-13.551v202.956l5.84 5.38h205.711v-9.518zm116.608 171.738h-83.437c-1.935 0-3.504-1.569-3.504-3.504v-83.436c0-3.122 3.774-4.685 5.982-2.478l83.437 83.436c2.207 2.208.644 5.982-2.478 5.982z" fill="#ffe177"/><g><path d="m372.435 465.15-223.016-223.016c-3.679-3.679-9.97-1.073-9.97 4.13v13.9l192.986 192.986c3.679 3.679 1.073 9.97-4.13 9.97h-188.856v6.16c0 3.225 2.615 5.84 5.84 5.84h223.017c5.203 0 7.809-6.29 4.129-9.97z" fill="#ffd15b"/></g><path d="m81.13 388.756v-280.432c-9.893 0-63.442 0-73.63 0v280.431c0 14.133 14.775 26.016 34.815 29.467 16.164 0 38.815-11.885 38.815-29.466z" fill="#f2fbff"/><path d="m77.13 108.324v280.431c0 14.133-14.775 26.016-34.815 29.467 29.984 5.164 58.815-9.646 58.815-29.467v-280.431z" fill="#dff6fd"/><ellipse cx="54.315" cy="108.324" fill="#98bce5" rx="46.815" ry="30.482"/></g><g><path d="m240.225 383.453s-.001-.001-.001-.001c-.469-.469-45.827-45.828-46.297-46.295-6.963-6.915-18.76-1.922-18.76 7.804v43.794 39.643c0 6.067 4.937 11.004 11.004 11.004h83.437c9.782 0 14.706-11.858 7.781-18.786zm-23.411-2.197h-26.647v-26.646zm-26.647 43.146v-28.146h41.647l28.147 28.146z"/><path d="m495.494 29.38c-1.377 0-203.336 0-209.885 0-1.197 0-2.521.325-3.621.933-.005.003-.011.005-.016.008l-40.636 22.53c-3.446 1.91-5.587 5.523-5.588 9.429 0 3.118 1.38 6.034 3.684 8.063h-54.474c-4.142 0-7.5 3.357-7.5 7.5s3.358 7.5 7.5 7.5h80.962l16.051 8.899c.005.003.011.005.016.008 1.137.628 2.455.933 3.62.933h187.848v285.444c0 .347-.282.629-.628.629h-173.679c-3.52-3.52-87.126-87.125-91.373-91.373h62.454v45.087c0 8.939 7.272 16.212 16.212 16.212h108.899c8.939 0 16.212-7.272 16.212-16.212v-108.9c0-8.939-7.272-16.212-16.212-16.212h-54.544v-75.944c0-10.199-8.298-18.497-18.498-18.497h-137.472c-10.2 0-18.498 8.298-18.498 18.497v114.523l-11.607-11.607c-8.39-8.388-22.772-2.434-22.772 9.434v134.992h-23.319v-272.932c0-4.143-3.358-7.5-7.5-7.5s-7.5 3.357-7.5 7.5c0 14.75-22.248 22.981-39.315 22.981-21.311.001-39.315-10.524-39.315-22.981s18.004-22.981 39.315-22.981h95.644c4.142 0 7.5-3.357 7.5-7.5s-3.358-7.5-7.5-7.5h-95.644c-30.457 0-54.315 16.683-54.315 37.981v200.587c0 4.143 3.358 7.5 7.5 7.5s7.5-3.357 7.5-7.5v-174.135c20.985 15.263 57.338 15.491 78.63 0v253.979c0 12.457-18.004 22.981-39.315 22.981s-39.315-10.523-39.315-22.98v-44.845c0-4.143-3.358-7.5-7.5-7.5s-7.5 3.357-7.5 7.5v44.845c0 21.298 23.858 37.981 54.315 37.981 26.774 0 48.442-12.895 53.292-30.481h24.342v73.024c0 7.355 5.984 13.34 13.34 13.34h223.017c11.862 0 17.825-14.38 9.434-22.772 0 0 0 0 0-.001l-63.591-63.591h158.68c8.618 0 15.628-7.011 15.628-15.629v-285.444h7.037c9.102 0 16.506-7.405 16.506-16.507v-32.79c0-9.102-7.405-16.506-16.506-16.506zm-100.155 195.478c.668 0 1.212.544 1.212 1.212v108.9c0 .668-.543 1.212-1.212 1.212h-108.899c-.668 0-1.212-.544-1.212-1.212v-45.087h37.068c10.2 0 18.498-8.298 18.498-18.497v-46.527h54.545zm-110.11 50.025v-48.813c0-.668.543-1.212 1.212-1.212h39.354v46.527c0 1.929-1.569 3.497-3.498 3.497h-37.068zm-100.403-144.466h137.471c1.929 0 3.498 1.568 3.498 3.497v75.944h-39.355c-8.939 0-16.212 7.272-16.212 16.212v48.813h-77.454c-2.569-2.569-.257-.257-11.446-11.446v-129.523c.001-1.929 1.569-3.497 3.498-3.497zm-37.877 337.203v-78.864-138.485c2.91 2.91 214.331 214.33 217.35 217.35h-217.35zm131.16-418.006v25.334l-22.847-12.667zm15-5.234h156.804v35.803h-156.804zm203.891 34.296c0 .831-.676 1.507-1.506 1.507-10.539 0-18.36 0-30.581 0v-35.803h30.581c.831 0 1.506.676 1.506 1.506z"/></g></g></svg>