<svg id="Capa_1" enable-background="new 0 0 511.995 511.995" height="512" viewBox="0 0 511.995 511.995" width="512" xmlns="http://www.w3.org/2000/svg"><g><g><path d="m459.824 485.824c8.872-3.606 15.084-12.376 14.918-22.552l-4.958-305.157c-8.758 0-15.801 0-23.921 0l-4.958 305.157c-.165 10.176 6.046 18.946 14.918 22.552z" fill="#bc7c63"/><path d="m483.784 158.116h-17.999l4.958 305.157c.165 10.176-6.046 18.946-14.918 22.552 2.778 1.129 5.813 1.757 8.999 1.757 13.363 0 24.135-10.948 23.918-24.31z" fill="#aa6a51"/><g><path d="m368.447 466.249v-210.252h-349.948c-6.075 0-10.999 4.924-10.999 10.999v212.022h348.178c7.053 0 12.769-5.717 12.769-12.769z" fill="#dff6fd"/></g><path d="m20.269 18.977h355.408c7.052 0 12.769 5.717 12.769 12.769v213.252c0 6.075-4.925 10.999-10.999 10.999h-358.948c-6.075 0-10.999-4.925-10.999-10.999v-213.252c0-7.052 5.717-12.769 12.769-12.769z" fill="#f2fbff"/><path d="m192.863 379.833h84.459v73.807h-84.459z" fill="#d5e3f4" transform="matrix(0 1 -1 0 651.829 181.645)"/><path d="m368.447 255.997v210.252c0 7.052-5.717 12.769-12.769 12.769h-348.178v1.23c0 7.052 5.717 12.769 12.769 12.769h355.408c7.052 0 12.769-5.717 12.769-12.769v-213.251c0-6.075-4.925-10.999-10.999-10.999h-9z" fill="#c8effe"/><path d="m375.677 18.977h-7.23v237.02h8.999c6.075 0 10.999-4.925 10.999-10.999v-213.252c.001-7.052-5.716-12.769-12.768-12.769z" fill="#dff6fd"/><path d="m50.575 296.433v78.074h73.807v-84.459h-67.422c-3.526 0-6.385 2.859-6.385 6.385z" fill="#b6c4cf"/><path d="m119.056 295.374h84.459v73.807h-84.459z" fill="#b6c4cf" transform="matrix(0 -1 1 0 -170.993 493.563)"/><path d="m192.863 295.375h84.459v73.807h-84.459z" fill="#d5e3f4" transform="matrix(0 -1 1 0 -97.186 567.37)"/><path d="m192.863 295.374h84.459v73.807h-84.459z" fill="#b6c4cf" transform="matrix(0 -1 1 0 -97.186 567.37)"/><path d="m271.995 290.048v84.459h73.807v-78.074c0-3.526-2.858-6.385-6.385-6.385z" fill="#b6c4cf"/><g fill="#9facba"><path d="m106.383 374.508h17.999v-80.459h-67.422c-3.526 0-6.385 2.858-6.385 6.385v7.615h48.808c3.866 0 7 3.134 7 7z"/><path d="m180.19 374.508h17.999v-80.459h-73.807v13.999h48.808c3.866 0 7 3.134 7 7z"/><path d="m253.997 374.508h17.999v-80.459h-73.807v13.999h48.808c3.866 0 7 3.134 7 7z"/><path d="m327.803 315.047v59.461h17.999v-74.075c0-3.526-2.858-6.384-6.384-6.384h-67.422v13.999h48.808c3.865-.001 6.999 3.133 6.999 6.999z"/></g><path d="m50.575 380.892v78.074h73.807v-84.459h-67.422c-3.526 0-6.385 2.859-6.385 6.385z" fill="#b6c4cf"/><path d="m119.056 379.834h84.459v73.807h-84.459z" fill="#b6c4cf" transform="matrix(0 -1 1 0 -255.452 578.022)"/><path d="m192.863 379.834h84.459v73.807h-84.459z" fill="#d5e3f4" transform="matrix(0 -1 1 0 -181.645 651.829)"/><path d="m192.863 379.834h84.459v73.807h-84.459z" fill="#b6c4cf" transform="matrix(0 -1 1 0 -181.645 651.829)"/><path d="m271.995 374.507v84.459h73.807v-78.074c0-3.526-2.858-6.385-6.385-6.385z" fill="#b6c4cf"/><path d="m106.383 458.967h17.999v-80.459h-67.422c-3.526 0-6.385 2.858-6.385 6.385v7.615h49.808c3.313 0 6 2.686 6 6z" fill="#9facba"/><path d="m180.19 458.967h17.999v-80.459h-73.807v13.999h49.808c3.314 0 6 2.686 6 6z" fill="#9facba"/><path d="m253.997 458.967h17.999v-80.459h-73.807v13.999h49.808c3.313 0 6 2.686 6 6z" fill="#9facba"/><path d="m327.803 398.506v60.461h17.999v-74.075c0-3.526-2.858-6.384-6.384-6.384h-67.422v13.999h49.808c3.313-.001 5.999 2.686 5.999 5.999z" fill="#9facba"/><path d="m43.075 458.967c0 4.142 3.358 7.5 7.5 7.5h295.227c4.142 0 7.5-3.358 7.5-7.5v-162.534c0-7.668-6.216-13.885-13.885-13.885h-282.457c-7.668 0-13.884 6.216-13.884 13.884v162.535zm73.807-11.5c0 2.209-1.791 4-4 4h-50.808c-2.209 0-4-1.791-4-4v-61.461c0-2.207 1.788-3.996 3.994-3.999h50.819c2.206.003 3.994 1.792 3.994 3.999v61.461zm0-84.459c0 2.207-1.788 3.997-3.995 3.999h-50.818c-2.207-.003-3.995-1.792-3.995-3.999v-61.461c0-2.209 1.791-4 4-4h50.808c2.209 0 4 1.791 4 4zm73.807 84.459c0 2.209-1.791 4-4 4h-50.808c-2.209 0-4-1.791-4-4v-61.461c0-2.207 1.788-3.996 3.994-3.999h50.819c2.206.003 3.994 1.792 3.994 3.999v61.461zm0-84.459c0 2.207-1.788 3.997-3.995 3.999h-50.818c-2.207-.003-3.995-1.792-3.995-3.999v-61.461c0-2.209 1.791-4 4-4h50.808c2.209 0 4 1.791 4 4zm73.807 84.459c0 2.209-1.791 4-4 4h-50.808c-2.209 0-4-1.791-4-4v-61.461c0-2.207 1.788-3.996 3.994-3.999h50.819c2.206.003 3.994 1.792 3.994 3.999v61.461zm0-84.459c0 2.207-1.788 3.997-3.995 3.999h-50.818c-2.207-.003-3.995-1.792-3.995-3.999v-61.461c0-2.209 1.791-4 4-4h50.808c2.209 0 4 1.791 4 4zm73.807 84.459c0 2.209-1.791 4-4 4h-50.808c-2.209 0-4-1.791-4-4v-61.461c0-2.207 1.788-3.996 3.994-3.999h50.819c2.206.003 3.994 1.792 3.994 3.999v61.461zm0-84.459c0 2.207-1.788 3.997-3.995 3.999h-50.818c-2.207-.003-3.995-1.792-3.995-3.999v-61.461c0-2.209 1.791-4 4-4h50.808c2.209 0 4 1.791 4 4z" fill="#dff6fd"/><path d="m461.918 146.896c15.364-3.859 26.725-16.776 28.323-31.934 1.157-10.974-2.272-18.085-5.843-23.71-9.926-16.436-12.976-37.441-13.959-56.353h-4c-10.462 9.261-20.269 19.319-27.907 31.05l-.001-.001s-16.144 22.936-12.93 45.91c1.937 14.869 12.857 30.646 32.317 35.038z" fill="#fff6ce"/><path d="m498.397 91.253c-11.181-18.513-13.643-42.832-14.247-63.418-.085-2.914-3.559-4.456-5.907-2.641-4.277 3.307-8.19 6.54-11.804 9.706.983 18.912 4.033 39.917 13.959 56.353 3.571 5.625 7 12.736 5.843 23.71-1.598 15.158-12.959 28.075-28.323 31.934 3.075.694 6.355 1.114 9.855 1.19v-.034c19.372-.68 34.597-15.357 36.466-33.09 1.158-10.974-2.271-18.085-5.842-23.71z" fill="#fff0ad"/><path d="m465.6 173.953c7.143 0 12.933-5.79 12.933-12.933 0-7.142-5.79-12.933-12.932-12.933h-17.553c-7.143 0-12.933 5.79-12.933 12.933 0 7.143 5.79 12.933 12.933 12.933h33.55.001z" fill="#c68d7a"/><path d="m481.599 148.086h-17.999c7.143 0 12.933 5.79 12.933 12.933 0 7.143-5.79 12.933-12.933 12.933h17.999c7.143 0 12.933-5.79 12.933-12.933 0-7.142-5.79-12.933-12.933-12.933z" fill="#bc7c63"/><g><path d="m338.986 53.028h-9.614v67.46c0 3.866-3.134 7-7 7h-50.808v9.999h73.807v-78.074c0-3.526-2.858-6.385-6.385-6.385z" fill="#fff0ad"/><path d="m255.565 53.028v67.46c0 3.866-3.134 7-7 7h-50.808v9.999h73.807v-84.459z" fill="#ffd15b"/><path d="m181.759 53.028v67.46c0 3.866-3.134 7-7 7h-50.808v9.999h73.807v-84.459z" fill="#f58a97"/><path d="m107.952 53.028v67.46c0 3.866-3.134 7-7 7h-50.808v9.999h73.807v-84.459z" fill="#eb5569"/><path d="m329.372 137.487v67.46c0 3.866-3.134 7-7 7h-50.808v9.999h67.422c3.526 0 6.385-2.858 6.385-6.385v-78.074z" fill="#0ab69f"/><path d="m255.565 137.487v67.46c0 3.866-3.134 7-7 7h-50.808v9.999h73.807v-84.459z" fill="#5de1c4"/><path d="m181.759 137.487v67.46c0 3.866-3.134 7-7 7h-50.808v9.999h73.807v-84.459z" fill="#62dbfb"/><path d="m107.952 137.487v67.46c0 3.866-3.134 7-7 7h-50.808v3.615c0 3.526 2.858 6.385 6.385 6.385h67.422v-84.459h-15.999z" fill="#5f99d7"/></g><path d="m329.372 120.488v-67.46h-57.808v74.459h50.808c3.866.001 7-3.133 7-6.999z" fill="#fff6ce"/><path d="m255.565 120.488v-67.46h-57.808v74.459h50.808c3.866.001 7-3.133 7-6.999z" fill="#ffe177"/><g><path d="m181.759 120.488v-67.46h-57.808v74.459h50.808c3.866.001 7-3.133 7-6.999z" fill="#f8a5af"/></g><path d="m107.952 120.488v-67.46h-51.423c-3.526 0-6.385 2.858-6.385 6.385v68.075h50.808c3.866 0 7-3.134 7-7z" fill="#f07281"/><path d="m329.372 204.947v-67.46h-57.808v74.459h50.808c3.866.001 7-3.133 7-6.999z" fill="#0ed2b3"/><path d="m255.565 204.947v-67.46h-57.808v74.459h50.808c3.866.001 7-3.133 7-6.999z" fill="#86e8d0"/><path d="m181.759 204.947v-67.46h-57.808v74.46h50.808c3.866 0 7-3.134 7-7z" fill="#99e6fc"/><g><path d="m107.952 204.947v-67.46h-57.808v74.459h50.808c3.866.001 7-3.133 7-6.999z" fill="#7bacdf"/></g></g><g><path d="m339.417 282.548c-3.536 0-279.988 0-282.458 0-7.656 0-13.885 6.229-13.885 13.885v156.148c0 7.656 6.229 13.885 13.885 13.885h282.458c7.656 0 13.885-6.229 13.885-13.885 0-6.852 0-149.296 0-156.148 0-7.656-6.228-13.885-13.885-13.885zm-1.115 84.459h-58.807v-69.459h58.807zm-73.806 0h-58.807v-69.459h58.807zm-73.808 0h-58.807v-69.459h58.807zm-132.613-69.459h58.807v69.459h-58.807zm0 84.459h58.807v69.459h-58.807zm73.807 0h58.807v69.459h-58.807zm73.806 0h58.807v69.459h-58.807zm132.614 69.459h-58.807v-69.459h58.807z"/><path d="m511.699 115.749c1.411-13.379-2.462-20.425-6.563-27.885-5.226-9.508-12.383-22.528-13.489-60.249-.122-4.148-2.543-7.834-6.32-9.62-3.842-1.816-8.315-1.331-11.67 1.266-18.199 14.068-32.093 28.344-41.3 42.43-1.175 1.686-17.715 25.962-14.192 51.137 1.483 11.392 7.444 23.368 17.814 31.742-11.997 8.826-10.874 26.928 2.047 34.237l-4.619 284.327-.005.535c0 17.321 14.095 31.413 31.421 31.413s31.421-14.092 31.421-31.413l-1.589-98.1c-.067-4.142-3.522-7.465-7.621-7.377-4.142.067-7.445 3.479-7.377 7.621l1.585 97.569.002.286c0 9.05-7.366 16.413-16.421 16.413s-16.421-7.363-16.421-16.413l4.583-282.216h23.676l2.427 149.365c.067 4.142 3.499 7.478 7.621 7.377 4.142-.067 7.444-3.479 7.377-7.621l-2.466-151.767c6.206-3.511 10.411-10.162 10.411-17.787 0-6.133-2.729-11.629-7.02-15.377 9.147-7.229 15.417-17.833 16.688-29.893zm-63.981 50.585c-3.115-.107-5.103-2.648-5.103-5.315 0-2.996 2.438-5.434 5.434-5.434h33.55c2.996 0 5.433 2.438 5.433 5.434 0 2.554-1.774 4.696-4.153 5.274-4.158.253-30.565.199-35.161.041zm49.064-52.157c-1.529 14.507-14.113 25.848-29.271 26.38-.079.003-.158.007-.237.012-20.96-.764-32.434-15.848-34.244-29.749-2.658-18.999 10.536-38.934 11.572-40.462.075-.103.147-.208.217-.315 7.302-11.217 18.102-22.718 32.157-34.252 1.942 35.514 9.441 49.16 15.015 59.3 3.68 6.695 5.708 10.384 4.791 19.086z"/><path d="m375.677 11.477h-355.408c-11.176 0-20.269 9.093-20.269 20.269v213.252c0 4.122 1.372 7.92 3.66 10.999-2.288 3.079-3.66 6.877-3.66 10.999v213.252c0 11.177 9.093 20.27 20.269 20.27h355.408c11.176 0 20.269-9.093 20.269-20.27v-213.252c0-4.122-1.372-7.92-3.66-10.999 2.288-3.079 3.66-6.877 3.66-10.999v-213.252c0-11.176-9.092-20.269-20.269-20.269zm-360.677 20.269c0-2.905 2.364-5.27 5.269-5.27h355.408c2.905 0 5.269 2.364 5.269 5.27v213.252c0 1.93-1.57 3.499-3.5 3.499h-358.946c-1.93 0-3.5-1.569-3.5-3.499zm365.946 448.502c0 2.905-2.364 5.27-5.269 5.27h-355.408c-2.905 0-5.269-2.364-5.269-5.27v-213.252c0-1.93 1.57-3.499 3.5-3.499h358.947c1.93 0 3.5 1.569 3.5 3.499v213.252z"/><path d="m56.96 229.446h282.458c7.656 0 13.885-6.229 13.885-13.885 0-6.852 0-149.296 0-156.148 0-7.656-6.229-13.885-13.885-13.885-3.536 0-279.988 0-282.458 0-7.656 0-13.885 6.229-13.885 13.885v156.148c0 7.657 6.229 13.885 13.885 13.885zm1.115-84.458h58.807v69.459h-58.807zm73.807 0h58.807v69.459h-58.807zm73.806 0h58.807v69.459h-58.807zm132.614 69.458h-58.807v-69.459h58.807zm0-84.458h-58.807v-69.459h58.807zm-73.806 0h-58.807v-69.459h58.807zm-73.808 0h-58.807v-69.459h58.807zm-132.613-69.459h58.807v69.459h-58.807z"/></g></g></svg>