<svg id="Capa_1" enable-background="new 0 0 510.626 510.626" height="512" viewBox="0 0 510.626 510.626" width="512" xmlns="http://www.w3.org/2000/svg"><g><g><circle cx="256.333" cy="252.254" fill="#7bacdf" r="186.402"/><path d="m243.076 66.327c96.759 6.8 173.145 87.439 173.145 185.927s-76.386 179.127-173.145 185.927c108.461 7.62 199.659-78.22 199.659-185.927 0-107.745-91.231-193.545-199.659-185.927z" fill="#5f99d7"/><path d="m450.383 252.254c0-105.695-84.944-191.913-190.148-194-2.603-.138-5.208-.138-7.811 0-105.201 2.091-190.141 88.308-190.141 194 0 105.695 84.943 191.913 190.148 194 2.603.138 5.207.138 7.81 0 105.201-2.089 190.142-88.307 190.142-194zm-75.709-7.648c-.689-29.047-5.305-57.881-13.847-84.133 13.087-4.964 25.364-10.952 36.502-17.968 22.182 28.433 35.959 63.72 37.583 102.101zm-15.294 0h-95.398v-66.204c28.416-.656 56.627-4.973 82.386-12.957 7.993 24.645 12.331 51.794 13.012 79.161zm-95.399-81.497v-89.119c36.896 4.808 63.056 41.843 77.183 77.067-24.085 7.388-50.527 11.406-77.183 12.052zm-15.296-89.12v89.121c-26.65-.643-53.092-4.657-77.185-12.049 14.069-35.085 40.222-72.257 77.185-77.072zm0 104.412v66.205h-95.399c.681-27.368 5.019-54.518 13.013-79.165 25.754 7.982 53.965 12.302 82.386 12.96zm-110.694 66.205h-60.237c1.624-38.381 15.401-73.668 37.583-102.102 11.135 7.013 23.412 13.002 36.503 17.965-8.544 26.256-13.16 55.09-13.849 84.137zm.001 15.297c.664 27.975 4.965 55.755 12.912 81.219-13.582 5.216-26.108 11.475-37.26 18.675-21.188-28.043-34.307-62.5-35.889-99.894zm15.294 0h95.399v62.908c-29.488.68-57.895 5.277-83.335 13.28-7.391-23.846-11.41-49.918-12.064-76.188zm95.399 78.208v92.408c-37.933-4.943-64.449-43.865-78.335-79.997 23.83-7.45 50.529-11.744 78.335-12.411zm15.296 92.408v-92.408c27.806.668 54.505 4.961 78.334 12.411-13.822 35.968-40.338 75.049-78.334 79.997zm0-107.708v-62.908h95.398c-.653 26.27-4.673 52.341-12.064 76.188-25.439-8.003-53.846-12.6-83.334-13.28zm110.693-62.908h60.238c-1.582 37.394-14.701 71.85-35.889 99.894-11.152-7.199-23.678-13.458-37.26-18.675 7.948-25.466 12.248-53.246 12.911-81.219zm12.626-129.166c-9.703 5.931-20.339 11.047-31.649 15.354-9.179-23.129-22.56-45.904-40.56-62.657 27.834 9.715 52.548 26.128 72.209 47.303zm-189.729-47.302c-17.995 16.752-31.377 39.526-40.557 62.66-11.307-4.307-21.942-9.423-31.648-15.357 19.66-21.175 44.373-37.588 72.205-47.303zm-74.124 288.242c9.77-6.158 20.677-11.549 32.463-16.112 9.21 24.123 22.915 48.059 41.666 65.51-28.747-10.033-54.169-27.209-74.129-49.398zm191.647 49.397c18.746-17.45 32.453-41.387 41.663-65.51 11.787 4.563 22.693 9.954 32.463 16.113-19.96 22.188-45.381 39.363-74.126 49.397z" fill="#dff6fd"/><path d="m187.403 97.472c0-37.423-40.273-67.759-89.951-67.759-4.151 0-8.235.217-12.237.627 43.889 4.498 77.714 32.838 77.714 67.133 0 29.698-25.365 54.93-60.663 64.083l.924 16.196 19.22 12.608c2.567 1.684 5.958-.273 5.783-3.339l-1.452-25.466c35.297-9.153 60.662-34.385 60.662-64.083z" fill="#596c76"/><path d="m103.189 177.751-.924-16.196c35.299-9.153 60.663-34.385 60.663-64.083 0-34.295-33.825-62.635-77.714-67.133-43.889 4.498-77.714 32.838-77.714 67.133 0 33.641 32.548 61.551 75.215 66.849z" fill="#7a8c98"/><path d="m408.43 480.288c43.889-4.498 77.714-32.837 77.714-67.132 0-33.641-32.547-61.551-75.215-66.849l-20.474-13.43h-6.119l.924 16.196c-35.299 9.153-60.664 34.385-60.664 64.083 0 34.295 33.825 62.635 77.714 67.132z" fill="#f07281"/><path d="m429.285 346.307-39.694-26.038c-2.567-1.684-5.958.273-5.783 3.339l.529 9.27 20.474 13.43c42.667 5.298 75.215 33.208 75.215 66.849 0 34.295-33.825 62.635-77.714 67.132 4.002.41 8.086.627 12.237.627 49.679 0 89.951-30.337 89.951-67.759 0-33.643-32.547-61.553-75.215-66.85z" fill="#eb5569"/></g><g><path d="m95.366 138.793 3.598-2.651c1.84-1.357 2.481-3.849 1.523-5.925l-1.071-2.32c5.373-6.139 10.282-16.139 14.597-29.737 12.444 1.679 16.845 8.527 16.845 18.549 0 10.714-5.268 15.642-19.435 18.184-9.663 1.737-6.651 15.746 2.505 13.867 13.476-2.761 31.39-9.042 31.39-31.618 0-17.42-10.683-29.114-28.706-31.626.13-.919.143-.988.242-1.477 1.189-5.968-4.533-5.722-8.841-6.279-2.267-.293-4.344 1.241-4.76 3.46l-.609 3.251c-5.107.278-9.441.866-12.943 1.759l.568-9.09c10.524-.501 20.863-1.297 30.76-2.366 3.681-.397 6.437-3.655 6.142-7.263-.326-3.991-3.902-6.732-7.76-6.138-8.168 1.257-17.728 2.257-28.449 2.978.225-3.259.551-7.046.941-10.914.19-1.878-.403-3.776-1.625-5.209-3.856-4.519-11.214-2.038-11.697 3.806-.345 4.16-.625 8.503-.836 12.935l-12.897.275c-1.979.042-3.833.945-5.085 2.479-1.253 1.534-1.768 3.53-1.41 5.499.585 3.212 3.377 5.542 6.64 5.542.108 0 .216-.002.324-.007l11.792-.562-.687 13.054c-13.712 7.779-22.554 19.382-22.554 35.409 0 12.107 8.294 19.341 16.313 19.341 5.245 0 11.248-2.732 18.334-8.348 1.54 2.227 4.635 2.773 6.851 1.142zm4.682-41.608c-1.595 6.506-3.872 12.243-6.785 17.098-1.54-5.027-2.481-10.248-2.801-15.558 2.974-.853 6.19-1.369 9.586-1.54zm-31.886 35.384c-1.344-1.345-1.997-2.854-1.997-4.614 0-9.778 3.518-16.874 11.796-22.915.737 6.797 2.281 13.872 4.592 21.047-9.323 8.901-14.391 6.482-14.391 6.482z"/><path d="m423.217 375.448c-.025-.067-.052-.135-.079-.201-1.398-3.405-4.68-5.605-8.361-5.605-.002 0-.005 0-.007 0-3.685.003-6.967 2.209-8.361 5.619-.022.057-.045.113-.066.169l-25.516 66.995c-1.475 3.87.469 8.203 4.34 9.678 3.854 1.47 8.199-.456 9.678-4.34l4.515-11.854h30.644l4.466 11.833c1.462 3.875 5.791 5.832 9.665 4.368 3.875-1.462 5.831-5.789 4.368-9.665zm-18.145 45.46 9.679-25.413 9.591 25.413z"/><path d="m430.59 339.094-.642-.421c13.85-27.66 20.5-56.866 20.496-85.915 0-19.803-3.08-39.515-9.154-58.587-1.258-3.946-5.475-6.126-9.423-4.87-3.946 1.257-6.127 5.476-4.87 9.423 4.786 15.023 7.549 30.472 8.258 46.03h-60.747c-.684-29.913-5.453-58.65-13.863-84.407 13.364-5.056 25.722-11.11 36.762-18.069 6.093 7.923 11.619 16.445 16.499 25.535 1.959 3.649 6.504 5.02 10.155 3.062 3.649-1.959 5.021-6.506 3.062-10.155-16.615-30.954-40.734-56.085-68.503-73.424-50.514-31.54-114.229-37.607-170.064-16.744-4.952-10.061-12.712-19.245-22.986-26.984-18.282-13.771-42.473-21.355-68.118-21.355s-49.836 7.584-68.118 21.355c-18.917 14.25-29.334 33.392-29.334 53.904 0 36.693 33.536 67.616 80.002 74.056-11.51 25.007-17.784 52.158-17.784 80.395 0 18.157 2.602 36.28 7.733 53.866 1.158 3.97 5.314 6.26 9.3 5.1 3.977-1.16 6.259-5.324 5.099-9.301-3.994-13.689-6.305-27.727-6.936-41.834h60.788c.785 29.508 5.594 57.312 13.047 81.391-13.727 5.251-26.376 11.567-37.625 18.84-6.349-8.442-12.029-17.521-16.929-27.191-1.872-3.694-6.385-5.17-10.08-3.3-3.695 1.873-5.172 6.386-3.3 10.081 44.985 88.769 146.535 127.235 236.695 95.872 12.721 32.055 51.173 52.967 93.165 52.967 52.848 0 97.451-32.724 97.451-75.259 0-36.702-33.551-67.631-80.036-74.061zm-13.265-8.702c-12.749-8.363-9.056-5.941-24.99-16.394-7.753-5.089-17.857.877-17.389 10.035l1.111 19.488c-1.636.518-3.237 1.078-4.822 1.659-3.177-1.388-6.419-2.703-9.706-3.966 7.835-25.101 12.302-52.934 12.971-81.461h60.785c-1.009 25.229-7.331 48.899-17.96 70.639zm-153.492-70.638h95.671c-.658 26.851-4.84 52.98-12.136 76.507-25.656-8.112-54.002-12.657-83.535-13.313zm-93.382 90.582c23.85-7.439 50.564-11.722 78.382-12.377v92.742c-38.753-4.574-64.754-43.672-78.382-80.365zm93.382 80.343v-92.731c27.856.647 54.53 4.911 78.631 12.49-2.413 6.308-5.056 12.389-7.941 18.178-7.328 7.6-12.732 16.741-15.7 25.632-16.195 21.474-35.058 33.931-54.99 36.431zm95.671-185.925h-95.672v-66.484c29.163-.664 57.347-5.178 82.638-13.043 7.876 24.191 12.36 51.263 13.034 79.527zm-185.024-101.085c8.961-8.912 15.904-19.993 18.868-32.75 16.299-21.887 35.329-34.569 55.485-37.09v89.442c-27.29-.642-53.658-4.784-77.508-12.142 1.007-2.506 2.057-4.994 3.155-7.46zm153.73-19.389c4.939 8.312 9.333 17.306 13.159 26.852-23.664 7.287-50.099 11.485-77.537 12.135v-89.441c24.064 3.043 46.69 20.688 64.378 50.454zm-79.377 53.998v66.476h-95.516c.475-26.725 4.5-53.892 12.885-79.517 25.458 7.931 53.581 12.387 82.631 13.041zm138.834-47.597c-9.698 5.947-20.481 11.157-32.1 15.572-4.18-10.536-9.011-20.463-14.462-29.636-8.074-13.587-17.169-24.953-27.016-33.945 28.182 9.447 53.353 25.838 73.578 48.009zm-372.667-33.209c0-33.228 36.988-60.26 82.452-60.26 42.544 0 82.451 24.944 82.451 60.26 0 28.749-26.935 49.523-55.012 56.814-.011.003-.023.006-.034.009-3.498.907-5.807 4.159-5.605 7.687l1.027 18.011c-24.731-16.224-32.473-21.302-33.45-21.943-.959-.629-2.051-1.03-3.189-1.171-19.309-2.398-36.916-9.851-49.579-20.985-12.292-10.809-19.061-24.454-19.061-38.422zm63.931 130.049c2.305-16.338 6.927-32.34 13.764-47.683l25.6 16.793c7.893 5.176 17.911-1.071 17.384-10.037l-1.111-19.488c4.911-1.554 11.115-3.959 16.946-6.955.175.067.351.133.526.2-8.529 26.065-13.269 54.878-13.881 84.404h-60.777c.237-5.764.745-11.531 1.547-17.219.001-.005.001-.01.002-.015zm74.487 32.233h95.415v63.202c-29.417.666-57.759 5.232-83.155 13.189-7.04-23.201-11.415-49.368-12.26-76.391zm-30.21 111.896c9.885-6.247 20.937-11.707 32.888-16.318 9.036 24.051 22.589 48.347 41.227 65.857-28.428-9.91-53.91-26.905-74.115-49.539zm289.967 101.764c-45.565 0-82.451-27.142-82.451-60.259 0-25.877 21.98-45.663 47.33-54.484.125-.043.25-.086.375-.129 7.248-2.489 10.587-2.049 12.434-6.713.813-2.053.597-1.712-.515-21.195 23.646 15.513 31.722 20.81 33.449 21.943.96.629 2.051 1.03 3.19 1.171 34.376 4.27 68.639 26.648 68.639 59.406 0 33.228-36.987 60.26-82.451 60.26z"/></g></g></svg>