<svg id="Capa_1" enable-background="new 0 0 511.924 511.924" height="512" viewBox="0 0 511.924 511.924" width="512" xmlns="http://www.w3.org/2000/svg"><g><g><g><path d="m132.682 465.036h287.108c11.933 0 21.607-9.675 21.607-21.61v-228.473c47.798-54.934 35.393-140.36-28.15-179.052 8.587 2.042-8.409-2.924-25.469-3.176-31.073-.459-59.449 11.054-80.827 30.217-2.064 1.851-5.168 1.851-7.232 0-21.378-19.163-49.753-30.676-80.826-30.218-64.342.95-116.563 53.891-116.686 118.25-.057 29.841 10.918 57.116 29.071 77.979-.001 247.018-.605 230.752 1.404 236.083z" fill="#fdb97e"/></g><path d="m165.847 431.495v-215.479c-9.367-10.765-29.071-29.906-29.071-64.811 0-46.299 37.682-83.96 83.982-83.918 22.165.02 43.365 9.103 59.242 24.571l18.81 18.325c2.517 2.452 6.529 2.452 9.046 0l18.81-18.325c15.878-15.468 37.077-24.55 59.242-24.571 72.045-.066 110.319 85.046 63.404 138.97l-8.492 9.759v215.479c0 7.161-5.804 12.966-12.964 12.966h-249.045c-7.16 0-12.964-5.805-12.964-12.966z" fill="#fff6ce"/><g><path d="m413.246 35.901c63.511 38.672 75.969 124.094 28.15 179.052v228.473c0 11.935-9.674 21.61-21.607 21.61h-287.107c3.081 8.174 10.951 14 20.202 14h300.901c11.933 0 21.607-9.675 21.607-21.61v-228.473c58.416-67.139 24.202-172.523-62.146-193.052z" fill="#fea95c"/></g><g><path d="m122.519 299.719c-1.67-14.72 3.016-45.987 32.696-58.968 3.797-1.658 8.216.072 9.875 3.867s-.072 8.217-3.867 9.877c-26.85 11.742-23.937 42.266-23.8 43.56.435 4.108-2.531 7.81-6.638 8.26-4.139.449-7.804-2.518-8.266-6.596z" fill="#935b44"/></g><path d="m224.028 303.681c-6.931-11.18-13.467-16.972-21.027-24.343-24.725-11.459-51.002-7.865-73.131 7.126-16.566-11.222-35.87-16.26-55.287-12.836-45.902 8.096-75.047 60.403-65.099 116.832 4.786 27.145 17.748 50.295 35.021 66.115 9.512 5.541 20.324 8.461 31.332 8.461h81.435c15.489 0 30.422-5.775 41.882-16.198 14.972-13.616 25.884-27.715 31.419-49.648 5.595-22.171 11.588-39.063 5.701-64.646-4.701-20.425-12.548-31.35-12.246-30.863z" fill="#f07281"/><path d="m203.001 279.339c22.592 21.917 34.058 58.554 27.258 97.122-11.673 66.209-70.764 106.074-120.386 81.111-19.615 9.868-43.138 10.365-65.368-.996 18.634 17.067 42.284 25.603 66.105 21.402 6.815-1.202 13.257-3.385 19.261-6.405 49.887 25.096 108.776-15.255 120.386-81.111 8.587-48.709-11.955-94.34-47.256-111.123z" fill="#eb5569"/></g><path d="m496.176 90.367c-2.01-3.622-6.578-4.927-10.197-2.918-3.622 2.011-4.928 6.576-2.918 10.197 22.452 40.448 17.367 91.033-13.365 126.353-1.188 1.365-1.842 3.113-1.842 4.923v228.474c0 7.78-6.328 14.109-14.106 14.109h-245.433c8.088-5.44 15.295-12.027 21.667-19.575h197.838c11.284 0 20.464-9.181 20.464-20.466v-212.672l6.65-7.643c30.988-35.62 30.178-90.058-4.406-124.617-35.115-35.094-91.974-36.28-129.131-.077l-18.1 17.632-18.1-17.632c-37.209-36.252-94.066-34.966-129.131.077-34.549 34.524-35.423 88.966-4.406 124.617l6.649 7.642v21.309c-4.343-.076-14.04 6.245-19.57 11.754v-22.932c0-1.81-.654-3.558-1.842-4.923-61.887-71.129-11.406-182.426 82.08-183.807 27.969-.45 54.914 9.674 75.698 28.305 2.377 2.129 5.438 3.302 8.621 3.302 3.186 0 6.248-1.174 8.622-3.303 42.835-38.395 108.797-38.139 151.276 3.193 2.97 2.89 7.718 2.823 10.605-.145 2.889-2.969 2.824-7.717-.145-10.605-47.694-46.409-121.617-47.258-170.359-4.841-23.614-20.552-53.885-31.432-84.553-30.904-105.815 1.562-162.112 125.738-95.002 206.484v42.489c-11.853-5.992-24.491-9.129-37.106-9.129-27.21 0-51.13 14.19-66.698 36.499-18.011 25.809-25.398 63.068-15.542 100.903 1.044 4.008 5.136 6.414 9.147 5.368 4.009-1.043 6.412-5.139 5.368-9.147-21.286-81.802 45.698-147.35 106.718-106.019 2.583 1.75 7.315 2.201 10.309-1.212 51.096-32.592 106.541 8.021 108.664 73.189 2.516 77.384-62.205 124.972-111.397 100.221-2.121-1.066-4.619-1.066-6.74 0-32.682 16.437-72.149 1.801-94.924-35.987-2.138-3.547-6.746-4.688-10.296-2.552-3.547 2.139-4.689 6.748-2.552 10.296 26.829 44.51 73.107 60.158 111.142 43.239 3.359 1.494 6.809 2.736 10.325 3.734 9.141 4.436-7.91 2.934 313.589 2.934 16.05 0 29.106-13.059 29.106-29.109v-225.717c32.186-38.723 39.137-94.807 13.323-141.311zm-351.936 60.807c0-20.389 7.966-39.577 22.43-54.031 29.309-29.289 76.774-30.423 108.062.057l18.81 18.325c5.473 5.328 14.044 5.329 19.513-.001l18.811-18.324c31.231-30.427 78.698-29.4 108.062-.057 28.879 28.86 29.618 74.362 3.692 104.16l-8.492 9.759c-1.188 1.365-1.842 3.114-1.842 4.924v215.479c0 3.014-2.451 5.466-5.464 5.466h-187.054c12.301-20.26 18.899-44.539 18.899-68.576 0 0 0 0 0-.001v-.001c0-56.77-36.764-103.126-86.357-103.306v-49.06c0-1.81-.654-3.558-1.842-4.923-9.262-10.646-27.228-27.961-27.228-59.89zm14.07 104.681v10.606c-5.295 1.015-10.599 2.607-15.387 4.528 3.158-5.773 8.004-11.221 15.387-15.134z"/></g></svg>