<svg id="Capa_1" enable-background="new 0 0 512 512" height="512" viewBox="0 0 512 512" width="512" xmlns="http://www.w3.org/2000/svg"><g><g><path d="m316.817 448.416c8.764 0 15.868-7.104 15.868-15.868v-409.18c0-8.764-7.104-15.868-15.868-15.868h-289.932c-8.764 0-15.868 7.104-15.868 15.868v409.179c0 8.764 7.104 15.868 15.868 15.868h311.932.001-22.001z" fill="#f2fbff"/><path d="m338.817 7.5h-26c8.764 0 15.868 7.104 15.868 15.868v409.179c0 8.764-7.104 15.868-15.868 15.868h26c8.764 0 15.868-7.104 15.868-15.868v-409.179c0-8.764-7.104-15.868-15.868-15.868z" fill="#dff6fd"/><path d="m260.28 139.823h-152.362c-3.756 0-6.801-3.045-6.801-6.801v-61.81h165.963v61.81c.001 3.757-3.044 6.801-6.8 6.801z" fill="#596c76"/><path d="m206.132 314.924c-3.99 0-7.224 3.234-7.224 7.224v139.474c0 3.99 3.234 7.224 7.224 7.224h265.63c3.989-.001 7.222-3.235 7.222-7.224v-139.475c0-3.99-3.234-7.224-7.224-7.224h-265.628z" fill="#0ed2b3"/><path d="m493.76 314.924h-26c3.99 0 7.224 3.234 7.224 7.224v139.474c0 3.99-3.234 7.224-7.224 7.224h26c3.99 0 7.224-3.234 7.224-7.224v-139.475c0-3.989-3.234-7.223-7.224-7.223z" fill="#0ab69f"/><path d="m171.886 350.578c-3.99 0-7.224 3.234-7.224 7.224v139.474c0 3.99 3.234 7.224 7.224 7.224h265.628c3.99 0 7.224-3.234 7.224-7.224v-139.474c0-3.99-3.234-7.224-7.224-7.224z" fill="#86e8d0"/><path d="m459.514 350.578h-26c3.99 0 7.224 3.234 7.224 7.224v139.474c0 3.99-3.234 7.224-7.224 7.224h26c3.99 0 7.224-3.234 7.224-7.224v-139.474c0-3.989-3.235-7.224-7.224-7.224z" fill="#5de1c4"/><circle cx="315.7" cy="427.539" fill="#fff0ad" r="45.444"/><path d="m299.146 82.908h-230.093c-8.451 0-15.302-6.851-15.302-15.302 0-8.451 6.851-15.302 15.302-15.302h230.092c8.451 0 15.302 6.851 15.302 15.302 0 8.451-6.851 15.302-15.301 15.302z" fill="#7a8c98"/></g><g><path d="m315.7 480.483c29.193 0 52.943-23.751 52.943-52.944s-23.75-52.944-52.943-52.944-52.944 23.751-52.944 52.944 23.751 52.944 52.944 52.944zm0-90.888c20.922 0 37.943 17.021 37.943 37.944s-17.021 37.944-37.943 37.944c-20.923 0-37.944-17.021-37.944-37.944s17.021-37.944 37.944-37.944z"/><path d="m302.979 90.079c10.754-1.829 18.969-11.207 18.969-22.473 0-12.572-10.229-22.801-22.802-22.801h-230.093c-12.573 0-22.802 10.229-22.802 22.801 0 12.573 10.229 22.802 22.802 22.802h24.564v42.615c0 7.886 6.415 14.301 14.301 14.301h152.362c7.886 0 14.301-6.415 14.301-14.301v-42.616h13.397v49.416c0 4.143 3.357 7.5 7.5 7.5s7.5-3.357 7.5-7.5v-49.744zm-43.398 42.244h-150.964v-41.915h150.964zm-198.33-64.718c0-4.302 3.5-7.801 7.802-7.801h230.093c4.302 0 7.802 3.499 7.802 7.801s-3.5 7.802-7.802 7.802h-230.093c-4.302 0-7.802-3.5-7.802-7.802z"/><path d="m107.231 415.647c4.143 0 7.5-3.357 7.5-7.5v-5.41c30.284-5.968 37.729-45.721 5.179-55.777-1.703-.526-3.441-1.073-5.179-1.641v-24.79c4.496 1.08 7.159 3.033 7.419 3.23 3.226 2.543 7.902 2.022 10.484-1.182 2.6-3.226 2.093-7.946-1.132-10.546-.379-.306-6.607-5.201-16.771-6.743v-4.223c0-4.143-3.357-7.5-7.5-7.5s-7.5 3.357-7.5 7.5v4.702c-12.692 2.667-20.261 11.301-22.028 21.49-1.519 8.759 1.83 17.142 8.74 21.879 3.418 2.342 7.618 4.492 13.288 6.741v32.421c-4.828-.392-8.363-1.552-13.968-4.756-3.595-2.058-8.178-.809-10.232 2.789-2.056 3.596-.808 8.177 2.789 10.232 8.37 4.785 14.166 6.321 21.411 6.758v4.825c0 4.144 3.358 7.501 7.5 7.501zm-14.749-85.827c.531-3.061 2.724-6.732 7.249-8.503v18.189c-4.977-2.444-8.19-4.245-7.249-9.686zm23 31.473c16.643 5.14 11.786 21.489-.751 25.92v-26.155c.254.079.494.156.751.235z"/><path d="m193.785 181.746h-111.743c-4.143 0-7.5 3.357-7.5 7.5s3.357 7.5 7.5 7.5h111.743c4.143 0 7.5-3.357 7.5-7.5s-3.357-7.5-7.5-7.5z"/><path d="m193.785 220.284h-111.743c-4.143 0-7.5 3.357-7.5 7.5s3.357 7.5 7.5 7.5h111.743c4.143 0 7.5-3.357 7.5-7.5s-3.357-7.5-7.5-7.5z"/><path d="m201.285 266.321c0-4.143-3.357-7.5-7.5-7.5h-111.743c-4.143 0-7.5 3.357-7.5 7.5s3.357 7.5 7.5 7.5h111.743c4.143 0 7.5-3.357 7.5-7.5z"/><path d="m295.479 181.746h-44.029c-4.143 0-7.5 3.357-7.5 7.5s3.357 7.5 7.5 7.5h44.029c4.143 0 7.5-3.357 7.5-7.5s-3.358-7.5-7.5-7.5z"/><path d="m295.479 220.284h-44.029c-4.143 0-7.5 3.357-7.5 7.5s3.357 7.5 7.5 7.5h44.029c4.143 0 7.5-3.357 7.5-7.5s-3.358-7.5-7.5-7.5z"/><path d="m295.479 258.821h-44.029c-4.143 0-7.5 3.357-7.5 7.5s3.357 7.5 7.5 7.5h44.029c4.143 0 7.5-3.357 7.5-7.5s-3.358-7.5-7.5-7.5z"/><path d="m500.984 385.907c4.143 0 7.5-3.357 7.5-7.5v-56.26c0-8.118-6.605-14.724-14.725-14.724h-131.573v-284.055c0-12.885-10.484-23.368-23.37-23.368h-248.798c-4.143 0-7.5 3.357-7.5 7.5s3.357 7.5 7.5 7.5h248.799c4.615 0 8.369 3.754 8.369 8.368v284.056c-17.071 0-125.727 0-141.054 0-8.234 0-14.724 6.764-14.724 14.724v20.931h-19.522c-8.12 0-14.724 6.606-14.724 14.724v83.114h-130.346c-.011 0-.021 0-.032-.001-4.56-.052-8.269-3.805-8.269-8.367v-409.181c0-4.614 3.754-8.368 8.369-8.368h28.133c4.143 0 7.5-3.357 7.5-7.5s-3.357-7.5-7.499-7.5h-28.133c-12.886 0-23.369 10.483-23.369 23.368v409.18c0 12.739 10.362 23.222 23.099 23.367.036 0 .076-.001.114 0l130.434.001v41.36c0 8.118 6.605 14.724 14.724 14.724h287.628c8.119 0 14.724-6.605 14.724-14.724v-20.931h19.522c8.119 0 14.725-6.605 14.725-14.725v-48.214c0-4.143-3.357-7.5-7.5-7.5s-7.5 3.357-7.5 7.5v47.938h-19.246v-103.542c0-8.122-6.608-14.724-14.725-14.724h-253.107v-20.654h287.076v55.983c0 4.143 3.358 7.5 7.5 7.5zm-41.747-27.829v138.922h-287.075c0-.581 0-135.238 0-138.922z"/></g></g></svg>