<svg id="Capa_1" enable-background="new 0 0 512 512" height="512" viewBox="0 0 512 512" width="512" xmlns="http://www.w3.org/2000/svg"><g><g><path d="m279.92 251.96h-16.699v-77.237c0-4.162-3.374-7.536-7.536-7.536h-21.639c-4.162 0-7.536 3.374-7.536 7.536v77.237h-16.699c-6.273 0-9.8 7.216-5.946 12.165l40.97 52.618c1.488-1.803-2.653 3.483 41.029-52.618 3.855-4.949.328-12.165-5.944-12.165z" fill="#ffe177"/><path d="m302.188 251.96h-16.698v-77.237c0-4.162-3.374-7.536-7.536-7.536h-24.293c4.162 0 7.536 3.374 7.536 7.536v77.237h16.699c6.273 0 9.8 7.216 5.946 12.165l-39.987 51.356 6.201 7.964c3.017 3.874 8.875 3.874 11.892 0l46.188-59.32c3.852-4.949.325-12.165-5.948-12.165z" fill="#ffd15b"/><path d="m249.927 230.645c41.409-5.899 73.252-41.485 73.252-84.523 0-43.039-31.843-78.624-73.251-84.524h-6.073c-41.409 5.899-73.252 41.485-73.252 84.524 0 40.389 28.461 77.372 73.252 84.523z" fill="#fff0ad"/><path d="m256 60.723c-4.126 0-8.177.309-12.147.875 41.409 5.899 73.252 41.485 73.252 84.524s-31.843 78.624-73.252 84.523c3.969.565 8.021.875 12.147.875 47.164 0 85.398-38.234 85.398-85.398.001-47.165-38.233-85.399-85.398-85.399z" fill="#ffe177"/><g><path d="m464.73 471.031c-2.523-17.616-15.326-31.437-31.713-35.905 5.999 6.349 10.147 14.53 11.469 23.758.666 4.653-2.692 8.918-7.371 9.363l-232.73 22.083-95.439-20.874h-61.76v5.061c0 3.913 3.172 7.086 7.086 7.086h74.919l95.439 20.874 232.73-22.082c4.678-.446 8.037-4.712 7.37-9.364z" fill="#ffb09e"/></g><path d="m322.395 89.807v-63.026h-151.01v63.027c0 3.83 3.105 6.935 6.935 6.935h137.142c3.829-.002 6.933-3.106 6.933-6.936z" fill="#596c76"/><path d="m318.346 26.781v63.027c0 3.83-3.105 6.935-6.935 6.935h22.269c3.83 0 6.935-3.105 6.935-6.935v-63.027z" fill="#465a61"/><g><path d="m369.572 104.333c-4.193 0-7.592-3.398-7.592-7.592v-73.639c0-4.193 3.399-7.592 7.592-7.592s7.592 3.398 7.592 7.592v73.639c-.001 4.194-3.4 7.592-7.592 7.592z" fill="#ffe177"/></g><path d="m370.694 23.103c0-8.617-6.986-15.603-15.603-15.603h-216.401c-8.617 0-15.603 6.986-15.603 15.603 0 8.617 6.986 15.603 15.603 15.603h216.403c8.616-.001 15.601-6.986 15.601-15.603z" fill="#8d9ca8"/><path d="m373.311 7.5h-22.269c8.617 0 15.603 6.986 15.603 15.603 0 8.617-6.986 15.603-15.603 15.603h22.269c8.617 0 15.603-6.986 15.603-15.603 0-8.617-6.986-15.603-15.603-15.603z" fill="#7a8c98"/><path d="m444.486 458.884c-1.322-9.228-5.469-17.409-11.468-23.757-4.185-1.141-8.6-1.683-13.142-1.509-127.887 4.882-120.395 4.282-167.708 7.306v-8.952l70.795-4.44c14.89-.934 26.029-14.044 24.545-28.889-.582-5.823-3.033-11.027-6.705-15.069-1.012-.181-3.231-.646-6.393-.517l-55.227 2.261c-13.691-20.507-35.512-32.967-59.009-33.469-27.374-.585-46.795-2.944-73.656 9.894l-26.581 12.703h-65.665c-3.913 0-7.086 3.172-7.086 7.086v87.923h61.76l95.439 20.874 232.73-22.083c4.679-.444 8.037-4.709 7.371-9.362z" fill="#ffcebf"/><path d="m361.677 406.74c-1.168-11.687-9.843-20.898-20.876-23.167 3.672 4.042 6.123 9.246 6.705 15.069 1.484 14.845-9.654 27.956-24.545 28.889l-71.867 4.507c-2.363.148-4.204 2.108-4.204 4.476 0 2.587 2.183 4.638 4.765 4.476l85.477-5.361c14.891-.934 26.029-14.044 24.545-28.889z" fill="#ffb09e"/></g><g><path d="m138.69 46.206h25.196v43.601c0 6.276 4.032 11.614 9.636 13.598-6.836 13.14-10.42 27.688-10.42 42.717 0 38.084 23.039 70.883 55.909 85.207v13.131h-9.198c-12.514 0-19.548 14.405-11.863 24.272l46.188 59.319c6.02 7.731 17.704 7.737 23.727 0l46.188-59.318c7.689-9.875.644-24.273-11.863-24.273h-9.199v-13.152c11.843-5.144 22.622-12.737 31.503-22.425 2.799-3.053 2.593-7.798-.46-10.597-3.054-2.8-7.798-2.595-10.597.46-14.925 16.278-35.992 25.274-57.437 25.274-42.936 0-77.898-34.934-77.898-77.897 0-14.962 4.217-29.361 12.23-41.88h131.336c8.014 12.519 12.23 26.918 12.23 41.88 0 8.706-1.425 17.252-4.233 25.399-1.35 3.916.73 8.186 4.647 9.535 3.915 1.346 8.185-.73 9.535-4.646 3.352-9.725 5.051-19.914 5.052-30.288 0-15.03-3.583-29.577-10.42-42.717 5.604-1.984 9.636-7.323 9.636-13.598v-43.602h13.957v50.536c0 4.143 3.358 7.5 7.5 7.5s7.5-3.357 7.5-7.5v-50.847c10.956-1.802 19.342-11.334 19.342-22.792 0-12.739-10.364-23.103-23.103-23.103h-234.621c-12.739 0-23.103 10.364-23.103 23.103s10.364 23.103 23.103 23.103zm139.3 190.193v15.561c0 4.143 3.358 7.5 7.5 7.5h16.699l.001-.026c.02.019.046.071.027.084l-46.245 59.319-46.209-59.304c.002-.026.025-.074.045-.074.001 0 .003 0 .004.001h16.698c4.142 0 7.5-3.357 7.5-7.5v-15.561c14.09 3.424 29.401 3.544 43.98 0zm55.125-147.157c-11.455 0-148.806 0-154.229 0v-43.036h154.229zm-194.425-74.242h234.621c4.468 0 8.103 3.635 8.103 8.103 0 4.469-3.635 8.104-8.103 8.104-9.851 0-225.031 0-234.621 0-4.468 0-8.103-3.635-8.103-8.104 0-4.468 3.635-8.103 8.103-8.103z"/><path d="m273.412 143.776c3.374 2.402 8.057 1.616 10.46-1.759 2.403-3.374 1.615-8.057-1.759-10.46l-5.765-4.105c-.907-.645-5.764-3.885-13.357-5.183v-1.851c0-4.143-3.358-7.5-7.5-7.5s-7.5 3.357-7.5 7.5v2.274c-10.634 2.35-17.251 9.916-18.626 18.26-1.231 7.47 1.889 14.578 8.142 18.551 2.753 1.749 6.091 3.36 10.484 5.022v22.367c-3.496-.391-6.14-1.336-10.241-3.509-3.66-1.938-8.198-.545-10.139 3.114-1.939 3.66-.545 8.2 3.115 10.14 6.767 3.587 11.561 4.883 17.265 5.314v2.21c0 4.143 3.358 7.5 7.5 7.5s7.5-3.357 7.5-7.5v-2.805c12.93-2.761 20.771-12.347 22.071-21.801 1.191-8.656-2.986-20.357-18.677-24.85-1.118-.32-2.255-.652-3.394-.991v-16.11c4.001 1.165 5.162 2.427 10.421 6.172zm-3.21 33.734c-.425 3.093-2.975 6.32-7.211 8.144v-16.3c2.87.941 7.88 3.296 7.211 8.156zm-26.037-34.118c.261-1.586 1.429-3.581 3.826-4.902v9.718c-2.575-1.297-4.276-2.089-3.826-4.816z"/><path d="m419.589 428.147-57.597 2.198c17.798-22.426 1.182-55.926-27.891-54.783l-51.144 2.095c-15.136-20.416-38.25-32.785-62.626-33.307-26.596-.568-35.305-1.392-50.468 1.698-4.059.826-6.679 4.787-5.852 8.846s4.787 6.685 8.846 5.852c13.259-2.702 20.268-1.974 47.153-1.399 20.844.446 40.632 11.712 52.932 30.136 1.452 2.175 3.933 3.423 6.545 3.33l55.221-2.262c10.792-.447 19.602 8.119 19.602 18.841 0 9.895-7.751 18.131-17.647 18.752l-85.521 5.363c-4.043.254-7.154 3.672-7.027 7.72.126 4.049 3.445 7.266 7.496 7.266 40.288 0-2.781 1.183 168.562-5.356 18.428-.739 34.534 12.847 37.132 30.979.06.42-.238.797-.655.836l-231.563 21.972-103.551-22.648c-.526-.115-1.063-.173-1.603-.173h-65.247v-92.155h65.248c1.119 0 2.224-.25 3.234-.733l18.71-8.941c3.737-1.786 5.319-6.264 3.533-10.001-1.786-3.736-6.264-5.32-10.001-3.532l-17.176 8.208h-63.963c-8.042 0-14.585 6.543-14.585 14.586v92.983c0 8.043 6.543 14.586 14.585 14.586h64.852l103.904 22.726c.765.167 1.551.212 2.311.14l232.73-22.082c8.122-.771 14.247-7.5 14.247-15.651-.001-19.817-21.29-47.362-52.726-46.09z"/></g></g></svg>