<svg id="Capa_1" enable-background="new 0 0 512 512" height="512" viewBox="0 0 512 512" width="512" xmlns="http://www.w3.org/2000/svg"><g><g><g><path d="m144.5 144.684c0-.177-.019-.35-.029-.526h-58.414v61.596h58.443z" fill="#dff6fd"/></g><path d="m153.726 144.158h-13.501c.009.176.027.349.027.526v61.07h-54.195v10h78.195v-61.07c0-5.813-4.713-10.526-10.526-10.526z" fill="#c8effe"/><path d="m86.057 429.236v31.949h103.444l5.999-6.185h22.001 185.333v6.185h23.109v-31.949z" fill="#aa6a51"/><path d="m86.057 243.849v31.948h103.444l6.999-10h17.001 4 185.333v10h23.109v-31.948z" fill="#aa6a51"/><path d="m402.834 187.659v3.841h-209.834l-3.499-3.841h-103.444v56.19h339.886v-56.19z" fill="#f2fbff"/><g><path d="m86.057 330.332v61.595h54.195v-61.07c0-.177-.018-.35-.027-.525z" fill="#dff6fd"/></g><path d="m153.726 330.332h-13.501c.009.175.027.348.027.525v61.07h-54.195v10h78.195v-61.07c0-5.813-4.713-10.525-10.526-10.525z" fill="#c8effe"/><path d="m402.834 373.046v5.454h-208.834l-4.499-5.454h-103.444v56.19h339.886v-56.19z" fill="#f2fbff"/><path d="m217.501 455h161.333v-25.764h-189.333v31.949h24z" fill="#935b44"/><path d="m217.501 265.797h161.333v-21.948h-189.333v31.948h24z" fill="#935b44"/><path d="m189.501 187.659h189.334v56.19h-189.334z" fill="#dff6fd"/><path d="m189.501 373.046h189.334v56.19h-189.334z" fill="#dff6fd"/><path d="m411.255 153.299c-4.651 0-8.42 3.77-8.42 8.42v332.781h19.797c4.651 0 8.42-3.77 8.42-8.42v-332.781c-4.321 0-15.513 0-19.797 0z" fill="#c68d7a"/><path d="m440.632 153.299h-13.58v332.781c0 4.65-3.77 8.42-8.42 8.42h-15.797v1.58c0 4.65 3.77 8.42 8.42 8.42h29.377c4.651 0 8.42-3.77 8.42-8.42v-334.36c0-4.651-3.77-8.421-8.42-8.421z" fill="#bc7c63"/><path d="m224.026 169.274c-5.813 0-10.526 4.712-10.526 10.525v85.998h163.334c4.418 0 8-3.582 8-8 0-18.096 0-70.209 0-88.523-5.968 0-149.971 0-160.808 0z" fill="#86e8d0"/><path d="m378.834 169.274v82.523c0 4.418-3.582 8-8 8h-157.333v16h189.334v-106.523z" fill="#5de1c4"/><path d="m224.026 354.661c-5.813 0-10.526 4.713-10.526 10.526v83.998h161.334c4.418 0 8-3.582 8-8 0-9.3 0-76.982 0-86.523-7.46-.001-150.676-.001-158.808-.001z" fill="#86e8d0"/><path d="m378.834 354.661v82.523c0 4.418-3.582 8-8 8h-157.333v16h189.334v-106.523z" fill="#5de1c4"/><path d="m327.847 92.461v-65.059h-156.686v65.059c0 3.953 3.205 7.158 7.158 7.158h142.37c3.953 0 7.158-3.205 7.158-7.158z" fill="#596c76"/><path d="m323.847 27.402v65.059c0 3.953-3.205 7.158-7.158 7.158h22c3.953 0 7.158-3.205 7.158-7.158v-65.059z" fill="#465a61"/><path d="m377.703 23.606c0-8.895-7.211-16.106-16.106-16.106h-224.186c-8.895 0-16.106 7.211-16.106 16.106 0 8.895 7.211 16.106 16.106 16.106h224.186c8.895 0 16.106-7.211 16.106-16.106z" fill="#8d9ca8"/><path d="m379.597 7.5h-22c8.895 0 16.106 7.211 16.106 16.106 0 8.895-7.211 16.106-16.106 16.106h22c8.895 0 16.106-7.211 16.106-16.106 0-8.895-7.211-16.106-16.106-16.106z" fill="#7a8c98"/><path d="m71.368 115.826c-4.651 0-8.42 3.77-8.42 8.42v370.254h19.797c4.651 0 8.42-3.77 8.42-8.42v-370.254c-4.261 0-15.467 0-19.797 0z" fill="#c68d7a"/><path d="m100.745 115.826h-13.58v370.254c0 4.65-3.77 8.42-8.42 8.42h-15.797v1.58c0 4.65 3.77 8.42 8.42 8.42h29.377c4.651 0 8.42-3.77 8.42-8.42v-371.834c.001-4.65-3.769-8.42-8.42-8.42z" fill="#bc7c63"/></g><g><path d="m440.632 145.799h-29.377c-8.778 0-15.92 7.142-15.92 15.92v.055h-171.309c-9.939 0-18.025 8.087-18.025 18.026v.358h-34.249v-25.475c0-9.939-8.086-18.025-18.025-18.025h-37.061v-12.412c0-8.778-7.142-15.921-15.92-15.921h-29.378c-8.778 0-15.92 7.143-15.92 15.921v264.442c0 4.143 3.358 7.5 7.5 7.5s7.5-3.357 7.5-7.5v-264.442c0-.508.413-.921.92-.921h29.377c.507 0 .92.413.92.921 0 393.169.452 372.754-.92 372.754h-29.377c-.507 0-.92-.413-.92-.921v-72.391c0-4.143-3.358-7.5-7.5-7.5s-7.5 3.357-7.5 7.5v72.391c0 8.778 7.142 15.921 15.92 15.921h29.377c8.778 0 15.92-7.143 15.92-15.921v-27.395h278.669v27.395c0 8.779 7.142 15.921 15.92 15.921h29.377c8.778 0 15.92-7.142 15.92-15.921v-334.36c.001-8.779-7.141-15.92-15.919-15.92zm-234.631 122.498h-89.335v-16.947h89.335zm-49.249 97.249h-40.086v-27.714h37.061c1.668 0 3.025 1.357 3.025 3.025zm-40.086 15h89.335v41.19h-89.335c0-14.435 0-25.979 0-41.19zm89.335-15.359v.359h-34.249v-24.688c0-9.939-8.086-18.025-18.025-18.025h-37.061v-39.535h278.669v63.864h-171.309c-9.939-.001-18.025 8.085-18.025 18.025zm15-185.387c0-1.669 1.357-3.026 3.025-3.026h171.308v91.523h-174.333c0-62.563 0 50.465 0-88.497zm-15 56.55h-89.335v-41.191h89.335zm-52.274-84.692c1.668 0 3.025 1.357 3.025 3.025v25.475h-40.086v-28.5zm-37.061 285.078h89.335v16.948h-89.335zm104.335 16.949c0-62.559 0 50.506 0-88.498 0-1.668 1.357-3.025 3.025-3.025h171.308v91.523zm220.551 42.394c0 .508-.413.921-.92.921h-29.377c-.507 0-.92-.413-.92-.921 0-14.943 0-317.953 0-334.36 0-.507.413-.92.92-.92h29.377c.507 0 .92.413.92.92z"/><path d="m137.411 47.212h26.25v45.249c0 8.083 6.576 14.658 14.658 14.658h93.002c4.142 0 7.5-3.357 7.5-7.5s-3.358-7.5-7.5-7.5h-92.661v-44.907h159.686v44.907h-32.025c-4.142 0-7.5 3.357-7.5 7.5s3.358 7.5 7.5 7.5h32.367c8.083 0 14.658-6.575 14.658-14.658v-45.249h14.89v52.407c0 4.143 3.358 7.5 7.5 7.5s7.5-3.357 7.5-7.5v-52.689c11.294-1.756 19.966-11.546 19.966-23.325.001-13.015-10.588-23.605-23.605-23.605h-242.186c-13.017 0-23.606 10.59-23.606 23.606s10.59 23.606 23.606 23.606zm0-32.212h242.186c4.745 0 8.606 3.86 8.606 8.606 0 4.745-3.861 8.605-8.606 8.605-11.213 0-232.793 0-242.186 0-4.745 0-8.606-3.86-8.606-8.606 0-4.745 3.861-8.605 8.606-8.605z"/></g></g></svg>