<svg id="Capa_1" enable-background="new 0 0 507.67 507.67" height="512" viewBox="0 0 507.67 507.67" width="512" xmlns="http://www.w3.org/2000/svg"><g><g><path d="m21.918 405.403c-6.455 0-11.688 5.233-11.688 11.688v68.436h451.702c6.455 0 11.688-5.233 11.688-11.688 0-6.193 0-61.059 0-68.436-2.992 0-443.33 0-451.702 0z" fill="#f07281"/><path d="m485.752 405.403h-16.462v64.105c0 6.455-5.233 11.688-11.688 11.688h-447.371v5.636c0 6.455 5.233 11.688 11.688 11.688h62.084v-4.311h42.164v4.311h255.338v-4.311h42.164v4.311h62.084c6.455 0 11.688-5.233 11.688-11.688v-69.742c-.001-6.455-5.234-11.687-11.689-11.687z" fill="#eb5569"/><path d="m252.171 150.443c-1.791 0-13.872 0-15.659 0v120.492h21.073c0-11.378 0-103.685 0-115.078-.001-2.991-2.424-5.414-5.414-5.414z" fill="#8d9ca8"/><path d="m236.512 117.961v36.812h11.328c2.99 0 5.414 2.423 5.414 5.414v110.747h17.323v-152.973z" fill="#7a8c98"/><path d="m343.302 150.443c-1.791 0-13.872 0-15.659 0v120.492h21.073c0-11.378 0-103.685 0-115.078 0-2.991-2.424-5.414-5.414-5.414z" fill="#8d9ca8"/><path d="m327.643 117.961v36.812h11.328c2.99 0 5.414 2.423 5.414 5.414v110.747h17.323v-152.973z" fill="#7a8c98"/><path d="m240.843 11.435.49-.437-111.226 99.015h227.968l-110.736-98.578.49-.437z" fill="#9facba"/><path d="m161.621 150.443c-1.791 0-13.872 0-15.659 0v120.492h21.072c0-11.378 0-103.685 0-115.078.001-2.991-2.423-5.414-5.413-5.414z" fill="#8d9ca8"/><path d="m145.963 117.961v36.812h11.328c2.99 0 5.414 2.423 5.414 5.414v110.747h17.323v-152.973z" fill="#7a8c98"/><path d="m260.315 5.636c-3.694-3.288-9.265-3.288-12.958 0l-6.513 5.798 110.736 98.578h25.985z" fill="#8d9ca8"/><path d="m84.002 405.403h42.164v93.117h-42.164z" fill="#f2fbff"/><path d="m381.504 405.403h42.164v93.117h-42.164z" fill="#ffe177"/><path d="m84.002 481.196h42.164v17.323h-42.164z" fill="#dff6fd"/><path d="m381.504 481.196h42.164v17.323h-42.164z" fill="#ffd15b"/><path d="m358.752 145.213c4.186 0 7.579-3.393 7.579-7.579v-28.631c0-4.186-3.393-7.579-7.579-7.579h21.657c-8.2 0-235.48 0-253.145 0-4.186 0-7.579 3.393-7.579 7.579v28.631c0 4.186 3.393 7.579 7.579 7.579h253.146z" fill="#b6c4cf"/><path d="m380.407 101.424h-25.985c4.186 0 7.579 3.393 7.579 7.579v28.631c0 4.186-3.393 7.579-7.579 7.579h25.985c4.186 0 7.579-3.393 7.579-7.579v-28.631c0-4.186-3.394-7.579-7.579-7.579z" fill="#9facba"/><path d="m401.056 339.675c-1.903 0-316.559-.009-317.517.015-8.852 17.047 3.64 36.19 21.689 36.19h304.489v-27.544c0-4.783-3.878-8.661-8.661-8.661z" fill="#f2fbff"/><path d="m105.228 326.682c-9.375 0-17.539 5.273-21.689 13.008.952-.024 310.598-.015 313.186-.015 4.784 0 8.662 3.878 8.662 8.662v27.544h21.654v-49.198h-321.813z" fill="#dff6fd"/><path d="m355.252 249.039h-224.42c-4.186 0-7.579 3.394-7.579 7.579v1.083 39.458h239.578c0-9.854 0-15.484 0-40.542-.001-4.184-3.394-7.578-7.579-7.578z" fill="#b6c4cf"/><path d="m376.839 249.039h-25.905c4.186 0 7.579 3.394 7.579 7.579v40.542h25.905c0-9.854 0-15.484 0-40.542 0-4.185-3.393-7.579-7.579-7.579z" fill="#9facba"/><path d="m105.229 326.682h336.574.001c-4.412 0-12.001 0-22.001 0 8.152 0 14.761-6.609 14.761-14.761 0-8.153-6.609-14.761-14.761-14.761h22.001-.001-336.574c-29.891 0-54.122 24.231-54.122 54.122 0 15.919 6.875 30.231 17.815 40.134 3.342.646 6.791.995 10.322.995h336.574c8.736 0 15.714-7.601 14.646-16.53-8.575 0-316.3 0-324.63 0-13.321 0-24.682-10.339-25.186-23.651-.529-13.995 10.702-25.548 24.581-25.548z" fill="#7bacdf"/><g><path d="m441.803 375.88h-11.34c.07.581.116 1.169.116 1.769 0 8.152-6.609 14.761-14.761 14.761h-336.574c-3.531 0-6.979-.349-10.322-.995 9.602 8.692 22.335 13.988 36.307 13.988h336.574c8.152 0 14.761-6.609 14.761-14.761 0-8.153-6.609-14.762-14.761-14.762z" fill="#5f99d7"/></g><g><path d="m441.803 297.159h-26c8.152 0 14.761 6.609 14.761 14.761 0 8.152-6.609 14.761-14.761 14.761h26c8.152 0 14.761-6.609 14.761-14.761 0-8.152-6.609-14.761-14.761-14.761z" fill="#5f99d7"/></g></g><path d="m485.752 399.553h-22.911c.788-2.277 1.222-4.719 1.222-7.261 0-12.275-9.986-22.262-22.261-22.262h-7.263v-34.198h7.263c12.274 0 22.261-9.986 22.261-22.262 0-12.274-9.986-22.261-22.261-22.261h-49.885v-28.709c0-8.314-6.765-15.079-15.079-15.079h-7.631v-88.827h11.198c8.314 0 15.079-6.765 15.079-15.079v-28.631c0-8.314-6.765-15.079-15.079-15.079h-7.781l-50.152-44.646c-3.095-2.754-7.836-2.479-10.589.614-2.755 3.095-2.479 7.835.614 10.589l37.567 33.442h-192.459l94.739-84.338c.851-.757 2.13-.759 2.984.001l31.029 27.623c3.095 2.755 7.836 2.479 10.589-.614 2.755-3.094 2.479-7.835-.614-10.589l-31.03-27.624c-6.543-5.824-16.404-5.813-22.932.001l-107.323 95.54h-7.782c-8.314 0-15.079 6.765-15.079 15.079v28.631c0 8.314 6.765 15.079 15.079 15.079h11.198v88.827h-7.631c-8.314 0-15.079 6.765-15.079 15.079v28.71h-10.524c-33.979 0-61.622 27.644-61.622 61.621 0 18.614 8.307 35.313 21.396 46.622h-43.085c-10.58 0-19.188 8.607-19.188 19.188v69.741c0 10.58 8.608 19.188 19.188 19.188h190.834c4.142 0 7.5-3.357 7.5-7.5s-3.358-7.5-7.5-7.5h-79.086v-78.117h240.338v78.117h-126.252c-4.142 0-7.5 3.357-7.5 7.5s3.358 7.5 7.5 7.5h238c10.58 0 19.188-8.607 19.188-19.188v-69.741c0-10.579-8.608-19.187-19.188-19.187zm-66.212-29.522h-313.707c-9.575 0-17.979-7.743-17.677-17.63.291-9.378 8.036-16.568 17.072-16.568h314.312zm-65.332-122.51h-19.065v-88.827h19.065zm-75.84 0v-88.827h41.775v88.827zm-90.84 0v-88.827h41.775v88.827zm56.775-88.827h19.065v88.827h-19.065zm-117.118-15.079v-28.631c0-.044.036-.079.079-.079h253.143c.044 0 .079.035.079.079 0 .123.044 28.71-.079 28.71-10.173 0-241.275 0-253.143 0-.043 0-.079-.035-.079-.079zm26.277 15.079h19.065v88.827h-19.065zm-22.63 103.827h246.008c.044 0 .079.035.079.079v28.71h-246.167c0-.123-.043-28.789.08-28.789zm-113.102 225.962v-69.741c0-2.31 1.879-4.188 4.188-4.188h54.584v78.117h-54.584c-2.309-.001-4.188-1.88-4.188-4.188zm100.936 4.187h-27.164v-78.117h27.164zm-13.437-93.117c-25.708 0-46.622-20.915-46.622-46.622s20.915-46.621 46.622-46.621h336.575c4.004 0 7.261 3.258 7.261 7.262s-3.257 7.261-7.261 7.261c-10.446 0-296.136 0-336.575 0-18.17 0-32.765 15.141-32.075 33.331.647 17.011 14.698 30.867 32.075 30.867h.605 335.97c4.004 0 7.261 3.258 7.261 7.262s-3.257 7.261-7.261 7.261c-19.202-.001-318.168-.001-336.575-.001zm283.775 93.117v-78.117h27.164v78.117zm100.936-4.187c0 2.309-1.879 4.188-4.188 4.188h-54.584v-78.117h54.584c2.309 0 4.188 1.879 4.188 4.188z"/></g></svg>