<svg id="Capa_1" enable-background="new 0 0 512.006 512.006" height="512" viewBox="0 0 512.006 512.006" width="512" xmlns="http://www.w3.org/2000/svg"><g><g><path d="m463.499 172.997h-139.025v269.994h-68.471v32.999h207.496c6.075 0 11-4.925 11-11v-280.993c0-6.075-4.925-11-11-11z" fill="#f07281"/><path d="m169.455 442.991v-269.994h-140.947c-6.075 0-11 4.925-11 11v280.994c0 6.075 4.925 11 11 11h227.495v-32.999h-86.548z" fill="#f58a97"/><path d="m483.498 172.997h-24c6.075 0 11 4.925 11 11v280.994c0 6.075-4.925 11-11 11h24c6.075 0 11-4.925 11-11v-280.994c0-6.075-4.925-11-11-11z" fill="#eb5569"/><path d="m439.999 433.991v-279.994c0-4.971-4.029-9-9-9h-156.996c-9.941 0-18 8.058-18 18v279.994h174.996c4.971 0 9-4.029 9-9z" fill="#dff6fd"/><path d="m256.003 442.991h-194.996c-4.97 0-9-4.029-9-9v-279.994c0-4.97 4.029-9 9-9h176.996c9.941 0 18 8.059 18 18z" fill="#f2fbff"/><path d="m450.999 144.997h-24c4.97 0 9 4.029 9 9v279.994c0 4.971-4.029 9-9 9h24c4.97 0 9-4.029 9-9v-279.994c0-4.97-4.029-9-9-9z" fill="#c8effe"/><path d="m91.954 457.404v38.08c0 4.974 4.032 9.006 9.006 9.006h16.79c4.974 0 9.006-4.032 9.006-9.006v-38.08z" fill="#99e6fc"/><path d="m107.355 257.826-15.401 27.777h34.802l-15.401-27.777z" fill="#ffcebf"/><path d="m91.954 285.603h34.802v171.801h-34.802z" fill="#7bacdf"/><path d="m122.756 285.603h20v171.801h-20z" fill="#5f99d7"/><path d="m120.225 244.968c-1.275-2.299-4.467-2.299-5.742 0l-7.129 12.858 15.401 27.777h20z" fill="#ffb09e"/><path d="m122.756 457.404v38.08c0 4.974-4.032 9.006-9.006 9.006h20c4.974 0 9.006-4.032 9.006-9.006v-38.08z" fill="#62dbfb"/><g fill="#ffe177"><path d="m244.965 8.199c.354-.044.708-.087 1.064-.127-.355.04-.71.083-1.064.127z"/><path d="m244.003 8.314c.025.003.05.008.075.012 1.273-.171 1.11-.174-.075-.012z"/><path d="m246.029 8.072c1.249-.14 2.503-.265 3.767-.353-1.264.09-2.518.213-3.767.353z"/><path d="m248.003 205.049 11.659-23.812c37.373-10.347 64.812-44.6 64.812-85.266 0-44.764-33.248-81.756-76.395-87.645-35.306 0-80.546 34.875-80.546 87.645 0 40.666 27.439 74.919 64.812 85.266l11.659 23.812z"/></g><path d="m244.003 8.314c43.184 5.856 76.471 42.867 76.471 87.657 0 40.666-27.439 74.919-64.812 85.266l-11.659 23.812 6.182 12.626c2.369 4.839 9.267 4.839 11.636 0l17.841-36.438c37.373-10.347 64.812-44.6 64.812-85.266-.001-53.444-47.112-94.9-100.471-87.657z" fill="#ffd15b"/><path d="m282.199 145.156h-52.392c-3.447 0-6.242-2.795-6.242-6.242v-46.183h64.876v46.183c0 3.447-2.795 6.242-6.242 6.242z" fill="#fff6ce"/><path d="m209.057 101.714h93.892c2.715 0 4.034-3.319 2.058-5.182l-46.946-44.278c-1.156-1.09-2.961-1.09-4.117 0l-46.946 44.278c-1.974 1.862-.656 5.182 2.059 5.182z" fill="#f07281"/></g><g><path d="m416.024 205.797h-116.045c-4.143 0-7.5 3.357-7.5 7.5s3.357 7.5 7.5 7.5h116.045c4.143 0 7.5-3.357 7.5-7.5s-3.358-7.5-7.5-7.5z"/><path d="m416.024 262.462h-116.045c-4.143 0-7.5 3.357-7.5 7.5s3.357 7.5 7.5 7.5h116.045c4.143 0 7.5-3.357 7.5-7.5s-3.358-7.5-7.5-7.5z"/><path d="m416.024 319.128h-116.045c-4.143 0-7.5 3.357-7.5 7.5s3.357 7.5 7.5 7.5h116.045c4.143 0 7.5-3.357 7.5-7.5s-3.358-7.5-7.5-7.5z"/><path d="m416.024 375.793h-116.045c-4.143 0-7.5 3.357-7.5 7.5s3.357 7.5 7.5 7.5h116.045c4.143 0 7.5-3.357 7.5-7.5s-3.358-7.5-7.5-7.5z"/><path d="m483.498 165.497h-15.999v-11.5c0-9.099-7.402-16.5-16.5-16.5h-108.536c6.113-12.686 9.511-26.812 9.511-41.526 0-53.229-43.001-95.971-95.958-95.971-.004 0-.009 0-.013 0-25.833 0-50.065 10.115-68.234 28.483-2.913 2.945-2.887 7.693.058 10.606 2.944 2.912 7.693 2.888 10.606-.058 15.329-15.496 35.775-24.031 57.571-24.031 46.15.263 80.97 37.213 80.97 80.971 0 36.32-24.449 68.388-59.313 78.038-2.068.573-3.791 2.004-4.735 3.931l-16.923 34.563-16.923-34.563c-.944-1.927-2.667-3.357-4.735-3.931-34.665-9.596-59.313-41.507-59.313-78.038 0-10.509 1.98-20.728 5.887-30.373 1.556-3.839-.297-8.212-4.136-9.767-3.842-1.558-8.213.297-9.767 4.136-4.635 11.443-6.984 23.557-6.984 36.004 0 14.714 3.398 28.841 9.511 41.526h-108.536c-9.098 0-16.5 7.401-16.5 16.5v11.5h-15.999c-10.201 0-18.5 8.299-18.5 18.5v280.994c0 10.2 8.299 18.499 18.5 18.499h55.945v11.993.001c0 8.533 6.509 15.574 14.822 16.42 1.375.14 34.887.13 36.16 0 8.313-.847 14.821-7.888 14.821-16.42v-.001-11.993h231.117c4.143 0 7.5-3.357 7.5-7.5s-3.357-7.5-7.5-7.5h-117.87v-17.999h187.496c9.095 0 16.5-7.399 16.5-16.5 0-9.02 0-243.131 0-253.494h15.999c1.93 0 3.5 1.57 3.5 3.5v280.994c0 1.93-1.57 3.499-3.5 3.499h-67.126c-4.143 0-7.5 3.357-7.5 7.5s3.357 7.5 7.5 7.5h67.126c10.201 0 18.5-8.299 18.5-18.499v-280.994c0-10.201-8.299-18.5-18.5-18.5zm-423.991-11.5c0-.827.673-1.5 1.5-1.5h117.451c12.017 16.466 29.073 28.823 48.597 34.994l16.394 33.481.001.002c1.175 2.397 2.971 4.345 5.054 5.667v208.85h-98.248c0-6.139 0-145.854 0-149.888 0-1.266-.351-2.569-.933-3.621-.003-.005-.005-.01-.007-.016l-22.53-40.638c-4.134-7.449-14.733-7.442-18.86.002l-22.53 40.636c-.003.005-.005.01-.007.016-.581 1.05-.933 2.353-.933 3.621v149.888h-23.449c-.827 0-1.5-.673-1.5-1.5 0-11.557 0-270.291 0-279.994zm70.514 124.107h-25.334l12.667-22.847zm-30.568 15h35.802v156.801h-35.802c0-4.879 0-137.971 0-156.801zm-70.945 175.386c-1.93 0-3.5-1.569-3.5-3.499v-280.994c0-1.93 1.57-3.5 3.5-3.5h15.999v253.494c0 9.065 7.423 16.5 16.5 16.5h23.446v17.999zm106.747 26.993c0 .834-.678 1.507-1.506 1.507h-32.789c-.831 0-1.507-.676-1.507-1.507 0-10.971 0-19.752 0-30.579h35.802zm15-44.992h98.248v17.999h-98.248c0-6.375 0-11.548 0-17.999zm302.244-16.5c0 .827-.673 1.5-1.5 1.5h-187.496v-208.85c2.13-1.35 3.913-3.34 5.055-5.669l16.394-33.481c18.818-5.948 36.153-17.944 48.597-34.994h117.451c.827 0 1.5.673 1.5 1.5-.001 29.713-.001 251.205-.001 279.994z"/><path d="m229.807 152.656h52.393c7.577 0 13.742-6.165 13.742-13.742v-29.7h7.008c9.49 0 14.108-11.626 7.204-18.139l-46.945-44.276c-4.041-3.813-10.369-3.812-14.41-.001l-46.944 44.277c-6.904 6.51-2.289 18.139 7.203 18.139h7.008v29.7c-.001 7.577 6.164 13.742 13.741 13.742zm51.134-15h-49.877v-28.442h49.877zm-24.938-77.034 35.616 33.592c-10.116 0-61.291 0-71.232 0z"/></g></g></svg>