<svg id="Capa_1" enable-background="new 0 0 512 512" height="512" viewBox="0 0 512 512" width="512" xmlns="http://www.w3.org/2000/svg"><g><g><path d="m476.646 204.68h-154.712v241.885h-31.099v29.564h185.811c5.442 0 9.854-4.412 9.854-9.854v-251.74c0-5.443-4.412-9.855-9.854-9.855z" fill="#7bacdf"/><path d="m256 446.565v-241.886h-168.977c-5.443 0-9.855 4.412-9.855 9.855v251.74c0 5.443 4.412 9.855 9.855 9.855h203.811v-29.564z" fill="#98bce5"/><path d="m290.834 446.565h-174.695c-4.453 0-8.063-3.61-8.063-8.063v-250.844c0-4.453 3.61-8.063 8.063-8.063h158.569c8.906 0 16.126 7.22 16.126 16.126z" fill="#f2fbff"/><path d="m230.893 35.871h-22c6.663 0 12.064 5.401 12.064 12.064v305.22c0 6.663-5.401 12.063-12.064 12.063h22c6.663 0 12.064-5.401 12.064-12.063v-305.22c0-6.663-5.402-12.064-12.064-12.064z" fill="#fff0ad"/><path d="m212.893 365.219c6.663 0 12.064-5.401 12.064-12.063v-305.221c0-6.663-5.401-12.064-12.064-12.064h-193.329c-6.663 0-12.064 5.401-12.064 12.064v305.22c0 6.663 5.401 12.063 12.064 12.063h211.329.003-18.003z" fill="#fff6ce"/><path d="m494.646 204.68h-22c5.442 0 9.854 4.412 9.854 9.854v251.74c0 5.442-4.412 9.854-9.854 9.854h22c5.442 0 9.854-4.412 9.854-9.854v-251.74c0-5.442-4.412-9.854-9.854-9.854z" fill="#5f99d7"/><path d="m455.592 438.502v-250.844c0-4.453-3.61-8.063-8.063-8.063h-140.569c-8.906 0-16.126 7.22-16.126 16.125v250.844h156.696c4.452.001 8.062-3.609 8.062-8.062z" fill="#dff6fd"/><g><g><ellipse cx="114.228" cy="243.995" fill="#b6c4cf" rx="70.766" ry="81.008"/></g><path d="m118.228 415.398c3.78-3.153 6.188-7.895 6.188-13.202v-124.574c-6.534 0-2.034 0-16.375 0v124.575c0 5.405 2.274 9.625 6.188 13.202h3.999z" fill="#bc7c63"/></g><path d="m120.416 277.622v124.575c0 5.307-2.408 10.049-6.188 13.202 11.099 9.259 28.188 1.415 28.188-13.202v-124.575z" fill="#aa6a51"/><path d="m188.994 243.995c0-48.885-41.902-81.008-74.766-81.008-39.953 5.376-70.766 39.583-70.766 81.008 0 41.426 30.813 75.633 70.767 81.009 33.383-.001 74.765-32.558 74.765-81.009z" fill="#b6c4cf"/><path d="m114.228 162.986c39.953 5.376 70.766 39.583 70.766 81.008s-30.813 75.633-70.766 81.009c3.6.484 7.267.757 11 .757 45.158 0 81.766-36.608 81.766-81.766 0-49.137-43.227-87.673-92.766-81.008z" fill="#9facba"/><circle cx="125.228" cy="243.995" fill="#f2fbff" r="50.621"/><path d="m125.228 193.374c-2.722 0-5.393.222-8 .638 24.124 3.847 42.621 24.792 42.621 49.983s-18.497 46.136-42.621 49.983c2.607.416 5.278.638 8 .638 27.913 0 50.622-22.708 50.622-50.622 0-27.912-22.709-50.62-50.622-50.62z" fill="#dff6fd"/><path d="m465.53 179.595h-22c4.453 0 8.063 3.61 8.063 8.063v250.844c0 4.453-3.61 8.063-8.063 8.063h22c4.453 0 8.063-3.61 8.063-8.063v-250.844c-.001-4.453-3.611-8.063-8.063-8.063z" fill="#c8effe"/></g><g><path d="m329.434 257.747h105.56c4.143 0 7.5-3.357 7.5-7.5s-3.357-7.5-7.5-7.5h-105.56c-4.143 0-7.5 3.357-7.5 7.5s3.357 7.5 7.5 7.5z"/><path d="m329.434 320.58h105.56c4.143 0 7.5-3.357 7.5-7.5s-3.357-7.5-7.5-7.5h-105.56c-4.143 0-7.5 3.357-7.5 7.5s3.357 7.5 7.5 7.5z"/><path d="m329.434 383.413h105.56c4.143 0 7.5-3.357 7.5-7.5s-3.357-7.5-7.5-7.5h-105.56c-4.143 0-7.5 3.357-7.5 7.5s3.357 7.5 7.5 7.5z"/><path d="m494.646 197.18h-13.553v-9.521c0-8.582-6.981-15.563-15.563-15.563h-158.57c-6.23 0-11.9 2.428-16.126 6.382-4.225-3.954-9.896-6.381-16.125-6.381h-24.252v-124.161c0-10.788-8.776-19.564-19.564-19.564h-150c-4.143 0-7.5 3.357-7.5 7.5s3.357 7.5 7.5 7.5h150c2.517 0 4.564 2.048 4.564 4.564v305.22c0 2.517-2.048 4.563-4.564 4.563-17.963 0-62.981 0-80.977 0v-27.933c37.252-10.736 64.578-45.13 64.578-85.791 0-49.222-40.044-89.267-89.266-89.267s-89.267 40.045-89.267 89.267c0 40.66 27.327 75.055 64.579 85.791v27.933c-9.604 0-71.338 0-80.977 0-2.517 0-4.564-2.047-4.564-4.563v-305.22c0-2.517 2.048-4.564 4.564-4.564h26.328c4.143 0 7.5-3.357 7.5-7.5s-3.357-7.5-7.5-7.5h-26.327c-10.788-.001-19.564 8.775-19.564 19.564v305.22c0 10.787 8.776 19.563 19.564 19.563h50.104v93.556c0 9.569 7.785 17.354 17.354 17.354h336.005c4.143 0 7.5-3.357 7.5-7.5s-3.357-7.5-7.5-7.5h-124.693v-14.563h167.195c8.582 0 15.563-6.981 15.563-15.563v-226.323h13.553c1.298 0 2.354 1.057 2.354 2.354v251.74c0 1.298-1.057 2.354-2.354 2.354h-36.617c-4.143 0-7.5 3.357-7.5 7.5s3.357 7.5 7.5 7.5h36.617c9.569 0 17.354-7.785 17.354-17.354v-251.74c.001-9.569-7.784-17.354-17.353-17.354zm-187.686-10.085c167.235 0 159.133-.312 159.133.563 0 7.534-.001 234.745-.001 250.844 0 .311-.252.563-.563.563h-167.195v-243.344c0-4.757 3.869-8.626 8.626-8.626zm-76.067 185.624c10.788 0 19.564-8.776 19.564-19.563v-166.06h24.252c4.756 0 8.625 3.869 8.625 8.625v243.344h-167.194c-.311 0-.563-.252-.563-.563v-13.584c16.243 6.928 34.34-5.083 34.34-22.722v-29.478c18.006.001 63.015.001 80.976.001zm-179.931-128.724c0-40.951 33.315-74.267 74.267-74.267 40.95 0 74.266 33.315 74.266 74.267 0 36.635-26.773 67.59-62.54 73.331-44.953 7.148-85.993-27.618-85.993-73.331zm83.954 88.738v69.463c0 5.342-4.346 9.688-9.688 9.688-5.108 0-9.294-3.977-9.652-8.995 0-4.012-.035-66.145-.035-70.157 6.473.703 12.895.704 19.375.001zm-50.247 133.541v-93.556h15.872c0 15.528.035 49.134.035 65.783 0 8.581 6.981 15.563 15.563 15.563h167.194v14.564h-196.31c-1.297.001-2.354-1.056-2.354-2.354z"/><path d="m72.448 91.454h105.56c4.143 0 7.5-3.357 7.5-7.5s-3.357-7.5-7.5-7.5h-105.56c-4.143 0-7.5 3.357-7.5 7.5s3.358 7.5 7.5 7.5z"/><path d="m72.448 135.408h105.56c4.143 0 7.5-3.357 7.5-7.5s-3.357-7.5-7.5-7.5h-105.56c-4.143 0-7.5 3.357-7.5 7.5s3.358 7.5 7.5 7.5z"/><path d="m125.229 302.116c32.048 0 58.121-26.073 58.121-58.121 0-32.049-26.073-58.122-58.121-58.122-32.049 0-58.122 26.073-58.122 58.122-.001 32.048 26.073 58.121 58.122 58.121zm0-101.243c23.777 0 43.121 19.345 43.121 43.122s-19.344 43.121-43.121 43.121-43.122-19.344-43.122-43.121 19.344-43.122 43.122-43.122z"/></g></g></svg>