<svg id="Capa_1" enable-background="new 0 0 512.002 512.002" height="512" viewBox="0 0 512.002 512.002" width="512" xmlns="http://www.w3.org/2000/svg"><g><g><path d="m258.573 260.76v64.285h34.834v-62.632c0-4.227-3.134-7.653-7-7.653-2.49 0-19.326 0-21.834 0z" fill="#9facba"/><path d="m258.573 158.07v102.69h15.834c3.866 0 7 3.134 7 7v57.285h24c0-7.995 0-158.981 0-166.975-6.711 0-40.124 0-46.834 0z" fill="#8d9ca8"/><path d="m332.453 439.611-3.836-21.757-4.548-3.104h-117.427v27.06h122.199z" fill="#8d9ca8"/><path d="m328.841 441.81h24.521v-27.06h-29.293z" fill="#7a8c98"/><path d="m385.79 485.26-27.565-156.327-15.518 2.736 27.083 153.591c1.244 7.055-2.234 13.835-8.153 17.144 3.184 1.787 6.981 2.528 10.857 1.845 8.915-1.573 14.868-10.074 13.296-18.989z" fill="#9facba"/><path d="m205.756 328.933-.482 2.736 16.767 2.957-27.565 156.327c-.888 5.039-3.992 9.129-8.131 11.451 1.561.873 3.282 1.517 5.143 1.845 8.915 1.572 17.416-4.381 18.988-13.296l27.565-156.327z" fill="#9facba"/><g><path d="m369.79 485.26-27.082-153.591-16.767 2.957 27.565 156.327c.888 5.039 3.992 9.129 8.131 11.451 5.919-3.309 9.397-10.09 8.153-17.144z" fill="#b6c4cf"/></g><g><path d="m194.475 490.952 27.565-156.327-16.767-2.957-27.082 153.592c-1.244 7.055 2.234 13.835 8.153 17.144 4.139-2.323 7.243-6.413 8.131-11.452z" fill="#b6c4cf"/></g><path d="m364.368 218.499-8.248-174.248c-.974-20.572-17.937-36.751-38.532-36.751h-91.195c-20.595 0-37.558 16.179-38.532 36.751l-8.249 174.248c-.78 16.476 12.368 30.261 28.863 30.261h127.04c16.49-.006 29.633-13.788 28.853-30.261z" fill="#7a8c98"/><path d="m186.617 286.703c-14.003 0-25.354 11.352-25.354 25.354v27.348c0 14.003 11.352 25.354 25.354 25.354h170.75c14.002-.001 25.352-11.353 25.352-25.354v-27.348c0-14.003-11.352-25.354-25.354-25.354z" fill="#7a8c98"/><path d="m384.368 218.499-8.248-174.248c-.974-20.572-17.937-36.751-38.532-36.751h-24c20.595 0 37.558 16.179 38.532 36.751l8.248 174.248c.78 16.476-12.368 30.261-28.863 30.261h24c16.495 0 29.643-13.785 28.863-30.261z" fill="#596c76"/><path d="m377.364 286.703h-24c14.003 0 25.354 11.352 25.354 25.354v27.348c0 14.003-11.352 25.354-25.354 25.354h24c14.003 0 25.354-11.352 25.354-25.354v-27.348c.001-14.002-11.351-25.354-25.354-25.354z" fill="#596c76"/><path d="m305.204 217.537c9.524 0 17.244-7.72 17.244-17.244s-7.72-17.244-17.244-17.244h-178.677c-9.524 0-17.244 7.72-17.244 17.244 0 9.523 7.72 17.244 17.244 17.244z" fill="#f2fbff"/><path d="m323.204 183.049h-22c9.524 0 17.244 7.72 17.244 17.244 0 9.523-7.72 17.244-17.244 17.244h22c9.524 0 17.244-7.72 17.244-17.244s-7.721-17.244-17.244-17.244z" fill="#dff6fd"/></g><path d="m377.364 279.203h-64.457v-22.943h42.598c20.068 0 36.395-16.315 36.395-36.369 0-1.318.487 9.406-8.29-175.994-1.164-24.616-21.38-43.897-46.022-43.897h-111.195c-24.507 0-44.717 19.169-46.01 43.64-.218 4.136 2.958 7.667 7.094 7.885 4.132.247 7.667-2.957 7.885-7.094.872-16.503 14.502-29.431 31.031-29.431h111.195c16.62 0 30.254 13.004 31.04 29.605.039.814 8.273 174.471 8.273 175.285 0 11.783-9.598 21.369-21.395 21.369-15.461 0-131.799 0-147.03 0-10.117-.002-18.455-6.971-20.764-16.223h135.491c13.644 0 24.744-11.101 24.744-24.744s-11.1-24.744-24.744-24.744h-134.049l4.554-96.199c.196-4.138-3-7.65-7.137-7.846-4.132-.212-7.65 2.999-7.846 7.137l-4.588 96.908h-47.611c-13.644 0-24.744 11.101-24.744 24.744 0 13.411 10.727 24.357 24.051 24.727v85.076c0 12.757 9.291 23.136 20.71 23.136h7.218v6.174c0 18.116 14.738 32.854 32.854 32.854h3.883l-19.695 111.698c-2.287 12.973 6.406 25.388 19.379 27.676 13.036 2.298 25.388-6.401 27.677-19.379l7.572-42.944h113.114l7.572 42.943c2.292 13.002 14.631 21.675 27.677 19.38 13.022-2.296 21.676-14.657 19.379-27.677l-3.137-17.788c-.719-4.078-4.608-6.809-8.688-6.083-4.08.719-6.803 4.609-6.084 8.688 3.41 19.334 3.275 18.27 3.275 19.352 0 4.311-3.091 7.985-7.344 8.735-4.965.863-9.467-2.449-10.306-7.212-.88-4.989-20.129-114.155-20.699-117.39h18.057l10.94 62.046c.719 4.079 4.611 6.807 8.688 6.083 4.079-.719 6.803-4.608 6.084-8.688l-10.481-59.44h3.883c18.116 0 32.854-14.738 32.854-32.854v-27.348c.004-18.116-14.735-32.854-32.851-32.854zm-79.456-22.943v22.943h-31.834v-22.943zm-181.125-55.967c0-5.373 4.371-9.744 9.744-9.744h196.677c5.373 0 9.744 4.371 9.744 9.744s-4.371 9.744-9.744 9.744c-15.767 0-190.197 0-196.677 0-5.373 0-9.744-4.371-9.744-9.744zm29.761 117.938c-3.042 0-5.71-3.802-5.71-8.136v-85.059h31.628c2.55 17.765 17.744 31.22 36.013 31.223h42.598v22.943h-64.457c-18.116 0-32.854 14.738-32.854 32.854v6.174h-7.218zm56.545 171.419c-.853 4.838-5.458 8.065-10.299 7.212-4.828-.852-8.064-5.473-7.212-10.3l20.155-114.303h18.057c-2.003 11.351-18.534 105.101-20.701 117.391zm24.99-55.339 2.127-12.061h103.571c1.311 7.434.819 4.641 2.127 12.061zm103.052-27.061h-98.281l6.17-34.99h85.941zm64.088-67.845c0 9.845-8.009 17.854-17.854 17.854-6.795 0-178.565 0-190.748 0-9.845 0-17.854-8.01-17.854-17.854v-27.348c0-9.845 8.009-17.854 17.854-17.854h190.748c9.845 0 17.854 8.01 17.854 17.854z"/></g></svg>