<svg id="Capa_1" enable-background="new 0 0 512 512" height="512" viewBox="0 0 512 512" width="512" xmlns="http://www.w3.org/2000/svg"><g><g><path d="m52.147 192.154h148.074v139.516h-148.074z" fill="#dff6fd"/><path d="m52.147 192.154h148.074v35.164h-148.074z" fill="#c8effe"/><path d="m63.625 224.625h-22.25l-3.11 2.693v96.933h27.764v-96.933z" fill="#9facba"/><path d="m212.083 224.583h-23l-2.744 2.735v96.933h27.764v-96.933z" fill="#9facba"/><path d="m38.265 199.574h27.764v27.744h-27.764z" fill="#8d9ca8"/><path d="m113.184 102.899-87.841 78.197h179.683l-87.841-78.197z" fill="#9facba"/><path d="m133.395 97.745c-4.111-3.66-10.311-3.66-14.421 0l-5.789 5.154 87.841 78.197h26z" fill="#8d9ca8"/><path d="m477.151 495.5v-131.153c0-4.969-4.028-8.999-8.998-9h-113.154c-4.971 0-9 4.03-9 9v131.153c0 4.971 4.029 9 9 9h113.153c4.97 0 8.999-4.029 8.999-9z" fill="#99e6fc"/><path d="m477.151 147.653v-131.153c0-4.971-4.029-9-9-9h-113.152c-4.971 0-9 4.029-9 9v131.153c0 4.97 4.029 9 9 9h113.156c4.969-.002 8.996-4.031 8.996-9z" fill="#f07281"/><path d="m468.151 330.677c4.971 0 9-4.029 9-9v-131.152c0-4.971-4.029-9-9-9h18.004c-.001 0-.002 0-.004 0h-131.152c-4.971 0-9 4.029-9 9v131.152c0 4.971 4.029 9 9 9h131.153.004z" fill="#fdb97e"/><path d="m486.151 355.347h-22c4.971 0 9 4.03 9 9v131.153c0 4.971-4.029 9-9 9h22c4.971 0 9-4.029 9-9v-131.153c0-4.97-4.029-9-9-9z" fill="#62dbfb"/><path d="m226.612 306.406h-26c3.314 0 6 2.687 6 6v23.689c0 3.314-2.686 6-6 6h26c3.314 0 6-2.686 6-6v-23.689c0-3.313-2.686-6-6-6z" fill="#9facba"/><path d="m186.339 199.574h27.764v27.744h-27.764z" fill="#8d9ca8"/><path d="m486.151 7.5h-22c4.971 0 9 4.029 9 9v131.153c0 4.97-4.029 9-9 9h22c4.971 0 9-4.03 9-9v-131.153c0-4.971-4.029-9-9-9z" fill="#eb5569"/><path d="m486.151 181.525h-22c4.971 0 9 4.029 9 9v131.152c0 4.971-4.029 9-9 9h22c4.971 0 9-4.029 9-9v-131.152c0-4.971-4.029-9-9-9z" fill="#fea95c"/><path d="m204.612 342.095c3.314 0 6-2.686 6-6v-23.689c0-3.313-2.686-6-5.999-6h-178.857c-3.314 0-6 2.687-6 6v23.689c0 3.314 2.686 6 6 6h200.856.002z" fill="#b6c4cf"/><path d="m207.343 209.785c3.411 0 6.177-2.766 6.177-6.177v-23.335c0-3.412-2.766-6.177-6.177-6.177h-184.317c-3.411 0-6.177 2.766-6.177 6.177v23.335c0 3.411 2.766 6.177 6.177 6.177z" fill="#b6c4cf"/><g fill="#596c76"><path d="m392.065 64.743h49.013v34.667h-49.013z"/><path d="m392.065 238.773h49.013v34.667h-49.013z"/><path d="m392.065 415.387h49.013v34.667h-49.013z"/></g><path d="m229.343 174.096h-26c3.411 0 6.177 2.766 6.177 6.177v23.335c0 3.411-2.766 6.177-6.177 6.177h26c3.411 0 6.177-2.766 6.177-6.177v-23.335c0-3.411-2.766-6.177-6.177-6.177z" fill="#9facba"/></g><g><path d="m229.343 166.596h-7.326l-83.636-74.454c-6.961-6.193-17.446-6.183-24.394.002l-28.677 25.527c-3.094 2.754-3.369 7.494-.615 10.588 2.755 3.095 7.496 3.369 10.589.615l28.676-25.526c1.228-1.093 3.221-1.094 4.449-.001l71.05 63.249h-146.549l16.231-14.449c3.094-2.754 3.369-7.494.615-10.589-2.755-3.093-7.496-3.368-10.589-.614l-28.816 25.652h-7.326c-7.542 0-13.677 6.136-13.677 13.678v23.335c0 7.541 6.135 13.677 13.677 13.677h7.74v81.621h-4.832c-7.542 0-13.677 6.136-13.677 13.677v29.513c0 4.143 3.358 7.5 7.5 7.5h212.856c4.142 0 7.5-3.357 7.5-7.5v-29.513c0-7.541-6.136-13.677-13.677-13.677h-4.832v-81.621h7.74c7.542 0 13.677-6.136 13.677-13.677v-23.335c0-7.543-6.135-13.678-13.677-13.678zm-183.578 50.689h12.764v81.621h-12.764zm133.075 0v81.621h-105.311v-81.621zm46.273 117.311h-197.857v-20.689h197.856v20.689zm-18.51-35.69h-12.763v-81.621h12.764v81.621zm21.417-96.621c-21.393 0-177.125 0-203.671 0v-20.689h8.857 194.814z"/><path d="m311.582 66.077h-17.081c-7.444 0-13.5 6.056-13.5 13.5v140.491h-21.856c-4.142 0-7.5 3.357-7.5 7.5s3.358 7.5 7.5 7.5h23.356c7.444 0 13.5-6.056 13.5-13.5v-140.491h15.581c4.143 0 7.5-3.357 7.5-7.5s-3.358-7.5-7.5-7.5z"/><path d="m311.582 248.606h-52.438c-4.142 0-7.5 3.357-7.5 7.5s3.358 7.5 7.5 7.5h52.438c4.143 0 7.5-3.357 7.5-7.5s-3.358-7.5-7.5-7.5z"/><path d="m311.582 430.923h-21.857v-140.491c0-7.444-6.056-13.5-13.5-13.5h-17.081c-4.142 0-7.5 3.357-7.5 7.5s3.358 7.5 7.5 7.5h15.581v140.491c0 7.444 6.056 13.5 13.5 13.5h23.357c4.143 0 7.5-3.357 7.5-7.5s-3.358-7.5-7.5-7.5z"/><path d="m486.151 0h-131.152c-9.098 0-16.5 7.402-16.5 16.5v131.152c0 9.098 7.402 16.5 16.5 16.5h131.152c9.098 0 16.5-7.402 16.5-16.5v-131.152c0-9.098-7.402-16.5-16.5-16.5zm1.5 147.652c0 .827-.673 1.5-1.5 1.5h-131.152c-.827 0-1.5-.673-1.5-1.5v-131.152c0-.827.673-1.5 1.5-1.5h131.152c.827 0 1.5.673 1.5 1.5z"/><path d="m486.151 174.024h-131.152c-9.098 0-16.5 7.402-16.5 16.5v131.153c0 9.098 7.402 16.5 16.5 16.5h131.152c9.098 0 16.5-7.402 16.5-16.5v-131.153c0-9.097-7.402-16.5-16.5-16.5zm1.5 147.654c0 .827-.673 1.5-1.5 1.5h-131.152c-.827 0-1.5-.673-1.5-1.5v-131.154c0-.827.673-1.5 1.5-1.5h131.152c.827 0 1.5.673 1.5 1.5z"/><path d="m486.151 347.848h-131.152c-9.098 0-16.5 7.402-16.5 16.5v131.152c0 9.098 7.402 16.5 16.5 16.5h87.038c4.143 0 7.5-3.357 7.5-7.5s-3.357-7.5-7.5-7.5h-87.038c-.827 0-1.5-.673-1.5-1.5v-131.152c0-.827.673-1.5 1.5-1.5h131.152c.827 0 1.5.673 1.5 1.5v131.152c0 .827-.673 1.5-1.5 1.5h-9.114c-4.143 0-7.5 3.357-7.5 7.5s3.357 7.5 7.5 7.5h9.114c9.098 0 16.5-7.402 16.5-16.5v-131.152c0-9.098-7.402-16.5-16.5-16.5z"/><path d="m469.25 231.272c-10.776 0-83.862 0-95.576 0-4.143 0-7.5 3.357-7.5 7.5s3.357 7.5 7.5 7.5h10.892v27.167c0 4.143 3.357 7.5 7.5 7.5h49.013c4.143 0 7.5-3.357 7.5-7.5v-27.167h9.1v27.167c0 4.143 3.357 7.5 7.5 7.5s7.5-3.357 7.5-7.5v-28.001c2.417-1.245 4.072-3.76 4.072-6.666-.001-4.142-3.359-7.5-7.501-7.5zm-35.672 34.667h-34.013v-19.667h34.013z"/><path d="m469.25 57.243c-34.588 0-60.947 0-95.576 0-4.143 0-7.5 3.357-7.5 7.5s3.357 7.5 7.5 7.5h10.892v27.167c0 4.143 3.357 7.5 7.5 7.5h49.013c4.143 0 7.5-3.357 7.5-7.5v-27.167h9.1v27.167c0 4.143 3.357 7.5 7.5 7.5s7.5-3.357 7.5-7.5v-28.001c2.417-1.245 4.072-3.76 4.072-6.666-.001-4.142-3.359-7.5-7.501-7.5zm-35.672 34.667h-34.013v-19.667h34.013z"/><path d="m472.677 450.054v-28.001c2.417-1.245 4.072-3.76 4.072-6.666 0-4.143-3.357-7.5-7.5-7.5h-28.172c-6.985 0-59.804 0-67.404 0-4.143 0-7.5 3.357-7.5 7.5s3.357 7.5 7.5 7.5h10.892v27.167c0 4.143 3.357 7.5 7.5 7.5h49.013c4.143 0 7.5-3.357 7.5-7.5v-27.167h9.1v27.167c0 4.143 3.357 7.5 7.5 7.5s7.499-3.358 7.499-7.5zm-39.099-7.5h-34.013v-19.667h34.013z"/><path d="m98.226 242.284v14.44c0 15.416 12.542 27.958 27.958 27.958s27.958-12.542 27.958-27.958v-14.44c3.823-.344 6.82-3.553 6.82-7.466 0-4.143-3.358-7.5-7.5-7.5h-13.639c-4.142 0-7.5 3.357-7.5 7.5 0 3.913 2.997 7.121 6.819 7.466v14.44c0 7.146-5.813 12.958-12.958 12.958s-12.958-5.813-12.958-12.958v-14.44c3.823-.344 6.819-3.553 6.819-7.466 0-4.143-3.358-7.5-7.5-7.5h-13.639c-4.142 0-7.5 3.357-7.5 7.5 0 3.913 2.997 7.122 6.82 7.466z"/></g></g></svg>