<svg id="Capa_1" enable-background="new 0 0 512 512" height="512" viewBox="0 0 512 512" width="512" xmlns="http://www.w3.org/2000/svg"><g><g><path d="m62.5 382.425c-1.732 0-13.251 0-15 0v67.627h21v-61.627c0-3.314-2.686-6-6-6z" fill="#7a8c98"/><path d="m444.5 382.425c-1.732 0-13.251 0-15 0v76.068h4 13 4v-70.068c0-3.314-2.686-6-6-6z" fill="#7a8c98"/><path d="m47.5 293.501v88.923h11c3.314 0 6 2.686 6 6v61.627h18c0-2.934 0-150.349 0-156.551-12.588.001-22.067.001-35 .001z" fill="#596c76"/><path d="m429.5 293.501v88.923h11c3.314 0 6 2.686 6 6v70.068h18c0-3.006 0-158.198 0-164.992-12.588.001-22.067.001-35 .001z" fill="#596c76"/><path d="m28.35 431.112c-10.46 0-18.94 8.479-18.94 18.94 0 10.46 8.48 18.94 18.94 18.94h50.547c10.459-.002 18.937-8.481 18.937-18.94 0-10.461-8.48-18.94-18.94-18.94z" fill="#b6c4cf"/><path d="m409.728 431.112c-10.46 0-18.94 8.479-18.94 18.94 0 10.46 8.48 18.94 18.94 18.94h50.547c10.459-.002 18.937-8.481 18.937-18.94 0-10.461-8.48-18.94-18.94-18.94z" fill="#b6c4cf"/><path d="m102.894 431.112h-28c10.46 0 18.94 8.479 18.94 18.94 0 10.46-8.48 18.94-18.94 18.94h28c10.46 0 18.94-8.48 18.94-18.94 0-10.461-8.48-18.94-18.94-18.94z" fill="#9facba"/><path d="m484.272 431.112h-28c10.46 0 18.94 8.479 18.94 18.94 0 10.46-8.48 18.94-18.94 18.94h28c10.46 0 18.94-8.48 18.94-18.94 0-10.461-8.48-18.94-18.94-18.94z" fill="#9facba"/><path d="m484.5 352.425v-299.421c0-5.521-4.476-9.999-9.998-10h-457.002c-5.523 0-10 4.478-10 10v299.42c0 5.523 4.477 10 10 10h457.001c5.522 0 9.999-4.477 9.999-9.999z" fill="#7bacdf"/><path d="m35.5 328.425v-251.42c0-3.314 2.686-6 6-6h429c3.314 0 6 2.686 6 6v251.42c0 3.314-2.686 6-6 6h-429c-3.314 0-6-2.687-6-6z" fill="#f2fbff"/><path d="m494.5 43.004h-28c5.523 0 10 4.478 10 10v299.42c0 5.523-4.477 10-10 10h28c5.523 0 10-4.477 10-10v-299.42c0-5.522-4.477-10-10-10z" fill="#5f99d7"/></g><g><path d="m28 77.005v251.42c0 7.444 6.056 13.5 13.5 13.5h429c7.444 0 13.5-6.056 13.5-13.5v-251.42c0-7.444-6.056-13.5-13.5-13.5h-429c-7.444 0-13.5 6.056-13.5 13.5zm15 1.5h426v248.42h-426z"/><path d="m410.421 141.926h-88.218c-4.557 0-8.646 3.051-9.947 7.421l-21.502 72.34-3.338-18.357c-1.021-5.622-5.91-9.703-11.625-9.703h-13.342c-4.143 0-7.5 3.357-7.5 7.5s3.357 7.5 7.5 7.5h10.685l6.326 34.793c1.941 10.693 17.036 11.6 20.156 1.101l26.036-87.594h84.769c4.143 0 7.5-3.357 7.5-7.5s-3.358-7.501-7.5-7.501z"/><path d="m395.369 189.605c-2.93-2.928-7.678-2.928-10.607 0l-17.375 17.375-17.375-17.375c-2.93-2.928-7.678-2.928-10.607 0-2.929 2.93-2.929 7.678 0 10.607l17.375 17.375-17.375 17.375c-2.929 2.93-2.929 7.678 0 10.607 2.931 2.929 7.678 2.928 10.607 0l17.375-17.375 17.375 17.375c2.931 2.929 7.678 2.928 10.607 0 2.929-2.93 2.929-7.678 0-10.607l-17.375-17.375 17.375-17.375c2.929-2.929 2.929-7.677 0-10.607z"/><path d="m150.516 182.286c0-15.56-12.659-28.219-28.219-28.219-13.453 0-25.099 9.571-27.688 22.758-.799 4.064 1.85 8.006 5.914 8.805 4.065.796 8.007-1.85 8.805-5.914 1.212-6.17 6.667-10.648 12.97-10.648 7.289 0 13.219 5.93 13.219 13.219s-5.93 13.219-13.219 13.219c-4.143 0-7.5 3.357-7.5 7.5s3.357 7.5 7.5 7.5c7.289 0 13.219 5.93 13.219 13.218 0 7.289-5.93 13.219-13.219 13.219-7.115 0-13.218-5.774-13.218-13.219 0-4.143-3.357-7.5-7.5-7.5s-7.5 3.357-7.5 7.5c0 15.762 12.93 28.219 28.218 28.219 15.56 0 28.219-12.659 28.219-28.219 0-8.182-3.504-15.559-9.087-20.718 5.581-5.161 9.086-12.538 9.086-20.72z"/><path d="m225.481 195.503h-13.568v-13.568c0-4.143-3.357-7.5-7.5-7.5s-7.5 3.357-7.5 7.5v13.568h-13.568c-4.143 0-7.5 3.357-7.5 7.5s3.357 7.5 7.5 7.5h13.568v13.568c0 4.143 3.357 7.5 7.5 7.5s7.5-3.357 7.5-7.5v-13.568h13.568c4.143 0 7.5-3.357 7.5-7.5s-3.357-7.5-7.5-7.5z"/><path d="m159.5 354.924c-5.041 0-137.291 0-142 0-1.379 0-2.5-1.121-2.5-2.5v-299.42c0-1.379 1.121-2.5 2.5-2.5h301.151c4.143 0 7.5-3.357 7.5-7.5s-3.357-7.5-7.5-7.5h-301.151c-9.649 0-17.5 7.851-17.5 17.5v299.42c0 9.649 7.851 17.5 17.5 17.5h22.5v53.688h-11.649c-14.58 0-26.441 11.861-26.441 26.44s11.861 26.44 26.441 26.44h74.543c14.579 0 26.44-11.861 26.44-26.44s-11.861-26.44-26.44-26.44h-12.894v-53.688h69.5c4.143 0 7.5-3.357 7.5-7.5s-3.357-7.5-7.5-7.5zm-45.166 95.128c0 6.309-5.132 11.44-11.44 11.44h-74.543c-6.309 0-11.441-5.132-11.441-11.44s5.133-11.44 11.441-11.44h74.543c6.308 0 11.44 5.132 11.44 11.44zm-39.334-26.44h-20v-53.688h20z"/><path d="m494.5 369.924c9.649 0 17.5-7.851 17.5-17.5v-299.42c0-9.649-7.851-17.5-17.5-17.5h-140.849c-4.143 0-7.5 3.357-7.5 7.5s3.357 7.5 7.5 7.5h140.849c1.379 0 2.5 1.121 2.5 2.5v299.42c0 1.379-1.121 2.5-2.5 2.5-12.091 0-287.938 0-300 0-4.143 0-7.5 3.357-7.5 7.5s3.357 7.5 7.5 7.5h227.5v53.688h-12.271c-14.579 0-26.44 11.861-26.44 26.44s11.861 26.44 26.44 26.44c79.863 0 74.864.02 75.991-.041 13.967-.774 24.993-12.357 24.993-26.399 0-14.377-11.633-26.44-26.44-26.44h-12.273v-53.688zm1.212 80.128c0 6.287-5.101 11.426-11.44 11.44h-74.543c-6.309 0-11.44-5.132-11.44-11.44s5.132-11.44 11.44-11.44h19.771 35 19.771c6.289 0 11.441 5.117 11.441 11.44zm-38.712-26.44h-20v-53.688h20z"/></g></g></svg>