<svg id="Capa_1" enable-background="new 0 0 511.984 511.984" height="512" viewBox="0 0 511.984 511.984" width="512" xmlns="http://www.w3.org/2000/svg"><g><g><path d="m273.471 462.295c-7.159-7.16-17.615-8.996-26.479-5.536 3.087 1.206 5.985 3.042 8.479 5.536 9.653 9.653 9.653 25.304 0 34.957-2.494 2.494-5.391 4.33-8.479 5.535 8.864 3.46 19.319 1.624 26.479-5.535 9.653-9.653 9.653-25.304 0-34.957z" fill="#5f99d7"/><g><path d="m115.355 107.841c9.199-3.6 15.718-12.546 15.718-23.021s-6.519-19.421-15.718-23.021h-2c-10.07 4.083-15.719 13.331-15.719 23.021 0 10.475 6.519 19.421 15.719 23.021z" fill="#f07281"/></g><path d="m250.993 299.12c15.438-3.993 26.841-18.015 26.841-34.701 0-16.687-11.403-30.708-26.842-34.701h-4c-17.23 4.887-26.842 19.469-26.842 34.701 0 16.687 11.403 30.708 26.842 34.701z" fill="#ffe177"/><path d="m248.992 502.788c20.962-8.182 20.835-37.892 0-46.028h-2c-20.08 7.841-21.785 36.811 0 46.028z" fill="#7bacdf"/><path d="m255.993 228.577c-3.108 0-6.124.397-9 1.141 15.438 3.993 26.842 18.015 26.842 34.701s-11.403 30.708-26.842 34.701c2.876.744 5.892 1.14 9 1.14 19.795 0 35.842-16.046 35.842-35.841s-16.047-35.842-35.842-35.842z" fill="#ffd15b"/><path d="m122.354 60.102c-3.177 0-6.21.605-9 1.697 9.199 3.6 15.718 12.546 15.718 23.021s-6.519 19.421-15.718 23.021c2.79 1.091 5.823 1.697 9 1.697 13.651 0 24.718-11.067 24.718-24.718.001-13.652-11.066-24.718-24.718-24.718z" fill="#eb5569"/><path d="m273.471 462.295c-7.159-7.16-17.615-8.996-26.479-5.536 3.087 1.206 5.985 3.042 8.479 5.536 9.653 9.653 9.653 25.304 0 34.957-2.494 2.494-5.391 4.33-8.479 5.535 8.864 3.46 19.319 1.624 26.479-5.535 9.653-9.653 9.653-25.304 0-34.957z" fill="#5f99d7"/></g><g><path d="m499.633 264.426c0-27.686-24.619-53.201-69.463-72.146 18.313-45.106 17.68-80.556-1.897-100.134-18.567-18.564-51.413-20.081-93.224-4.571-13.103-38.016-38.991-87.575-79.057-87.575-40.072 0-65.932 49.506-79.048 87.552-7.777-2.869-15.349-5.195-22.655-6.926-2.067-15.785-15.595-28.016-31.935-28.016-17.766 0-32.219 14.453-32.219 32.218 0 .661.026 1.316.066 1.967-15.053 10.374-21.147 26.881-21.642 45.082-.112 4.141 3.152 7.589 7.293 7.701 4.1.104 7.589-3.151 7.701-7.293.307-11.256 3.222-22.526 11.526-30.267 6.216 9.91 17.479 15.805 29.603 14.935 12.971-.949 23.796-9.536 28.007-21.285 6.323 1.59 12.902 3.685 19.676 6.227-6.191 20.968-10.922 44.094-14.068 68.599-22.59 4.054-43.653 9.539-62.501 16.335-3.108-7.638-5.682-15.068-7.652-22.214-1.102-3.991-5.227-6.335-9.225-5.236-3.993 1.102-6.337 5.231-5.236 9.225 2.102 7.622 4.841 15.538 8.151 23.669-44.857 18.946-69.484 44.464-69.484 72.155 0 27.686 24.619 53.201 69.463 72.147-18.313 45.106-17.68 80.557 1.897 100.134 26.241 26.238 74.143 13.599 108.266-1.569 9.475 18.006 20.273 31.713 32.059 40.572-2.445 19.493 12.704 36.275 31.956 36.275 19.198 0 34.41-16.731 31.955-36.283 11.677-8.807 22.507-22.555 32.01-40.561 87.896 39.115 123.501 4.412 123.501-40.625 0-16.991-4.654-36.704-13.274-57.949 44.836-18.948 69.45-44.46 69.45-72.143zm-377.279-162.38c-6.964 0-13.193-4.222-15.863-10.523-4.794-11.318 3.572-23.913 15.864-23.913 9.494 0 17.218 7.724 17.218 17.218-.001 9.456-7.778 17.218-17.219 17.218zm295.311.707c14.856 14.855 14.275 45.364-1.474 84.077-18.85-6.797-39.914-12.283-62.506-16.337-3.146-24.51-7.878-47.641-14.071-68.611 23.863-8.928 59.955-17.228 78.051.871zm-37.47 174.578c11.997 17.422 22.073 34.617 29.865 50.953-18.257 6.51-38.689 11.751-60.631 15.607 2.114-11.409 3.85-23.196 5.213-35.258 9.084-10.339 17.625-20.805 25.553-31.302zm-23.239 5.35c.755-11.457 1.178-23.088 1.26-34.824 4.458 5.549 8.741 11.111 12.842 16.666-4.49 6.061-9.194 12.12-14.102 18.158zm.966-58.686c-.418-12.879-1.245-25.556-2.468-37.936 19.686 3.735 38.07 8.61 54.66 14.528-7.869 16.599-17.93 33.774-29.846 51.055-6.969-9.234-14.432-18.474-22.346-27.647zm-15.864-17.647c-8.578-9.162-16.984-17.592-25.924-26.048 8.144.866 16.148 1.904 23.976 3.118.802 7.529 1.452 15.179 1.948 22.93zm-3.827-38.368c-13.105-1.92-26.64-3.381-40.489-4.355-9.594-8.338-19.264-16.187-28.935-23.496 19.303-13.307 38.477-24.311 56.859-32.519 5.394 18.55 9.613 38.864 12.565 60.37zm-65.405-5.57c-11.104-.308-22.063-.325-33.793.003 5.613-4.534 11.242-8.891 16.875-13.062 5.643 4.17 11.289 8.528 16.918 13.059zm-16.834-147.41c31.894 0 54.554 47.278 65.136 78.224-21.037 9.244-43.046 21.98-65.112 37.554-22.243-15.723-44.286-28.471-65.142-37.607 10.51-30.715 33.227-78.171 65.118-78.171zm-69.682 92.638c18.12 8.121 37.344 19.16 56.8 32.567-9.674 7.307-19.325 15.127-28.873 23.421-13.847.974-27.381 2.435-40.484 4.355 2.951-21.496 7.168-41.8 12.557-60.343zm-14.435 75.78c7.827-1.214 15.83-2.251 23.973-3.117-9.004 8.514-17.407 16.956-25.922 26.047.496-7.751 1.147-15.402 1.949-22.93zm-2.969 46.359c15.949-18.119 33.283-35.497 51.393-51.519 23.074-1.412 47.158-1.481 71.337-.003 18.173 16.026 35.439 33.333 51.443 51.582.556 23.921-.301 48.201-2.817 72.414-14.978 16.761-31.312 33.068-48.58 48.344-23.225 1.421-47.303 1.471-71.323.004-17.125-15.093-33.337-31.221-48.672-48.419-2.453-23.763-3.348-48.106-2.781-72.403zm168.032 98.132c-.976 6.269-2.07 12.428-3.266 18.477-5.761.815-11.612 1.535-17.537 2.165 7.25-6.854 14.009-13.566 20.803-20.642zm-63.989 38.53c-5.608 4.53-11.233 8.884-16.861 13.052-5.642-4.165-11.29-8.516-16.925-13.048 11.314.314 22.277.318 33.786-.004zm-77.097-17.887c-5.942-.632-11.809-1.354-17.586-2.172-1.202-6.063-2.287-12.25-3.266-18.536 6.359 6.634 12.827 13.123 20.852 20.708zm-33.314-4.663c-21.957-3.86-42.402-9.107-60.667-15.624 7.877-16.616 17.952-33.81 29.884-51.11 7.931 10.527 16.478 21.028 25.552 31.387 1.361 12.109 3.107 23.914 5.231 35.347zm-21.648-79.509c4.116-5.559 8.413-11.116 12.882-16.656.078 11.78.481 23.415 1.224 34.838-4.905-6.047-9.62-12.115-14.106-18.182zm15.64-78.322c-1.223 12.376-2.049 25.049-2.468 37.924-7.881 9.13-15.334 18.348-22.313 27.59-11.974-17.364-22.06-34.556-29.871-50.988 16.588-5.917 34.969-10.791 54.652-14.526zm-129.178 78.368c0-21.016 21.997-42.185 60.531-58.425 8.875 18.813 20.563 38.529 34.535 58.344-13.954 19.76-25.637 39.476-34.572 58.49-38.511-16.239-60.494-37.4-60.494-58.409zm66.967 161.674c-14.856-14.855-14.275-45.363 1.474-84.077 20.904 7.538 44.536 13.459 69.949 17.608 4.693 21.015 11.143 42.537 19.721 61.985-26.746 11.834-70.485 25.144-91.144 4.484zm87.355-64.13c10.62 1.388 21.5 2.479 32.581 3.258 9.603 8.334 19.282 16.174 28.953 23.473-14.898 10.273-29.72 19.175-44.16 26.475-7.429-16.876-13.065-35.128-17.374-53.206zm74.318 135.03c-9.515 0-17.219-7.701-17.219-17.219 0-9.404 7.615-17.21 17.219-17.21 9.624 0 17.219 7.828 17.219 17.21 0 9.514-7.701 17.219-17.219 17.219zm26.23-35.926c-1.082-1.511-2.359-2.986-3.448-4.075-.001 0-.001 0-.001 0-5.887-5.887-13.913-9.436-22.78-9.436-10.663 0-20.25 5.165-26.226 13.504-8.613-7.459-16.79-18.443-24.196-32.385 16.5-8.33 33.451-18.646 50.434-30.635 17.107 12.078 34.068 22.384 50.409 30.647-7.42 13.993-15.573 24.937-24.192 32.38zm44.292-39.508c1.677-3.789 3.302-7.723 4.872-11.801 1.487-3.865-.44-8.205-4.307-9.693-3.867-1.489-8.205.44-9.693 4.307-1.43 3.717-2.907 7.282-4.419 10.725-14.254-7.248-29.078-16.151-44.07-26.474 9.666-7.301 19.308-15.116 28.848-23.402 11.067-.779 21.934-1.868 32.543-3.254-.79 3.324-1.601 6.621-2.46 9.857-1.063 4.003 1.321 8.11 5.325 9.173s8.11-1.321 9.173-5.325c1.39-5.235 2.685-10.592 3.898-16.044 25.408-4.147 49.037-10.066 69.938-17.601 7.966 19.479 12.295 37.372 12.295 52.483.001 52.814-52.248 49.161-101.943 27.049zm97.646-98.74c-8.83-18.766-20.49-38.478-34.546-58.387 13.933-19.737 25.6-39.43 34.525-58.422 38.511 16.238 60.494 37.399 60.494 58.408 0 21.006-21.975 42.164-60.473 58.401z"/><path d="m255.993 307.769c23.898 0 43.341-19.443 43.341-43.342s-19.442-43.342-43.341-43.342-43.342 19.443-43.342 43.342 19.444 43.342 43.342 43.342zm0-71.684c15.627 0 28.341 12.714 28.341 28.342s-12.714 28.342-28.341 28.342c-15.628 0-28.342-12.714-28.342-28.342s12.714-28.342 28.342-28.342z"/></g></g></svg>