<svg id="Capa_1" enable-background="new 0 0 512 512" height="512" viewBox="0 0 512 512" width="512" xmlns="http://www.w3.org/2000/svg"><g><g><g><path d="m384.923 491.756c0-18.977 0-18.867 0-28.991h-323.263c-7.038 0-12.743-5.706-12.743-12.744v41.735c0 7.038 5.705 12.744 12.743 12.744h310.519c7.039 0 12.744-5.706 12.744-12.744z" fill="#9facba"/></g><path d="m61.66 7.5c-7.038 0-12.743 5.706-12.743 12.744v442.521h323.263c7.038 0 12.744-5.706 12.744-12.744 0-3.085 0-436.229 0-442.521-2.799 0-319.535 0-323.264 0z" fill="#ae6c6c"/><g><path d="m396.179 462.765h-17.256v28.991c0 7.038-5.706 12.744-12.744 12.744h30c7.038 0 12.744-5.706 12.744-12.744 0-24.699 0-17.044 0-41.735 0 7.039-5.705 12.744-12.744 12.744z" fill="#8d9ca8"/></g><path d="m341.223 138.122h-180.534c-3.519 0-6.372-2.853-6.372-6.372v-62.656c0-3.519 2.853-6.372 6.372-6.372h180.534c3.519 0 6.372 2.853 6.372 6.372v62.656c0 3.519-2.853 6.372-6.372 6.372z" fill="#f2fbff"/><path d="m480.042 104.243c-1.354-2.441-4.744-2.441-6.098 0l-6.951 12.538 16.975 30.617h20z" fill="#ffb09e"/><path d="m78.522 62.93c-1.829-.294 2.187-.208-53.499-.208-9.384 0-16.991 7.607-16.991 16.992 0 3.27.87 6.062 2.467 8.783l4.334 2.503h68v-23.833z" fill="#b6c4cf"/><path d="m78.522 62.93c1.555 2.565 2.467 5.564 2.467 8.784 0 9.384-7.607 16.991-16.991 16.991-55.422 0-51.515.089-53.499-.208 2.978 4.914 8.36 8.208 14.525 8.208h50.974c9.384 0 16.991-7.607 16.991-16.991-.001-8.524-6.284-15.561-14.467-16.784z" fill="#9facba"/><path d="m78.522 169.133c-1.829-.294 2.187-.208-53.499-.208-9.384 0-16.991 7.607-16.991 16.992 0 3.27.87 6.062 2.467 8.783l4.336 2.503h68v-23.833z" fill="#b6c4cf"/><path d="m78.522 169.133c1.555 2.565 2.467 5.564 2.467 8.784 0 9.384-7.607 16.991-16.991 16.991-55.422 0-51.515.089-53.499-.208 2.978 4.914 8.36 8.208 14.525 8.208h50.974c9.384 0 16.991-7.607 16.991-16.991-.001-8.525-6.284-15.562-14.467-16.784z" fill="#9facba"/><path d="m78.522 275.329c-1.829-.294 2.187-.208-53.499-.208-9.384 0-16.991 7.607-16.991 16.992 0 3.27.87 6.062 2.467 8.783l4.336 2.503h68v-23.833z" fill="#b6c4cf"/><path d="m78.522 275.329c1.555 2.565 2.467 5.564 2.467 8.784 0 9.384-7.607 16.991-16.991 16.991-55.422 0-51.515.089-53.499-.208 2.978 4.914 8.36 8.208 14.525 8.208h50.974c9.384 0 16.991-7.607 16.991-16.991-.001-8.524-6.284-15.561-14.467-16.784z" fill="#9facba"/><path d="m78.522 381.63c-1.829-.294 2.187-.208-53.499-.208-9.384 0-16.991 7.607-16.991 16.992 0 3.27.87 6.062 2.467 8.783l4.336 2.503h68v-23.833z" fill="#b6c4cf"/><path d="m78.522 381.63c1.555 2.565 2.467 5.564 2.467 8.784 0 9.384-7.607 16.991-16.991 16.991-55.422 0-51.515.089-53.499-.208 2.978 4.914 8.36 8.208 14.525 8.208h50.974c9.384 0 16.991-7.607 16.991-16.991-.001-8.524-6.284-15.561-14.467-16.784z" fill="#9facba"/><path d="m396.179 7.5h-17.256v438.521c0 7.038-5.706 12.744-12.744 12.744-13.384 0-303.838 0-317.263 0v16h347.263c7.038 0 12.744-5.706 12.744-12.744v-441.777c0-7.038-5.705-12.744-12.744-12.744z" fill="#9b5e5e"/><path d="m466.994 116.781-16.976 30.617h37.951l-16.975-30.617z" fill="#ffcebf"/><path d="m480.042 104.243c-1.354-2.441-4.744-2.441-6.098 0l-6.951 12.538 16.975 30.617h20z" fill="#ffb09e"/><path d="m450.018 329.848v40.005h28.386c5.282 0 9.564-4.282 9.564-9.564v-30.44c-14.753-.001-24.864-.001-37.95-.001z" fill="#ffe177"/><path d="m483.969 329.848v30.44c0 5.282-4.282 9.564-9.564 9.564h-24.386v.436c0 5.282 4.282 9.564 9.564 9.564h34.822c5.282 0 9.564-4.282 9.564-9.564v-40.44z" fill="#ffd15b"/><path d="m450.018 147.398h37.951v182.45h-37.951z" fill="#8d9ca8"/><path d="m483.969 147.398h20v182.45h-20z" fill="#7a8c98"/></g><g><path d="m146.817 69.094v62.656c0 7.649 6.223 13.872 13.872 13.872h180.534c7.649 0 13.872-6.223 13.872-13.872v-62.656c0-7.648-6.223-13.871-13.872-13.871h-180.535c-7.648 0-13.871 6.222-13.871 13.871zm15 1.129h178.278v60.399h-178.278z"/><path d="m503.969 270.946c4.142 0 7.5-3.357 7.5-7.5v-116.049c0-1.214-.332-2.535-.935-3.624-.002-.004-.004-.008-.006-.012l-23.926-43.154c-1.948-3.513-5.629-5.694-9.608-5.694s-7.661 2.182-9.608 5.694c0 0-23.931 43.162-23.933 43.166-.584 1.055-.935 2.371-.935 3.624v182.45 40.44c0 9.409 7.655 17.064 17.064 17.064h34.822c9.41 0 17.065-7.655 17.065-17.064v-40.44-31.401c0-4.143-3.358-7.5-7.5-7.5s-7.5 3.357-7.5 7.5v23.901h-38.951v-167.45h38.951v108.549c0 4.143 3.358 7.5 7.5 7.5zm-7.5 66.402v32.94c0 1.139-.926 2.064-2.065 2.064h-34.822c-1.138 0-2.064-.926-2.064-2.064v-32.94zm-33.717-197.451 14.242-25.687 14.242 25.687z"/><path d="m396.18 0h-200c-4.142 0-7.5 3.357-7.5 7.5s3.358 7.5 7.5 7.5h200c2.892 0 5.244 2.353 5.244 5.244v441.777c0 2.892-2.352 5.244-5.244 5.244-10.45 0-330.376 0-339.763 0v-44.471h19.58c13.441 0 24.491-10.939 24.491-24.491 0-13.482-10.975-24.491-24.492-24.491h-19.58v-57.213h19.58c8.863 0 16.641-4.732 20.941-11.802 9.806-16.122-1.84-37.182-20.94-37.182h-19.58v-57.213h19.58c12.66 0 23.108-9.657 24.365-21.992 1.468-14.414-9.858-26.992-24.365-26.992h-19.58v-57.214h19.58c13.503 0 24.491-10.985 24.491-24.491 0-13.505-10.987-24.491-24.491-24.491h-19.58v-34.978c0-2.892 2.352-5.244 5.243-5.244h99.52c4.142 0 7.5-3.357 7.5-7.5s-3.358-7.5-7.5-7.5h-99.52c-11.162 0-20.243 9.081-20.243 20.244v34.979h-16.395c-13.505 0-24.492 10.986-24.492 24.491s10.987 24.491 24.492 24.491h16.395v57.214h-16.395c-13.505 0-24.492 10.986-24.492 24.491s10.987 24.491 24.492 24.491h16.395v57.214h-16.395c-13.505 0-24.492 10.986-24.492 24.491s10.987 24.492 24.492 24.492h16.395v57.213h-16.395c-13.505 0-24.492 10.987-24.492 24.492s10.987 24.491 24.492 24.491h16.395v68.961c0 11.163 9.081 20.244 20.243 20.244h334.52c11.163 0 20.244-9.081 20.244-20.244 0-16.46 0-450.917 0-471.512-.001-11.162-9.082-20.243-20.244-20.243zm-380.649 79.714c0-5.233 4.258-9.491 9.492-9.491h50.974c5.233 0 9.492 4.257 9.492 9.491 0 5.233-4.258 9.491-9.492 9.491-9.773 0-41.055 0-50.974 0-5.234 0-9.492-4.258-9.492-9.491zm0 106.196c0-5.233 4.258-9.491 9.492-9.491h50.974c5.233 0 9.492 4.257 9.492 9.491 0 5.233-4.258 9.491-9.492 9.491h-50.975c-5.233 0-9.491-4.257-9.491-9.491zm0 106.196c0-5.233 4.258-9.491 9.492-9.491h50.974c5.174 0 9.492 4.228 9.492 9.492 0 5.205-4.243 9.491-9.491 9.491-34.105 0-16.862.001-50.975.001-5.234 0-9.492-4.258-9.492-9.493zm0 106.198c0-5.234 4.258-9.492 9.492-9.492 31.574 0 11.114.001 50.975.001 5.246 0 9.491 4.284 9.491 9.491 0 5.262-4.316 9.492-9.492 9.492-9.773 0-41.055 0-50.974 0-5.234-.001-9.492-4.259-9.492-9.492zm385.892 93.452c0 2.892-2.352 5.244-5.244 5.244h-334.519c-2.891 0-5.243-2.353-5.243-5.244v-9.49h339.763c.622 0 1.235-.038 1.843-.093.142-.013.284-.026.426-.042.597-.067 1.188-.153 1.768-.271.057-.012.113-.028.17-.04.348-.074.696-.151 1.038-.243v10.179z"/></g></g></svg>