<svg id="Capa_1" enable-background="new 0 0 512 512" height="512" viewBox="0 0 512 512" width="512" xmlns="http://www.w3.org/2000/svg"><g><g><path d="m483.56 37.322c-.412-.026-36.463-.042-88.065-.052l-3.827 5.064h-36.333l-3.166-5.07c-60.497-.007-132.061-.008-192.334-.007v.005l-3.835 5.071h-35.667l-3.833-5.071v-.005c-51.127.002-86.531.004-86.248.004-12.332 0-22.576 9.823-22.75 22.154-.035 2.491.308 4.601.938 6.786l10.56 4.799h453.189c13.653 0 17.33-13.472 16.609-11.536 3.345-8.977-1.168-14.89-5.238-22.142z" fill="#c68d7a"/><path d="m483.56 37.322c.609 2.041.94 4.201.94 6.44 0 12.427-10.074 22.5-22.5 22.5h-452c-.525 0-1.044-.024-1.56-.06 2.77 9.287 11.372 16.06 21.56 16.06h452c12.426 0 22.5-10.073 22.5-22.5 0-11.902-9.242-21.638-20.94-22.44z" fill="#bc7c63"/><path d="m116.5 37.262h32.333v101.666h-32.333z" fill="#9facba"/><path d="m352.167 37.262h32.333v101.666h-32.333z" fill="#9facba"/><path d="m137.833 37.262h22v101.666h-22z" fill="#8d9ca8"/><path d="m373.5 37.262h22v101.666h-22z" fill="#8d9ca8"/><g><path d="m247 498.564c94.599-33.115 152.96-94.42 152.96-160.813v-193.445c0-8.284-6.715-15-14.999-15-15.516 0-269.066 0-281.922 0-8.284 0-15 6.716-15 15v193.445c0 78.788 78.173 134.95 152.96 160.813z" fill="#b6c4cf"/></g><path d="m256 471.238c1.41 0 2.841-.204 3.831-.546 42.326-14.641 77.274-35.524 101.068-60.393 21.629-22.605 33.062-47.692 33.062-72.549v-172.444c0-3.314-2.686-6-6-6h-131.961z" fill="#7bacdf"/><path d="m256 159.306h-131.961c-3.314 0-6 2.686-6 6v172.445c0 64.415 71.142 111.154 134.134 132.942.986.341 2.417.545 3.827.545z" fill="#f58a97"/><path d="m341.51 213.758h-42.755c-9.665 0-17.5 7.835-17.5 17.5s7.835 17.5 17.5 17.5h3.877v51.168c0 25.714-20.919 46.633-46.632 46.633s-46.632-20.919-46.632-46.633v-51.168h3.877c9.665 0 17.5-7.835 17.5-17.5s-7.835-17.5-17.5-17.5h-42.755c-9.665 0-17.5 7.835-17.5 17.5s7.835 17.5 17.5 17.5h3.878v51.168c0 45.013 36.62 81.633 81.632 81.633s81.632-36.62 81.632-81.633v-51.168h3.878c9.665 0 17.5-7.835 17.5-17.5s-7.835-17.5-17.5-17.5z" fill="#ffe177"/><path d="m408.96 129.306h-30c8.284 0 15 6.716 15 15v193.445c0 66.393-58.361 127.698-152.96 160.813.455.16.906.323 1.362.48 8.455 2.925 18.82 2.925 27.275 0 95.404-33.001 154.323-94.581 154.323-161.293v-193.445c0-8.284-6.715-15-15-15z" fill="#9facba"/><g><path d="m249.724 477.782c-65.928-22.804-139.185-71.828-139.185-140.031v-172.445c0-7.444 6.056-13.5 13.5-13.5h263.922c7.444 0 13.5 6.056 13.5 13.5v172.445c0 68.369-73.28 117.234-139.178 140.029-3.699 1.277-8.886 1.272-12.559.002zm-124.185-310.976v170.945c0 22.887 10.713 46.181 30.98 67.364 22.975 24.012 56.899 44.237 98.105 58.49.623.173 2.134.179 2.794-.014 41.164-14.239 75.087-34.465 98.062-58.477 20.268-21.184 30.98-44.478 30.98-67.364v-170.944zm262.422 0h.01z" fill="#f2fbff"/></g><path d="m452.432 10.762c-6.006 0-7.612 0-13.577 0-8.48 0-15.354 6.875-15.354 15.354 0 72.124-.033 67.486.068 68.646h13.577c8.48 0 15.354-6.874 15.354-15.354 0-72.129.033-67.487-.068-68.646z" fill="#ffe177"/><path d="m453.146 10.762h-4.714c.101 1.154.068-3.514.068 68.646 0 8.48-6.874 15.354-15.354 15.354h-9.577c.687 7.845 7.263 14 15.286 14h14.292c8.48 0 15.354-6.874 15.354-15.354v-67.292c-.001-8.48-6.875-15.354-15.355-15.354z" fill="#ffd15b"/><path d="m72.432 10.762c-6.006 0-7.612 0-13.577 0-8.48 0-15.354 6.875-15.354 15.354 0 72.124-.033 67.486.068 68.646h13.577c8.48 0 15.354-6.874 15.354-15.354 0-72.129.033-67.487-.068-68.646z" fill="#ffe177"/><path d="m73.146 10.762h-4.714c.101 1.154.068-3.514.068 68.646 0 8.48-6.874 15.354-15.354 15.354h-9.577c.687 7.845 7.263 14 15.286 14h14.292c8.48 0 15.354-6.874 15.354-15.354v-67.292c-.001-8.48-6.875-15.354-15.355-15.354z" fill="#ffd15b"/></g><g><path d="m341.51 206.259h-42.755c-13.785 0-25 11.215-25 25 0 12.555 9.302 22.978 21.377 24.738v43.93c0 21.578-17.555 39.133-39.132 39.133s-39.132-17.555-39.132-39.133v-43.93c12.075-1.761 21.377-12.184 21.377-24.738 0-13.785-11.215-25-25-25h-42.755c-13.785 0-25 11.215-25 25 0 12.555 9.303 22.979 21.378 24.738v43.93c0 49.148 39.984 89.133 89.132 89.133s89.132-39.984 89.132-89.133v-43.93c12.075-1.76 21.378-12.184 21.378-24.738 0-13.786-11.215-25-25-25zm0 35h-3.878c-4.142 0-7.5 3.357-7.5 7.5v51.168c0 40.877-33.255 74.133-74.132 74.133s-74.132-33.256-74.132-74.133v-51.168c0-4.143-3.358-7.5-7.5-7.5h-3.878c-5.514 0-10-4.486-10-10s4.486-10 10-10h42.755c5.514 0 10 4.486 10 10s-4.486 10-10 10h-3.877c-4.142 0-7.5 3.357-7.5 7.5v51.168c0 29.849 24.283 54.133 54.132 54.133s54.132-24.284 54.132-54.133v-51.168c0-4.143-3.358-7.5-7.5-7.5h-3.877c-5.514 0-10-4.486-10-10s4.486-10 10-10h42.755c5.514 0 10 4.486 10 10s-4.486 10-10 10z"/><path d="m401.461 337.752v-172.445c0-7.444-6.056-13.5-13.5-13.5h-263.922c-7.444 0-13.5 6.056-13.5 13.5v172.445c0 68.519 73.566 117.334 139.184 140.031 3.68 1.271 8.844 1.282 12.56-.002 65.646-22.708 139.178-71.66 139.178-140.029zm-144.062 125.847c-.612.186-2.18.188-2.775.008-41.206-14.253-75.13-34.479-98.105-58.49-20.268-21.184-30.98-44.478-30.98-67.364v-170.946h260.922v170.945c0 22.887-10.713 46.181-30.98 67.364-22.975 24.012-56.898 44.237-98.082 58.483z"/><path d="m482 29.763h-6v-3.646c0-12.602-10.252-22.854-22.854-22.854h-14.291c-12.603 0-22.855 10.252-22.855 22.854v3.646c-22.251 0-176.82 0-198.833 0-4.142 0-7.5 3.357-7.5 7.5s3.358 7.5 7.5 7.5h127.5v30h-177.334v-30h14.834c4.142 0 7.5-3.357 7.5-7.5s-3.358-7.5-7.5-7.5c-10.83 0-75.959 0-86.167 0v-3.646c0-12.602-10.252-22.854-22.854-22.854h-14.292c-12.602 0-22.854 10.252-22.854 22.854v3.646h-6c-16.542 0-30 13.458-30 30s13.458 30 30 30h6v3.646c0 12.602 10.252 22.854 22.854 22.854h14.291c12.603 0 22.855-10.253 22.855-22.855v-3.646h13v32.044h-5.96c-12.407 0-22.5 10.094-22.5 22.5v193.445c0 82.707 80.182 140.989 159.371 168.382 10 3.46 22.11 3.484 32.179 0 20.27-7.012 39.267-15.422 56.461-24.998 3.619-2.016 4.918-6.583 2.903-10.202-2.015-3.618-6.583-4.919-10.202-2.903-16.431 9.151-34.622 17.202-54.065 23.928-6.864 2.373-15.501 2.377-22.373 0-92.076-31.851-149.274-90.939-149.274-154.206v-193.445c0-4.136 3.365-7.5 7.5-7.5h305.921c4.135 0 7.5 3.364 7.5 7.5v193.445c0 40.479-23.642 80.227-66.57 111.925-3.332 2.46-4.039 7.156-1.578 10.488 2.461 3.333 7.157 4.041 10.488 1.578 46.855-34.597 72.659-78.631 72.66-123.991v-193.445c0-12.406-10.093-22.5-22.5-22.5h-5.961v-32.044h13v3.646c0 12.602 10.252 22.854 22.854 22.854h14.291c12.602 0 22.854-10.253 22.854-22.854v-3.646h6c16.542 0 30-13.458 30-30s-13.457-30-29.999-30zm-137.333 60v32.044h-177.334v-32.044zm-314.667-15c-8.271 0-15-6.729-15-15s6.729-15 15-15h6v30zm51 18.645c0 4.331-3.523 7.854-7.854 7.854h-14.292c-4.331 0-7.854-3.523-7.854-7.854 0-6.895 0-60.128 0-67.291 0-4.331 3.523-7.854 7.854-7.854h14.291c4.331 0 7.854 3.523 7.854 7.854.001 7.421.001 59.919.001 67.291zm15-18.645v-30h13v30zm28 47.044c0-9.568 0-67.886 0-77.044h28.333v77.044zm235.667 0v-39.544-37.5h28.333v37.5 39.544zm43.333-47.044v-30h13v30zm58 18.645c0 4.331-3.523 7.854-7.854 7.854h-14.291c-4.331 0-7.854-3.523-7.854-7.854 0-6.895 0-60.128 0-67.291 0-4.331 3.523-7.854 7.854-7.854h14.291c4.331 0 7.854 3.523 7.854 7.854zm21-18.645h-6v-30h6c8.271 0 15 6.729 15 15s-6.729 15-15 15z"/></g></g></svg>