<svg id="Capa_1" enable-background="new 0 0 512.005 512.005" height="512" viewBox="0 0 512.005 512.005" width="512" xmlns="http://www.w3.org/2000/svg"><g><g><path d="m381.326 374.056v86.403l2.288 3.244h11.241c9.167 0 16.599-7.432 16.599-16.599 0-14.83 0-58.734 0-73.048-13.728 0-16.134 0-30.128 0z" fill="#f58a97"/><path d="m407.722 374.056v65.585c0 8.48-6.363 15.462-14.573 16.463l.007.007-1.655 1.639v11.875l1.655 1.542h18.491c9.167 0 16.599-7.431 16.599-16.599 0-8.882 0-72.176 0-80.512z" fill="#f07281"/><path d="m436.254 117.262c4.398 0 7.963-3.565 7.963-7.963v-32.586c0-4.398-3.565-7.963-7.962-7.964h-55.592c-4.398 0-7.963 3.565-7.963 7.964v32.585c0 4.398 3.565 7.963 7.963 7.963h68.652.001-13.062z" fill="#99e6fc"/><path d="m436.254 195.628c4.398 0 7.963-3.565 7.963-7.963v-32.585c0-4.398-3.565-7.963-7.962-7.964h-55.592c-4.398 0-7.963 3.565-7.963 7.964v32.585c0 4.398 3.565 7.963 7.963 7.963h68.652.001z" fill="#ffe177"/><path d="m85.65 7.5c-17.078 0-30.923 13.845-30.923 30.923v401.213h.015c.325-16.797 14.033-30.317 30.908-30.317h30.923c0-19.323 0-382.085 0-401.82h-30.923z" fill="#596c76"/><path d="m116.573 409.32h276.584v54.383h-276.584z" fill="#f2fbff"/><path d="m116.573 456.111h276.584v15.055h-276.584z" fill="#dff6fd"/><path d="m411.37 7.5c-19.747 0-285.039 0-294.797 0v386.893 5.598h3.732 270.819 3.732c9.167 0 16.599-7.431 16.599-16.599-.001-393.622.046-374.581-.085-375.892z" fill="#f07281"/><g><path d="m85.65 7.5c-17.078 0-30.923 13.845-30.923 30.923v401.213c0-.435 0-5.786 0-14.927h.015c.325-16.797 14.033-30.317 30.908-30.317h1.726.136 29.061c0-72.173 0-369.091 0-386.893h-30.923z" fill="#596c76"/></g><path d="m59.208 456.24h57.365v-46.92c-42.249 0-23.911 0-30.923 0-17.079 0-30.923 13.845-30.923 30.923-.001 5.579 1.496 11.172 4.481 15.997z" fill="#8d9ca8"/><path d="m449.315 68.749h-16.793c4.398 0 7.963 3.565 7.963 7.964v32.585c0 4.398-3.565 7.963-7.963 7.963h16.793c4.398 0 7.963-3.565 7.963-7.963v-32.585c0-4.398-3.565-7.964-7.963-7.964z" fill="#62dbfb"/><path d="m449.315 147.116h-16.793c4.398 0 7.963 3.565 7.963 7.964v32.585c0 4.398-3.565 7.963-7.963 7.963h16.793c4.398 0 7.963-3.565 7.963-7.963v-32.585c0-4.399-3.565-7.964-7.963-7.964z" fill="#ffd15b"/><path d="m360.635 349.723h-176.45c-6.663 0-12.065-5.402-12.065-12.065v-1.059c0-6.663 5.402-12.065 12.065-12.065h176.45c6.663 0 12.065 5.402 12.065 12.065v1.059c0 6.663-5.402 12.065-12.065 12.065z" fill="#f2fbff"/><path d="m148.717 435.207v66.275c0 2.33 2.531 3.778 4.54 2.599l19.784-11.618c.942-.553 2.11-.553 3.052 0l19.783 11.618c2.009 1.18 4.54-.269 4.54-2.599v-66.274h-51.699z" fill="#5f99d7"/><path d="m359.907 195.628h-174.994c-7.065 0-12.793-5.728-12.793-12.793v-114.496c0-7.065 5.728-12.793 12.793-12.793h174.994c7.065 0 12.793 5.728 12.793 12.793v114.496c0 7.065-5.728 12.793-12.793 12.793z" fill="#f2fbff"/><path d="m184.343 435.207h-35.626v66.275c0 2.33 2.53 3.778 4.539 2.599l19.784-11.618c.942-.553 2.11-.553 3.052 0l8.251 4.845h4.859v-57.671z" fill="#7bacdf"/><g><path d="m184.343 435.207v62.101l11.532 6.773c2.009 1.18 4.54-.269 4.54-2.599v-66.275z" fill="#5f99d7"/></g><path d="m59.208 456.24h57.365v-46.92c-42.249 0-23.911 0-30.923 0-17.079 0-30.923 13.845-30.923 30.923-.001 5.579 1.496 11.172 4.481 15.997z" fill="#8d9ca8"/><path d="m59.13 456.111c.084.137.103.168.171.281h.006c5.439 8.854 15.189 14.774 26.342 14.774h1.726.136 29.061v-15.055z" fill="#7a8c98"/><path d="m411.648 7.5h-4.01c.131 1.309.084-18.221.084 370.294 0 9.167-7.432 16.599-16.599 16.599h-274.55l-1.654 1.523v11.667l1.654 1.737h295.075c9.167 0 16.599-7.431 16.599-16.599v-368.622c0-9.167-7.432-16.599-16.599-16.599z" fill="#eb5569"/><path d="m87.375 394.393c-20.358 0-32.333 14.731-32.634 30.317h-.015v14.927h.015c.304-15.73 12.39-30.317 32.634-30.317h.136 29.061c0-1.892 0-7.091 0-14.927-23.585 0-28.288 0-29.061 0-.002 0-.039 0-.136 0z" fill="#465a61"/></g><g><path d="m380.2 68.339c0-11.189-9.104-20.293-20.293-20.293h-174.994c-11.189 0-20.293 9.104-20.293 20.293v114.496c0 11.189 9.104 20.293 20.293 20.293h174.994c11.189 0 20.293-9.104 20.293-20.293zm-15 114.496c0 2.919-2.374 5.293-5.293 5.293h-174.994c-2.918 0-5.293-2.374-5.293-5.293v-114.496c0-2.919 2.375-5.293 5.293-5.293h174.994c2.919 0 5.293 2.374 5.293 5.293z"/><path d="m449.315 124.762c8.526 0 15.464-6.937 15.464-15.463v-32.586c0-8.526-6.938-15.464-15.464-15.464h-13.568v-37.15c-.001-13.288-10.811-24.099-24.099-24.099-4.039 0-319.579 0-325.998 0-21.187 0-38.424 17.236-38.424 38.423v51.748c0 4.143 3.358 7.5 7.5 7.5s7.5-3.357 7.5-7.5v-51.748c0-12.915 10.508-23.423 23.424-23.423h23.423v386.785c-23.476.035-34.151-1.766-46.847 8.031v-284.54c0-4.143-3.358-7.5-7.5-7.5s-7.5 3.357-7.5 7.5v314.967c0 21.183 17.233 38.424 38.423 38.424h30.923 24.644v22.814c0 8.191 8.912 13.133 15.837 9.066l17.512-10.283 17.512 10.283c6.993 4.104 15.837-.949 15.837-9.066v-22.814h203.732c13.289 0 24.1-10.811 24.1-24.099v-61.847c0-.007-.001-.013-.001-.019v-92.002c0-4.143-3.357-7.5-7.5-7.5s-7.5 3.357-7.5 7.5v92.021c0 5.017-4.082 9.099-9.099 9.099-8.648 0-274.389 0-287.575 0 0-5.004 0-380.63 0-386.82h287.575c5.017 0 9.099 4.082 9.099 9.099v241.602c0 4.143 3.357 7.5 7.5 7.5s7.5-3.357 7.5-7.5v-62.572h13.568c8.526 0 15.464-6.937 15.464-15.463v-32.586c0-8.526-6.938-15.464-15.464-15.464h-13.568v-14.854zm-387.075 315.019c.245-12.659 10.745-22.961 23.41-22.961h23.423v46.847h-23.423c-13.025 0-23.676-10.711-23.41-23.886zm130.675 53.864-13.023-7.648c-3.283-1.928-7.364-1.931-10.649-.001l-13.025 7.649v-22.478-28.46h36.698v28.46 22.478zm227.832-78.608v39.531c0 5.017-4.082 9.099-9.1 9.099h-10.991v-46.847c9.469 0 14.19.636 20.091-1.783zm-35.09 1.783v46.847h-177.742v-28.46c0-4.143-3.358-7.5-7.5-7.5h-51.698c-4.142 0-7.5 3.357-7.5 7.5v28.46h-17.144v-46.847zm63.658-340.571c.256 0 .464.208.464.464v32.586c0 .255-.208.463-.464.463h-13.568v-33.513zm0 78.366c.256 0 .464.208.464.464v32.586c0 .255-.208.463-.464.463h-13.568v-33.513z"/><path d="m184.185 317.033c-10.042 0-19.565 7.669-19.565 20.624 0 10.788 8.777 19.565 19.565 19.565h176.45c10.042 0 19.564-7.669 19.564-20.624 0-10.788-8.776-19.565-19.564-19.565zm176.45 25.19h-176.45c-6.112 0-6.12-10.189 0-10.189h176.45c6.109-.001 6.122 10.189 0 10.189z"/><path d="m238.505 90.557c-.026-.068-.053-.137-.081-.204-1.396-3.393-4.666-5.583-8.333-5.583-.003 0-.006 0-.009 0-3.671.004-6.941 2.201-8.331 5.6-.023.056-.045.112-.067.17l-25.021 65.696c-1.474 3.87.468 8.203 4.339 9.678 3.874 1.477 8.204-.468 9.678-4.34l4.391-11.53h29.848l4.344 11.51c1.463 3.874 5.788 5.831 9.665 4.368 3.876-1.462 5.831-5.789 4.369-9.665zm-17.719 44.486 9.28-24.365 9.195 24.365z"/><path d="m341.147 151.404h-30.614l35.863-55.04c1.502-2.306 1.621-5.249.31-7.668-1.312-2.42-3.842-3.927-6.594-3.927h-42.051c-4.143 0-7.5 3.357-7.5 7.5s3.357 7.5 7.5 7.5h28.213l-35.863 55.04c-1.502 2.306-1.621 5.249-.31 7.668 1.312 2.42 3.842 3.927 6.594 3.927h44.452c4.143 0 7.5-3.357 7.5-7.5s-3.358-7.5-7.5-7.5z"/><path d="m291.434 125.587c0-4.143-3.357-7.5-7.5-7.5h-14.029c-4.143 0-7.5 3.357-7.5 7.5s3.357 7.5 7.5 7.5h14.029c4.143 0 7.5-3.358 7.5-7.5z"/></g></g></svg>