<svg id="Capa_1" enable-background="new 0 0 497.002 497.002" height="512" viewBox="0 0 497.002 497.002" width="512" xmlns="http://www.w3.org/2000/svg"><g><g><path d="m89.072 479.804h205.623c3.547 0 6.467-1.92 8.064-4.631l-74.517-169.009v-117.893c0-3.886-3.148-7.037-7.03-7.037h-58.657c-3.883 0-7.03 3.15-7.03 7.037v117.893l-74.517 169.008c1.597 2.712 4.517 4.632 8.064 4.632z" fill="#f2fbff"/><path d="m293.095 31.99-6.783-1.784c-12.978 1.36-25.587 4.073-37.577 9.357l.002-.004c-8.65 3.642-23.199 12.198-30.072 21.95l.002.005c-13.593 17.466-13.218 41.7 4.029 58.966 6.016 6.023 12.881 9.985 20.009 12.02 19.919-3.338 36.242-16.13 44.347-33.868 7.9-17.289 10.687-36.482 8.034-55.308-.677-4.804-.249-2.321-1.991-11.334z" fill="#5de1c4"/><path d="m156.987 52.188c-13.757-22.977-37.174-37.795-62.947-40.95-21.238-2.6-18.411-2.446-24.284-2.973-2.955 1.531-4.34 4.138-4.371 6.807-.331 27.507 4.519 47.741 10.985 62.445l-.004-.002c3.913 9.315 13.107 24.983 23.586 32.384l.005-.002c5.413 4.222 11.433 7.185 17.703 8.829h.002c14.536-3.232 27.315-11.844 35.778-24.109l2.287-3.315c8.045-11.662 8.539-26.957 1.26-39.114z" fill="#5de1c4"/><g fill="#0ed2b3"><path d="m313.742 37.02c-.038-4.237-3.446-7.649-7.678-7.687-7.104-.063-13.665.26-19.753.873 2.465 1.28 4.154 3.841 4.181 6.814.223 25.237-4.259 43.841-10.218 57.393l.004-.002c-3.638 8.659-12.184 23.225-21.926 30.105l-.005-.002c-4.797 3.742-10.108 6.42-15.643 7.987 13.306 3.8 27.532.874 38.893-7.987l.005.002c9.742-6.88 18.288-21.445 21.926-30.105l-.004.002c5.959-13.552 10.441-32.157 10.218-57.393z"/><path d="m167.651 42.126.002-.005c-7.392-10.491-23.043-19.694-32.348-23.612l.002.004c-14.688-6.472-34.9-11.328-62.377-10.996-1.135.014-2.208.285-3.174.747 17.578 1.578 31.452 5.468 42.301 10.249l-.002-.004c9.305 3.918 24.956 13.121 32.348 23.612l-.002.005c14.623 18.789 14.219 44.858-4.334 63.431-6.721 6.728-14.425 11.06-22.409 13.168 15.466 4.056 32.457.048 45.659-13.168 18.553-18.573 18.957-44.642 4.334-63.431z"/><path d="m260.642 450.775-43.687-99.085h-48.208l-43.686 99.085c-1.71 3.876 1.126 8.233 5.359 8.233h124.865c4.231-.002 7.066-4.357 5.357-8.233z"/></g><path d="m278.08 450.775-43.687-99.085h-21.313l43.687 99.085c1.709 3.876-1.126 8.233-5.359 8.233h21.313c4.233-.001 7.068-4.357 5.359-8.233z" fill="#0ab69f"/><path d="m336.89 139.583c-5.295-.078-10.291.314-15.821 1.361l-31.055-26.15 8.357 47.116c-14.591 14.264-23.661 34.162-23.661 56.191 0 40.429 30.516 73.71 69.744 78.054 39.227-4.345 69.742-37.625 69.742-78.054 0-40.404-30.478-73.667-69.672-78.044-1.797.196-3.551.42-6.018.887z" fill="#fff0ad"/><path d="m290.014 114.794 31.055 26.15c5.531-1.047 10.526-1.439 15.821-1.361l-41.76-35.164c-2.772-2.335-6.943.076-6.31 3.647z" fill="#ffe177"/><path d="m344.524 140.057c39.193 4.376 69.672 37.64 69.672 78.044 0 40.429-30.515 73.71-69.743 78.054 46.766 5.173 87.181-31.421 87.181-78.054 0-46.691-40.537-83.253-87.11-78.044z" fill="#ffe177"/><path d="m373.757 206.331v-23.796l-20.585-11.898-20.586 11.898v23.796l20.586 11.898z" fill="#86e8d0"/><path d="m353.172 242.026v-23.797l-20.586-11.898-20.586 11.898v23.797l20.586 11.898z" fill="#86e8d0"/><path d="m394.343 242.025v-23.797l-20.586-11.898-20.585 11.898v23.797l20.585 11.898z" fill="#86e8d0"/><path d="m322.644 476.33-75.028-170.167v-117.892c0-3.886-3.147-7.037-7.029-7.037h-23.251c3.882 0 7.03 3.15 7.03 7.037v117.893c54.767 124.215 69.848 158.302 74.002 167.893 1.15 2.655-.723 5.729-3.614 5.747-.02 0-.04 0-.06 0h-205.622c-3.547 0-6.467-1.92-8.064-4.631l-.51 1.158c-2.734 6.203 1.803 13.172 8.575 13.172h224.997c6.772-.001 11.309-6.971 8.574-13.173z" fill="#dff6fd"/></g><g><path d="m353.172 132.054c-4.138 0-8.323.309-12.485.92l-33.731-28.403c10.917-20.454 14.49-44.529 14.287-67.619-.074-8.263-6.853-15.045-15.111-15.119-93.825-.687-125.909 62.227-91.1 101.427-5.925 10.375-10.708 21.359-14.278 32.787-6.699-21.122-16.855-38.156-26.879-51.164 22.765-29.588 13.04-72.779-35.659-93.285-.036-.016-.073-.031-.11-.046-18.163-7.956-40.093-11.857-65.267-11.533-8.147.098-14.856 6.811-14.954 14.964-.303 25.184 3.577 47.171 11.531 65.355.011.027.022.055.033.082 20.533 48.87 64.029 58.632 93.661 35.319 10.702 14.289 21.441 33.64 26.827 57.995h-27.382c-8.012 0-14.53 6.521-14.53 14.537v116.312l-74.39 168.722c-4.917 11.153 3.25 23.697 15.438 23.697h224.997c12.188 0 20.355-12.547 15.437-23.697l-74.39-168.722v-116.312c0-8.016-6.518-14.537-14.529-14.537h-28.99c3.08-14.209 8.13-27.815 15.024-40.463 18.303 11.903 40.928 11.119 58.671-2.156l5.022 28.312c-14.93 15.984-23.104 36.665-23.104 58.674 0 47.447 38.563 86.048 85.962 86.048s85.962-38.601 85.962-86.048c-.001-47.447-38.564-86.047-85.963-86.047zm-269.816-57.261c-.039-.099-.08-.197-.123-.295-7.146-16.252-10.628-36.215-10.351-59.336.001-.069.081-.145.138-.146 23.075-.267 43.032 3.208 59.262 10.361.105.047.213.091.32.133 36.295 15.455 46.358 44.734 31.29 67.555-11.686-12.629-21.34-19.224-22.311-19.874-3.443-2.302-8.102-1.377-10.403 2.065-2.303 3.443-1.378 8.102 2.065 10.403.22.148 9.293 6.349 20.333 18.518-23.093 17.95-54.208 8.362-70.22-29.384zm146.148 284.397 40.702 92.316h-137.27l40.702-92.316zm10.612-170.457v117.43c0 1.042.217 2.072.638 3.025l75.027 170.168c.552 1.251-.348 2.646-1.712 2.646h-224.997c-1.353 0-2.268-1.384-1.713-2.646l75.027-170.167c.421-.953.638-1.983.638-3.025v-117.43h29.429c.673 5.791.602-8.19.602 155.457h-24.308c-2.972 0-5.664 1.755-6.862 4.475l-43.687 99.085c-3.893 8.827 2.573 18.757 12.222 18.757h142.3c9.648 0 16.114-9.931 12.222-18.757l-43.687-99.085c-1.198-2.72-3.891-4.475-6.862-4.475h-26.338c0-150.715-.358-143.301 1.051-155.457h31.01zm-5.67-68.251c4.773-6.993 10.156-13.619 16.128-19.803 9.552-9.892 17.036-14.975 17.11-15.024 3.435-2.305 4.355-6.956 2.055-10.396-2.303-3.443-6.961-4.369-10.403-2.065-.354.236-8.793 5.924-19.552 17.066-5.961 6.173-11.383 12.748-16.26 19.658-22.929-31.871 10.117-73.747 82.473-73.084.144.001.244.105.245.253.176 19.951-2.68 41.199-11.793 59.043-2.645-.432-5.323.148-7.494 1.399-4.199 2.422-6.365 7.071-5.52 11.847l.816 4.601c-12.702 13.421-31.748 17.227-47.805 6.505zm118.726 168.666c-39.129 0-70.962-31.872-70.962-71.048 0-19.283 7.602-37.334 21.404-50.827 1.772-1.733 2.574-4.231 2.142-6.673l-7.805-44.002 35.725 30.082c1.725 1.451 4.008 2.051 6.226 1.632 4.414-.835 8.879-1.259 13.271-1.259 39.129 0 70.962 31.871 70.962 71.047s-31.834 71.048-70.963 71.048z"/><path d="m398.096 211.735-16.838-9.732v-19.468c0-2.678-1.428-5.153-3.747-6.493l-20.586-11.898c-2.322-1.342-5.184-1.342-7.506 0l-20.586 11.898c-2.319 1.34-3.747 3.815-3.747 6.493v19.469l-16.838 9.732c-2.319 1.34-3.747 3.815-3.747 6.493v23.796c0 2.678 1.428 5.153 3.747 6.493l20.585 11.898c2.31 1.335 5.17 1.35 7.506 0l16.834-9.73 16.832 9.729c2.31 1.335 5.17 1.35 7.506 0l20.585-11.898c2.319-1.34 3.747-3.815 3.747-6.493v-23.796c0-2.677-1.428-5.153-3.747-6.493zm-58.01-24.872 13.086-7.563 13.086 7.563v15.139l-13.086 7.564-13.086-7.563zm-7.5 58.398-13.085-7.563v-15.142l13.085-7.563 13.086 7.563v15.14zm54.257-7.564-13.085 7.563-13.086-7.563v-15.139l13.086-7.564 13.085 7.563z"/></g></g></svg>