<svg id="Capa_1" enable-background="new 0 0 512.021 512.021" height="512" viewBox="0 0 512.021 512.021" width="512" xmlns="http://www.w3.org/2000/svg"><g><g><path d="m67.521 76.322v324.592h425 .002-19.044c6.627 0 12-5.373 12-12v-300.592c0-6.627-5.373-12-12-12z" fill="#fff6ce"/><path d="m504.521 388.914v-300.592c0-6.627-5.373-12-12-12h-23.042c6.627 0 12 5.373 12 12v300.592c0 6.627-5.373 12-12 12h23.042c6.627 0 12-5.373 12-12z" fill="#fff0ad"/><path d="m497.095 298.294h-20c4.101 0 7.426 3.325 7.426 7.426v189.689c0 4.101-3.325 7.426-7.426 7.426h20c4.101 0 7.426-3.325 7.426-7.426v-189.689c0-4.101-3.325-7.426-7.426-7.426z" fill="#596c76"/><path d="m313.183 475.307v-177.013h-123.237c-4.101 0-7.426 3.325-7.426 7.426v189.69c0 4.101 3.324 7.426 7.426 7.426h153.574v-27.528h-30.337z" fill="#8d9ca8"/><path d="m481.096 298.294h-97.237v177.013h-40.338v27.528h137.577c4.1-.001 7.423-3.326 7.423-7.426v-189.689c0-4.101-3.324-7.425-7.425-7.426z" fill="#7a8c98"/><path d="m454.498 475.307c3.236 0 5.86-2.624 5.86-5.86v-182.326c0-3.235-2.623-5.859-5.858-5.86h-99.259c-6.473 0-11.721 5.248-11.721 11.721v182.326h126.977.001-16z" fill="#dff6fd"/><path d="m60.521 466.795c9.15-4.18 15.512-13.404 15.512-24.121v-406.977c0-10.716-6.362-19.941-15.512-24.121h-4c-9.815 4.586-15.512 14.022-15.512 24.121v406.977c0 9.869 5.404 19.291 15.512 24.121z" fill="#aa6a51"/><path d="m67.521 469.186c-14.642 0-26.512-11.87-26.512-26.512v-406.977c0-14.642 11.87-26.512 26.512-26.512 14.642 0 26.512 11.87 26.512 26.512v406.977c0 14.642-11.87 26.512-26.512 26.512z" fill="#aa6a51"/><path d="m67.521 9.186c-3.926 0-7.648.86-11 2.391 9.15 4.18 15.512 13.404 15.512 24.121v406.977c0 10.716-6.362 19.941-15.512 24.121 3.352 1.531 7.074 2.391 11 2.391 14.642 0 26.512-11.87 26.512-26.512v-406.978c0-14.642-11.87-26.511-26.512-26.511z" fill="#935b44"/><path d="m21.475 120.322v281.728h74.093c0-7.027 0-271.239 0-279.728 0-6.627-4.753-12-10.616-12-10.982 0-43.192 0-54.931 0z" fill="#ffe177"/><path d="m21.475 76.322v44h58.093c6.627 0 12 5.373 12 12v269.728h22v-281.728-44c-10.113 0-81.546 0-92.093 0z" fill="#ffd15b"/><path d="m108.231 96.322h-81.42c-10.653 0-19.29-8.636-19.29-19.29v-1.421c0-10.653 8.636-19.29 19.29-19.29h81.421c10.653 0 19.29 8.636 19.29 19.29v1.421c-.001 10.653-8.637 19.29-19.291 19.29z" fill="#c68d7a"/><path d="m108.231 422.05h-81.42c-10.653 0-19.29-8.636-19.29-19.29v-1.421c0-10.653 8.636-19.29 19.29-19.29h81.421c10.653 0 19.29 8.636 19.29 19.29v1.421c-.001 10.654-8.637 19.29-19.291 19.29z" fill="#c68d7a"/><path d="m343.521 475.307h-126.977c-3.237 0-5.86-2.624-5.86-5.86v-182.326c0-3.237 2.624-5.86 5.86-5.86h115.256c6.473 0 11.721 5.248 11.721 11.721z" fill="#f2fbff"/><path d="m26.81 56.322c-10.653 0-19.29 8.636-19.29 19.29v1.42c0 10.653 8.636 19.29 19.29 19.29h63.424c10.652-.002 19.286-8.638 19.286-19.29v-1.42c0-10.653-8.636-19.29-19.29-19.29z" fill="#c68d7a"/><path d="m109.521 402.76v-1.42c0-10.653-8.636-19.29-19.29-19.29h18.002c-.001 0-.002 0-.002 0h-81.421c-10.653 0-19.29 8.636-19.29 19.29v1.42c0 10.654 8.636 19.29 19.29 19.29h63.423c10.653-.001 19.288-8.637 19.288-19.29z" fill="#c68d7a"/><path d="m108.231 382.05h-22c10.653 0 19.29 8.636 19.29 19.29v1.42c0 10.654-8.636 19.29-19.29 19.29h22c10.653 0 19.29-8.636 19.29-19.29v-1.42c0-10.654-8.636-19.29-19.29-19.29z" fill="#bc7c63"/><path d="m108.231 56.322h-22c10.653 0 19.29 8.636 19.29 19.29v1.42c0 10.653-8.636 19.29-19.29 19.29h22c10.653 0 19.29-8.637 19.29-19.29v-1.42c0-10.654-8.636-19.29-19.29-19.29z" fill="#bc7c63"/><path d="m470.498 281.26h-20c3.236 0 5.86 2.624 5.86 5.86v182.326c0 3.236-2.624 5.86-5.86 5.86h20c3.236 0 5.86-2.624 5.86-5.86v-182.325c0-3.237-2.624-5.861-5.86-5.861z" fill="#c8effe"/></g><g><path d="m448.302 325.114h-76.726c-4.143 0-7.5 3.357-7.5 7.5s3.357 7.5 7.5 7.5h76.726c4.143 0 7.5-3.357 7.5-7.5s-3.357-7.5-7.5-7.5z"/><path d="m448.302 370.784h-76.726c-4.143 0-7.5 3.357-7.5 7.5s3.357 7.5 7.5 7.5h76.726c4.143 0 7.5-3.357 7.5-7.5s-3.357-7.5-7.5-7.5z"/><path d="m448.302 416.454h-76.726c-4.143 0-7.5 3.357-7.5 7.5s3.357 7.5 7.5 7.5h76.726c4.143 0 7.5-3.357 7.5-7.5s-3.357-7.5-7.5-7.5z"/><path d="m315.465 325.114h-76.725c-4.143 0-7.5 3.357-7.5 7.5s3.357 7.5 7.5 7.5h76.726c4.143 0 7.5-3.357 7.5-7.5s-3.358-7.5-7.501-7.5z"/><path d="m315.465 370.784h-76.725c-4.143 0-7.5 3.357-7.5 7.5s3.357 7.5 7.5 7.5h76.726c4.143 0 7.5-3.357 7.5-7.5s-3.358-7.5-7.501-7.5z"/><path d="m315.465 416.454h-76.725c-4.143 0-7.5 3.357-7.5 7.5s3.357 7.5 7.5 7.5h76.726c4.143 0 7.5-3.357 7.5-7.5s-3.358-7.5-7.501-7.5z"/><path d="m162.965 168.685h21c4.143 0 7.5-3.357 7.5-7.5s-3.357-7.5-7.5-7.5h-19.5v-24.148c0-4.143-3.357-7.5-7.5-7.5s-7.5 3.357-7.5 7.5v25.648c0 7.445 6.056 13.5 13.5 13.5z"/><path d="m228.465 137.037v24.148c0 4.143 3.357 7.5 7.5 7.5s7.5-3.357 7.5-7.5v-25.648c0-7.444-6.056-13.5-13.5-13.5h-21c-4.143 0-7.5 3.357-7.5 7.5s3.357 7.5 7.5 7.5z"/><path d="m270.465 161.185v-24.148h19.5c4.143 0 7.5-3.357 7.5-7.5s-3.357-7.5-7.5-7.5h-21c-7.444 0-13.5 6.056-13.5 13.5v25.648c0 4.143 3.357 7.5 7.5 7.5s7.5-3.357 7.5-7.5z"/><path d="m363.521 155.186v-17.325c0-7.444-6.056-13.5-13.5-13.5h-27.056c-7.444 0-13.5 6.056-13.5 13.5v17.325c0 7.444 6.056 13.5 13.5 13.5h27.056c7.444 0 13.5-6.055 13.5-13.5zm-15-1.5h-24.056v-14.325h24.056z"/><path d="m408.788 158.861c0 4.143 3.357 7.5 7.5 7.5s7.5-3.357 7.5-7.5v-21c0-7.444-6.056-13.5-13.5-13.5h-25.647c-4.143 0-7.5 3.357-7.5 7.5s3.357 7.5 7.5 7.5h24.147z"/><path d="m473.965 139.686h-28c-4.143 0-7.5 3.357-7.5 7.5s3.357 7.5 7.5 7.5h28c4.143 0 7.5-3.357 7.5-7.5s-3.357-7.5-7.5-7.5z"/><path d="m467.965 208.113h-21c-4.143 0-7.5 3.357-7.5 7.5s3.357 7.5 7.5 7.5h19.5v24.147c0 4.143 3.357 7.5 7.5 7.5s7.5-3.357 7.5-7.5v-25.647c0-7.444-6.055-13.5-13.5-13.5z"/><path d="m421.965 239.76h-19.5v-24.147c0-4.143-3.357-7.5-7.5-7.5s-7.5 3.357-7.5 7.5v25.647c0 7.444 6.056 13.5 13.5 13.5h21c4.143 0 7.5-3.357 7.5-7.5s-3.357-7.5-7.5-7.5z"/><path d="m367.965 208.113c-4.143 0-7.5 3.357-7.5 7.5v24.147h-19.5c-4.143 0-7.5 3.357-7.5 7.5s3.357 7.5 7.5 7.5h21c7.444 0 13.5-6.056 13.5-13.5v-25.647c0-4.143-3.357-7.5-7.5-7.5z"/><path d="m307.965 208.112h-27.057c-7.444 0-13.5 6.056-13.5 13.5v17.324c0 7.444 6.056 13.5 13.5 13.5h27.057c7.444 0 13.5-6.056 13.5-13.5v-17.324c0-7.444-6.055-13.5-13.5-13.5zm-1.5 29.324h-24.057v-14.324h24.057z"/><path d="m246.288 237.436h-24.147v-19.5c0-4.143-3.357-7.5-7.5-7.5s-7.5 3.357-7.5 7.5v21c0 7.444 6.056 13.5 13.5 13.5h25.647c4.143 0 7.5-3.357 7.5-7.5s-3.357-7.5-7.5-7.5z"/><path d="m184.965 222.112h-28c-4.143 0-7.5 3.357-7.5 7.5s3.357 7.5 7.5 7.5h28c4.143 0 7.5-3.357 7.5-7.5s-3.357-7.5-7.5-7.5z"/><path d="m492.521 68.822h-358.374c-3.014-11.494-13.489-20-25.916-20h-6.698v-13.124c0-18.754-15.258-34.012-34.012-34.012s-34.012 15.258-34.012 34.012v13.124h-6.698c-14.772 0-26.79 12.018-26.79 26.789v1.421c0 10.124 5.646 18.953 13.953 23.507v33.693c0 4.143 3.357 7.5 7.5 7.5s7.5-3.357 7.5-7.5v-30.41h77.094v270.728c-16.233 0-60.481 0-77.094 0v-205.318c0-4.143-3.357-7.5-7.5-7.5s-7.5 3.357-7.5 7.5v208.6c-24.103 13.215-15.218 51.717 12.837 51.717h6.698v13.125c0 18.754 15.258 34.012 34.012 34.012s34.012-15.258 34.012-34.012v-13.125h6.698c12.833 0 23.582-9.071 26.184-21.136h40.606v86.995c0 8.23 6.695 14.926 14.926 14.926h307.148c8.23 0 14.926-6.695 14.926-14.926v-24.153c0-4.143-3.357-7.5-7.5-7.5s-7.5 3.357-7.5 7.5v24.079h-146v-12.527h119.477c7.367 0 13.361-5.993 13.361-13.36v-101.89-35-26.764h13.162v130.462c0 4.143 3.357 7.5 7.5 7.5s7.5-3.357 7.5-7.5c0-5.039 0-340.97 0-347.934 0-10.751-8.748-19.499-19.5-19.499zm-444.012-33.124c0-10.483 8.528-19.012 19.012-19.012s19.012 8.528 19.012 19.012v13.124h-38.024zm-21.698 53.124c-6.433 0-11.79-5.239-11.79-11.79v-1.421c0-6.501 5.289-11.789 11.79-11.789h81.42c8.589 0 13.973 8.674 11.172 16.948-1.607 4.795-6.159 8.052-11.172 8.052zm59.722 353.852c0 10.483-8.528 19.012-19.012 19.012s-19.012-8.528-19.012-19.012v-13.125h38.023v13.125zm21.698-28.125c-6.696 0-60.664 0-67.222 0h-14.198c-15.74 0-15.745-25 0-25 89.126 0 82.334-.201 84.684.473 13.006 3.742 10.593 24.527-3.264 24.527zm81.79-13.635v-95.12h13.162v163.653c0 7.367 5.994 13.36 13.361 13.36h119.477v12.527h-146zm146 66.893h-117.838c0-13.746 0-171.873 0-179.047h113.617c2.327 0 4.221 1.894 4.221 4.221zm132.838 0h-117.838v-174.826c0-2.327 1.894-4.221 4.221-4.221h113.617zm15-177.013v-3.673c0-7.367-5.994-13.36-13.361-13.36-124.157 0-116.44-.204-119.492.486-2.619.591-5.198 1.747-7.485 3.511-3.203-2.472-7.395-3.997-11.721-3.997h-115.256c-7.367 0-13.361 5.993-13.361 13.36v3.673h-13.236c-8.23 0-14.926 6.695-14.926 14.926v87.694h-41.195c-2.04-6.653-6.602-12.251-12.758-15.589v-277.286c6.383-3.5 11.193-9.522 13.079-16.717h358.374c2.481 0 4.5 2.019 4.5 4.5v202.472z"/></g></g></svg>