<svg id="Capa_1" enable-background="new 0 0 512 512" height="512" viewBox="0 0 512 512" width="512" xmlns="http://www.w3.org/2000/svg"><g><g><path d="m455 399.514h-429v51.5c0 4.971 4.029 9 9 9h431v-49.5c0-6.075-4.925-11-11-11z" fill="#aa6a51"/><path d="m26 357.514v42h423c6.075 0 11 4.925 11 11v49.5h17c4.971 0 9-4.029 9-9v-93.5z" fill="#935b44"/><path d="m484.5 376.014v-37c0-4.418-3.582-8-8-8h20.004c-.001 0-.002 0-.004 0h-481c-4.418 0-8 3.582-8 8v37c0 4.418 3.582 8 8 8h461.004c4.416-.002 7.996-3.584 7.996-8z" fill="#fdb97e"/><path d="m496.5 331.014h-24c4.418 0 8 3.582 8 8v37c0 4.418-3.582 8-8 8h24c4.418 0 8-3.582 8-8v-37c0-4.419-3.582-8-8-8z" fill="#fea95c"/><path d="m310.595 331.014h-170.25c-7.732 0-14-6.268-14-14 0-7.732 6.268-14 14-14h170.25z" fill="#98bce5"/><path d="m158.499 259.619c25.015-1.458 125.668-4.219 152.096 43.395h-157.75v-37.404c0-3.181 2.479-5.806 5.654-5.991z" fill="#f2fbff"/><g><path d="m120.946 113.159-4.23 1.291-.001-.001-54.284 54.284 13.281 13.281 57.044-57.044z" fill="#7a8c98"/><path d="m56.4 186.954v126.06h20.843v-126.06c-4.549 0-16.33 0-20.843 0z" fill="#7a8c98"/><path d="m126.461 131.266-50.748 50.748 9 9 73.284-73.284-22.281-22.28-19 19 9.746 9.745c1.952 1.953 1.952 5.119-.001 7.071z" fill="#596c76"/><path d="m73.91 186.954h14v126.06h-14z" fill="#596c76"/><path d="m72.155 154.014c-3.51 0-6.875.613-10 1.732 11.463 4.104 19.667 15.06 19.667 27.935s-8.203 23.83-19.667 27.934c3.125 1.119 6.49 1.732 10 1.732 16.385 0 29.667-13.282 29.667-29.667s-13.282-29.666-29.667-29.666z" fill="#f58a97"/><g><path d="m228.122 108.529 13.378 13.377 11-11-14.378-14.377c-20.698-20.698-54.255-20.698-74.953 0-3.055 3.055-5.648 6.396-7.801 9.93 20.811-18.597 52.773-17.911 72.754 2.07z" fill="#f58a97"/><path d="m163.169 171.482 14.378 14.378 63.953-63.954-13.378-13.377c-19.981-19.981-51.944-20.667-72.755-2.07-13.094 22.033-8.88 48.341 7.802 65.023z" fill="#f8a5af"/><path d="m228.122 108.529 13.378 13.377 11-11-14.378-14.377c-20.698-20.698-54.255-20.698-74.953 0-3.055 3.055-5.648 6.396-7.801 9.93 20.811-18.597 52.773-17.911 72.754 2.07z" fill="#f58a97"/><path d="m194.34 81.367-22.362-22.362c-9.389-9.389-24.611-9.389-34 0l-12.333 12.333c-9.389 9.389-9.389 24.611 0 34l22.362 22.362z" fill="#f07281"/><path d="m129.978 69.005c9.389-9.389 24.611-9.389 34 0l21.362 21.362 9-9-22.362-22.362c-9.389-9.389-24.611-9.389-34 0l-12.333 12.333c-2.002 2.002-3.551 4.28-4.699 6.7z" fill="#eb5569"/><path d="m249.08 107.902-76.141 76.141c-4.8 4.8-4.951 12.603-.231 17.481 1.144 1.182 2.163 1.85 3.425 2.505h1.717c2.586 0 5.063-1.045 6.868-2.897l74.318-76.275c3.873-3.975 2.808-10.641-2.25-13.143z" fill="#f2fbff"/><path d="m268.336 106.237c-4.857-4.857-12.733-4.857-17.59 0l-1.666 1.666c1.174.584 2.278 1.355 3.256 2.334 4.857 4.857 4.857 12.732 0 17.59l-76.203 76.203c4.655 2.317 10.455 1.545 14.334-2.333l77.869-77.87c4.857-4.858 4.857-12.733 0-17.59z" fill="#dff6fd"/></g><path d="m62.155 211.614c11.463-4.104 19.667-15.059 19.667-27.934s-8.203-23.83-19.666-27.935c-11.464 4.104-19.667 15.06-19.667 27.935-.001 11.81 6.995 23.18 19.666 27.934z" fill="#f8a5af"/><path d="m109.155 309.514c0-11.875-9.626-21.5-21.5-21.5h18.004c-.001 0-.002 0-.004 0h-67c-11.874 0-21.5 9.625-21.5 21.5 0 11.874 9.626 21.5 21.5 21.5h49.004c11.872-.002 21.496-9.628 21.496-21.5z" fill="#f8a5af"/><path d="m105.655 288.014h-20c11.874 0 21.5 9.625 21.5 21.5 0 11.874-9.626 21.5-21.5 21.5h20c11.874 0 21.5-9.626 21.5-21.5 0-11.875-9.626-21.5-21.5-21.5z" fill="#f58a97"/></g><path d="m310.595 303.014v28h154.254c7.73-.002 13.996-6.269 13.996-14 0-7.732-6.268-14-14-14z" fill="#7bacdf"/><path d="m480.845 303.014h-20c7.732 0 14 6.268 14 14s-6.268 14-14 14h20c7.732 0 14-6.268 14-14s-6.268-14-14-14z" fill="#5f99d7"/><g><path d="m446.691 259.619c-43.293-2.524-115.14 5.639-136.096 43.395h141.75v-37.405c0-3.181-2.479-5.805-5.654-5.99z" fill="#dff6fd"/></g><path d="m462.691 259.619c-6.488-.378-18.071-.842-32.12-.494 4.965.123 9.098.317 12.12.494 3.175.185 5.654 2.809 5.654 5.99v37.405h20v-37.405c0-3.181-2.479-5.805-5.654-5.99z" fill="#c8effe"/></g><path d="m501.085 324.206c.804-2.253 1.264-4.667 1.264-7.193 0-11.855-9.645-21.5-21.5-21.5h-5v-29.904c0-7.141-5.585-13.061-12.716-13.478 0 0 0 0-.001 0-28.187-1.643-117.799-3.308-152.533 37.792-34.734-41.101-124.347-39.434-152.533-37.792 0 0 0 0-.001 0-7.131.417-12.716 6.337-12.716 13.478v29.904c-5.335 0-8.678-.308-13.431 1.726-4.631-9.871-14.661-16.726-26.266-16.726h-10.246v-67.871c8.474-6.818 13.912-17.264 13.912-28.962 0-2.096-.183-4.149-.518-6.152l32.412-32.412c2.151 11.614 7.698 22.715 16.661 31.678l6.409 6.408c-4.229 7.588-3.14 17.366 3.299 23.806 7.777 7.775 20.444 7.758 28.196 0l77.869-77.869c7.774-7.774 7.774-20.424 0-28.198-6.535-6.535-16.308-7.51-23.813-3.306l-6.401-6.401c-12.664-12.664-29.591-18.519-46.205-17.585l-19.94-19.939c-12.297-12.298-32.308-12.297-44.606 0l-12.333 12.334c-10.578 10.578-12.027 26.691-4.607 38.768l-41.748 41.748c-21.285-1.047-39.008 15.986-39.008 37.12 0 11.698 5.438 22.145 13.912 28.963v67.87h-10.246c-15.991 0-29 13.01-29 29 0 5.143 1.351 9.973 3.709 14.166-7.535 1.048-13.36 7.515-13.36 15.334v37c0 8.547 6.953 15.5 15.5 15.5h3v59.5c0 9.099 7.402 16.5 16.5 16.5h78.857c4.142 0 7.5-3.357 7.5-7.5s-3.358-7.5-7.5-7.5h-78.857c-.827 0-1.5-.673-1.5-1.5v-59.5h445v59.5c0 .827-.673 1.5-1.5 1.5h-328.143c-4.142 0-7.5 3.357-7.5 7.5s3.358 7.5 7.5 7.5h328.143c9.098 0 16.5-7.401 16.5-16.5v-59.5h3c8.547 0 15.5-6.953 15.5-15.5v-37c0-6.951-4.6-12.847-10.915-14.807zm-13.736-7.193c0 3.584-2.916 6.5-6.5 6.5h-162.75v-13h162.75c3.584 0 6.5 2.916 6.5 6.5zm-26.5-49.985v28.485h-135c33.062-31.703 114.322-29.587 135-28.485zm-301.901.077c-.002.001-.005.001-.008.001h-.001c.003 0 .006 0 .009-.001zm1.401-.077c20.678-1.104 101.938-3.219 135 28.485h-135zm-20 43.485h162.75v13h-162.75c-3.584 0-6.5-2.916-6.5-6.5s2.916-6.5 6.5-6.5zm122.69-198.964c1.925 1.925 1.925 5.059 0 6.983-83.918 83.919-78.382 79.295-81.356 79.3-1.314.002-2.561-.495-3.497-1.431-1.925-1.925-1.925-5.059 0-6.983 15.48-15.48 60.55-60.55 77.87-77.87 1.923-1.924 5.045-1.937 6.983.001zm-24.351-3.846-64.347 64.346-5.862-5.862c-17.23-17.23-17.686-44.991-1.495-62.772 17.429-19.163 47.392-20.024 65.842-1.573zm-107.733-31.053 12.333-12.333c6.449-6.45 16.943-6.451 23.394 0l12.946 12.945c-16.267 5.987-29.538 19.046-35.693 35.76-1.594-1.594-11.398-11.399-12.898-12.899-6.746-6.749-6.383-17.173-.082-23.473zm-40.525 74.687 35.302-35.302 11.674 11.675-34.756 34.757c-3.095-4.436-7.286-8.332-12.22-11.13zm-18.279 10.176c12.118 0 22.167 9.845 22.167 22.167 0 12.858-10.991 23.108-23.912 22.092-11.551-.909-20.422-10.601-20.422-22.092 0-12.222 9.944-22.167 22.167-22.167zm-8.255 58.408c5.551 1.272 11.363 1.174 16.51 0v60.593h-16.51zm-25.245 75.592h67c7.72 0 14 6.28 14 14s-6.28 14-14 14h-67c-7.72 0-14-6.28-14-14s6.281-14 14-14zm458.349 80.5c0 .275-.224.5-.5.5-3.062 0-461.442 0-470.5 0h-10.5c-.276 0-.5-.225-.5-.5v-37c0-.275.224-.5.5-.5h481c.276 0 .5.225.5.5z"/></g></svg>