<svg id="Capa_1" enable-background="new 0 0 512 512" height="512" viewBox="0 0 512 512" width="512" xmlns="http://www.w3.org/2000/svg"><g><g><path d="m21 210.255 6.5 8.539-6.5 6.461v65.039l6.5 9.5-6.5 5.5v66.127l6.5 9.373-6.5 5.627v48.662c0 5.523 4.477 10 10 10h436.051c5.523 0 10-4.477 10-10v-224.828z" fill="#7bacdf"/><path d="m471.051 185.217v249.865c0 5.523-4.477 10-10 10h19.949c5.523 0 10-4.477 10-10v-38.662l-5.333-7.127 5.333-7.873v-66.127l-5.333-7.667 5.333-7.333v-65.03l-5.333-7.304 5.333-7.696z" fill="#5f99d7"/><path d="m21 145.841v64.414l6.5 8.539c-2.08 2.067-1.926 1.915-3.985 3.961h283.492c3.064 0 3.469 7.37 6.493 8.173 10.363 2.752 31.469 1.993 41.223 1.993 15.275 0 31.41-3.912 44.406-5.72 48.715-6.78 70.068-4.445 71.921-4.445l4-2.334v-35.204l15.95-5.258v-34.119z" fill="#b6c4cf"/><path d="m21 163.271v38.571h442c4.418 0 8 3.582 8 8 .062 6.561.051 3.756.051 12.914l19.949-2.492c0-5.056 0-36.263 0-56.993z" fill="#9facba"/><path d="m488.5 180.217v-39c0-2.761-2.239-5-5-5h-471c-2.761 0-5 2.239-5 5v39c0 2.761 2.239 5 5 5h471c2.761 0 5-2.239 5-5z" fill="#dff6fd"/><path d="m416.63 168.293h-116.575l-4.371 2.929c-1.043 7.645 4.906 14.199 12.371 14.199h108.575z" fill="#8d9ca8"/><path d="m416.63 160.421h-108.575c-6.326 0-11.541 4.704-12.371 10.801 3.063-1.145-4.928-.801 120.947-.801v-10z" fill="#7a8c98"/><path d="m276 220.421v130.796c0 6.552 4.259 12.908 12 14.699l3.667-2.622v-142.873c-6.077 0-9.677 0-15.667 0z" fill="#b6c4cf"/><path d="m288 220.421v145.495c9.339 1.896 18-5.248 18-14.699v-76.271c0-4.573 0-41.475 0-54.525z" fill="#9facba"/><path d="m433.761 96.89c-8.56.423-15.132 7.808-15.132 16.378v107.152h18v-107.152c0-5.531 2.747-10.556 6.989-13.546-2.778-1.929-6.186-3.013-9.857-2.832z" fill="#596c76"/><path d="m416.63 240.793h-116.575l-4.371 2.929c-1.043 7.645 4.906 14.199 12.371 14.199h108.575z" fill="#7a8c98"/><path d="m416.63 232.921h-108.575c-6.326 0-11.541 4.704-12.371 10.801 3.063-1.145-4.928-.801 120.947-.801v-10z" fill="#b6c4cf"/><path d="m416.63 313.293h-116.575l-4.371 2.929c-1.043 7.645 4.906 14.199 12.371 14.199h108.575z" fill="#7a8c98"/><path d="m416.63 305.421h-108.575c-6.326 0-11.541 4.704-12.371 10.801 1.363-.509 2.831-.801 4.371-.801h116.575z" fill="#b6c4cf"/><path d="m418.63 220.421h-12v130.796c0 6.449 4.05 12.721 12 14.699l3.87-2.122v-140.873z" fill="#b6c4cf"/><path d="m418.63 365.916c9.339 1.896 18-5.248 18-14.699v-76.271-38.083-16.441h-18z" fill="#9facba"/><path d="m303.132 96.89c-8.56.423-15.132 7.808-15.132 16.378v107.152h18v-107.152c0-5.531 2.747-10.556 6.989-13.546-2.779-1.929-6.187-3.013-9.857-2.832z" fill="#596c76"/><path d="m338.203 79.373c-4.629-3.548-12.075-10.099-25.231-11.6-21.684 4.455-36.972 23.818-36.972 45.802v106.845h12v-107.152c0-8.279 6.123-15.523 14.364-16.322 3.963-.384 7.654.712 10.626 2.775 2.331-1.644 5.107-2.682 8.142-2.832 9.15-.452 16.739 6.862 16.739 15.915v23.412h12l4.797-2.923c0-23.05.595-26.661-2.073-34.158-2.774-7.79-7.749-14.67-14.392-19.762z" fill="#7a8c98"/><path d="m312.972 67.774c21.014 4.211 36.898 22.797 36.898 45.031v23.412h18v-23.412c0-28.852-26.508-50.757-54.898-45.031z" fill="#596c76"/><path d="m499.5 136.217h-18c2.761 0 5 2.239 5 5v39c0 2.761-2.239 5-5 5h18c2.761 0 5-2.239 5-5v-39c0-2.761-2.239-5-5-5z" fill="#c8effe"/><path d="m454.748 68.829-2.748-1.055h-8.398c-22.194 4.669-36.972 24.234-36.972 45.802v106.845h12v-107.153c0-8.279 6.123-15.522 14.363-16.322 3.963-.384 7.654.712 10.626 2.775 2.331-1.643 5.107-2.682 8.142-2.832 9.15-.452 16.739 6.862 16.739 15.915v23.412h12l4-2.423v-21.664c0-14.399-6.687-27.981-18.098-36.761-3.549-2.731-7.474-4.933-11.654-6.539z" fill="#7a8c98"/><path d="m443.602 67.774c21.014 4.211 36.898 22.797 36.898 45.031v23.412h18v-23.412c0-28.852-26.509-50.757-54.898-45.031z" fill="#596c76"/></g><path d="m506 130.561v-17.679c0-29.796-24.392-53.932-54.464-53.425-28.896.548-52.406 24.859-52.406 54.195v15.065h-23.76v-15.836c0-35.31-33.704-60.672-67.192-51.617-3.999 1.081-6.364 5.198-5.283 9.197s5.199 6.365 9.197 5.283c24.222-6.547 48.278 11.945 48.278 37.137v15.873h-15v-15.873c0-12.921-10.512-23.434-23.432-23.434-13.078 0-23.438 10.76-23.438 23.896v22.873 21.948c-5.077 4.651-7.757 12.05-5.894 19.552h-9.106v-41.5-22.565c0-7.288 2.003-14.424 5.793-20.635 2.157-3.536 1.039-8.151-2.497-10.309-3.538-2.158-8.152-1.039-10.309 2.496-5.225 8.564-7.987 18.401-7.988 28.447v15.065h-256c-6.893 0-12.5 5.607-12.5 12.5v39c0 6.17 4.558 12.5 13.5 12.5v242.365c0 9.649 7.851 17.5 17.5 17.5h368.245c4.142 0 7.5-3.357 7.5-7.5s-3.358-7.5-7.5-7.5h-368.244c-1.378 0-2.5-1.121-2.5-2.5v-48.079c11.445 1.984 15.615 9.417 35.224 9.417 23.202 0 23.772-10 42.726-10 18.955 0 19.522 10 42.727 10 23.202 0 23.772-10 42.726-10s19.523 10 42.728 10c23.201 0 23.771-10 42.725-10s19.522 10 42.726 10c23.202 0 23.773-10 42.728-10 18.954 0 19.522 10 42.727 10 23.198 0 23.782-10 42.732-10 16.955 0 18.407 7.554 35.232 9.571v39.092c0 1.379-1.122 2.5-2.5 2.5h-46.755c-4.142 0-7.5 3.357-7.5 7.5s3.358 7.5 7.5 7.5h46.754c9.649 0 17.5-7.851 17.5-17.5v-242.364c8.893 0 13.5-6.293 13.5-12.5v-39c0-4.51-2.409-8.458-6-10.656zm-9 47.156c-11.055 0-42.183 0-52.87 0v-34c30.617 0 17.247.076 52.87.076zm-13.5 122.121c-4.361-.755-7.375-2.16-10.687-3.71-5.785-2.707-13.646-6.489-28.683-5.573v-65.124c11.791-.961 17.515 1.865 22.325 4.117 4.428 2.072 9.326 4.352 17.045 5.278zm-22.5-171.121h-16.87v-15.372c0-4.683 3.59-8.67 8.002-8.888 4.748-.264 8.868 3.555 8.868 8.424zm-46.87-15.065c0-21.22 16.908-38.804 37.69-39.197 21.532-.405 39.18 16.945 39.18 38.426v15.912h-15v-15.912c0-13.044-10.903-24.091-24.608-23.406-12.483.617-22.262 11.102-22.262 23.87v237.948c0 4.136-3.364 7.5-7.5 7.5-4.135 0-7.5-3.364-7.5-7.5 0-9.594 0-222.511 0-237.641zm-115.63 219.024v18.617c0 4.136-3.364 7.5-7.5 7.5-4.135 0-7.5-3.364-7.5-7.5v-158.576h15v37.948c-8.636 7.911-8.63 21.604 0 29.511v42.989c-8.603 7.881-8.663 21.574 0 29.511zm-270-106.839c11.445 1.984 15.615 9.417 35.224 9.417 23.202 0 23.772-10 42.726-10 18.955 0 19.522 10 42.727 10 23.202 0 23.772-10 42.726-10 18.956 0 19.522 10 42.728 10 18.829 0 23.697-6.953 33.869-9.16v64.933c-15.734 2.309-17.351 9.393-33.869 9.393-18.956 0-19.522-10-42.728-10-23.196 0-23.779 10-42.726 10-18.949 0-19.528-10-42.727-10-23.196 0-23.778 10-42.726 10-16.941 0-18.411-7.554-35.224-9.57zm370.63-.416h-85.63v-32.5h85.63zm-89.799 15.787c.774-.492 1.685-.787 2.669-.787h87.13v10h-87.13c-4.865 0-6.982-6.465-2.669-9.213zm4.169 24.213h85.63v32.5h-85.63zm85.63-87.704h-88.462c-5.75-1.602-4.285-9.797 1.332-9.797h87.13zm-89.819 144.405c-4.324-2.773-2.134-9.202 2.689-9.202h87.13v10c-94.094.001-88.021.357-89.819-.798zm89.819-169.201h-85.63v-9.203h85.63zm-77.619-48.463c4.846-.217 8.859 3.633 8.859 8.424v15.836h-16.87v-15.373c0-4.683 3.589-8.67 8.011-8.887zm-306.511 39.259h253.5v34c-9.418 0-242.067 0-253.5 0zm253.5 49v18.144c-15.734 2.309-17.351 9.393-33.869 9.393-18.956 0-19.522-10-42.728-10-23.196 0-23.779 10-42.726 10-18.949 0-19.528-10-42.727-10-23.196 0-23.778 10-42.726 10-16.941 0-18.411-7.554-35.224-9.57v-17.967zm-33.869 188.704c-18.954 0-19.523-10-42.728-10-23.202 0-23.772 10-42.726 10-18.949 0-19.528-10-42.727-10-23.196 0-23.778 10-42.726 10-16.941 0-18.411-7.554-35.224-9.57v-65.847c11.445 1.984 15.615 9.417 35.224 9.417 23.202 0 23.772-10 42.726-10 18.955 0 19.522 10 42.727 10 23.202 0 23.772-10 42.726-10 18.956 0 19.522 10 42.728 10 18.829 0 23.697-6.953 33.869-9.16v45.033c0 8.885 5.177 16.582 12.673 20.236-26.289-1.462-26.631 9.891-46.542 9.891zm213.637-10c-23.198 0-23.781 10-42.732 10-18.954 0-19.522-10-42.727-10-23.202 0-23.773 10-42.728 10-13.569 0-16.514-4.563-26.663-7.759 11.273-1.211 20.081-10.779 20.081-22.368v-13.373h85.63v13.373c0 12.406 10.093 22.5 22.5 22.5s22.5-10.094 22.5-22.5v-45.697c11.791-.961 17.515 1.865 22.325 4.117 4.428 2.072 9.326 4.352 17.045 5.278v65.847c-11.44-1.982-15.623-9.418-35.231-9.418zm35.232-151.749c-4.361-.755-7.375-2.16-10.687-3.71-5.785-2.707-13.646-6.489-28.683-5.573v-17.671h39.37z"/></g></svg>