<svg id="Capa_1" enable-background="new 0 0 511.961 511.961" height="512" viewBox="0 0 511.961 511.961" width="512" xmlns="http://www.w3.org/2000/svg"><g><g><g fill="#7a8c98"><path d="m366.234 501.795c.118.061.135.063.005-.003-.002.001-.003.002-.005.003z"/><path d="m331.988 274.954-8.348-5.385-25.938 6.95 56.3 210.113c1.828 6.822 6.415 12.165 12.237 15.16.025-.013.049-.029.074-.042l.017.091 21.154-10.128z"/></g><g fill="#7a8c98"><path d="m195.429 271.466 18.855 5.053z"/><path d="m126.575 418.004-15.053 56.178c-2.723 10.165 1.491 20.551 9.74 26.138l2.492 1.475 12.582-2.497 21.331-68.662z"/></g><path d="m167.822 264.069-41.246 153.935c7.537 5.473 15.526 10.355 23.881 14.624l-14.47 54.004c-1.827 6.821-6.412 12.168-12.232 15.163 13.682 7.024 30.275-.402 34.23-15.163l56.3-210.113z" fill="#596c76"/><path d="m100.772 93.063h22.099v124.548h-22.099z" fill="#7a8c98" transform="matrix(.819 -.574 .574 .819 -68.875 92.231)"/><path d="m98.572 88.591-13.419 9.397 71.439 102.023-18.103 12.676 6.579 9.396 31.522-22.072z" fill="#596c76"/><path d="m353.499 212.687 78.018-111.42.017.011-18.12-12.687-78.017 111.42z" fill="#7a8c98"/><path d="m229.27 43.843h43.447v293.069h-43.447z" fill="#7a8c98"/><path d="m262.718 43.843h19.999v293.069h-19.999z" fill="#596c76"/><path d="m331.208 153.484h136.019v16.382h-136.019z" fill="#596c76" transform="matrix(.574 -.819 .819 .574 37.801 395.964)"/><path d="m448.969 92.735c-25.859-20.813-27.629-24.331-44.563-26.56-13.669 3.301-24.409 10.864-31.802 21.387-2.625 3.736-1.773 8.894 1.968 11.513l64.617 45.245c.002-.003 8.583-18.555 14.514-31.379 3.248-7.023 1.295-15.353-4.734-20.206z" fill="#f58a97"/><path d="m404.405 66.175c34.291 7.882 52.243 46.799 34.782 78.146l9.608 6.727c3.717 2.603 8.84 1.7 11.442-2.017 28.089-40.114-8.312-93.765-55.832-82.856z" fill="#f07281"/><path d="m308.819 32.085c0-13.578-11.007-24.585-24.585-24.585h-78.48c-13.578 0-24.585 11.007-24.585 24.585s11.007 24.585 24.585 24.585h78.48c13.578 0 24.585-11.007 24.585-24.585z" fill="#f07281"/><path d="m306.232 7.5h-23.998c13.578 0 24.585 11.007 24.585 24.585s-11.007 24.585-24.585 24.585h23.998c13.578 0 24.585-11.007 24.585-24.585s-11.006-24.585-24.585-24.585z" fill="#eb5569"/><path d="m56.026 84.258-2.925 1.516c-13.861 18.079-15.087 43.767-1.257 63.392 2.577 3.656 7.683 4.448 11.347 1.883l57.305-40.125 6.079-10.43c-19.647-24.188-48.388-27.72-70.549-16.236z" fill="#f58a97"/><path d="m139.434 87.634c-20.902-29.851-64.524-30.307-86.333-1.86 23.084-10.724 51.226-3.718 66.334 17.859 1.547 2.209 1.847 4.912 1.061 7.29l16.92-11.847c3.717-2.603 4.62-7.726 2.018-11.442z" fill="#f07281"/><path d="m400.465 474.182-56.3-210.113-20.525 5.5 54.826 204.613c2.986 11.143-2.368 22.552-12.232 27.613 18.392 9.465 39.65-7.389 34.231-27.613z" fill="#596c76"/><path d="m423.6 272.592c0-95.96-76.564-179.197-179.604-179.197-93.598 6.175-167.608 84.036-167.608 179.197 0 92.772 70.955 172.201 167.606 179.197 103.147 0 179.606-83.335 179.606-179.197z" fill="#f58a97"/><path d="m243.994 93.395c93.597 6.176 167.606 84.037 167.606 179.197s-74.009 173.021-167.606 179.197c104.204 6.874 191.605-75.694 191.605-179.197 0-103.435-87.335-186.076-191.605-179.197z" fill="#f07281"/><path d="m385.394 272.592c0-82.883-69.138-144.986-140.399-144.986-75.056 5.64-134.401 68.512-134.401 144.986 0 72.657 54.512 137.979 134.4 144.986 71.176 0 140.4-62.011 140.4-144.986z" fill="#f2fbff"/><path d="m255.993 127.192c-3.7 0-7.368.141-11 .414 75.056 5.641 134.4 68.513 134.4 144.986s-59.345 139.345-134.4 144.986c3.632.273 7.3.414 11 .414 80.174 0 145.4-65.226 145.4-145.4.001-80.175-65.225-145.4-145.4-145.4z" fill="#dff6fd"/><circle cx="255.993" cy="272.592" fill="#f58a97" r="24.931"/></g><g><path d="m255.993 119.691c-84.309 0-152.9 68.591-152.9 152.9s68.591 152.9 152.9 152.9c84.31 0 152.9-68.591 152.9-152.9s-68.59-152.9-152.9-152.9zm0 290.801c-76.038 0-137.9-61.862-137.9-137.9s61.862-137.9 137.9-137.9 137.9 61.862 137.9 137.9-61.862 137.9-137.9 137.9z"/><path d="m255.993 100.486c94.843 0 172.105 77.155 172.105 172.105 0 9.922-.851 19.867-2.527 29.559-.706 4.081 2.03 7.962 6.112 8.669.433.074.862.11 1.287.11 3.581 0 6.75-2.573 7.382-6.223 1.822-10.533 2.746-21.338 2.746-32.115 0-37.804-11.281-73.018-30.638-102.474l16.611-23.723c15.956 11.172 18.037 13.635 24.414 13.635 4.958 0 9.842-2.335 12.896-6.696 19.299-27.562 12.576-65.687-14.985-84.986-27.563-19.301-65.687-12.576-84.986 14.985-4.971 7.099-3.239 16.917 3.859 21.888l14.995 10.5-9.357 13.363c-24.165-20.225-53.491-34.472-85.689-40.448v-24.465h16.016c17.691 0 32.085-14.394 32.085-32.085s-14.395-32.085-32.086-32.085h-100.479c-17.692 0-32.085 14.394-32.085 32.085s14.393 32.085 32.085 32.085h16.016v24.485c-31.409 5.847-61.003 19.673-85.738 40.357l-9.308-13.294 14.996-10.5c4.196-2.938 6.701-7.754 6.701-12.88 0-3.236-.983-6.351-2.843-9.007-23.308-33.284-72.422-35.044-97.886-2.826-2.568 3.25-2.016 7.966 1.234 10.534 3.249 2.569 7.967 2.018 10.535-1.233 19.235-24.341 56.281-22.931 73.83 2.129.088.125.13.257.13.403 0 .142-.04.407-.306.594-19.403 13.586-45.013 31.518-52.66 36.872-.002.002-.005.004-.007.005-21.982 15.392-21.917 15.826-22.554 14.919-5.448-7.781-8.328-16.893-8.328-26.35 0-.235.001-.472.005-.708.066-4.142-3.238-7.553-7.38-7.618-4.104-.05-7.552 3.238-7.618 7.38-.005.316-.007.631-.007.946 0 12.551 3.818 24.638 11.041 34.953 4.926 7.034 14.712 8.884 21.887 3.859l15.421-10.798 16.562 23.654c-20.639 31.437-30.589 67.324-30.589 102.543 0 51.016 20.532 97.32 53.755 131.106l-18.366 68.542c-5.374 20.058 9.757 39.721 30.468 39.721 13.929 0 26.71-9.31 30.483-23.388l12.358-46.12c23.862 11.058 50.423 17.244 78.406 17.244 27.395 0 54.013-5.879 78.426-17.175l12.339 46.051c3.772 14.079 16.552 23.388 30.482 23.388 2.695 0 5.435-.349 8.159-1.079 16.841-4.512 26.824-21.796 22.31-38.642l-18.328-68.401c17.951-18.208 31.992-39.91 41.283-64.043 1.488-3.865-.438-8.205-4.305-9.693-3.866-1.492-8.206.439-9.693 4.305-25.397 65.968-89.967 110.29-160.673 110.29-94.899 0-172.105-77.206-172.105-172.105.001-94.815 76.828-172.104 172.106-172.104zm125.524 395.908c-8.812 2.361-17.908-2.888-20.271-11.703l-13.176-49.176c10.212-5.79 19.901-12.554 28.872-20.145l16.279 60.754c2.361 8.814-2.889 17.907-11.704 20.27zm-230.777-11.704c-2.362 8.815-11.452 14.065-20.271 11.703-8.835-2.368-14.071-11.434-11.703-20.271l16.285-60.777c8.975 7.612 18.637 14.357 28.869 20.152zm-41.986-327.546-13.552-19.354 19.234-13.468 10.395 14.846c-5.752 5.657-11.449 12.082-16.077 17.976zm79.915-125.059c0-9.421 7.664-17.085 17.085-17.085h100.479c9.421 0 17.085 7.664 17.085 17.085s-7.664 17.085-17.085 17.085c-11.459 0-90.022 0-100.479 0-9.421 0-17.085-7.664-17.085-17.085zm48.101 54.382v-22.297h38.447v22.298c-12.738-1.158-24.282-1.453-38.447-.001zm166.462 70.679c-4.969-6.329-10.345-12.341-16.076-17.979l10.395-14.845 19.234 13.468zm50.862-12.417c-.228.322-.673.4-.997.176-63.512-44.472-73.3-51.325-74.225-51.973-.323-.227-.402-.674-.176-.997 14.556-20.786 43.311-25.854 64.096-11.302 20.786 14.556 25.857 43.31 11.302 64.096z"/><path d="m332.24 265.092h-45.809c-2.794-11.951-12.032-20.939-23.275-23.867l-.796-73.895c-.044-4.114-3.394-7.419-7.498-7.419-.027 0-.055 0-.082 0-4.142.045-7.463 3.438-7.419 7.581l.79 73.37c-14.674 3.1-25.722 16.147-25.722 31.729 0 17.883 14.548 32.432 32.431 32.432 15.301 0 28.152-10.655 31.546-24.932h45.833c4.143 0 7.5-3.357 7.5-7.5s-3.356-7.499-7.499-7.499zm-77.379 24.931c-9.612 0-17.431-7.819-17.431-17.432 0-9.754 8.155-17.976 18.446-17.38 9.301.531 16.417 8.242 16.417 17.38-.001 9.613-7.82 17.432-17.432 17.432z"/></g></g></svg>