<svg id="Capa_1" enable-background="new 0 0 511.377 511.377" height="512" viewBox="0 0 511.377 511.377" width="512" xmlns="http://www.w3.org/2000/svg"><g><g><path d="m7.432 171.47c0 48.936 41.796 90.514 99.961 105.596l-2.079 36.453h6l48.623-31.896c70.307-8.729 123.939-54.72 123.939-110.153 0-58.364-59.45-106.26-135.221-111.221-66.781 0-141.223 44.948-141.223 111.221z" fill="#62dbfb"/><path d="m142.654 60.249c75.771 4.961 135.222 52.857 135.222 111.221 0 55.434-53.632 101.424-123.939 110.153l-48.623 31.896-.314 5.51c-.288 5.051 5.299 8.276 9.529 5.501l65.408-42.906c70.307-8.729 123.939-54.72 123.939-110.153 0-65.219-74.057-116.923-161.222-111.222z" fill="#01d0fb"/><path d="m210.188 217.471-38.174-101.153c-.052-.138-.106-.274-.162-.411-2.684-6.521-8.971-10.733-16.021-10.733-.007 0-.013 0-.019 0-7.06.008-13.347 4.234-16.019 10.768-.046.112-.091.226-.134.339l-38.523 101.148c-2.948 7.742.937 16.408 8.679 19.356 7.744 2.95 16.407-.938 19.356-8.679l5.915-15.53h41.188l5.845 15.487c2.933 7.77 11.601 11.657 19.33 8.738 7.752-2.924 11.664-11.58 8.739-19.33zm-63.675-34.895 9.263-24.321 9.179 24.321z" fill="#dff6fd"/><path d="m383.994 439.519-2.079-36.453c58.166-15.082 99.961-56.66 99.961-105.596 0-65.983-74.562-111.221-139.221-111.221-75.772 4.96-135.224 52.857-135.224 111.221 0 55.434 53.632 101.424 123.939 110.153l48.623 31.896z" fill="#f2fbff"/><path d="m417.756 337.747-5.736-5.736c6.169-10.066 9.733-21.894 9.733-34.541 0-36.557-29.74-66.297-66.297-66.297s-66.297 29.74-66.297 66.297 29.74 66.297 66.297 66.297c13.066 0 25.25-3.814 35.528-10.366l5.559 5.559c5.858 5.858 15.355 5.858 21.213 0s5.858-15.356 0-21.213zm-62.3-3.98c-20.014 0-36.297-16.283-36.297-36.297s16.283-36.297 36.297-36.297 36.297 16.283 36.297 36.297c0 4.267-.746 8.362-2.105 12.168l-4.713-4.713c-5.857-5.857-15.355-5.857-21.213 0s-5.858 15.355 0 21.213l5.077 5.077c-4.134 1.641-8.633 2.552-13.343 2.552z" fill="#f58a97"/><path d="m503.876 297.47c0-65.218-74.057-116.923-161.222-111.221 75.771 4.961 135.222 52.857 135.222 111.221 0 48.936-41.796 90.514-99.961 105.596l2.079 36.453 16.785 11.011c4.23 2.775 9.817-.45 9.529-5.501l-2.393-41.962c58.166-15.083 99.961-56.661 99.961-105.597z" fill="#dff6fd"/></g><g><path d="m355.654 178.317c-15.479 0-30.621 1.715-45.047 5.024.51-3.942.77-7.908.77-11.871 0-67.169-71.202-119.153-155.723-119.153-25.627 0-51.026 4.848-73.453 14.019-3.834 1.568-5.671 5.947-4.104 9.781 1.568 3.833 5.944 5.672 9.781 4.104 20.642-8.441 44.078-12.903 67.775-12.903 77.595 0 140.723 46.723 140.723 104.153 0 5.451-.581 10.912-1.727 16.286-40.443 13.137-77.682 41.229-90.347 81.435-8.211 2.248-16.699 3.923-25.29 4.99-1.139.141-2.23.542-3.189 1.171l-63.185 41.448 2.242-39.308c.203-3.571-2.144-6.789-5.605-7.687-98.455-25.53-127.337-119.58-50.594-173.718 3.385-2.389 4.193-7.067 1.806-10.452-2.389-3.386-7.067-4.193-10.452-1.806-84.169 59.377-58.472 167.066 49.526 198.85l-2.051 35.938c-.014.262-.021.522-.021.782 0 10.772 12.03 17.377 21.153 11.4l63.965-41.96c6.096-.812 12.14-1.914 18.083-3.282-8.272 64.628 50.634 118.977 128.011 129.282l63.964 41.959c9.305 6.106 21.722-.903 21.132-12.199l-2.05-35.923c24.367-7.179 46.04-18.976 62.98-34.325 3.069-2.781 3.303-7.524.521-10.594s-7.524-3.303-10.594-.521c-16.517 14.966-38.172 26.228-62.623 32.568-3.462.897-5.809 4.115-5.605 7.687l2.244 39.309-63.187-41.449c-.959-.629-2.051-1.03-3.189-1.171-59.505-7.39-117.363-46.341-117.363-102.711 0-58.378 64.278-104.153 140.723-104.153 77.595 0 140.723 46.723 140.723 104.153 0 14.071-3.75 27.729-11.145 40.591-2.064 3.591-.827 8.176 2.764 10.24 3.592 2.064 8.176.827 10.24-2.764 8.72-15.167 13.141-31.339 13.141-48.067 0-67.169-71.202-119.153-155.723-119.153z"/><path d="m136.218 230.246 4.075-10.7h30.834l4.014 10.637c4.414 11.688 17.416 17.48 28.994 13.105 11.636-4.389 17.499-17.359 13.107-28.995l-38.17-101.144c-.075-.201-.155-.401-.247-.627-3.845-9.342-12.855-15.379-22.983-15.379-10.115.011-19.124 6.067-22.953 15.43-.07.172-.139.345-.2.508l-38.524 101.149c-4.415 11.595 1.425 24.619 13.019 29.034 11.592 4.414 24.616-1.425 29.034-13.018zm-28.035-10.678 38.527-101.157.063-.16c1.515-3.705 5.081-6.102 9.095-6.106 3.998 0 7.564 2.39 9.075 6.062 41.647 110.343 39.889 103.124 38.082 107.121-2.759 6.106-11.51 5.759-13.852-.441l-5.845-15.487c-1.102-2.919-3.896-4.852-7.017-4.852h-41.188c-3.112 0-5.901 1.922-7.009 4.83l-5.915 15.529c-1.472 3.866-5.816 5.812-9.679 4.341-3.862-1.473-5.809-5.815-4.337-9.68z"/><path d="m171.971 179.927-9.179-24.321c-2.434-6.452-11.57-6.472-14.025-.021l-9.263 24.321c-1.868 4.905 1.762 10.169 7.009 10.169h18.441c5.237.001 8.867-5.245 7.017-10.148zm-23.127.054 6.883-18.073 6.821 18.073z"/><path d="m355.456 223.674c-40.691 0-73.797 33.105-73.797 73.797s33.105 73.797 73.797 73.797c12.003 0 23.745-2.918 34.302-8.486 23.039 23.054 55.262-8.39 31.569-32.069 5.2-10.272 7.926-21.65 7.926-33.241 0-40.693-33.106-73.798-73.797-73.798zm51.693 132.179c-3.888 0-5.178-2.073-10.861-7.756-2.486-2.484-6.367-2.911-9.335-1.021-9.432 6.013-20.323 9.19-31.497 9.19-32.421 0-58.797-26.376-58.797-58.797s26.376-58.797 58.797-58.797 58.797 26.376 58.797 58.797c0 10.824-2.983 21.412-8.628 30.62-1.813 2.957-1.361 6.771 1.091 9.224l5.736 5.736h.001c4.742 4.743 1.315 12.804-5.304 12.804z"/><path d="m355.456 253.674c-24.149 0-43.797 19.647-43.797 43.797s19.647 43.797 43.797 43.797c5.539 0 10.959-1.036 16.109-3.081 2.347-.931 4.067-2.98 4.578-5.453 1.672-8.091-9.315-9.734-9.315-17.201 0-6.605 8.053-10.056 12.803-5.303 4.36 4.36 6.716 7.842 11.664 6.728 2.509-.564 4.553-2.375 5.417-4.797 1.687-4.725 2.541-9.667 2.541-14.689 0-24.151-19.648-43.798-43.797-43.798zm18.872 39.358c-12.433 0-22.5 10.062-22.5 22.5 0 3.806.938 7.468 2.706 10.721-15.454-.488-27.875-13.212-27.875-28.782 0-15.879 12.918-28.797 28.797-28.797 15.144 0 27.596 11.751 28.715 26.613-3.028-1.476-6.376-2.255-9.843-2.255z"/></g></g></svg>