<svg id="Capa_1" enable-background="new 0 0 512.015 512.015" height="512" viewBox="0 0 512.015 512.015" width="512" xmlns="http://www.w3.org/2000/svg"><g><g><path d="m399.469 472.247c9.654 0 17.48-7.826 17.48-17.48v-429.786c0-9.655-7.826-17.481-17.48-17.481h-306.923c-9.654 0-17.481 7.826-17.481 17.481v429.785c0 9.654 7.826 17.481 17.481 17.481z" fill="#f2fbff"/><path d="m419.469 7.5h-24c9.654 0 17.48 7.826 17.48 17.481v429.785c0 9.654-7.826 17.48-17.48 17.48h24c9.654 0 17.48-7.826 17.48-17.48v-429.785c.001-9.655-7.825-17.481-17.48-17.481z" fill="#dff6fd"/><g><path d="m278.318 357.319-.002.008c-.751-.807-1.813-1.319-3.002-1.319h-60.956c-2.271 0-4.113 1.841-4.113 4.113v140.258c0 3.534 4.162 5.422 6.822 3.096l36.061-31.552c1.551-1.356 3.866-1.356 5.417 0l20.882 18.271h4.058c0-4.652 0-121.966 0-129.86z" fill="#f07281"/></g><g><path d="m297.313 356.008h-22c2.271 0 4.113 1.841 4.113 4.113v130.073l15.179 13.281c2.659 2.327 6.821.438 6.821-3.096v-140.258c0-2.271-1.841-4.113-4.113-4.113z" fill="#eb5569"/></g><path d="m247.386 227.198c51.062 5.486 90.825 48.712 90.825 101.232 0 52.519-39.763 95.746-90.825 101.231 60.57 6.505 112.825-40.92 112.825-101.231 0-60.342-52.284-107.735-112.825-101.232z" fill="#5f99d7"/><path d="m344.211 328.43c0-52.52-39.762-95.746-90.824-101.232-48.082 0-96.825 42.774-96.825 101.232 0 52.519 39.763 95.746 90.825 101.231 48.322 0 96.824-42.976 96.824-101.231z" fill="#7bacdf"/><path d="m247.386 227.198c51.062 5.486 90.825 48.712 90.825 101.232 0 52.519-39.763 95.746-90.825 101.231 60.57 6.505 112.825-40.92 112.825-101.231 0-60.342-52.284-107.735-112.825-101.232z" fill="#5f99d7"/><path d="m171.406 95.541v68.199c0 14.008 34.528 25.364 77.121 25.364s77.121-11.356 77.121-25.364v-68.199z" fill="#596c76"/><path d="m377.859 189.104h-25.707v-26.221c0-7.099 5.755-12.854 12.854-12.854 7.099 0 12.854 5.755 12.854 12.854v26.221z" fill="#ffe177"/><path d="m370.692 108.566h-229.369c-9.069 0-16.421-7.352-16.421-16.421v-.378c0-9.069 7.352-16.421 16.421-16.421h229.369c9.069 0 16.421 7.352 16.421 16.421v.378c0 9.069-7.352 16.421-16.421 16.421z" fill="#7a8c98"/><circle cx="258.386" cy="328.43" fill="#fff0ad" r="72.668"/></g><g><path d="m394.613 92.145v-.378c0-13.19-10.73-23.921-23.921-23.921h-229.369c-13.19 0-23.921 10.73-23.921 23.921v.378c0 13.19 10.73 23.921 23.921 23.921h22.583v47.675c0 22.58 43.865 32.864 84.621 32.864s84.621-10.284 84.621-32.864v-47.675h24.015v28.041c-7.34 3.077-12.511 10.334-12.511 18.778v26.221c0 4.143 3.357 7.5 7.5 7.5h25.707c4.143 0 7.5-3.357 7.5-7.5v-26.221c0-8.701-5.499-16.124-13.196-19.029v-27.839c12.507-.764 22.45-11.176 22.45-23.872zm-262.211 0v-.378c0-4.919 4.002-8.921 8.921-8.921h229.369c4.547 0 8.921 3.497 8.921 9.299 0 4.919-4.002 8.921-8.921 8.921-21.968 0-224.668 0-229.369 0-4.919-.001-8.921-4.003-8.921-8.921zm185.746 71.595c0 5.185-24.397 17.864-69.621 17.864s-69.621-12.68-69.621-17.864v-47.675h139.242zm52.211 17.864h-10.707v-18.721c0-2.952 2.401-5.354 5.354-5.354s5.354 2.401 5.354 5.354v18.721z"/><path d="m367.711 328.43c0-60.282-49.043-109.325-109.324-109.325s-109.325 49.042-109.325 109.325c0 39.975 21.572 75.002 53.682 94.068v42.248h-110.198c-5.503 0-9.98-4.478-9.98-9.98v-331.179c0-4.143-3.357-7.5-7.5-7.5s-7.5 3.357-7.5 7.5v331.179c0 13.774 11.206 24.98 24.98 24.98h110.198v20.633c0 9.981 11.749 15.305 19.261 8.74l33.57-29.373h.522l33.569 29.373c7.516 6.573 19.26 1.229 19.26-8.74v-20.633h33.98c4.143 0 7.5-3.357 7.5-7.5s-3.357-7.5-7.5-7.5h-33.98v-39.399c34.907-18.277 58.785-54.859 58.785-96.917zm-203.649 0c0-52.011 42.313-94.325 94.324-94.325s94.324 42.314 94.324 94.325c0 52.029-42.331 94.324-94.324 94.324-51.966 0-94.324-42.282-94.324-94.324zm129.863 103.416v61.068c-.117-.103-30.069-26.31-30.069-26.31-4.65-4.06-10.899-4.48-16.035-.007-.002.002-.004.005-.007.007l-30.07 26.312c0-10.04 0-56.573 0-62.982 12.443 4.973 26.228 7.82 40.643 7.82 12.546 0 24.779-2.199 35.538-5.908z"/><path d="m258.386 408.598c44.205 0 80.168-35.963 80.168-80.168s-35.963-80.168-80.168-80.168-80.168 35.963-80.168 80.168 35.963 80.168 80.168 80.168zm0-145.336c35.934 0 65.168 29.234 65.168 65.168s-29.234 65.168-65.168 65.168-65.168-29.234-65.168-65.168 29.235-65.168 65.168-65.168z"/><path d="m228.187 353.969h36.485c-.046 6.53-.096 12.818-.145 18.425-.035 4.164 3.329 7.564 7.501 7.564 4.112 0 7.463-3.315 7.499-7.436.028-3.345.086-10.178.146-18.554h3.81c4.143 0 7.5-3.357 7.5-7.5s-3.357-7.5-7.5-7.5h-3.709c.132-21.73.213-45.894-.053-49.088-1.032-12.371-14.268-18.151-23.24-7.146-5.005 6.141-29.918 51.15-34.862 60.111-2.752 4.991.864 11.124 6.568 11.124zm36.693-56.814c.052 8.609-.009 24.934-.109 41.813h-23.847c8.764-15.714 18.722-33.243 23.956-41.813z"/><path d="m419.469 0h-326.923c-13.774 0-24.98 11.206-24.98 24.98v63.606c0 4.143 3.357 7.5 7.5 7.5s7.5-3.357 7.5-7.5v-63.606c0-5.503 4.478-9.98 9.98-9.98h326.924c5.503 0 9.98 4.478 9.98 9.98v429.785c0 5.503-4.478 9.98-9.98 9.98h-41.563c-4.143 0-7.5 3.357-7.5 7.5s3.357 7.5 7.5 7.5h41.563c13.774 0 24.98-11.206 24.98-24.98v-429.785c0-13.774-11.206-24.98-24.981-24.98z"/></g></g></svg>